<?xml version="1.0" encoding="utf-8"?>
<!-- Generator: Adobe Illustrator 24.1.1, SVG Export Plug-In . SVG Version: 6.00 Build 0)  -->
<svg version="1.1" id="Layer_1" xmlns="http://www.w3.org/2000/svg" xmlns:xlink="http://www.w3.org/1999/xlink" x="0px" y="0px"
	 viewBox="0 0 1920 1080" style="enable-background:new 0 0 1920 1080;" xml:space="preserve">
<style type="text/css">
	.st0{clip-path:url(#SVGID_2_);}
</style>
<g>
	<defs>
		<rect id="SVGID_1_" width="1920" height="1080"/>
	</defs>
	<use xlink:href="#SVGID_1_"  style="overflow:visible;fill:#FFFFFF;"/>
	<clipPath id="SVGID_2_">
		<use xlink:href="#SVGID_1_"  style="overflow:visible;"/>
	</clipPath>
	<g class="st0">
		<g>
			<g>
				<path d="M5544.39,150.84c-113.34,38.73-185.68,136.34-237.08,240.05c-125.58,253.36-152.47,542.95-271.84,798.61
					c-43.89,93.99-106.79,190.59-208.71,227.61c-78.97,28.68-164.54,28.67-242.9-1.69c-145.09-56.2-238.85-188.15-361.2-277.57
					c-54.02-39.48-115.86-69.06-184.1-68.21c-90.13,1.12-173.38,50-244.88,100.47c-104.45,73.73-197.79,162.89-289.21,251.86
					c-104.67,101.88-206.63,206.5-311.59,308.08c-100.16,96.94-202.78,192.17-313.86,276.6c-88.2,67.04-184.47,131.72-291.39,164.43
					c-188.28,57.59-372.95-47.51-526.35-147.25c-176.24-114.59-343.99-256.23-545.89-324.03c-88.55-29.73-184.22-42.07-276.21-21.27
					c-117.08,26.47-226.5,93.07-326.22,157.26c-271.54,174.78-515.31,390.54-765.1,594.11
					c-118.36,96.46-237.77,192.26-363.77,278.66c-98.26,67.38-202.72,133-317.06,169.28c-107.4,34.09-230.3,20.86-340.07,6.74
					c-146.13-18.79-290.39-51.12-433.66-84.92c-289.32-68.25-579.58-155.75-876.64-182.98c-103.28-9.47-214.48-13.04-313.9,21.42
					c-85.01,29.46-162.87,84.27-233,139.37c-160.68,126.24-296.99,280.03-444.28,420.9c-128.97,123.35-279.96,259.92-460.84,296.06
					c-187.43,37.45-379.64-48.86-552.63-109.75c-202.45-71.25-424.46-140.99-639.41-84.63
					c-237.78,62.34-395.53,256.83-551.05,434.19c-166.24,189.58-345.57,392.62-593.97,470.51c-10.28-69.23-21.03-138.39-32-207.51
					c257.31-57.63,429.41-273.5,577.84-475.61c136.52-185.9,272.61-414.45,502.96-492.16c199.32-67.24,401.56-7.13,588.33,70.12
					c158,65.35,330.61,162.91,507.73,140.42c86.38-10.97,166.55-53.93,237.75-102.05c82.96-56.07,157.79-123.55,229.76-192.89
					c153.44-147.84,294.72-309.13,459.72-444.63c73.42-60.29,152.74-117.17,240.61-154.51c98.37-41.81,217.68-33.48,321.29-22.2
					c148.34,16.15,294.59,50.14,439.08,86.53c164.53,41.44,327.71,88.03,491.53,132.15c155.56,41.89,311.92,82.81,470.66,110.94
					c118.33,20.97,248.34,41.9,367.94,18.06c113.12-22.55,220.91-91.28,316.06-153.32c129.36-84.36,251.45-179.64,372.02-275.96
					c257.35-205.59,506.46-423.25,778.8-609.24c97.45-66.55,201.55-134.54,315.71-168.39c85.11-25.23,172.13-20.15,256.03,7.49
					c188.66,62.16,345.07,201.64,505.31,313.76c140.54,98.34,320.26,219.57,501.12,174.92c100-24.69,189.65-85.4,269.59-148.14
					c103.57-81.28,197.37-174.67,288.08-269.84c97.04-101.81,190.3-207.11,285.73-310.42c83.32-90.2,167.99-180.71,263.01-258.84
					c68.87-56.63,148.1-111.96,238.85-123.22c69.67-8.65,136.43,12.75,196.58,46.74c137.3,77.6,245.58,200.09,395.27,257.02
					c81.29,30.92,168.66,37.14,252.87,14.38c106.64-28.82,177.55-108.33,229.93-202.08c66.86-119.68,107.63-253.06,149.33-383
					c44.57-138.89,86.94-280.14,151.87-411.22c53.14-107.28,124.97-211.36,237.94-260.77C5468.94-7.77,5505.95,71.86,5544.39,150.84
					z"/>
			</g>
			<g>
				<path d="M5459.15-118.02c-116.94,37.18-194.8,133.58-251.6,238.09c-136.6,251.34-174.53,543.1-304.97,796.96
					c-47.43,92.31-113.42,185.54-215.15,221.72c-84.15,29.93-174.9,31.15-260,4.6c-155.09-48.38-268.17-169.52-403.98-251.99
					c-58.95-35.8-124.64-62.91-194.79-60.25c-87.77,3.32-165.75,50.53-233.44,102.78c-96.69,74.63-181.4,164.54-264.17,253.93
					c-93.14,100.6-183.57,203.66-277.08,303.92c-90.86,97.42-184.33,193.31-286.92,278.52c-81.01,67.28-170.6,132.74-271.87,165.53
					c-179.35,58.07-356.78-49.84-499.87-147.85c-161.78-110.8-314.41-248.74-498.98-321.16c-80.38-31.54-167.44-46.34-252.76-27.6
					c-110.31,24.23-211.56,86.91-304.71,148.27c-272.2,179.32-519.17,395.93-772.6,600.05C43.18,2286.64-81.03,2385-211.83,2473.83
					c-100.6,68.32-207.64,135.7-324.59,172.07c-109.13,33.93-234.14,16.74-344.78-0.24c-157.08-24.11-311.71-63.57-465.13-104.43
					c-314.2-83.67-627.7-187.89-950.59-233.15c-111.38-15.61-232.18-27.14-342,4.02c-88.98,25.25-172.19,86.8-243.91,143.05
					c-168.8,132.41-311.64,294.35-464.41,444.1c-72.86,71.42-148.07,141.38-231.04,201.05c-70.88,50.98-151.08,98.66-237.83,115.58
					c-174.63,34.05-347.97-60.6-503.18-126.96c-182.94-78.22-384.69-148.81-583.93-90.34c-233.16,68.42-369.04,285.26-503.06,472.18
					c-146.71,204.63-311.42,428.99-565.23,501.82c-10.81-69.47-21.84-138.91-32.92-208.34c261.48-57.47,412.95-300.27,537.66-516.35
					c63.61-110.21,123.46-223.55,198.51-326.61c65.08-89.36,144.07-170.76,249.88-209.37c188.12-68.64,375.32-1.52,544.41,85.47
					c141.26,72.67,295.11,178.93,461.74,162.79c88.34-8.56,169.93-54.53,242.17-103.39c87.86-59.43,167.38-130.61,244.25-203.42
					c164.07-155.42,316.7-324.43,495.02-464.14c77.93-61.05,162.63-119.08,255.97-153.87c106.96-39.86,237.72-22.21,347.32-5.62
					c157.86,23.9,313.03,64.77,466.6,107.76c176.67,49.46,351.92,103.8,528.03,155.17c163.71,47.75,328.4,94.44,496,126.59
					c118.6,22.75,250.84,46.27,370.68,18.71c111.42-25.63,215.46-88.9,310.43-150.17c130.64-84.27,253.62-180.2,373.77-278.66
					c244.09-200.04,472.63-420.48,725.62-609.48c87.55-65.4,181.75-131.98,286.9-165.61c79.06-25.29,158.18-20.79,236.17,6.33
					c182.04,63.3,332.71,202.37,487.81,311.88c135.8,95.88,312.52,216.25,488.03,172.36c95.39-23.85,179.56-84.98,253.43-147.57
					c96.41-81.68,182.3-175.41,265.01-270.67c87.19-100.41,170.58-204.02,256.18-305.78c77.85-92.54,157.17-185.66,248.27-265.6
					c66.72-58.55,142.5-111.39,232.45-123.5c74.43-10.02,147.54,9.53,214.96,40.21c154.73,70.41,286.92,183.64,451.46,233.7
					c89.92,27.36,185.05,32.87,276.42,8.99c109.95-28.73,185.85-106.93,243.96-201.58c149.17-242.95,200.35-532.74,338.6-781.51
					c59.81-107.62,138.54-209.61,256-256.48C5401.51-267.9,5428.94-192.48,5459.15-118.02z"/>
			</g>
			<g>
				<path d="M5407.77-372.63c-121.01,34.66-205.6,128.55-269.17,233.18c-148.81,244.94-201.64,534.54-342.84,783.09
					c-54.02,95.1-126.85,188.25-234.71,223.23c-91.49,29.67-188.66,30.19-281.51,6.43c-169.04-43.27-305.48-154.88-460.19-229.5
					c-67.13-32.38-139.91-56.42-215.35-51.6c-86.14,5.51-160.3,48.32-225.99,101.7c-91.2,74.1-169.24,164.14-245.02,253.47
					c-87.17,102.77-171.12,208.23-258.45,310.87c-81.29,95.54-165.17,189.73-258.39,273.89
					c-74.71,67.45-158.49,133.66-254.87,166.74c-174.98,60.06-352.41-49.61-491.65-145.53
					c-157.49-108.5-305.22-245.28-483.99-318.53c-74.04-30.33-154.52-45.48-233.41-26.02c-101.79,25.1-193.1,85.47-277.06,146.05
					c-251.55,181.51-474.99,400.94-712.56,599.76C41.61,2055.87-82.01,2154.73-212.86,2243.1
					c-99.42,67.15-205.54,133.44-320.95,169.22c-113.09,35.06-237.03,19.08-351.58-0.3c-165.3-27.96-327.63-72.95-488.54-119.31
					c-334.85-96.48-667.39-214.42-1011.28-275.29c-118.76-21.02-248.36-39.77-367.59-11.96c-93.79,21.88-183.14,84.96-259.04,141.68
					c-182.08,136.07-336.43,305.36-500.07,462.09c-78.02,74.72-158.2,148.16-246.31,210.95c-71.29,50.8-152.43,100.9-239.92,116.38
					c-167.2,29.59-323.79-74.84-464.29-149.54c-163.47-86.91-345.83-163.85-532.8-108.41c-234.63,69.58-349.28,325.87-459.64,522.28
					c-121.32,215.9-263.07,464-516.62,538.69c-10.96-69.45-21.95-138.89-32.91-208.34c260.88-61.88,385.68-332.13,484.14-555.62
					c53.81-122.14,102.92-247.58,170.59-362.98c54.75-93.36,127.09-186.76,231.96-225.55c179.16-66.27,353.02,11.57,504.17,107.25
					c131.82,83.44,274.31,202.39,440.25,191c90.08-6.18,174.41-52.63,248.93-100.47c94.49-60.66,180.64-133.74,264.25-208.38
					c177.87-158.79,344.95-331.98,539.17-471.43c84.33-60.55,175.3-115.79,274.81-147.33c115.14-36.49,248.66-15.32,364.77,5.27
					c170.89,30.31,338.45,78.48,504.58,127.98c180.03,53.64,358.84,111.3,538.61,165.81c164.15,49.77,329.47,98.52,498,131.32
					c120.49,23.45,251.48,44.12,373.12,17.02c112.64-25.1,216.43-86.1,311.1-150.02c122.52-82.72,235.79-178.79,344.98-278.19
					c216.81-197.37,413.02-417.7,636.1-608.1c76.09-64.94,159.48-131.84,255.31-164.81c75.01-25.8,150.97-19.72,224.99,6.48
					c85.77,30.36,163.92,80.25,238.67,131.25c82.91,56.58,162.91,117.28,245.65,174.11c139.3,95.67,322.32,217.4,500.44,171.09
					c92.23-23.98,172.55-86.26,241.9-149.12c88.88-80.56,167.14-172.45,242.35-265.64c82.83-102.64,161.6-208.45,243.25-312.02
					c73.01-92.6,148-185.74,235.98-264.73c66.44-59.65,140.87-108.5,230.7-121.69c81.86-12.02,163.79,5.01,240.82,32.55
					c177.48,63.46,336.57,170.06,520.55,217c98.59,25.15,202.05,31.69,301.71,8.54c114.05-26.5,197-101.46,262.55-195.74
					c164.38-236.43,232.03-525.83,385.37-768.93c67.55-107.09,156.42-203.78,278.02-247.39
					C5375.15-509.69,5389.87-440.67,5407.77-372.63z"/>
			</g>
			<g>
				<path d="M5407.97-604.94c-124.67,32.25-218.16,120.43-290.59,223.66c-166.06,236.69-233.88,526.76-390.24,769.01
					c-61.31,94.98-141.52,185.07-253.51,217.74c-99.41,29-204.45,27.93-305.16,6.26c-188.32-40.53-351.34-145.39-529.43-213.45
					c-77.22-29.51-159.33-50.99-242.65-44.5c-88.76,6.92-164.34,46.73-232.01,102.85c-88.59,73.47-162.93,163.74-234.46,253.36
					c-81.8,102.5-159.8,207.96-241.14,310.82c-75.37,95.31-153.23,189.52-240.89,273.9c-69.97,67.35-149.33,133.81-242.09,166.8
					c-174.59,62.1-358.11-48.68-498.74-142.33c-159.42-106.17-308.7-241.1-487.39-314.66c-70.94-29.21-148.76-45.31-224.4-25.4
					c-93.24,24.53-174.42,85.06-247.65,145.43c-103.43,85.27-198.31,180.77-293.02,275.44
					c-108.43,108.37-216.13,217.52-327.99,322.38c-108.82,102-221.38,200.89-342.75,287.81
					c-96.56,69.15-201.28,135.04-316.02,169.11c-115.34,34.25-239.26,21.32-356.05,1.57c-164.82-27.88-326.42-74.23-486.4-121.94
					c-350.04-104.39-696.6-230.97-1055.24-303.52c-124.26-25.14-260.43-49.55-386.67-24.37c-99.56,19.85-194.11,76.73-277.07,132.92
					c-198.19,134.25-367.17,307.11-544.41,466.69c-85.05,76.58-172.09,151.96-266.96,216.26
					c-75.48,51.16-161.67,103.11-253.41,116.45c-166.49,24.2-310.79-89.99-441.47-175.48c-147.82-96.71-315.56-185.19-496.65-133.18
					c-107.5,30.87-183.37,113.34-241.06,205.64c-70.26,112.41-119.03,237.29-170.86,358.8c-95.96,224.98-210.1,504.56-463.71,586.91
					c-10.82-69.25-21.58-138.51-32.3-207.78c263.56-70.13,359.04-377.98,434.37-607.41c42.78-130.27,81.12-263.63,141.14-387.33
					c46.29-95.42,113.36-198.62,218.68-235.18c178.21-61.87,342.79,30.66,482.1,135.26c127.54,95.77,263.15,223.87,433.73,219.28
					c97.15-2.62,190-48.96,272.26-97.13c102.18-59.83,196.35-132.7,288.14-207.19c195.29-158.5,381.02-331.89,594.39-466.55
					c92.43-58.33,191.61-109.85,298.27-136.22c128.24-31.7,266.01-13.98,394.23,8.5c353.33,61.95,693.56,187.81,1034.34,296.35
					c157.36,50.12,315.8,99.6,477.7,133.09c117.84,24.38,245.6,44.82,365.06,19.1c110.79-23.86,211.53-84.99,301.58-151.71
					c109.98-81.49,209.03-177.21,302.84-276.61c183.84-194.8,342.02-413.13,529.97-603.92c64.48-65.45,137.14-134.01,224.93-166.25
					c72.88-26.76,149.74-17.98,221.88,6.91c87.36,30.14,167.64,79.27,244.82,129.25c87.89,56.91,173.08,117.88,261.15,174.52
					c145.65,93.68,333.8,210.12,515.06,165.11c90.52-22.48,168.95-84.26,235.87-146.65c87.41-81.49,163.34-174.89,236.29-269.26
					c79.22-102.49,154.56-207.91,233.47-310.64c71.37-92.9,145.46-185.96,233.56-263.75c71.71-63.31,151.79-110.28,247.75-123.21
					c91.11-12.28,183.06,3.71,270.52,29.31c203.14,59.46,391.04,162.67,598.66,208.48c104.62,23.09,213.35,31.63,319.21,11.61
					c118.6-22.43,207.28-94.03,279.82-187.86c86.41-111.77,149.9-240.15,215.66-364.57c69.5-131.5,139.93-264.43,232.13-381.79
					c80.66-102.66,179.85-191.56,306.22-231.5C5420.66-723.01,5409.6-665.31,5407.97-604.94z"/>
			</g>
			<g>
				<path d="M5482.56-801.3c-128.32,29.22-232.35,109.65-316.91,207.98c-191.06,222.19-285.01,506.41-454.59,742.7
					c-67.45,93.98-153.26,182.77-268.87,212.22c-106.5,27.13-219.26,22.18-326.39,1.49c-210.96-40.73-401.91-142.2-605.64-205.93
					c-88.05-27.54-180.4-47.34-273.12-40.32c-95.14,7.21-177.61,44.99-251.33,104.64c-89.17,72.16-163.22,162.23-233.64,252.16
					c-79.41,101.41-154.26,206.29-232.2,308.82c-73.25,96.37-148.8,191.93-234.87,277.3c-67.39,66.84-144.3,132.53-235.02,164.73
					c-177.6,63.03-370.69-47.05-517.01-138.28c-167.52-104.44-324.93-238.48-509.95-311.67c-70.65-27.95-148.9-44.75-223.85-24.54
					C713,773.25,641.32,835.95,578.94,897.01c-86.94,85.11-164.28,179.82-241.86,273.35c-89.34,107.71-178.25,215.83-272.37,319.43
					c-92.38,101.69-189.56,200.01-297.17,285.7c-90.01,71.68-189.96,138.35-301.29,171.3c-112.65,33.34-233.45,20.75-347.3,0.34
					c-157.45-28.23-311.38-75.06-463.75-123c-345.61-108.75-688.2-237.18-1044.51-307.48c-133.75-26.39-278.16-49.93-413.99-25.38
					c-107.3,19.39-208.4,67.95-301.45,123.32c-216.63,128.9-404.4,301.24-598.96,459.95c-93.3,76.11-188.43,150.99-291.02,214.33
					c-83.74,51.7-178.5,103.42-277.95,113.98c-172.63,18.33-311.49-103.3-438.83-201.5c-137.93-106.36-296.54-210.76-478.78-163.06
					c-108.11,28.3-179.16,118.32-228.99,213.38c-63.08,120.32-101.29,252.64-142.33,381.57
					c-42.61,133.85-85.36,269.91-153.39,393.46c-59.12,107.37-140.33,202.35-257.99,245.53c-10.52-68.99-20.96-137.99-31.42-206.98
					c119.29-35.24,198.77-128.57,253.25-236.51c65.52-129.81,100.54-273.63,135.17-414.03c33.54-135.99,63.15-275.07,117.41-404.72
					c40.95-97.87,104.23-204.28,210.82-239.86c185.89-62.05,352.44,51.26,488.91,165.04c132.8,110.72,272.58,245.74,457.5,243.91
					c104.85-1.04,207.84-43.19,300.07-89.77c112.04-56.58,216.35-127.66,317.61-201.48c216.78-158.03,420.24-336.6,650.99-474.69
					c100.14-59.92,206.82-112.27,320.92-139.24c134.83-31.86,276.01-18.11,410.98,5.87c341.26,60.62,667.12,191.02,992.89,305.21
					c143.95,50.46,288.99,100.55,437.89,134.5c109.94,25.07,228.87,44.86,340.72,20.19c105.51-23.28,199.46-84.94,280.8-153.96
					c95.04-80.65,177.36-175.65,253.43-274.05c150.12-194.17,269.32-411.19,423.69-601.9c52.24-64.53,113.35-132.51,192.31-163.89
					c72.33-28.74,153.41-18.07,225.73,4.86c92.83,29.43,179.01,78.33,262.2,128.1c93.12,55.72,183.81,115.41,277.14,170.78
					c158.58,94.09,361.82,210.95,553.73,162.87c90.99-22.8,169.82-84.03,237.22-146.74c86.72-80.69,161.92-173.28,234.36-266.71
					c80.48-103.8,157.22-210.46,238.63-313.54c73.47-93.02,150.82-185.41,242.83-260.8c79.19-64.89,167.58-109.65,269.87-122.21
					c102.9-12.64,206.97,3.28,306.75,28.56c220.16,55.78,426.87,156.03,648.65,205.79c111.35,24.98,226.3,34.16,339.16,13.56
					c116.59-21.28,209.02-101.69,284.82-188.5c193.23-221.29,318.96-493.81,527.49-703.26c95.12-95.54,206.57-174.57,338.22-209.36
					C5534.06-903.67,5504.99-854.7,5482.56-801.3z"/>
			</g>
			<g>
				<path d="M5614.17-969.66c-132.93,25.06-248.09,96.09-346.63,186.82c-217.91,200.65-349.57,470.76-536.74,696.68
					c-74,89.31-165.65,181.98-281.29,212.9c-107.29,28.68-224.8,21.77-332.78,1.1c-224.99-43.06-433.36-145.51-653.96-204.59
					c-101.06-27.06-205.5-47.4-310.6-40.49c-101.79,6.69-193.18,41.7-275.11,102.13c-95.71,70.6-175.3,161.88-249.79,253.83
					c-80.77,99.71-156.11,203.66-234.09,305.53c-74.37,97.15-150.75,193.83-238.1,279.78c-67.8,66.72-145.13,131.37-236.15,163.2
					c-185.74,64.94-391.99-44.09-549.38-134.22C1189.86,750.11,1020,617.6,824.53,545.21c-74.19-27.47-157.06-45.12-235.14-23.58
					c-78.7,21.71-140.57,84.69-191.76,145.13c-72.61,85.74-133.64,181.12-195.12,274.92c-69.67,106.31-139,212.93-214.42,315.3
					c-75.39,102.31-156.7,201.54-250.71,287.43c-78.51,71.72-168.43,137.12-271.02,169.01c-107.51,33.42-223.37,20.35-331.79-1.59
					c-144.84-29.31-285.72-77.03-425.04-125.58c-325.2-113.33-647.74-244.71-986.25-313.85c-138.08-28.2-285.66-49.54-425.94-24.46
					c-114.5,20.47-222.37,68.49-323.11,125.39c-233.75,132.04-438.24,310.07-653.28,469.25
					c-104.48,77.34-211.67,152.41-326.61,213.57c-94.15,50.09-198.74,96.42-306.32,104.99c-380.98,30.34-559.16-505.08-948.5-419.84
					c-112.62,24.66-182.98,117.96-228.99,217.7c-57.99,125.7-87.83,263.41-120.05,397.34c-33.7,140.09-66.08,282.67-124.28,415.07
					c-49.65,112.96-122.16,218.86-240.02,267.07c-10.17-68.75-20.3-137.5-30.6-206.23c120.83-37.71,194.06-139.42,241.61-251.73
					c57.69-136.24,84.78-284.28,113.09-428.75c27.63-140.93,51.85-285.81,105.94-419.6c41.41-102.44,108.62-203.95,222.09-232.18
					c201.03-50.01,364.61,74.23,511.61,193.71c152.39,123.87,317.44,258.63,524.23,259.77c115.61,0.64,231.59-38.39,335.49-86.14
					c122.35-56.22,236.15-129.85,345.9-207.38c229.17-161.89,441.98-348.66,683.52-492.61c103.45-61.66,213.6-115.75,331.43-143.35
					c131.62-30.82,268.43-19.39,400.06,5.65c315.44,60,612.69,193.49,908.89,312.82c130.15,52.43,261.41,105,397.27,140.94
					c101.39,26.82,212.03,47.06,316.04,22.85c209.43-48.75,354-254.81,458.46-427.54C7.85,885.83,90.03,672.67,213.61,484.16
					c43.3-66.06,96.72-135.38,171.84-166.63c75.56-31.44,164.66-18.62,240.8,3.47C724.6,349.55,816.99,397,906.62,445.73
					c101.92,55.41,201.48,115.05,303.53,170.23c98.72,53.38,200.25,104.05,307.66,137.61c92.05,28.76,192.16,45.58,287.51,23.29
					c96.27-22.5,180.61-83.51,253.33-148.12c89.61-79.62,167.97-171.26,243.85-263.77c163.09-198.84,314.74-420.89,525.58-573.22
					c93.09-67.26,194.44-110.43,309.16-121.79c112.35-11.12,225.74,2.66,335.2,28.44c217.59,51.26,419.21,154.32,637.16,203.49
					c107.77,24.31,218.61,31.01,327.65,10.92c116.36-21.44,214.46-98.91,298.13-178.54c216.59-206.12,382.19-460.3,617.33-648.12
					c111.31-88.91,236.18-160.35,376.39-190.78C5688.91-1061.19,5649.91-1016.86,5614.17-969.66z"/>
			</g>
			<g>
				<path d="M5778.96-1121.73c-140.58,21.53-267.82,85.49-381.57,169.18c-242.86,178.67-414.75,429.11-626.88,639.53
					c-83.9,83.23-181.24,167.98-297.3,201.17c-106.69,30.51-226.2,23.99-333.81,2.44c-216.01-43.24-415.08-145.83-627.99-200.78
					c-108.6-28.03-220.98-45.21-333.36-39.21c-114.47,6.11-218.14,39.34-314.27,101.92c-216,140.62-371.36,360.49-531.77,557.48
					c-78.14,95.95-157.92,191.6-248.37,276.33c-73.01,68.4-155.89,133.42-252.13,165.03c-199.54,65.54-421.42-43.19-594.77-133.93
					c-194.38-101.74-380.16-232.5-589.4-302.79c-78.8-26.47-165.98-43.66-248.13-22.4c-76.45,19.78-132.83,82.9-176.69,145.05
					c-59.48,84.28-105.07,178.04-150.84,270.18C17.84,815.86-35.01,924.82-95.23,1029.85c-101.33,176.72-237.5,385.25-442.15,451.33
					c-98.09,31.67-204.44,18.55-302.88-4.47c-131.7-30.79-258.69-80.7-383.91-131.02c-294.07-118.16-585.72-252.65-896.32-322.32
					c-132.93-29.82-274.1-49.63-409.73-26.86c-120.09,20.17-233.47,70.89-338.81,130.49c-245.81,139.08-460.2,327.13-688.61,491.7
					c-110.26,79.44-224.01,155.49-346.1,215.71c-105.44,52.01-221.63,95.13-340.01,102.4c-209.48,12.87-381.86-113.44-536.93-238.03
					c-147.45-118.47-308-255.75-511.04-222.8c-118.43,19.22-194.03,103.36-241.94,208.78c-58.55,128.83-83.5,271.93-110.28,409.94
					c-28.37,146.19-53.75,295.18-106.29,435.11c-42.82,114.05-108.02,224.78-224.03,275.25c-9.86-68.64-19.81-137.26-30.15-205.82
					c123.15-37.19,193.89-143.62,238.04-258.56c53.15-138.36,76.4-286.9,102.41-432.14c25.48-142.28,50.89-289.19,112.56-421.12
					c48.41-103.54,125.66-194.48,241.23-221.06c219.19-50.41,409.18,82.42,578.49,203.09c178.18,126.99,369.63,266.01,597.68,270.01
					c262.89,4.61,509.4-151.63,714.75-299.2c233.62-167.89,447.67-363.75,692.01-516.59c106.66-66.72,221.02-125.57,344.14-154.68
					c123.62-29.23,252.45-17.78,375.45,8.97c283.44,61.65,544.71,198.66,804.51,322.77c113.98,54.45,229.14,109.39,350.01,147.01
					c90.67,28.23,189.78,47.98,284.01,25.91c196.72-46.07,312.99-253.54,390.8-422.46c47.98-104.17,87.31-211.98,127.5-319.31
					c35.27-94.2,70.18-189.93,119.56-277.87c38.6-68.76,89.94-137.5,165.95-166.93c80.83-31.3,176.17-18.27,257.68,2.96
					c107.32,27.96,209.15,75.16,308.3,124c109.91,54.14,217.66,112.55,327.54,166.76c108.66,53.6,219.91,104.41,336.56,138.13
					c98.16,28.37,203.76,45.42,305.18,24.93c103.79-20.97,196.03-80.29,277.1-146.1c97.72-79.33,184.3-171.74,269.15-264.39
					C2500.28-67.62,2677.74-288.34,2908.06-439c104.22-68.17,215.31-111.2,339.66-122.57c114.31-10.45,229.37,1.21,340.69,28.24
					c197.68,47.99,377.06,150.23,574.36,198.05c98.71,23.92,199.95,28.21,299.94,9.34c122.74-23.16,230.43-95.3,327.09-171.17
					c242.01-189.94,448.17-422.26,709.47-588.08c123.85-78.6,257.83-141.1,402.82-167.67
					C5861.61-1208.62,5819.95-1165.48,5778.96-1121.73z"/>
			</g>
			<g>
				<path d="M5953.08-1269.21c-147.58,19.16-285.44,77.22-412.56,153.07c-266.36,158.94-477.58,387.39-717.91,579.98
					c-96.19,77.08-203.69,155.16-325.08,186.1c-98.54,25.11-203.24,24.73-302.45,4.04c-196.46-40.99-373.89-144.74-567.48-196.55
					c-108.72-29.1-221.39-44.24-334.01-38.12c-121.19,6.58-231.98,39-336.74,100.53c-237.83,139.69-420.46,361.21-604.43,562.12
					c-86.36,94.31-173.63,188.69-270.75,272.14c-80.99,69.59-171.85,134.25-275.56,164.39c-214.98,62.46-450.83-44.39-641.4-135.39
					C952.6,281.8,747.99,152.3,521.85,83.73c-86.39-26.19-182.02-43.56-271.23-20.89c-76.65,19.48-131.91,79.19-172.63,144.03
					C25.15,291.01-9.9,385.97-44.33,478.69c-39.5,106.37-76.77,213.63-121.55,317.94c-74.16,172.77-180.23,384.24-370.7,450.8
					c-90.46,31.61-188.97,18.82-279.37-6.15c-117.56-32.48-229.25-84.87-338.96-137.31c-257.34-123.02-512.35-261.28-790.37-332.45
					c-124.91-31.98-257.99-51.13-386.21-28.43c-120.16,21.28-233.07,74.95-337.38,136.6c-248.81,147.04-463.75,344.77-695.5,515.96
					c-207.73,153.45-449.9,314.94-716.46,328.17c-232.73,11.55-432.73-122.11-614.54-250.62
					c-169.04-119.49-356.39-262.41-576.33-229.65c-280.14,41.73-341.73,378.01-384.88,608.21
					c-27.49,146.67-48.76,296.03-97.17,437.74c-39.77,116.42-101.97,232.21-220.24,282.82c-9.71-68.82-21.26-137.52-29.37-206.55
					c124.86-34.89,195.67-142.72,242.69-256.84c57.48-139.52,87.76-289.19,124.44-435.04c58.04-230.75,137.27-573.69,410.84-633.57
					c236.23-51.71,451.69,88.61,640.82,210.79c200.77,129.7,415.32,274.51,662.79,281.84c274.13,8.12,525.29-155.38,734.39-315.14
					c230.59-176.18,439.08-381.96,680.82-543.44c103.03-68.82,214.31-130.09,335.27-160.37c114.97-28.78,235.6-16.72,349.15,12.79
					c250.18,65.01,472.66,206.66,694.14,334.79c96.13,55.62,193.74,111.89,298.25,150.43c83.27,30.71,174.49,49.76,262.4,28.25
					C-377.82,993.89-285.06,784-226.5,617.69c36.51-103.7,64.66-210.04,95.49-315.5c27.85-95.3,56.83-192.5,104.7-280.01
					c39.93-72.98,96.59-138.05,177.23-165.82c90.9-31.29,193.52-19.44,285.08,2.19c243.49,57.54,466.91,185.8,692.2,290.29
					c206.18,95.63,447,207.18,680.34,166.08c108.06-19.04,206.34-77.84,293.5-142.02c110.2-81.14,209.43-176.55,307.03-272.14
					c206.73-202.48,408.32-423.79,659-573.25c110.7-66,227.75-108.38,356.4-120.05c107.38-9.74,215.69-0.76,320.01,26.48
					c88.54,23.12,172.56,59.17,255.21,97.92c74.33,34.85,148.42,72.09,227.79,94.27c219.29,61.28,430.98-30.19,614.09-147.2
					c268.57-171.63,510.59-381.7,793.5-531.3c134.75-71.25,277.41-128.92,428.25-154.49
					C6029.67-1358.45,5992.26-1313.2,5953.08-1269.21z"/>
			</g>
			<g>
				<path d="M6112.69-1423.81c-149.5,18.79-291.89,71.14-426.37,137.74c-290.29,143.76-538.46,352.48-808.67,528.13
					c-183.05,118.99-397.83,226.58-621.74,173.07c-78.23-18.7-151-54.05-223.18-88.6c-81.31-38.91-163.24-76.7-249.97-102.07
					c-100.27-29.33-204.75-41.77-309.1-36.09c-126.83,6.9-244.39,40.93-355.84,101.81c-256.93,140.37-462.97,362.38-670.05,565
					C2350.32-49.47,2252.01,46,2144.23,129.77c-87.73,68.19-184.55,131.43-292.95,160.57c-227.54,61.15-474.54-46.61-678.2-138.77
					C943.68,47.76,719.98-81.13,475.79-147.94c-94.86-25.95-196.94-42.53-294.41-21.35C95.48-150.64,30.41-94.09-15.28-20.78
					c-51.38,82.44-81.45,177.24-109.02,269.73c-31.18,104.59-58.08,210.43-91.97,314.21c-55.56,170.11-138.94,387.66-324.07,452.39
					c-186.88,65.35-391.04-59.93-546.73-150.01c-219.18-126.82-434.85-269.7-679.07-344.4c-114.04-34.88-236.6-54.48-355.18-33.05
					c-119.87,21.66-232.12,80.12-333.85,145.04c-245.53,156.7-454.21,364.45-682.66,543.72
					c-207.29,162.66-452.06,331.9-725.19,341.38c-249,8.64-469.94-129.03-671.57-258.51c-191.6-123.05-405.56-274.94-645.97-241.8
					c-282.96,39-376.13,355.04-439.01,590.87c-39.89,149.6-70.7,302.78-125.51,447.95c-43.57,115.39-106.86,232.55-226.34,282
					c-6.12-72.73-7.1-145.54-5.01-218.47c125.86-38.1,203.46-143.95,259.32-257.33c68-138.03,110.2-287.64,159.46-432.93
					c79.98-235.89,189.96-555.21,468.52-611.94c253.48-51.62,491.44,96.94,698.94,222.08c217.4,131.11,449.85,280.56,711.68,289.88
					c275.97,9.82,520.93-160.12,723.83-328.88c222.97-185.47,420.33-402.2,654.91-573.64c97.05-70.93,203.16-134.95,320.21-166.18
					c103.87-27.71,213.07-16.39,314.76,14.99c220.49,68.05,406,215.83,591.85,346.91c142.68,100.63,318.4,228.07,503.63,184.51
					c191.25-44.98,272.97-255.2,323.76-423.3c60.28-199.5,88.44-420.3,207.87-596.27c50.69-74.69,120.36-136.06,207.89-162.6
					c100.64-30.52,213.89-17.28,314.62,5.43C739.67-311.6,973.58-181.5,1209.5-73.98c211.1,96.22,454.24,205.48,692.11,165.41
					c115.4-19.44,221.41-79.88,316.58-145.39c116.45-80.15,223.19-173.86,328.36-268.02c228.83-204.89,452.35-428.9,722.1-580.48
					c196.41-110.37,432.84-162,653.18-96.34c71.62,21.34,137.59,55.69,201.27,94.25c56.24,34.06,111.71,71.34,174.43,92.6
					c75.39,25.55,154.85,22.41,231.81,5.56c127.77-27.97,245.64-78.94,360.77-140.27c292.16-155.63,564.07-346.41,865.39-485.38
					c138.82-64.03,283.18-118.17,433.91-145.94C6170.13-1523.23,6144.02-1472.59,6112.69-1423.81z"/>
			</g>
			<g>
				<path d="M6233.95-1597.25c-148.3,22.28-290.85,72.32-427.79,132.34c-304.84,133.61-580.14,321.01-871.53,479.78
					c-119.24,64.97-241.77,123.4-374.44,154.79c-79.41,18.79-160.43,29.86-240.25,6.89c-62.08-17.86-116.57-53.35-170.79-87.33
					c-60.48-37.91-122.24-73.39-189.96-96.81c-210.35-72.73-445.9-31.5-639.41,69.31c-272.86,142.14-498.69,364.42-725.76,567.99
					c-106.87,95.82-214.63,191.6-331.17,275.66c-96.16,69.36-201.35,133.97-317.55,162.8c-230.77,57.26-476.4-45.83-683.62-138.09
					c-238.8-106.33-471.6-236.89-725.66-304.26c-106.2-28.16-219.79-44.89-328.9-24.15c-89.99,17.1-166.33,72.59-221.96,143.82
					C-144.5-88.5-178.4,132.69-234.48,329.99c-48.14,169.36-119.45,386.93-303.14,451.78c-181.43,64.05-360.49-54.57-502.81-154.6
					c-184.61-129.76-363.47-278.64-578.23-356.45c-99.14-35.92-206.63-54.65-311.47-35.78c-117.98,21.24-227.34,84.1-324.27,152.1
					c-235.93,165.51-431.59,381.87-649.48,569.13c-198.64,170.72-437.8,350.69-710.84,359.41
					c-264.99,8.46-505.29-137.05-724.31-268.67c-208.86-125.52-443.51-282.47-699.46-251.1
					c-289.85,35.53-412.86,335.95-498.39,577.49c-50.8,143.44-93.14,290.67-155.82,429.61c-53.15,117.83-125.21,235.72-248.79,288.4
					c4.2-76.8,11.5-153.33,20.35-229.72c128.5-39.03,214.61-142,280.14-254.41c76.39-131.06,130.29-274.11,190.21-413.05
					c103.48-239.92,241.01-543.76,527.85-596.72c264.28-48.8,516.21,102.94,735.53,229.6c230.6,133.18,478.48,291.16,753.11,299.74
					c271.09,8.47,502.34-170.14,690.94-345.59c206.78-192.37,385.58-415.32,604.59-594.49c90.65-74.16,191.65-142.45,305.74-173.95
					c94.56-26.11,194.01-14.6,285.02,19.31c193.09,71.95,343.85,223.71,498.47,353.95C-914.88,499.42-752.62,619.63-565.8,573.9
					c189.51-46.39,267.1-258.54,328.46-421.41C-161.78-48.06-96.97-265.37,43.43-432.21c63.63-75.62,144.92-137.25,241.27-163.55
					c107.1-29.24,226.27-15.74,332.99,8.14c253.96,56.83,486.57,185.06,721.07,293.19c211.74,97.64,454.26,207.07,693.3,165.31
					c118.26-20.66,227.66-80.13,327.28-144.76c124.59-80.82,239.9-175.42,353.58-270.68c244.47-204.86,483.1-428.52,764.19-583.27
					c117.59-64.74,241.97-111.03,375.95-125.56c82.37-8.93,168.38-6.51,246.78,22.69c54.16,20.17,100.34,53.23,142.86,91.79
					c35.67,32.34,69.89,68.36,114.42,88.56c62.12,28.18,133.01,19.95,197.54,5.39c132.18-29.83,256.29-76.08,378.95-133.5
					c303.83-142.23,592.5-314.55,900.03-449.38c137.12-60.12,277.65-114.38,423.35-149.8
					C6258.37-1716.1,6250.94-1656.43,6233.95-1597.25z"/>
			</g>
			<g>
				<path d="M6293.02-1801.24c-142.03,31.6-279.13,82.94-412.76,139.84c-312.27,132.96-605.1,304.93-911.19,450.59
					c-123.4,58.72-248.52,110.24-381.87,141.17c-68.86,15.97-142.96,33.59-211.96,8.2c-45.08-16.59-79.1-50.65-113.08-83.21
					c-40.15-38.48-82.5-73.65-133.92-96.09c-72.21-31.51-152.91-37.57-230.71-31.87c-126.62,9.27-246.73,47.2-359.69,104.32
					c-287.17,145.22-529.66,370.11-774.12,575.57c-115.54,97.1-232.05,194.01-357.04,278.86
					c-101.03,68.59-210.47,132.46-330.11,161.7c-233.74,57.12-476.89-44.58-686.35-139.36
					c-236.28-106.92-467.18-236.26-719.75-301.71c-109.98-28.5-226.29-44.15-339.32-25.71c-98.96,16.14-186.83,72.52-255.09,144.27
					C-73.88-317.07-145.49-100.22-221.24,98.93c-62.29,163.75-134.59,387.2-318.2,450.5c-179.65,61.93-348.77-46.48-481.82-156.77
					c-155.43-128.84-300.03-281.75-487.65-364.4c-89.49-39.43-188.49-59-285.59-40.32c-110.58,21.27-211.01,84.56-298.74,152.52
					c-223.64,173.23-401.74,398.75-604.7,594.33c-184.5,177.8-412.92,370.71-682.57,377.36c-271.65,6.7-522.14-144.36-749.24-275.47
					c-222.93-128.7-474.99-291.71-744.6-260.48c-290.48,33.64-438.73,313.04-546.68,552.78
					c-63.93,141.98-119.04,288.63-194.15,425.3c-63.07,114.76-143.88,225.65-268.44,277.38c10.74-79.11,22.88-158,35.26-236.87
					c132.1-38.5,226.72-138.15,302.09-249.05c85.97-126.5,151.33-265.87,222.47-400.87c124.21-235.69,283.63-518.17,571.16-567.79
					c270.64-46.7,531.59,109.09,757.29,237.14c125.8,71.38,251.02,144.76,383.24,203.85c118.83,53.1,245.95,96.11,377.12,100.52
					c264.77,8.9,478.88-181.3,649.03-362.84c186.01-198.46,342.31-426.05,542.95-610.64c79.35-73,169.81-141.73,274.94-171.79
					c87.88-25.13,179.51-16.15,262.64,20.74c85.31,37.85,159.3,97.94,228.95,159.04c75.8,66.49,147.96,137.04,225,202.14
					c130.7,110.44,300.83,229.31,481.72,186.56c86.23-20.38,154.89-81.65,208.79-149.24c65.34-81.93,115.17-175.67,164.46-267.73
					C-87.92-277.99,17.7-492.88,188.1-652.23c77.72-72.68,170.05-131.62,274.18-157.34c110.92-27.4,230.86-16.08,341.09,8.85
					c247.11,55.89,471.94,182.19,698.79,290.26c203.9,97.14,435.98,203.75,667.72,163.51c122.61-21.29,236.25-81.07,340.71-146.39
					c131.49-82.22,253.92-178.44,374.66-275.49c255.37-205.26,504.22-429.41,792.88-587.84
					c114.48-62.83,235.54-110.04,365.62-126.81c67.7-8.73,143.68-11.35,206.49,19.94c39.18,19.52,65.55,52.13,86.29,89.78
					c17.17,31.17,31.69,67.05,62.89,87.01c50.33,32.19,122.03,16.28,175.82,3.94c130.02-29.82,253.49-75.27,375.42-129.13
					c304.9-134.67,597.3-296.03,899.23-437.05c131.78-61.55,266.08-120.85,406.99-158.26
					C6272.23-1939.4,6287.15-1870.65,6293.02-1801.24z"/>
			</g>
			<g>
				<path d="M6289.38-2031.82c-138.43,31.67-270.19,88.05-398.86,147.05c-305.29,139.98-599.73,302.67-905.89,440.78
					c-121.97,55.02-246.45,106.27-377.08,136.7c-59.44,13.84-136.99,38.45-196.02,9.4c-33.28-16.37-48.59-50.23-64.2-81.79
					c-18.02-36.42-39.03-70.49-74.13-92.76c-54.11-34.34-123.57-36.21-185.41-31.03c-123.16,10.31-240.71,50.41-350.43,106.01
					c-293.8,148.9-545.44,374.45-799.98,580.09c-122.48,98.95-246.04,197.51-377.9,283.82
					c-105.89,69.31-220.29,134.46-344.53,163.71c-225.8,53.16-453.75-40.74-655.26-134.71
					c-229.96-107.24-454.04-236.76-701.15-301.46c-111.73-29.26-229.43-44.1-344.31-26.19c-106.09,16.54-203.3,70.17-284.77,138.54
					C50.46-543.45-62.48-329.72-172.6-127.87c-51.33,94.09-102.05,189.74-165.99,276.06c-52.29,70.58-116.83,137.37-201.19,167.89
					c-176.78,63.96-357.05-50.19-489.06-157.6c-148.47-120.8-277.6-277.33-449.16-366.88c-78.88-41.17-166.35-60.02-254.65-43.33
					c-104.33,19.73-195.78,82.22-274.61,150.59c-205.34,178.07-360.26,408.26-541.65,609.09
					c-164.78,182.44-375.47,388.98-637.43,395.6c-129.64,3.28-256.93-34.65-375.38-84.37c-130.46-54.76-253.7-125.15-376.5-194.99
					c-124.86-71.01-249.86-143.57-383-198.22c-120.83-49.6-251.57-83.7-383.06-69.81c-292.68,30.91-461.59,297.13-589.94,533.12
					c-73.51,135.16-139.37,275.12-222.94,404.57c-73.17,113.33-163.15,220.41-291.81,270.84c13.66-79.86,27.3-159.72,40.01-239.74
					c132.64-36.31,233.47-129.28,316.55-235.33c94.91-121.16,170.25-256.46,250.54-387.35
					c139.46-227.35,312.13-495.93,596.07-546.15c272.6-48.21,538.39,113.76,764.82,243.41c123.6,70.77,246.5,143.69,376.13,203.08
					c112.13,51.37,232.71,95.04,357.22,99.21c250.41,8.39,439.95-189.23,585.09-369.88c163.48-203.49,296.24-434.2,480.87-620.21
					c70.01-70.53,151.12-136.47,247.16-167.06c81.08-25.82,164.92-11.75,240.75,23.71c83.99,39.28,157.99,98.21,229.14,156.83
					c81.4,67.07,160.3,137.22,244.12,201.32c141.44,108.17,328,228.54,515.09,181.31c88.47-22.34,162.74-83.4,224.88-147.65
					c77.27-79.9,142.85-170.64,208.32-260.17C15.37-501.82,163.51-711.32,363.88-864.9c92.74-71.09,197.78-129.5,312.62-155.07
					c109.85-24.46,224.56-16.84,333.62,7.86c237.51,53.8,451.07,180.04,666.68,288.12c191.94,96.21,409.96,198.91,630.42,157.92
					c122.68-22.81,236.3-81.97,341.58-146.89c133.26-82.17,257.83-177.99,380.56-274.91c262.25-207.09,516.4-434.78,808.98-599.14
					c109.93-61.76,225.98-110.17,351.49-127.97c50.84-7.21,119.64-14.86,163.61,18.98c27.89,21.47,33.51,55.92,35.45,88.94
					c1.65,28.06-1.06,64,21.25,85.13c39.1,37.03,121.49,16.54,166.57,7.04c131.84-27.76,259.16-73.12,383.36-124.75
					c304.95-126.77,590.71-292.82,886.23-439.12c125.39-62.07,253.64-121.48,389.4-157.09
					C6255.39-2168.28,6273.6-2100.38,6289.38-2031.82z"/>
			</g>
			<g>
				<path d="M6267.08-2259.93c-133.7,29.77-259.83,86.23-382.45,146.02c-295.27,143.99-578.5,311.62-880.76,441.39
					c-128.22,55.05-259.19,103.16-395.28,134.67c-53.8,12.46-139.86,38.33-191.74,4.83c-26.69-17.24-25.53-52.42-26.09-80.57
					c-0.64-31.87-1.28-67.28-24.58-91.93c-34.56-36.56-97.06-33.68-142.54-29.26c-118.01,11.47-230.03,53.49-334.31,108.36
					c-139.74,73.53-269.12,166.16-394.75,261.33c-139.31,105.53-274.28,216.6-410.97,325.47
					c-124.47,99.13-250.19,197.6-383.84,284.19c-106.96,69.31-221.95,134.72-346.65,165.59
					c-218.36,54.05-433.47-35.71-626.62-130.82c-216.09-106.41-426.3-234.17-660.89-296.62c-108.35-28.85-222.08-42.09-333.54-25.12
					c-115.99,17.66-223.83,69.81-319.38,136.47C204.63-760.77,49.48-552.93-100.44-351.72c-68.12,91.42-135.4,184.31-212.7,268.33
					C-375.59-15.51-447.66,49.83-535.72,81.82C-717.83,148-910.6,36.6-1053.61-67.62c-85.92-62.61-166.2-132.41-247.93-200.28
					c-72.77-60.42-147.19-121.63-231.04-166.24c-73-38.84-154.85-62.11-237.47-45.02c-95.07,19.66-178.53,82.64-247.58,147.93
					c-187.8,177.58-320.58,407.32-476.81,611.21c-138.86,181.21-324.22,396.78-571.05,405.79c-121.93,4.45-242-34-352.74-81.63
					c-129.9-55.87-252.47-127.37-374.85-197.78c-126.2-72.6-252.76-146.6-387.71-202.02c-119.12-48.92-248.35-83.46-378.08-69.6
					c-288.12,30.78-469.28,286.77-611.49,512.8c-82.44,131.05-158.12,267.06-250.77,391.38
					c-81.01,108.7-177.76,208.86-307.57,256.31c13.15-79.18,25.07-158.52,34.89-238.19c134.76-34.68,240.65-124.5,329.85-227.98
					c98.89-114.71,180.17-243.53,265.14-368.51c146.55-215.56,324.24-476.54,599.16-529c124.27-23.72,250.58,4.38,366.6,49.71
					c130.05,50.8,251.33,122.03,371,193.24c118.54,70.54,236.04,143.79,360.38,203.87c100.28,48.45,208.91,90.23,321.62,92.62
					c234.72,4.97,403.21-207.87,528.43-379.86c145.38-199.68,264.63-422.78,434.36-603.76c64.35-68.61,139.93-133.07,230.69-162.85
					c78.2-25.65,159.93-7.87,233.24,24.58c89.94,39.81,171.21,98.15,250.5,155.61c90.48,65.57,179.35,133.43,272.63,195.05
					c159.51,105.36,364.8,222.93,563.66,175.27c96.1-23.03,180.19-83.17,254.36-146.14c93.28-79.2,177.15-169.08,261.1-257.89
					c186.02-196.79,373.5-398.72,601.67-547.75c103.97-67.91,217.78-125.34,339.82-151.81c107.86-23.39,217.62-19.79,324.9,5.06
					c221.61,51.34,417.62,175.37,615.59,282.04c177.41,95.59,378.35,194.68,585.69,154.43C2539-810.79,2651.94-871.34,2756.63-937
					c134.41-84.3,260.12-182.14,383.86-281.17c257.94-206.43,506.62-433.85,791.66-603.19c100.13-59.49,205.29-107.89,321.15-125.7
					c36.51-5.61,101.8-18.1,127.9,18.19c17.82,24.77,12.05,62.22,13.31,90.85c1.54,35.19,8.72,71.57,37.86,94.59
					c49.87,39.4,128.71,27.68,185.87,16.5c133.6-26.14,261.61-64.58,387.12-117.62c291.17-123.04,555-297.68,829.78-451.82
					c117.38-65.85,238.28-128.75,368.49-165.04C6225.64-2394.53,6247.06-2327.45,6267.08-2259.93z"/>
			</g>
			<g>
				<path d="M6233.38-2485.55c-128.68,30.11-247.98,89.86-362.95,153.55c-273.8,151.7-533.42,328.26-820.27,455.78
					c-128.12,56.96-258.9,100.66-396.3,128.43c-64.79,13.1-147.13,32.54-208.41-3.8c-33.32-19.76-46.34-54.74-50.04-91.64
					c-3.06-30.55,2.72-67.21-11.55-95.48c-18.97-37.61-72.08-32.48-106.85-28.39c-108.21,12.74-208.19,53.25-302.68,106.24
					c-135.17,75.8-260.05,169.6-381.91,264.88c-135.81,106.18-267.95,216.94-401.94,325.38c-125.17,101.3-251.76,201.78-386.3,290.5
					c-106.37,70.14-220.92,137.31-345.44,169.01c-206.1,52.47-403.92-32.45-583.51-127.61
					c-198.02-104.92-390.03-230.53-608.16-290.46c-104.38-28.68-213.85-40.02-321.15-22.17c-122.05,20.3-236.17,70.42-341.65,134
					C369.77-975.95,176.45-776.04-11.88-579.97c-87.01,90.58-173.18,182.62-267.42,265.83c-75.58,66.74-159.15,131.28-255.97,163.45
					c-195.02,64.79-403.58-42.45-565.21-144.05c-95.65-60.12-186.35-127.58-277.79-193.8c-81.83-59.26-164.6-119.74-255.44-164.67
					c-72.16-35.69-153.56-61.7-234.53-45.07c-89.82,18.45-168.31,80.7-231.72,143.84c-173.14,172.39-291.47,394.55-431.34,592.83
					c-70.82,100.39-146.41,199.88-238.56,281.84c-78.74,70.03-171.83,126.69-279.31,132.61c-109.89,6.05-217.82-29.95-316.72-74.59
					c-123.79-55.87-239.85-127.79-356.09-197.57c-120.14-72.13-240.89-145.2-369.95-200.51c-114.82-49.2-240.64-85.2-366.63-70.47
					c-277.48,32.44-462.47,285.47-609.41,497.75c-86.61,125.13-167.9,254.67-264.59,372.46
					c-87.15,106.17-189.27,202.91-321.43,248.31c9.42-77.12,16.48-154.42,20.2-232.03c134.36-33.36,242.01-120.76,333.51-221.43
					c99.22-109.16,182.26-232.02,267.59-351.98c82.12-115.44,165.75-231.55,266.36-331.85c85.22-84.96,186.95-161.51,306.32-188.81
					c113.35-25.92,230.46,2.87,335.95,45.49c122.92,49.67,236.9,119.6,349.46,188.9c108.35,66.71,215.96,135.71,330.48,191.57
					c97.22,47.42,203.38,87.64,313.01,87.64c222.72-0.01,378.83-214.36,492.88-379.83c131.1-190.21,238.58-402.23,396.31-572.73
					c59.57-64.39,129.88-123.72,214.42-151.5c81.2-26.68,167.2-7.1,244.44,23.31c98.05,38.61,188.99,94.35,278.45,149.41
					c104.63,64.39,208,130.91,315.24,190.93c181.14,101.39,408.2,215.72,622.19,166.86c102.65-23.44,195.33-80.22,280.26-140.52
					c109.54-77.77,211.18-166.36,312.68-254.15c223.75-193.52,447.79-392.42,704.91-541.27
					c110.67-64.07,229.12-120.24,354.77-147.23c103.26-22.18,206.14-21.32,308.79,3.96c202.62,49.92,377.47,171.71,554.86,276.09
					c161.52,95.05,343.81,188.46,536.82,147.66c116.2-24.57,222.65-85.73,320.92-150.29c131.11-86.12,253.12-185.57,373.35-286.06
					c128.31-107.23,253.85-217.72,381.71-325.48c117.74-99.23,237.3-198.19,366.95-281.69c90.68-58.41,186.71-105.41,292.74-127.94
					c41.59-8.84,94.31-15.79,125.85,19.63c25,28.08,33.05,69.07,46.47,103.18c18.04,45.82,44.06,88.01,86.5,114.89
					c64.31,40.73,146.56,39.85,219.08,28.09c134.24-21.76,261.61-62.21,384.8-119.78c269.34-125.88,501.6-311.7,748.02-475.04
					c104.33-69.15,213.09-134.59,333.4-171.67C6188.33-2618.82,6211.12-2552.28,6233.38-2485.55z"/>
			</g>
			<g>
				<path d="M6193.82-2709.89c-119.71,30.62-227.78,92.68-330.45,159.86c-245.6,160.68-472.57,348.83-736.62,480.22
					c-124.02,61.71-252.58,107.68-389.03,132.08c-78.85,14.1-164.96,22.94-238.88-15.3c-46.75-24.19-78.34-65.27-99.71-112.42
					c-16.16-35.64-25.14-77.04-48.7-108.84c-26.31-35.52-69.05-38.07-109.76-32.04c-100.12,14.82-195.32,58.96-280.9,111.17
					c-125.77,76.74-240.94,170.55-353.78,264.85c-130.21,108.83-257.27,221.37-386.76,331.04
					c-119.2,100.95-239.98,200.98-368.4,290.09c-101.61,70.51-211.62,139.52-332.13,172.19
					c-191.79,51.98-372.88-29.22-536.38-124.14c-175.58-101.94-344.85-223.69-541.75-281.79c-98.27-29-201.11-39.02-302.43-21.27
					c-124.12,21.74-240.79,70.21-351.22,129.93C524.74-1192.49,296.25-995.48,70.87-802.69
					C-33.95-713.03-138.29-622.18-249.48-540.4c-87.04,64.02-180.79,125.84-285.16,157.27c-211.37,63.65-438.32-39.4-621.95-137.44
					c-107.77-57.54-211.4-122.32-315.47-186.19c-94.52-58-189.71-117.32-291.71-161.47c-76.18-32.98-162.07-59.71-245.63-43.05
					c-86.13,17.17-160.96,75.11-221.4,136.04c-161.2,162.49-268.17,373.65-394.8,562.18c-64.42,95.91-133.14,190.95-217.04,270.95
					c-72.43,69.06-158.5,128.93-260.72,137.32c-107.26,8.8-213.33-25.18-309.9-68.8c-114.41-51.68-221.25-118.83-327.85-184.68
					c-113.11-69.88-226.48-141.23-348.19-195.43c-104.75-46.65-221.29-82.89-337.14-67.06c-119.05,16.27-223.68,87.67-309.59,167.96
					c-102.51,95.8-186.85,209.62-268.4,323.2c-88.02,122.61-172.13,248.98-271.6,362.83c-88.3,101.06-190.58,192.34-319.95,235.31
					c2.64-73.8,1.79-147.47-3.79-221.12c127.65-32.33,230.51-115.5,317.99-210.96c97.38-106.26,178.8-226.02,259.84-344.83
					c79.48-116.51,158.05-235.2,252.85-340.07c72.72-80.44,163.22-163.51,271.93-189.03c107.33-25.2,220.06,3.52,319.7,44.27
					c114.19,46.7,220.19,111.56,325.15,175.78c103.3,63.2,206.11,128.36,315.77,180.18c94.93,44.86,198.35,81.13,304.68,79.05
					c212-4.13,358.03-206.38,466.01-365.54c120.47-177.54,219.53-375.77,367.53-532.98c58.61-62.26,128.49-118.34,211.72-142.87
					c86.14-25.39,177.47-5.78,260.42,22.22c110.57,37.32,215.17,91.49,318.47,145.17c118.13,61.38,235.22,124.81,355.43,182.09
					c116.03,55.29,235.39,106.19,359.9,139.14c105.61,27.95,218.66,44.14,326.61,19.86c110.36-24.83,211.75-80.48,306.93-139.9
					c121.08-75.59,235.72-161.25,349.98-246.63c250.6-187.28,499.65-380.97,774.54-532.02
					c195.33-107.33,418.84-207.02,644.85-147.93c182.11,47.61,334.12,166.62,488.88,268.02c147.19,96.44,314.9,186.09,496.32,144.27
					c112.46-25.92,214.8-88.06,308.81-152.84c124.63-85.87,240.33-184.37,353.49-284.62c122.72-108.72,242.21-221.01,364.01-330.75
					c109.79-98.92,221.19-197.73,342.83-282.03c85.83-59.48,178.68-110.31,281.63-132.43c52.73-11.33,104.85-7.61,147.45,28.03
					c40.3,33.72,67.78,81.25,99.2,122.69c40.44,53.32,87.19,101.97,146.13,134.84c79.83,44.52,172.75,55.32,262.55,44.4
					c128-15.56,250.05-60.53,363.3-121.1c246.72-131.95,443.07-332.05,658.49-506.57c92.16-74.66,190.2-144.75,303.33-183.5
					C6148.62-2842.56,6171.11-2776.18,6193.82-2709.89z"/>
			</g>
			<g>
				<path d="M6153.93-2934.15c-113.55,31.78-211.96,98.04-303.28,170.82c-213.27,169.98-401.71,370.01-638.97,508.63
					c-114.4,66.84-237.62,117.69-368.79,139.2c-94.31,15.47-191.8,11.42-279.16-30.44c-63.46-30.42-115.22-78.19-159.29-132.37
					c-34.76-42.73-64.02-91.36-104.39-129.21c-38.25-35.86-85.01-49.04-136.77-42.21c-95.31,12.58-186.44,59.3-265.98,110.91
					c-120.53,78.21-229.74,173.67-336.62,269.25c-124.01,110.9-244.83,225.31-368.5,336.59
					c-114.01,102.59-230.16,203.67-354.65,293.48c-95.79,69.1-199.79,137.08-314.38,170.03c-179.09,51.5-345.62-22.46-494.81-118.33
					c-154.99-99.6-302.31-220.22-480.41-276.69c-90.24-28.61-185.5-36.85-278.66-18.31c-122.84,24.44-238.5,74.66-349.11,132.34
					c-277.89,144.9-529.21,336.66-779.97,523.04C22.74-940.12-94.61-852.19-217.6-772.77c-97.76,63.13-201.38,124.36-314.13,156.31
					c-228.97,64.9-476.43-36.22-682.62-130.25c-122.7-55.95-241.95-119.03-361.67-180.99c-106.9-55.33-214.43-111.55-327.53-153.34
					c-84.57-31.25-179.31-58.02-269.85-39.85c-81.96,16.44-153.31,66.34-212.32,123.64c-152.3,147.86-251.4,344.99-367.33,520.42
					c-61.51,93.09-127.06,185.48-207.59,263.28c-70.28,67.89-152.72,125.17-252.37,133.68c-102.6,8.76-204.12-20.85-297.35-61.34
					c-109.85-47.71-212.27-111.03-314.22-173.4c-105.67-64.65-211.34-130.9-324.63-181.63c-99.81-44.69-210.77-79.36-321.28-64.61
					c-112.44,15.01-206.32,93.08-281.59,172.97c-94.02,99.79-171.15,214.53-247.84,327.72
					c-81.12,119.73-160.94,241.41-256.16,350.62c-85.66,98.25-184.34,188.03-309.79,230.56c-7.16-69.86-19.1-137.79-40.47-204.78
					c119.99-30.63,214.22-112.86,292.6-205.54c91.31-107.97,164.89-230,238.41-350.36c71.72-117.42,142.2-236.81,227.82-344.85
					c62.97-79.46,146-173.26,248.23-200.87c104.47-28.21,220.94,2.49,318.32,41.35c110.19,43.96,212.83,105.06,314.68,165.3
					c180.54,106.78,382.76,242.66,601.61,235.67c47.19-1.51,93.01-9.48,135.71-30.06c43.08-20.76,82.45-48.73,118.42-80.1
					c77.28-67.41,140.25-150.04,198.56-233.89c114.47-164.59,209.68-349.38,352.85-491.92c58.07-57.81,126.4-107.05,206.06-129.63
					c93.67-26.56,192.36-9.04,284.16,16.88c123.6,34.89,242.18,86.83,359.4,138.7c135.99,60.17,270.89,122.87,408.46,179.41
					c128.9,52.98,260.57,101.89,396.6,133.23c109.42,25.21,226.27,41.16,337.29,16.65c114.59-25.29,221.02-80.03,322.09-138.07
					c130.22-74.77,254.74-159.25,378.6-243.97c266.39-182.21,529.33-372.13,811.85-529.07c176.46-98.02,381.43-210.51,589.04-154.28
					c170.49,46.18,309.38,169.12,452.42,266.54c139.95,95.32,304.17,186.33,479.03,144.06c110-26.59,208.34-87.46,299.08-153.22
					c119.75-86.79,229.8-186.6,337.07-288.16c116.45-110.25,229.33-224.17,344.56-335.68c103.58-100.24,208.72-200.56,324.75-286.46
					c127.8-94.6,303.51-193.03,454.96-93.22c60.59,39.93,110.71,94.54,163.43,143.85c66.32,62.04,137.16,120.05,218.88,160.72
					c96,47.77,202.92,68.16,309.75,57.59c122.21-12.09,239.31-64.37,341.37-130.67c218.94-142.25,374.12-353.74,556.48-536.07
					c80.24-80.23,168.52-154.4,276.16-194.21C6111.69-3067.09,6132.37-3000.49,6153.93-2934.15z"/>
			</g>
			<g>
				<path d="M6119.23-3159.55c-109.24,32.27-199.27,101.9-279.79,180.44c-183.67,179.15-332.34,392.63-544.16,542.09
					c-99.59,70.27-212.85,126.36-333.89,146.74c-108.71,18.3-221.56,2.33-322.17-42c-84.66-37.31-159.02-93.15-227.68-154.46
					c-56.76-50.68-109.43-107.1-171.04-152.08c-52.62-38.41-111.94-62.36-177.93-57.34c-95.57,7.27-185.35,56.7-262.56,110.13
					c-115.24,79.74-218.35,176.77-319.19,273.61c-115.12,110.55-227.04,224.36-341.91,335.18
					c-110.11,106.23-222.59,211.04-344.47,303.78c-91.62,69.72-192.17,138.44-303.97,170.75
					c-364.38,105.29-616.78-291.05-929.34-394.96c-79.75-26.51-164-32.32-246.19-13.72c-112.89,25.56-220.01,80.7-321.27,135.08
					c-282.84,151.92-545.35,339.79-809.85,520.85c-126.73,86.75-253.76,173.55-385.81,252.08
					c-104.04,61.87-213.26,122.22-330.7,154.37c-108.34,29.66-219.78,22.6-329.04,1.24c-135.74-26.53-267.29-72.71-395.69-123.38
					c-260.47-102.79-509.84-238.69-777.3-323.08c-94.41-29.79-199.31-56.09-298.61-37.01c-81.07,15.58-152.68,58.93-213.3,113.73
					c-147.59,133.42-243.61,316.99-354.21,479.74c-104.72,154.11-244.03,353.28-446.25,372.31
					c-217.07,20.42-421.99-110.61-600.74-216c-102.55-60.46-205.05-122.57-314.69-169.57c-98.06-42.04-206.25-73.36-313.81-58.23
					c-105.31,14.82-190.01,100.75-255.1,178.59c-87.37,104.48-157.73,222.43-228.15,338.6
					c-73.92,121.95-146.54,245.86-235.15,357.94c-75.98,96.11-166.46,185.38-284.44,226.19c-24.33-65.17-55.36-126.87-91.06-186.53
					c113.51-30.17,198.42-116.49,267.69-207.28c87.55-114.76,156.67-242.87,226.38-368.86c67.25-121.53,133.43-244.81,214.77-357.7
					c33.23-46.12,69.28-90.74,110.92-129.58c34.2-31.9,77.24-67.38,123.56-79.36c101.63-26.28,215.26,0.88,311.11,36.26
					c110.1,40.64,213.02,98.6,315.21,155.67c180.53,100.81,379.49,223.57,594.32,214.1c96.79-4.27,178.9-42.46,253.42-102.97
					c75.12-60.99,137.27-136.67,194.88-213.93c113.93-152.78,210.33-325.31,353.23-453.97c60.84-54.78,131.36-98.82,211.04-119.8
					c101.74-26.79,207.94-10.74,308.55,13.5c138.59,33.39,272.77,84.55,405.52,135.84c146.53,56.61,292.04,115.9,439.57,169.9
					c138.95,50.86,280.05,98.35,424.92,129.36c111.23,23.81,231.82,41.96,344.57,17.26c115.4-25.28,223.66-82.28,325.78-139.81
					c132.84-74.84,261.36-157.92,388.26-242.35c263.58-175.35,517.19-366.65,787.02-532.46c161.46-99.22,355-218.18,551.59-162.46
					c166.77,47.27,303.84,171.4,443.94,267.6c140.96,96.79,310.58,195.95,488.08,152.91c106.86-25.91,201.63-87.8,287.93-153.88
					c114.34-87.55,218.35-188.25,319.39-290.59c112.16-113.6,220.35-231.01,331.16-345.91c97.47-101.07,196.62-202.36,307.36-289.1
					c79.04-61.91,168.21-120.31,270.23-131.93c80.19-9.14,156.33,15.57,225.42,54.81c84.21,47.83,159.15,110.92,236.14,169.18
					c88.79,67.2,180.72,131.42,281.97,178.59c108.45,50.52,227.56,80.18,347.73,70.7c116.04-9.15,226.26-66.89,316.51-137.78
					c197.36-155.02,314.19-380.95,471.5-571.45c70.58-85.47,152.26-162.13,257.54-201.61
					C6082.74-3293.78,6100.25-3226.49,6119.23-3159.55z"/>
			</g>
			<g>
				<path d="M6095.27-3387.3c-107.96,31.33-193.12,102.33-265.38,186.3c-160.8,186.86-271.3,413.94-460.26,576.84
					c-85.96,74.1-190.4,136.13-303.54,156.05c-118.92,20.94-245.32-6.67-355.1-52.66c-105.15-44.06-200.87-107.19-292.4-174.5
					c-80.86-59.47-158.54-124.39-244.35-176.8c-68.62-41.91-144.61-74-226.41-71.62c-98.88,2.88-186.81,52.46-264.67,109.67
					c-110.2,80.97-207.63,179.1-302.69,276.94c-110.68,113.92-217.92,231.13-328.47,345.19
					c-101.72,104.95-205.88,208.51-319.6,300.57c-87.24,70.62-183.58,140.39-292.15,173.6c-178.22,54.52-346.38-29.54-492.45-126.83
					c-143.87-95.83-279.38-220.71-445.08-278.08c-74.17-25.68-152.29-31.74-228.51-11.53c-109.21,28.96-209.3,82.98-305.76,140.65
					c-267.93,160.19-517.24,350.69-775.63,525.43c-129.11,87.31-260.13,171.61-394.69,250.29
					c-105.67,61.79-216.39,123.12-334.89,156.53c-108.28,30.52-222,20.58-331.32,0.6c-143.55-26.24-283.45-71.02-420.82-119.51
					c-287.05-101.34-565.57-234.07-860.12-312.98c-103.52-27.73-216.96-52.06-324.01-31.03c-81.46,16-155.2,54.78-219.04,107.24
					c-146.89,120.71-244.82,291.81-355.84,443.34c-107.25,146.37-243.48,318.22-436.88,339.38
					c-213.18,23.32-414.56-93.07-593.86-192.59c-102.91-57.12-205.6-116.15-315-160.18c-98.44-39.62-205.65-67.64-312.38-53.53
					c-103.49,13.68-183.39,107.39-243.04,185.82c-83.22,109.41-149.41,231.22-215.58,351.33c-70.44,127.87-138.99,257.97-223.97,377
					c-67.54,94.61-149.03,187.84-260.73,229.35c-38.97-60.24-81.84-117.57-126.87-173.39c110.97-33.22,189.92-128.23,253.49-220.1
					c81.94-118.41,147.28-247.78,213.7-375.24c67.04-128.65,133.27-258.92,215.25-378.9c33.85-49.54,70.65-97.66,113.74-139.59
					c33.04-32.15,75.99-70.4,122.07-81.18c102.96-24.09,216.58-0.16,314.57,33.06c108.6,36.81,210.87,90.02,312.42,142.66
					c182.89,94.82,381.06,206.3,594.16,194.52c195.7-10.82,338.21-149.75,456.95-292.67c118.09-142.14,220.91-302.61,366.84-418.84
					c65.97-52.54,140.87-93.25,222.82-114.32c110.13-28.32,225.32-12.5,334.86,11.09c148.29,31.94,292.75,80.91,435.83,130.69
					c155.82,54.22,310.69,111.12,466.87,164.31c145.36,49.51,292.24,97.45,442.7,129.12c109.9,23.13,228.08,41.12,339.36,16.79
					c114.83-25.11,222.73-80.16,324.28-137.71c131.28-74.4,256.16-159.85,378.35-248.21c245.74-177.69,477.81-374.49,728-545.98
					c149.81-102.68,328.32-221.04,517.54-166.56c82.24,23.67,157.29,68.34,228.32,115.01c80.86,53.13,158.23,111.34,238.54,165.27
					c145.17,97.48,323.4,203.05,505.45,160.1c103.61-24.45,195.25-88.62,276.9-154.41c111.34-89.73,211.37-193.18,308.35-297.96
					c105.93-114.45,207.86-232.51,312.65-348.01c92.38-101.82,186.58-203.82,292.96-291.34c79.98-65.8,169.76-126.68,275.98-133.76
					c97.05-6.47,190.47,27.31,275.39,71.31c221.43,114.72,410.69,282.34,639.95,383.95c118.1,52.34,248.26,89.48,378.56,77.24
					c110.14-10.35,211.96-72.65,290.63-147.57c175.59-167.22,258.84-401.63,397.53-595.86c66.17-92.67,147.85-171.49,257.18-209.39
					C6067.01-3523.97,6080.16-3455.46,6095.27-3387.3z"/>
			</g>
		</g>
	</g>
</g>
</svg>
