<?xml version="1.0" encoding="utf-8"?>
<!-- Generator: Adobe Illustrator 24.1.1, SVG Export Plug-In . SVG Version: 6.00 Build 0)  -->
<svg version="1.1" id="Layer_1" xmlns="http://www.w3.org/2000/svg" xmlns:xlink="http://www.w3.org/1999/xlink" x="0px" y="0px"
	 viewBox="0 0 1920 1080" style="enable-background:new 0 0 1920 1080;" xml:space="preserve">
<style type="text/css">
	.st0{clip-path:url(#SVGID_2_);}
</style>
<g>
	<defs>
		<rect id="SVGID_1_" width="1920" height="1080"/>
	</defs>
	<use xlink:href="#SVGID_1_"  style="overflow:visible;fill:#FFFFFF;"/>
	<clipPath id="SVGID_2_">
		<use xlink:href="#SVGID_1_"  style="overflow:visible;"/>
	</clipPath>
	<g class="st0">
		<g>
			<g>
				<path d="M5955.53,3302.77c-117.48-0.78-216.89,56.44-300.38,135.35c-189.47,179.09-297.58,428.83-493.41,601.89
					c-80.71,71.33-179.64,122.76-289.9,116.72c-131.21-7.19-255.81-76.37-364.69-144.54c-281.71-176.36-523.79-408.14-796-597.92
					c-181.59-126.6-426.29-284.7-647.49-160.32c-89.79,50.49-161.6,128.84-226.14,207.75c-71.75,87.73-136.29,181.02-205.14,270.97
					c-111.57,145.77-257.2,326.89-459.03,326.39c-103.17-0.25-205.68-28.38-302.3-62.37c-116.15-40.85-227.99-93.28-338.3-147.67
					c-218.66-107.81-432.67-230.78-663.21-312.18c-173.66-61.32-356.26-88.75-531.21-17.98
					c-159.22,64.41-292.2,178.68-432.72,274.52c-138.38,94.38-289.46,174.79-461.48,169.54c-205.68-6.27-403.63-61.99-599.05-122.81
					c-397.26-123.64-811.61-305.14-1235.64-223.68c-364.7,70.06-706.2,285-1089.73,215.42c-248.21-45.03-471.77-190.67-686-315.92
					c-115.89-67.75-232.29-135.65-354.74-191.03c-109.96-49.73-226.11-89.58-347.46-96.13c-107.84-5.81-208.42,13.03-304.59,63.22
					c-95.88,50.03-178.76,121.02-259.71,191.84c-81.41,71.23-162.18,145-255.24,201c-96.85,58.29-203.03,89.06-316.41,83.17
					c1-113.75,1.99-227.49,2.94-341.24c109.96,2.52,207.61-37.08,291.16-107.51c82.08-69.19,146.91-156.35,213.25-240
					c64.28-81.04,130.87-163.45,215.52-224.27c84.58-60.77,181.24-88.2,285.07-81.97c119.92,7.19,233.33,53.11,338.03,109.55
					c113.69,61.29,219.74,135.78,325.33,209.84c194.5,136.41,400.21,295.79,638.52,343.36c196.73,39.27,400.16-12.38,585.27-77.85
					c180.29-63.77,355.5-144.81,542.8-186.93c93.33-20.99,187.38-29.85,282.92-25.37c108.26,5.08,213.92,27.94,318.17,56.74
					c257.41,71.13,505.63,172.31,757.22,260.99c210.31,74.13,429.44,152.35,654.59,158.29c187.08,4.94,357.48-96.05,508.43-195.72
					c162.81-107.51,318.67-234.63,500.53-309.33c80.13-32.92,163.58-51.42,250.42-47.41c99.41,4.59,194.31,31.9,286.11,69.28
					c223.59,91.04,426.56,226.9,635.94,345.4c103.38,58.51,208.67,114.87,319.2,158.81c94.26,37.47,194.9,67.4,297.17,67.57
					c205.89,0.35,366.52-180.44,491.32-322.62c76.88-87.58,150.04-178.47,229.58-263.69c71.26-76.35,149.08-151.91,242.57-200.49
					c90.59-47.08,185.9-54.39,283.64-25.8c123.24,36.06,233.84,110.2,335.75,186.23c249.21,185.91,465.49,414.77,726.01,585.76
					c106.75,70.06,230.62,138.14,361.37,142.38c109.4,3.55,206.04-49.33,283.88-122.5c184.16-173.1,280.02-418.95,461.16-594.85
					c82.53-80.14,181.72-134.66,298.97-133.16C5957.44,3075.26,5956.46,3189.02,5955.53,3302.77z"/>
			</g>
			<g>
				<path d="M5955.47,2928.18c-116.99-0.54-215.51,54.75-297.3,135.24c-179.25,176.4-273.55,422.09-457.34,594.36
					c-77.82,72.94-174.62,124.81-283.77,120.28c-130.43-5.42-253.29-73.49-359.49-144.07
					c-257.35-171.03-470.28-399.35-716.91-584.38c-100.65-75.51-210.19-149.03-332.39-184.09
					c-97.79-28.06-192.95-19.21-283.22,27.88c-94,49.03-172.6,124.59-244.85,200.95c-80.47,85.06-154.76,175.68-232.82,262.91
					c-126.8,141.7-289.46,320.54-496.13,318.69c-102.37-0.92-202.77-31.5-296.85-69.74c-110.15-44.77-214.97-101.95-317.87-161.22
					c-208.01-119.82-409.68-257.04-632.53-348.62c-91.37-37.55-185.79-64.69-284.86-69.03c-87.41-3.83-171.79,16.19-252.2,49.64
					c-184.46,76.74-343,205.45-508.79,314.32c-153.09,100.53-325.25,202.06-514.56,196.99c-227.75-6.1-450.6-88.36-662.86-164.15
					c-254.83-90.99-506.32-194.48-767.23-267.32c-104.89-29.28-211.2-52.52-320.21-57.7c-95.7-4.54-190.3,5.49-283.6,27.08
					c-188.29,43.57-364.25,126.12-545.54,190.97c-185.23,66.26-389.95,119.29-586.98,78.3c-237.04-49.31-440.33-210.4-632.79-348.07
					c-193.68-138.55-410.5-306.43-657.88-320.53c-474.2-27.03-527.3,678.81-990.93,666.54c0.98-113.78,1.91-227.56,2.83-341.34
					c234.69-3.48,333.26-242.67,421.5-423.08c84.46-172.67,198.13-391.78,423.56-376.09c113.64,7.91,219.54,60.55,312.88,122.74
					c101.97,67.94,194,149.74,285.49,230.88c167.17,148.25,346.39,325.01,570.45,379.52c199.99,48.65,416.08-27.07,599.44-102.87
					c190.09-78.58,373.78-176.29,572.84-231.28c94.28-26.05,193.32-42.62,291.42-37.28c119.73,6.51,238.72,42.37,352.15,78.85
					c299.06,96.19,586.88,224.91,878.83,340.12c136.07,53.7,273.08,105.93,413.1,148.51c104.86,31.89,216.33,63.65,326.8,64.69
					c98.53,0.93,195.35-29.95,284.71-69.09c104.64-45.83,203.08-104.98,299.29-166.21c196.54-125.1,386.07-270.46,601.59-362.26
					c86.87-37,180.96-65.01,276.31-60.95c96.67,4.12,190.05,39.36,276.02,81.61c214.14,105.23,401.94,258.18,598.06,392.26
					c96.64,66.07,195.62,130.1,301.39,180.72c89.45,42.81,187.12,78.08,287.38,79.6c100.12,1.52,195.19-38.71,279.13-90.27
					c98.59-60.57,186.44-137.55,271.35-215.66c90.88-83.6,178.58-170.69,271.6-251.95c83.97-73.35,173.61-145.07,276-191.06
					c92-41.32,190.02-53.37,287.4-23.92c110.72,33.49,207.51,104.86,294.73,178.66c211.6,179.03,386.02,400.69,610.85,564.38
					c95.85,69.79,207.9,132.7,329.29,136.57c105.71,3.37,197.49-47.27,269.99-121.05c169.29-172.29,244.53-414.78,410.94-589.53
					c77.03-80.89,171.88-133.35,285.53-131.73C5957.45,2700.66,5956.45,2814.42,5955.47,2928.18z"/>
			</g>
			<g>
				<path d="M5955.5,2553.57c-113.17-0.7-207.08,52.58-283.06,133.73c-164.1,175.28-237.36,417.44-405.99,588.93
					c-72.38,73.6-164.13,123.04-269.5,118.81c-120.58-4.84-231.2-67.79-325.9-137.93c-220.99-163.68-391.32-384.56-599.76-562.58
					c-85.76-73.24-181.31-143.93-290.83-176.4c-97.54-28.91-196.02-15.42-287.9,25.78c-103.28,46.31-194.07,117.96-279.37,191.27
					c-94.28,81.02-183.4,167.78-275.73,250.96c-86.16,77.62-175.32,154.04-275.08,213.85c-84.9,50.91-180.83,90.32-281.4,87.91
					c-100.28-2.4-197.63-38.58-286.71-82.23c-105.34-51.62-203.78-116.56-299.9-183.48c-194.67-135.53-381.11-289.97-594.56-395.85
					c-85.35-42.34-178.67-77.98-274.94-81.33c-96.38-3.36-191.54,26.02-279.14,63.75c-218.56,94.11-411.2,241.22-611.16,367.93
					c-97.59,61.84-197.45,121.56-303.54,167.79c-89.98,39.21-187.87,70.57-287.06,69.02c-111.83-1.75-224.75-34.9-330.73-67.69
					c-141.89-43.9-280.74-97.41-418.66-152.33c-295.25-117.58-586.42-248.65-889.08-346.6c-113.67-36.79-233.66-73.76-353.83-79.52
					c-98.42-4.71-197.6,12.63-291.98,39.37c-199.92,56.66-384.22,155.94-575.22,235.69c-183.12,76.46-400.41,153.78-600.34,103.2
					c-222.67-56.34-399.14-234.83-564.05-384.15c-90.17-81.64-180.98-163.91-282.03-232.08
					c-92.19-62.19-198.01-115.45-310.93-122.19c-225.38-13.44-334.58,212.07-415.33,384.89
					c-84.84,181.58-180.44,424.52-416.19,426.72c0.94-113.79,1.85-227.58,2.8-341.36c241.71-6.35,301.63-296.36,356.97-481.9
					c51.84-173.82,128.52-449.61,360.4-433.51c227.86,15.82,399.66,221.59,541.55,378.46c141.54,156.46,295.28,349.03,507.5,408.15
					c98.75,27.51,203.89,13.46,301.84-11.14c105.41-26.48,206.27-68.67,304.45-114.72c197.22-92.5,386.67-205.78,594.67-273.43
					c94.03-30.58,196.54-54.17,296.15-48.63c128.69,7.15,258.52,53.8,378.91,96.26c336.75,118.78,660.5,272.46,988.96,411.77
					c152.75,64.79,306.46,128.25,463.7,181.44c64.04,21.66,128.77,41.61,194.56,57.27c51.33,12.21,106.14,25.13,159.22,24.51
					c107.73-1.26,213.43-39.13,310.63-82.66c120.03-53.75,233.7-121.11,345.32-190.32c230.11-142.68,453.03-305.9,702.09-414.88
					c93.76-41.03,199.11-78.78,303.07-74.95c94.73,3.49,187.25,46.22,267.96,92.79c206.16,118.97,379.74,288.51,563.47,437.86
					c90.32,73.42,183.34,145.06,284.82,202.55c84.69,47.97,179.84,89.14,278.59,91.9c106.41,2.98,210.16-35.84,303.38-83.88
					c110.78-57.1,212.83-130.17,312.38-204.7c106.18-79.5,209.74-162.52,317.74-239.58c98.12-70.01,201.09-137.75,314.31-180.81
					c93.75-35.66,197.11-51.92,294.59-21.51c98.13,30.61,180.68,99.24,252.4,170.57c172.52,171.58,302.15,384.73,489.89,541.35
					c83.15,69.37,181.77,126.23,292.56,129.58c101.57,3.08,187.85-44.98,254.18-119.41c152.96-171.66,205.42-409.59,355.27-583.64
					c70.06-81.37,159.47-131.78,268.52-129.93C5957.47,2326.05,5956.49,2439.81,5955.5,2553.57z"/>
			</g>
			<g>
				<path d="M5955.56,2178.96c-108.59-0.95-197.02,50.33-265.99,131.93c-147.56,174.58-198.12,412.18-350.61,583.07
					c-66.33,74.33-152.66,121.02-253.98,117.22c-109.96-4.13-207.36-61.29-289.25-130.93c-184.25-156.7-310.06-369.08-479.92-539.7
					c-70.62-70.94-152.17-138.67-249.45-168.46c-97.8-29.95-202.02-12.39-295.8,23.27c-114.16,43.4-218.26,111.1-317.66,181.07
					c-109.2,76.87-214.1,159.59-321.65,238.7c-100.68,74.06-203.88,146.6-315.7,203.04c-93.92,47.41-198.31,85.52-305.03,81.72
					c-98.75-3.52-193.75-45.72-278.03-94.38c-101.15-58.4-193.73-130.86-283.65-205.03c-182.51-150.53-355.02-321.34-560.85-440.61
					c-80.25-46.5-173.05-89.53-267.49-91.9c-105.1-2.63-210.95,35.81-305.63,77.62c-251.63,111.09-477.23,275.79-710.29,419.85
					c-112.67,69.64-227.42,137.41-348.58,191.38c-97.06,43.24-204.07,82.2-311.77,81.96c-53.62-0.12-108.69-13.2-160.5-25.78
					c-66.41-16.12-131.76-36.54-196.4-58.64c-158.75-54.28-313.95-118.78-468.21-184.57c-330.79-141.08-656.94-296.52-996.32-416.38
					c-119.84-42.32-250.36-90.03-378.7-95.67c-100.02-4.39-201.95,19.26-296.22,50.52c-208.45,69.12-398.15,183.67-595.95,277.06
					c-98.24,46.39-199.24,88.86-304.85,115.36c-97.9,24.56-202.75,38.21-301.25,9.94c-211.18-60.6-362.59-254.53-502.42-411.66
					c-77.42-87-155.67-174.91-246.79-247.99c-83.11-66.64-182.77-123.48-291.51-129.53c-232.24-12.92-304.53,266.11-354.42,440.34
					c-53.35,186.31-111.44,478.74-355.07,482.43c0.94-114.39-1.76-229.52,7.78-343.6c248.09-1.21,294.41-309.8,338.4-496.96
					c42.18-179.5,97.95-465.53,337.13-453.07c227.27,11.84,385.58,220.02,515.4,382.87c126.67,158.89,265.05,361.05,472.22,417.8
					c202.75,55.54,424.47-47.31,601.23-137.4c198.87-101.36,388.81-225.12,599.91-300.6c93.36-33.38,193.08-57.26,292.87-53.1
					c129.87,5.41,259.94,53.48,380.76,97.46c358.94,130.68,703.28,299.8,1052.71,453.26c162.27,71.26,325.51,141.36,492.73,200.32
					c113.22,39.92,238.55,86.06,360.29,86.31c110.56,0.23,220.25-42.4,319.46-87.28c129.99-58.81,253.47-131.57,375.06-205.89
					c253.41-154.89,499.6-330.65,772.01-451.5c97.67-43.33,207.26-85.11,315.96-81.7c95.6,3,187.3,46.46,267.01,96.2
					c202.93,126.6,367.22,308.53,542.98,468.42c86.32,78.52,175.65,155.5,274.96,217.31c82.76,51.51,176.77,94.88,275.85,97.54
					c110.29,2.96,219.03-35.34,317.96-80.62c120.32-55.07,233.41-125.14,344.48-196.65c118.67-76.4,235.22-156.12,355.51-229.99
					c109.35-67.16,222.83-131.87,344.83-173.19c95.96-32.5,203.64-51.19,302.43-19.82c90.77,28.83,164.22,94.54,225.59,165.15
					c143.71,165.35,237.35,371.97,397.79,523.22c74.39,70.13,165,121.78,269.24,124.83c99.02,2.9,182.31-42.91,244.21-118.37
					c140.34-171.07,173.54-405.16,310.05-578.85c64.56-82.15,150.24-130.54,256.03-128.61
					C5957.48,1951.45,5956.53,2065.21,5955.56,2178.96z"/>
			</g>
			<g>
				<path d="M5955.58,1804.36c-105.67-1.03-190.6,48.39-254.33,130.91c-134.69,174.41-166.51,408.68-307.46,578.88
					c-62.51,75.48-146.56,119.5-245.72,115.59c-101.76-4.02-190.41-54.6-263.07-123.24c-160.97-152.04-252.42-361.15-396.81-527.1
					c-61.2-70.34-134.85-135.06-225.74-162.52c-99.94-30.19-208.32-10-304.79,23.24c-122.78,42.31-237.14,107.45-347.56,174.93
					c-121.12,74.01-238.68,153.65-358.43,229.83c-111.66,71.04-225.41,140.55-346.37,194.77c-97.28,43.6-203.95,80.28-311.95,77.31
					c-99.28-2.72-193.52-46.34-276.32-98.18c-99.35-62.21-188.64-139.69-274.88-218.66c-175.37-160.58-339.39-343.51-542.74-469.89
					c-79.94-49.69-171.92-92.51-267.71-94.78c-109.25-2.59-218.88,39.45-316.98,83.25c-273.91,122.29-521.65,299.03-776.89,454.71
					C15.87,2247.8-108,2320.63-238.48,2379.25c-98.74,44.36-208.2,86.65-318.2,85c-122.79-1.84-247.66-47.37-361.94-87.92
					c-168.13-59.66-332.27-130.4-495.47-202.26c-349.86-154.05-694.77-323.89-1054.61-453.95
					c-119.53-43.2-247.91-89.91-376.37-93.76c-98.03-2.94-195.12,19.98-286.89,52.86c-210.95,75.57-400.37,199.96-598.83,301.82
					c-176.23,90.45-397.39,193.17-599.83,137.31c-96.98-26.76-179.14-89.44-249.91-158.93c-83.05-81.56-153.98-174.52-226.52-265.25
					c-128.51-160.73-286.67-366.18-511.36-376.55c-237.71-10.98-293.63,276.76-336.25,454.87
					c-44.83,187.35-93.26,494.13-341.67,493.39c14.04-125.84,39.73-249.81,70.2-372.61c243.49-1.8,313.37-291.33,373.88-477.62
					c57.11-175.83,135.33-446.26,368.7-428.98c106.88,7.92,201.72,65,281.89,132.66c91.42,77.15,169.09,169.43,245.95,260.63
					c76.16,90.38,151.24,182.63,237.64,263.6c72.83,68.26,156.97,131.26,255.36,155.91c198.55,49.73,405.98-54.85,572.87-151.31
					c190.03-109.84,369.77-244.31,576.01-323.38c90.63-34.75,185.06-55.2,282.42-50.64c129.68,6.08,256.72,52.51,376.39,99.51
					c339.37,133.29,660.6,310.21,989.16,467.29c148.05,70.78,297.54,139.79,451.58,196.67c114.92,42.44,238.76,84.97,362.71,85.38
					c111.71,0.38,220.96-40.73,320.57-87.8c125.4-59.25,243.37-133.58,359.26-209.39c240.31-157.19,473.62-335.47,736.77-453.68
					c100.25-45.03,211.44-84.33,322.98-79.5c98.56,4.26,191.87,47.22,274.59,98.19c205.05,126.35,372.53,307.03,550.61,466.89
					c88.83,79.74,180.6,158.14,282.63,220.69c84.88,52.04,180.63,94.63,281.83,95.61c110.17,1.07,218.25-36.5,317.6-80.94
					c123.25-55.13,239.53-125.03,354.06-196.14c122.7-76.18,243.56-155.41,368.16-228.5c113.49-66.58,231.12-130.42,356.87-170.73
					c96.28-30.87,201-48.02,299.64-17.93c92.46,28.2,168.05,92.08,230.76,163.67c141.67,161.74,228.6,367.56,385.21,516.77
					c73.34,69.87,164.21,120.22,267.15,124.57c100.09,4.23,186.24-41.11,248.53-117.85c138.68-170.83,163.91-406.17,298.63-579.52
					c63.42-81.62,148.68-126.63,252.73-124.91C5961.31,1576.12,5956.52,1690.65,5955.58,1804.36z"/>
			</g>
			<g>
				<path d="M5951.76,1428.17c-104.09-0.92-188.8,45.31-251.87,127.07c-134.21,173.99-160.3,409.74-300.95,579.57
					c-63.26,76.38-150.65,120.53-250.94,114.87c-102.98-5.81-193.35-57.34-266.6-127.43c-153.77-147.13-242.34-347.61-381.55-506.99
					c-62.94-72.07-138.38-137.06-230.82-166.96c-102.75-33.24-212.15-14.95-312.55,17.98c-125.92,41.31-243.66,105.75-357.37,172.9
					c-124.31,73.41-244.94,152.79-367.55,228.95c-114.09,70.86-230.06,140.41-353.13,194.73c-99.1,43.74-207.36,80.43-317.06,77.52
					c-97.12-2.58-189.19-43.27-271.15-92.73c-102.62-61.94-194.95-140.02-284.25-219.51c-182.71-162.63-354.33-347.92-565.36-474.91
					c-83.21-50.07-177.19-91.72-275.83-93.78c-112.54-2.35-223.56,37.87-324.31,84.37c-255.24,117.79-481.53,292.03-714.79,446.74
					c-114.65,76.04-231.37,150.62-355.62,210.16c-99.24,47.55-208.07,88.88-319.63,89.05c-123.3,0.18-246.54-42.14-360.71-84.6
					c-159.56-59.34-314.03-132.07-467-206.51c-323.83-157.58-640.69-335.03-976.58-466.32c-113.66-44.43-234.24-87.58-357.24-93.45
					c-97.28-4.64-191.5,15.86-281.93,50.94c-205.75,79.82-384.43,215.62-573.59,326.54c-168.79,98.98-381.16,207.03-582.29,149.95
					c-98.6-27.98-182.44-93.3-255.5-162.95c-83.02-79.14-156.13-168.02-230.29-255.3c-77.68-91.43-156.22-183.9-248.49-261.14
					c-80.72-67.58-176.14-124.65-283.45-132.15c-232.77-16.27-313.09,253.26-372.1,428.69c-62.87,186.9-136.57,472.91-380.93,472.2
					c34.22-131.7,73.25-262.06,112.71-392.27c242.93,2.78,349.73-250.14,440.12-435.7c84.64-173.76,194.65-411.73,424.18-396.58
					c114.34,7.54,217.28,68.75,305.27,138.08c98.64,77.72,185.24,169.83,270.87,261.29c88.42,94.44,175.53,190.99,273.35,275.95
					c78.09,67.83,166.26,131.75,267.44,159.22c201.79,54.79,402.29-63.68,561.98-174.12c177.52-122.76,342.68-271.55,540.58-361.82
					c85.47-38.99,177.45-64.16,272.01-59.6c117.13,5.65,230.67,53.21,335.51,102.3c291.03,136.28,558.72,319.33,835.87,480.77
					c128.62,74.92,259.24,147.84,395.96,207.06c105.29,45.6,220.81,89.26,337.28,88.15c99.9-0.95,195.8-39.01,282.28-86.36
					c108.21-59.24,206.91-134.88,302.98-211.8c195.35-156.4,382.73-334.51,607.42-448.88c90.16-45.89,190.22-81.26,292.67-78.35
					c103.15,2.93,201.77,46.14,289.82,96.93c219.9,126.83,403.94,309.13,598.67,469.74c92.88,76.61,188.51,151.62,293.15,211.67
					c86.36,49.57,182.81,91.11,283.86,93.25c110.35,2.33,218.49-35.13,317.35-80.98c115.35-53.49,223.59-121.43,329.91-190.78
					c118.59-77.35,235-158.1,355.64-232.29c106.83-65.7,217.9-128.23,337.15-168.54c103.34-34.93,213.87-51.28,320.04-19.13
					c94.01,28.47,174.81,87.97,245.12,155.01c160.32,152.84,274.73,349.82,446.33,491.35c81.12,66.9,178.79,118.43,285.85,122.1
					c98.62,3.38,185.04-41.36,249.3-114.55c146.96-167.4,184.49-402.62,324.41-574.85c67.03-82.51,154.98-129.58,262.32-127.37
					C5913.04,1176.78,5941.56,1301.1,5951.76,1428.17z"/>
			</g>
			<g>
				<path d="M5863.18,1016.29c-107.67-1.36-195.35,47.04-262.26,129.88c-139.8,173.06-178.49,409.19-328.1,575.42
					c-65.64,72.94-153.3,116.16-252.73,111.02c-107.65-5.57-205.14-57.71-286.93-125.01c-169.3-139.32-285.46-330.86-444.29-480.81
					c-74.1-69.96-159.38-132.02-258.68-159.91c-102.65-28.83-208.86-13.38-308.48,19.85c-124.25,41.44-239.51,107.44-350.21,176.45
					c-115.15,71.78-226.54,149.35-339.91,223.86c-107.95,70.95-217.9,140.57-335.4,194.81c-96.88,44.72-202.51,80.89-310.5,78.97
					c-101.52-1.8-198.49-43.2-285.44-92.7c-110.05-62.66-210.35-141.61-307.9-221.92c-195.16-160.65-380.93-342.85-603.23-466.45
					c-85.42-47.5-180.46-87.08-279.51-89.44c-101.81-2.43-200.79,33.08-289.97,79.51c-220.94,115.03-403.66,293.65-594.92,450.22
					c-93.81,76.79-190.4,152.3-296.81,211.03c-85.33,47.1-180.16,84.28-278.95,84.1c-110.85-0.2-220.3-41.15-320.56-84.78
					c-140.7-61.23-274.51-137.85-406.13-216.37c-271.92-162.22-534.45-346.19-821.4-481.61c-101.06-47.69-210.91-93.62-324-98.68
					c-96.61-4.33-190.42,23.03-277.03,64.12c-193.04,91.6-354.21,238.22-527.63,360.43c-159.02,112.06-358.73,232.92-561.36,178.92
					c-106.8-28.46-199.33-96.95-281.21-168.74c-94.59-82.94-179.74-176.04-266.06-267.35c-86.88-91.9-174.68-184.44-274.49-262.58
					c-88.86-69.56-192.69-131.21-307.88-138.78c-230.36-15.14-343,220.68-430.68,394.6c-93.76,186-204.65,435.68-448.92,430.41
					c39.56-130.49,79.04-261.02,114.08-392.81c247.23,7.06,389.88-216.76,514.92-396.96c118.07-170.15,261.39-376.01,495.11-357.32
					c119.34,9.54,228.54,72.42,323.44,141.3c112.93,81.97,214.16,179.22,314.61,275.68c99.59,95.63,198.17,193.08,306.25,279.25
					c89.06,71,188.01,138.64,299.81,167c204.59,51.89,393.26-80.2,543.16-203.54c165.84-136.46,316.75-299.76,506.59-404.05
					c80.44-44.19,171.42-76.77,264.42-73.18c102.59,3.96,201.78,55.16,288.26,106.37c238.86,141.45,446.23,332.03,666.49,499.55
					c104.33,79.34,211.5,156.87,327.24,218.89c87.48,46.88,186.21,90.05,287.35,88.84c190.16-2.27,339.6-162.2,457.55-292.89
					C49.27,927.55,176.93,751.18,352.16,636.96c76.25-49.7,163.5-83.93,255.63-81.61c104.31,2.63,204.8,43.31,295.83,91.5
					c233.28,123.51,433.09,303.51,642.25,462.26c102.03,77.44,206.68,153.31,319.98,213.61c92.64,49.3,195.01,90.36,301.47,90.46
					c104.24,0.09,205.19-36.68,297.28-82.83c109.98-55.12,211.86-125.4,311.73-196.8c198.46-141.91,395.76-309.55,628.39-392.72
					c101.07-36.13,207.2-48.5,312.25-22.98c103.33,25.1,196.32,80.66,280.26,144.47c185.32,140.89,333.61,326.67,528.05,456.03
					c90.74,60.37,193.8,106.07,304.13,110.29c104.07,3.99,194.95-41.61,264.91-116.97c155.46-167.44,206.69-405.27,358.79-575.18
					c71.03-79.35,161.03-124.57,268.48-122.24C5772.18,747.04,5821.46,880.4,5863.18,1016.29z"/>
			</g>
			<g>
				<path d="M5703.16,574.38c-107.8-1.47-197.7,45.11-268.62,124.79c-152.11,170.9-204.52,409.59-362.64,575.98
					c-71.55,75.3-163.37,118.77-268.34,113.42c-111.09-5.66-214.42-51.92-306.06-112.57c-194.04-128.42-344.42-311.03-530.6-449.55
					c-83.51-62.13-175.51-116.25-277.32-141.55c-104.96-26.07-210.96-15.26-312.19,20.48c-114.54,40.44-219.67,104.97-319.83,172.71
					c-108.2,73.18-211.94,152.67-317.98,228.88c-98.86,71.05-200.01,140.81-309.48,194.7c-91.72,45.15-192.36,80.08-295.82,77.47
					c-105.15-2.65-205.98-44.23-297.46-93.19c-111.56-59.71-214.87-134.07-315.75-210.09c-210.73-158.8-412.27-339.06-647.1-462.39
					c-91.46-48.03-192.45-88.57-297.12-90.8c-91.2-1.95-177.09,32.53-251.85,82.77C155.61,719.29,34.05,893.7-98.16,1045.72
					c-115.06,132.31-262.21,295.01-452.7,294.86c-100.68-0.08-198.69-44.41-285.08-92.23c-113.99-63.11-219.25-141.54-321.66-221.69
					c-215.01-168.26-417.34-359.86-652.6-500.32c-82.28-49.12-175.5-96.85-273.03-102.2c-92.73-5.09-184.31,27.83-264.43,71.92
					c-192.26,105.79-343.55,273-510.76,412.1c-152.25,126.65-342.29,258.56-550.12,200.71
					c-112.92-31.43-212.67-101.11-302.91-173.69c-104.39-83.96-200.42-177.78-297.35-270.07
					c-101.78-96.91-204.27-194.6-318.44-277.01c-95.79-69.14-205.8-132.42-326.04-142c-234.67-18.7-380.44,185.78-501.5,355.65
					c-128.27,179.99-274.47,401.54-522.98,392.4c31.44-123.37,58.42-247.87,74.19-374.3c249.73,6.19,419.06-201.21,570.3-371.5
					C-4890,87.04-4720.5-102.38-4483.5-81.89c122.36,10.58,235.32,73.89,335.04,141.57c126.38,85.76,241.24,187.69,355.51,288.61
					c108.89,96.17,217,193.89,333.52,280.87c95.69,71.43,200.29,140.1,316.74,171.64c213.95,57.95,398.81-81.71,547.38-219.39
					c161.65-149.81,304.99-329.5,495.11-445.22c76.73-46.7,165.71-82.29,256.99-79.18c96.66,3.29,187.31,57.78,262.54,113.93
					c192.29,143.51,344.49,336.04,512.3,505.79c82.69,83.64,169.14,166.12,267.5,231.31c73.81,48.92,159.46,91.13,249.94,91.18
					c173.33,0.09,278.43-158.98,355.71-293.1C-108.93,556.39-37.7,379.81,97.32,265.8c61.75-52.14,135.89-81.37,217.14-78.63
					c104.3,3.52,204.87,42.88,297.13,89.05c243.51,121.87,456.09,299.46,677.26,456.15c105.88,75.01,214.03,148.35,329.81,207.37
					c97.61,49.76,205.23,92.35,316.42,92.3c209.65-0.1,396.6-147.81,552.83-271.22c98.41-77.73,194.12-158.96,295.07-233.45
					c89.68-66.17,184.49-129.01,289.23-168.69c99.41-37.65,202.27-45.41,306.39-23.61c109.71,22.97,211.53,73.97,306.16,132.72
					c208.36,129.37,388.16,301.91,604.63,418.63c98.89,53.32,206.49,92.83,319.75,96.58c104.16,3.45,195.79-38.93,269.23-111.58
					c166.69-164.89,230.92-404.87,389.74-576.05c75.61-81.5,169.58-130.07,282.27-127.77
					C5598.53,304.24,5651.26,439.16,5703.16,574.38z"/>
			</g>
			<g>
				<path d="M5533.57,128.45c-112.89-1.37-206.58,48.43-282,130.21c-158.63,172-223.91,412.54-392.51,576.5
					c-74.72,72.66-166.66,113.11-271.5,108.91c-113.7-4.55-221.78-44.65-321.21-97.97c-217.82-116.81-400.07-288.36-610.89-416.26
					c-93.58-56.77-194-105.94-301.77-128.45c-106.44-22.24-211.22-13.86-312.49,25.74c-215.06,84.09-390.11,253.14-567.78,395.18
					c-158.07,126.37-348.15,279.2-561.99,275.97c-106.88-1.61-210.03-41.86-304.32-89.21c-121.55-61.04-234.8-138-345.64-216.41
					C1044.11,538.86,834.47,365.91,595.6,245.65c-95.65-48.16-200.97-89.79-309.53-91.49c-78.29-1.23-150.16,29.15-208.68,80.19
					C-55.91,350.58-122.54,529.78-206.65,680.78c-73.34,131.66-173.92,284.12-342.3,285.21c-94.48,0.61-183.6-45.14-259.47-97.56
					c-92.63-64-174.17-143.28-252.25-223.96c-167.7-173.29-318.78-371.7-514.03-515.75c-72.35-53.38-158.4-103.22-250.6-106.69
					c-93.64-3.52-184.74,33.96-262.84,82.55c-187.68,116.76-329.39,295.23-489.49,444.62c-148.65,138.7-333.56,278.68-548.28,220.41
					c-117.13-31.79-222.18-100.66-318.59-172.34c-120.05-89.26-231.36-189.69-343.71-288.25
					c-112.75-98.91-226.24-198.54-350.79-282.56c-100.11-67.53-213.58-130.86-336.25-140.95
					c-237.18-19.5-408.19,170.3-552.92,330.82c-152.95,169.64-324.5,375.9-574.71,368.45c11.18-113.46,11.77-224.46-14.8-335.9
					c251.59,3.64,432.04-214.67,590.76-381.05c146.4-153.46,327.77-346.43,560.69-324.45c126.07,11.9,242.85,76.46,346.71,144.93
					c126.48,83.39,242.76,181.5,358.38,279.05c115.67,97.59,230.4,196.89,353.05,285.74c104.53,75.73,218.89,149.7,345.48,181.74
					c215.62,54.59,401.96-85.45,550.17-225.5c160.63-151.79,301.47-334.19,490.54-452.79c79.48-49.85,170.68-85.98,265.86-83.39
					c98.02,2.67,187.76,51.11,263.36,110.2c183.02,143.06,312.84,345.27,460.98,521.38C-911.4,447.81-754,624.8-550.51,624.6
					c76.18-0.08,146.28-28.8,198.33-84.76c52.66-56.62,84.74-129.9,111.95-201.27c30.83-80.89,55.2-164.1,86.82-244.7
					c28.36-72.3,62.79-146.76,118.9-202.04c139.23-137.19,350.04-60.53,500.78,14.51c243.68,121.31,459.43,293.93,683.05,447.3
					c109.37,75.01,220.86,148.5,339.62,207.95c96.47,48.29,202.79,91.16,312.27,92.14c207.56,1.85,384.98-148.58,532.77-277.07
					c164.19-142.74,325.58-314.65,531.46-396.79c206.89-82.54,422.82-3.45,608.43,96.67c225.13,121.43,426.85,283.65,658.38,393.58
					c103.85,49.31,215.41,87.38,331.31,90.47c105.57,2.82,198.05-42.99,272.26-116.02c167.91-165.24,240.93-402.13,402.3-572.75
					c77.72-82.18,172.95-133.12,287.81-131.15C5451.37-127.36,5490.22,1.36,5533.57,128.45z"/>
			</g>
			<g>
				<path d="M5416.27-295.5c-114.74-1-209.42,51.11-286.65,133.43C4968.9,9.25,4895.39,246.22,4726.57,410.86
					c-74.66,72.8-167.34,117.57-272.96,114.13c-115.81-3.77-227.27-42.3-331.07-91.58c-231.83-110.07-434.58-271.37-660.53-392.06
					c-185.85-99.27-401.12-177.45-607.39-93.76c-204.88,83.13-364.9,255.18-528.35,397.98c-147.19,128.6-324.16,278.1-531.47,274.79
					c-109.51-1.75-215.76-45.28-312.13-93.87c-118.75-59.87-230.3-133.54-339.8-208.68C919.57,164.56,703.86-7.79,460.23-128.5
					C310.01-202.92,98.61-278.54-38.63-139.71C-93.84-83.85-127.12-9.06-154.87,63.23c-30.99,80.76-55.26,163.92-86.51,244.59
					c-27.63,71.31-60.6,144.21-113.95,200.3c-52.44,55.12-122.21,83.68-198.15,83.23c-202.47-1.22-360.5-180.87-480.69-322.67
					c-149.14-175.95-280.87-377.71-465.21-519.95c-75.53-58.28-165.72-106.81-263.36-108.29c-95.4-1.44-186.57,35.29-266.14,85.45
					c-188.55,118.86-329.48,300.3-490.61,451.28c-149.18,139.78-336.19,277.57-551.72,221.34
					c-126.91-33.11-241.52-107.32-346.54-183.45c-122.64-88.9-237.48-188.07-353.34-285.48c-115.62-97.21-231.99-194.9-358.61-277.7
					c-104.21-68.14-221.39-132.05-347.61-143.34c-232.81-20.82-414.35,175.37-560.13,328.79
					C-5195.74,3.95-5377,223.69-5628.9,218.46c-30.61-104.16-78.66-200.71-134.83-293.3c120.73-1.87,224.65-62.82,314.57-138.97
					c97.83-82.86,181.37-181.21,266.29-276.79c84.54-95.15,170.51-192.62,273.88-267.98c82.5-60.14,184.15-108.21,288.79-96.74
					c130.91,14.35,252.73,76.68,362.72,145.73c128.48,80.66,247.21,176.03,365.27,270.96c115.16,92.59,229.57,186.64,351.35,270.53
					c107.52,74.06,223.71,144.05,351.13,177.32c100.96,26.37,200.38,15.13,295.92-25.82c98.25-42.11,184.38-108.48,264.45-178.23
					c157.52-137.2,297.58-301.85,479.66-408.12c82.65-48.24,179.92-85.05,277.17-80.79c96.67,4.23,187.82,52.65,266,106.19
					c203.99,139.69,364.75,335.79,538.81,509C-986.27,12.47-901.7,92.61-805.86,156.6c75.19,50.2,163.51,94.37,256.14,93.28
					c170.55-2,276.09-154.28,351.58-288.09c43.18-76.53,81.26-155.79,124.08-232.52c40.23-72.09,84.95-145.3,146.98-200.9
					c54.85-49.16,122.87-78.29,197.13-76.21c100.31,2.81,197.89,42.41,286.12,87.27c235.7,119.82,441.17,293.67,655.37,446.64
					c107.52,76.79,217.6,151.9,335.88,211.32c91.8,46.12,192.62,85.52,296.73,86.82c205.66,2.56,384.53-151.81,530.71-278.59
					c86.44-74.97,170.22-153.06,258.83-225.51c84.55-69.13,174.99-135.95,277.15-176.67c203.15-80.97,417.37,2.64,596.34,105.18
					c204.8,117.34,388.38,269.98,600.97,374.04c104.56,51.18,221.4,93.42,339.21,94.95c101.15,1.31,191.71-48.47,263.74-116.2
					c173.71-163.34,260.03-396.86,426-566.82c75.63-77.45,167.19-130.97,277.7-132.13C5387.91-524.96,5397.96-408.66,5416.27-295.5z
					"/>
			</g>
			<g>
				<path d="M5419.99-666.87c-109.9,2.52-200.87,56.85-276.36,133.59c-166.28,169.03-255.87,400.43-430.74,561.98
					c-72.39,66.87-162.94,116.5-263.86,115.24c-117.22-1.46-233.49-43.38-337.41-94.7c-213.8-105.58-396.64-262.2-603.09-380.18
					c-178.95-102.26-390.31-178.82-591.27-94.81c-97.55,40.78-184.3,104.47-265.94,170.73C2558.42-179.61,2470.8-98,2380.06-20.05
					c-146.29,125.68-326.32,278.18-531.58,272.06c-104.27-3.11-204.82-43.47-296.52-90.45
					c-114.81-58.82-221.79-132.24-326.36-207.39c-210.36-151.16-411.96-322.3-642.9-442.07c-90.64-47.01-192.64-89.78-296.46-91.11
					c-74.44-0.95-142.05,29.27-197.18,78.2C26.17-444.99-20.07-371.84-62.04-299.79c-44.52,76.42-84.58,155.36-129.7,231.44
					c-78.87,132.98-188.23,283.9-359.33,285.01c-95.1,0.62-185.85-45.71-262.92-97.34C-908.5,56-992.61-22.12-1073.88-101.33
					c-177.01-172.52-341.13-367.52-547.34-506.71c-81.43-54.96-178.83-106.63-279.69-106.6c-93.61,0.03-184.31,32.72-264.67,78.83
					c-185.29,106.32-327.11,273.34-487.99,410.83c-76.8,65.64-159.23,127.58-252.52,167.79c-100.56,43.35-203.05,53.42-308.88,24.26
					c-121.72-33.54-232.89-99.39-336.54-169.89c-127.02-86.4-245.96-184.09-365.86-279.92
					c-115.34-92.18-231.46-184.51-356.84-262.86c-111.55-69.71-237.3-134.36-370.46-146.28c-104.21-9.33-204.94,41.31-286.1,101.97
					c-102.95,76.95-188.64,175.28-273.19,271.26c-84.67,96.12-168.16,194.93-266.06,278.09
					c-89.54,76.06-193.21,137.07-313.67,138.45c-59.86-93.91-125.98-183.5-191.03-273.83c122.87-7.63,225.4-81.97,312.11-163.9
					c100.12-94.6,185.57-203.71,272.79-309.92c82.94-101.01,166.99-204.04,267.76-288.07c76.87-64.1,180.01-129.69,285.07-118.91
					c129.88,13.33,252.14,68.79,363.93,133.6c131,75.94,252.27,167.59,372.86,258.77c115.16,87.08,229.74,175.47,351.51,253.25
					c106.56,68.06,220.6,130.07,343.97,161.18c426.63,107.59,689.35-347.48,1026.14-512.6c82.25-40.33,173.27-65.39,265.44-61.96
					c106.93,3.98,209.87,50.67,301.79,102.08c242.41,135.55,450.42,326.82,669.03,496.04c99.69,77.17,201.83,152.97,312.61,213.65
					c85.22,46.68,181.16,88.42,280.09,88.09c186.65-0.63,337.74-143.47,457.92-270.43C43.65-538.03,164.32-707.85,330.64-817.4
					c68.68-45.24,147.24-76.47,230.6-74.05c96.61,2.8,189.9,41.71,273.6,87.29c218.99,119.27,404.67,293.43,600.84,445.15
					c94.6,73.17,191.99,144.43,297.74,200.82c87.79,46.81,185.13,85.45,285.99,85.99c97.09,0.52,190.49-36.31,274.41-82.31
					c101.23-55.5,193.56-126.22,283.44-198.24c100.02-80.16,197.18-163.95,299.44-241.3c88.8-67.18,182.67-132.09,286.96-172.86
					c421.68-164.85,696.9,289.8,1013.49,471.2c92.22,52.84,197.86,89.93,305.13,90.99c104.58,1.04,202.66-45.18,285.79-105.34
					c194.72-140.92,327.27-349.14,514.47-498.55c86.18-68.78,184.27-120.1,296.42-122.9
					C5509.66-853.13,5452.45-766.97,5419.99-666.87z"/>
			</g>
			<g>
				<path d="M5597.11-954.48c-112.2,3.43-210.88,54.37-298.09,122.06c-189.43,147.02-326.79,352.04-523.88,490.11
					c-87.97,61.63-191.98,108.37-301.56,102.95c-103.74-5.13-203.21-39.84-292.13-92.54c-168.71-99.98-295.59-253.48-452.86-368.55
					c-77.46-56.67-163.28-102.68-257.8-122.7c-97.65-20.68-193.1-10.98-285.6,26.25c-104.6,42.09-198.99,107.55-288.51,175.13
					c-98.69,74.5-192.91,154.69-289.57,231.76c-94.16,75.07-190.85,149.06-297.13,206.36c-84.21,45.39-177.87,81.54-274.9,80.16
					c-100.34-1.42-196.83-40.24-283.96-87.3c-109.14-58.95-209.24-133.76-306.56-210.22c-189.01-148.51-368.86-317.27-580.84-433.4
					c-83.02-45.48-175.32-84-271.23-86.99c-87.97-2.75-170.76,31.15-243.14,78.85C183.83-733.46,60-569.56-77.72-429.57
					c-126.32,128.4-285.47,274.59-478.05,271.68c-100.12-1.51-196.76-44.01-283.18-91.11c-112.1-61.11-215.95-136.86-317.47-213.92
					c-221.64-168.25-433.49-358.1-678.95-491.88c-92.89-50.62-196.42-96.26-303.8-99.64c-91.68-2.89-181.83,21.32-263.88,61.09
					c-335.87,162.82-595.57,607.29-1019.29,502.87c-128.33-31.63-246.64-96.51-357.09-167.47
					c-120.9-77.68-234.93-165.48-349.73-251.75c-115.19-86.57-231.22-173.19-355.96-245.73
					c-111.52-64.86-233.08-120.35-362.47-135.29c-110.87-12.8-216.63,55.13-297.2,123.83c-100.38,85.59-184.3,189.36-267.43,291.16
					c-87.05,106.59-172.57,215.97-272.88,310.66c-86.48,81.63-188.91,155.77-311.51,162.71
					c-63.94-89.78-125.69-181.07-177.06-278.75c121.18-9.5,222.74-85.47,308.39-166.23c108.65-102.46,201.1-221.12,294.99-336.82
					c88.08-108.54,176.54-219.2,281.54-312.11c75.99-67.25,179.44-143.31,286.84-137.49c126.8,6.87,250.89,60.13,360.93,120.04
					c119.16,64.88,230.12,143.79,340.17,222.8c207.11,148.71,422.66,320.92,676.09,380.34c98.4,23.07,199.51,23.78,297.21-3.04
					c87.34-23.97,167.75-67.23,243.31-116.38c147.09-95.67,280.36-216.69,444.07-284.5c84.19-34.87,172.83-51.32,263.89-47.57
					c117.93,4.85,231.03,47.19,337.25,95.97c280.15,128.66,533.72,310.2,795.09,471.9c121.02,74.87,243.92,148.29,373.49,207.56
					c100.54,46,209.17,86.72,321.13,87.49c216.89,1.49,418.47-136.53,588.41-256.44c193.85-136.78,377.8-296.84,592.44-401.08
					c86.29-41.91,180.76-74.14,277.8-71.93c93.79,2.13,182.44,39.14,262.28,86.04c197.12,115.78,358.28,285.81,530.49,433.85
					c84.25,72.42,171.52,143.08,267.88,198.9c81.95,47.48,173.68,85.33,269.71,86.36c105.18,1.13,207.3-38.84,299.38-86.32
					c111.5-57.49,214.82-129.99,315.96-203.8c108.11-78.9,213.86-161.07,323.69-237.61c101.25-70.55,207.07-139.13,323.04-183.02
					c91.81-34.75,189.88-49.43,286.27-25.49c74.45,18.49,138.52,60.45,191.28,115.39c109.03,113.54,172.22,266.08,298.04,364.42
					c170.42,133.19,395.34,97.42,577.87,9.87c234.48-112.46,428.23-292.23,657.79-413.1c102.72-54.09,213.11-93.99,330.46-93.08
					C5758.42-1105.6,5673.45-1034.67,5597.11-954.48z"/>
			</g>
			<g>
				<path d="M5865.67-1197.2c-117.99-0.64-229.26,38.67-333.38,91.53c-234.75,119.17-434.94,297.79-675.38,406.76
					c-181.07,82.05-407.45,118.67-572.8-17.12c-120.34-98.83-176.73-250.16-280.97-362.86c-50.67-54.77-113.04-96-185.97-114
					c-98.54-24.32-198.81-7.4-292.18,28.82c-114.07,44.26-218.59,111.47-318.81,180.78c-112.81,78.01-221.44,161.84-332.61,242.13
					c-101.71,73.46-205.67,145.51-317.77,202.38c-92.34,46.85-194.79,86.14-299.9,84.1c-95.4-1.85-186.3-40.01-267.46-87.66
					c-97.25-57.1-185.04-129.37-269.85-203.26c-169.2-147.42-328.18-316.59-523.51-430.32c-77.81-45.3-164.04-80.47-255.14-82.7
					c-100.1-2.44-197.6,30.88-286.82,73.61c-218.3,104.55-407.2,263.38-605.93,399.33C-127.63-666.07-335.06-527.9-555.87-532.47
					c-110.56-2.29-217.72-42.22-317.39-87.14c-133.52-60.18-260.27-134.89-385.2-210.99c-263.89-160.76-520.59-340.92-803.25-468.05
					c-106.91-48.08-219.86-88.98-338.03-93.76c-90.31-3.65-178.47,12.59-262.07,46.8c-163.72,66.98-297.17,187.24-444.92,281.36
					c-73.8,47.02-152.23,88.11-237.07,111.07c-99.24,26.86-202.14,25.61-301.88,1.83c-250.8-59.8-464.1-229.62-669.58-376.66
					c-108.83-77.88-218.61-155.57-336.51-219.31c-109.39-59.13-232.03-110.74-357.79-117.78c-107.11-6-211.13,70.62-286.94,137.46
					c-107.58,94.85-198.08,208.14-288.4,318.98c-92.53,113.56-183.94,229.57-290.61,330.43c-87.26,82.51-191.31,160.74-315.26,169.1
					c-47.2-97.75-80.83-199.75-92.84-307.94c130.88-2.66,244.94-77.46,342.19-158.86c120.04-100.49,224.33-218.75,329.54-334.19
					c100.6-110.38,201.42-223.22,318.59-316.53c86.67-69.03,195.83-138.54,311.51-131.48c234.02,14.27,436.31,162.39,620.46,293.72
					c182.4,130.08,371.94,276.26,595.77,323.94c183.33,39.05,359.56-5.93,519.83-96.59c141.03-79.77,270.3-182.71,424.81-236.49
					c82.16-28.6,167.38-40.16,254.19-36.31c124.43,5.52,244.44,47.25,358.85,93.83c310.55,126.44,600.07,300.92,896.1,456.96
					c138.26,72.88,278.04,144.35,423.37,202.26c107.58,42.87,221.83,81.83,338.83,83.13c112.19,1.25,223.15-32.34,326.87-72.31
					c127.25-49.04,249.02-111.65,368.85-176.42c241.95-130.78,477.49-281.21,734.7-381.11c100.82-39.16,208.95-71.76,318.19-68.83
					c90.04,2.42,174.36,36.76,250.2,83.56c182.32,112.5,325.02,280.95,479.25,427c136.7,129.45,306.31,283.09,506.63,284.06
					c109.48,0.53,216.66-40.5,313.81-87.46c122.59-59.26,237.47-133.76,350.35-209.51c120.99-81.2,239.8-165.67,362.52-244.28
					c110.57-70.82,225.33-139.57,349.33-184.3c144.83-52.25,345.96-72.53,428.21,87.97c57.2,111.62,50.52,252.42,132.77,351.98
					c50.26,60.83,125.08,82.75,201.43,86.9c124.14,6.74,246.06-17.43,364.19-54.15c273.91-85.14,524.71-229.3,795.6-322.4
					c121.06-41.61,247.25-72.56,376.09-67.15C6034.61-1339,5950.41-1267.68,5865.67-1197.2z"/>
			</g>
			<g>
				<path d="M6126.77-1443.58c-129.59-5.06-256.7,25.43-378.91,66.12c-273.69,91.12-528.53,231.94-805.23,314.8
					c-118.99,35.63-241.4,58.97-366.01,52.13c-75.24-4.13-149.31-25.5-197.81-86.64c-79.91-100.76-66.88-241.77-121.96-353.78
					c-79.56-161.79-286.19-135.41-427.95-83.71c-124.57,45.43-239.99,114.43-351.36,185.48
					c-123.38,78.72-242.96,163.17-364.74,244.3c-113.42,75.56-228.86,149.83-351.98,208.8c-97.35,46.63-204.63,87.36-314.14,86.41
					c-199.57-1.74-367.77-154.7-503.57-284.18c-152.85-145.74-294.14-313.7-475.21-425.95c-75.61-46.87-159.66-81.16-249.52-83.79
					c-109.52-3.21-217.95,29.23-319.27,67.83c-262.51,100.01-503.48,251.48-750.83,382.75c-121.11,64.27-244.1,126.31-372.44,175
					c-105.61,40.07-218.81,73.8-332.87,70.96c-117.8-2.93-232.91-43.15-341.21-86.54c-146.31-58.63-287.25-130.28-426.8-203.29
					c-297.06-155.41-588.12-328.81-899.89-453.91c-113.83-45.68-232.84-86.15-356.37-91.08c-86.09-3.44-170.95,8.8-252.33,37.27
					c-153.11,53.56-281.61,155.11-421.89,233.53c-159.57,89.2-335.47,133.31-517.42,94.71c-222.25-47.15-409.98-193.5-590.79-322.76
					c-179.54-128.34-380.51-275.47-609.88-284.72c-116.59-4.7-225.82,64.31-313.66,133.7c-118.16,93.35-220.36,205.95-322.49,316.04
					c-106.42,114.72-212.16,232.17-333.76,331.25c-98.78,80.49-214.35,153.3-345.84,153.54c-5.9-114.63,6.18-230.88,21.52-344.36
					c147.41,0.72,281.95-65.28,401.79-146.01c135.84-91.5,257.74-202.15,380.26-310.31c120.06-106,240.84-214.03,376.78-299.6
					c107.25-67.51,229.58-122.77,358.95-117.68c195.75,7.7,361.67,146.16,507.65,262.55c147.29,117.43,303.6,256.31,494.11,293.92
					c172.64,34.09,343.35-17.95,491.66-104.84c135-79.1,259.05-179.4,408.72-230.64c79.89-27.35,163.33-38.41,247.61-34.8
					c123.17,5.27,242.95,49.04,356.13,94.82c316.55,128.04,614.35,299.88,918.69,453.58c143.83,72.64,289.09,143.84,439.48,202.03
					c105.67,40.89,218.95,80.69,333.53,82.34c113.07,1.63,225.7-33.3,330.8-71.71c132.98-48.61,261.36-109.35,388.4-171.57
					c265.95-130.26,527.12-277.55,806.75-377.24c104.29-37.18,216.32-70.94,328.22-67.48c92.35,2.86,179.16,37.53,256.71,86.11
					c177.83,111.39,313.61,279.54,461.56,425.45c134.56,132.7,299.1,279.98,499.73,281.23c110.04,0.69,218.28-40.61,316.67-86.21
					c130.15-60.31,252.91-135.93,373.88-212.63c130.44-82.71,258.88-168.64,391.05-248.61c116.31-70.38,236.43-138.77,365.1-184.04
					c123.26-43.36,369.19-89.74,416.19,84.19c30.2,111.76-25.19,243.63,34.34,348.26c37.65,66.18,116.7,82.15,186.94,85.36
					c126.83,5.79,253.57-15.93,376.77-44.11c305.17-69.8,597.3-186.26,901.31-260.35c129.27-31.51,262.05-56.26,395.64-50.5
					C6248.94-1610.92,6194.53-1523.28,6126.77-1443.58z"/>
			</g>
			<g>
				<path d="M6281.49-1742.18c-134.02-4.91-267.17,19.99-396.94,51.21c-305.64,73.55-600.04,187.98-906.92,256.82
					c-122.87,27.56-249.47,49.28-375.85,43.36c-69.9-3.28-149.08-20-185.56-86.52c-57.82-105.46,0.4-236.26-29.89-348.15
					c-47.2-174.36-298.53-125.07-420.74-81.66c-129.08,45.85-249.64,114.54-366.5,185.17c-132.58,80.13-261.51,166.08-392.42,248.86
					c-120.95,76.49-243.7,151.94-373.89,211.89c-98.31,45.27-206.42,85.93-316.25,84.39c-200.7-2.82-364.81-150.85-499.64-283.61
					c-148.45-146.16-285.24-314.5-464.06-425.38c-77.88-48.29-164.61-82.14-257.05-84.49c-112.76-2.87-225.32,31.01-330.36,68.75
					c-278.85,100.17-538.98,248.05-804.12,378.65C34.98-1460.68-92.75-1400-225.17-1351.74c-104.97,38.25-217.36,72.49-330.25,70.13
					c-115.2-2.42-228.79-42.49-334.98-83.89c-150.31-58.61-295.47-130.17-439.2-203.18c-303.08-153.94-599.7-326.1-915.39-453.61
					c-112.93-45.61-231.76-88.19-354.56-93.27c-84.1-3.48-167.23,7.91-246.77,35.74c-149.43,52.3-272.7,153.93-407.4,233.76
					c-147.38,87.34-318.13,139.6-490.12,104.58c-188.6-38.41-343.08-177.59-488.79-294.32
					c-144.48-115.75-309.23-253.56-503.57-260.07c-130.75-4.38-254.47,51.16-363.17,119.02
					c-136.73,85.36-258.54,192.99-379.71,298.59c-123.31,107.46-246.12,217.32-382.85,307.73
					c-121.06,80.05-256.68,144.59-404.66,142.69c17.82-118.65,41.75-236.17,68-353.21c145.89,2.35,281.19-54.31,404.21-128.59
					c140.54-84.86,267.46-190.45,395.18-292.98c121.51-97.55,244.17-196.21,380.31-272.91c115.52-65.08,242.5-112.55,376.81-108.05
					c195.36,6.55,365.75,147.92,513.02,261.82c145.32,112.39,301.27,251.78,486.97,288.79c172.29,34.34,336.55-29.2,474.66-128.61
					c130.38-93.84,246.37-212.47,396.81-275.05c78.21-32.54,160.93-45.5,245.38-41.45c119.16,5.72,233.77,48.75,342.31,95.47
					c304.89,131.21,588.21,309.59,879.15,468.08c135.75,73.95,273.16,146.2,416.16,205.29c106.72,44.09,220.79,84.93,337.57,86.42
					c108.84,1.39,216.23-32.65,316.13-72.91c124.03-49.98,242.35-113.49,358.95-178.62c244.22-136.43,482.91-291.73,745.08-392.41
					c101.84-39.11,210.54-70.69,320.64-67.28c95.43,2.96,184.26,38.5,265.05,87.65c189.67,115.38,340,286.89,501.1,437
					c143,133.25,315.76,288.15,523,290.44c111.18,1.23,219.69-39.67,318.72-86.65c128.94-61.16,249.9-138.36,369.01-216.55
					c126.12-82.78,250.27-168.61,378.38-248.33c115.7-72,235.68-141.71,364.67-187.19c145.55-51.32,362.75-80.09,440.18,89.77
					c53.44,117.23,29.62,264.8,104.53,372.82c43.52,62.76,114.69,79.82,187.17,82.14c126.55,4.05,251.4-17.46,373.89-47.77
					c294.61-72.89,575.89-191.01,870.46-264.15c130.46-32.39,264.4-56.49,399.31-51.21
					C6293.6-1966.18,6303.08-1850.93,6281.49-1742.18z"/>
			</g>
			<g>
				<path d="M6280.44-2108.88c-134.91-4.86-268.69,19.68-398.95,52.83c-291.95,74.29-570.2,194.07-862.44,267.24
					c-121.76,30.49-245.42,51.2-371.26,47.19c-73.14-2.33-143.19-22.29-186.98-84.78c-77.02-109.89-58.62-259.39-117.54-377.61
					c-83-166.55-295.29-140.69-442.99-88.53c-131.56,46.47-253.6,118.22-371.31,192.17c-127.67,80.2-251.46,166.34-377.35,249.26
					c-116.45,76.7-234.82,152.3-360.92,212.32c-98.92,47.08-207.32,87.76-318.42,86.46c-208.15-2.44-382.78-159.52-526.71-292.87
					c-164.09-152.03-317.65-326.34-511.63-441.6c-80.22-47.66-167.76-81.31-261.82-84.05c-109.8-3.2-218.59,29.33-319.82,68.98
					c-259.87,101.79-495.73,258.16-737.55,395.3c-115.15,65.31-232.08,128.96-354.92,178.78c-99.13,40.21-205.54,73.67-313.63,71.58
					c-114.5-2.21-226.19-42.41-330.82-85.8c-145.36-60.29-284.79-134.53-422.52-210.35c-286.67-157.82-565.94-334.89-866.63-465.55
					c-108.1-46.97-222.67-90.55-341.58-96.26c-86.07-4.13-170.28,9.92-249.47,44.27c-148.66,64.48-262.84,183.65-391.63,278.3
					c-138.65,101.89-304.82,167.21-478.96,130.46c-185.09-39.06-340.99-177-487.02-288.76
					c-149.11-114.11-321.37-255.38-518.27-261.52c-134.49-4.2-261.38,43.09-377.11,108.23c-135.71,76.39-258.03,174.55-379.3,271.55
					c-127.25,101.79-253.78,206.58-393.96,290.41c-122.91,73.5-258.01,128.91-403.37,125.39c27.34-118.92,56.54-237.4,84.3-356.23
					c137.77,4.27,265.75-46.93,382.41-116.47c128.86-76.83,245.21-172.87,362.43-265.95c203.52-161.62,436.82-355.59,712.61-343.29
					c104.17,4.65,203.64,43.16,295.69,89.85c101.6,51.53,196.98,114.52,291.56,177.73c95.21,63.62,189.69,128.79,289.25,185.52
					c85.42,48.67,176.52,93.1,273.74,111.87c88.44,17.07,180.86,9.05,264.46-24.71c78.06-31.52,145.99-83,207.89-139.22
					c124.86-113.41,231.3-254.46,382.51-335.19c75.19-40.14,159.08-60.36,244.39-56.49c113.15,5.13,223.23,52.66,323.95,100.89
					c286.7,137.3,548.73,322.89,819.77,487.65c127.41,77.45,256.79,153.26,392.83,214.72c97.79,44.18,204.75,86.39,313.58,87.52
					c101.27,1.05,199.7-35.39,289.32-79.58c109.32-53.91,211.09-122.38,310.68-192.26c204.51-143.48,402.33-306.5,630.24-412.32
					c92.65-43.02,194.06-76.76,297.43-73.12c99.84,3.52,194.38,43.72,279.48,93.61c209.95,123.09,382.65,302.46,565.64,460.49
					c89.97,77.7,182.88,153.97,285.65,214.31c86.12,50.57,182.01,90.51,283.33,90.87c107.9,0.38,212.61-41.36,307.36-89.53
					c122.52-62.3,236.45-140.76,348.34-220.16c120.89-85.78,239.55-174.77,362.7-257.32c109.33-73.29,223.13-144,346.79-190.58
					c97.71-36.81,205.63-56.27,308.26-28.4c81.51,22.14,148.39,74.35,201.58,138.64c109.55,132.43,162.25,306.49,284.89,428.61
					c63.11,62.84,141.98,95.97,230.91,98.49c118.57,3.36,234.28-21.69,346.33-58.91c253.43-84.17,486.28-219.93,739.97-303.56
					c121.14-39.94,246.78-66.99,374.91-62.39C6257.38-2330.52,6271.42-2219.99,6280.44-2108.88z"/>
			</g>
			<g>
				<path d="M6232.46-2472.95c-127.25-3.86-251.73,23.97-371.57,64.96c-249.63,85.39-477.65,223.2-727.44,308.04
					c-110.55,37.55-225.17,62.61-342.44,58.67c-88.62-2.98-167.69-38.01-231.48-99.19c-129.98-124.67-189.96-303.77-307.47-438.77
					c-55.1-63.31-123.26-115.03-205.09-137.56c-102.96-28.35-210.93-9.14-309.01,27.93c-125.89,47.57-241.56,120.7-352.43,195.96
					c-120.12,81.54-236.01,169.07-354.06,253.53c-111.32,79.65-224.7,158.35-346.8,220.8c-95.96,49.08-202.5,91.52-312.06,89.44
					c-99.93-1.89-194.66-42.16-279.65-92.06c-103.8-60.94-197.76-137.75-288.85-215.97c-186.54-160.18-362.98-342.58-577.74-465.76
					c-84.24-48.31-177.63-86.97-275.91-89.87c-102.82-3.03-203.32,31.44-295,75.16c-224.88,107.24-418.96,271.38-620.24,415.71
					c-97.77,70.11-197.85,138.81-305.71,192.65c-88.43,44.14-185.99,80.25-286.2,78.39c-108.99-2.03-215.99-45.37-313.61-90.24
					c-135.54-62.31-264.39-138.82-391.3-216.92c-266.66-164.09-524.58-348.34-806.99-485.11
					c-101.59-49.2-213.66-98.25-328.25-102.06c-85.28-2.84-168.71,18.99-243.1,60.31c-149.28,82.92-254.06,224.41-377.46,338.66
					c-62.84,58.19-132.06,111.47-212.18,143.5c-82.66,33.04-173.5,40.34-260.76,23.48c-98.57-19.04-190.97-63.71-277.85-112.64
					c-101.19-57-197.37-122.42-294.29-186.27c-98.04-64.59-196.95-129-302.36-181.09c-91.82-45.38-190.65-82.33-293.93-86.77
					c-277.11-11.92-510.42,185.05-714.52,347.54c-113.81,90.61-227.11,183.7-352.51,258.12
					c-115.9,68.78-243.13,118.83-379.83,113.53c27-117.34,52.07-235.09,71.66-353.92c262.18,9.6,477.57-190.64,666.99-345.99
					c186.34-152.82,396.88-331.22,653.11-316.89c116.86,6.54,229.68,46.95,335.52,94.63c120.06,54.09,234.48,119.94,348.27,185.94
					c112.38,65.19,224.19,131.77,340.46,189.89c100.08,50.04,205.03,95.63,315.57,116.33c93.1,17.44,185.68,10.94,271.69-30.56
					c81.63-39.39,149.05-102.6,209.31-169.18c118.95-131.45,216.55-291.88,367.42-390.51c70.72-46.23,154.11-74.47,239.24-71.84
					c109.39,3.38,217.09,55.88,311.76,106.32c266.21,141.82,504.69,332.35,753.06,502.11c119.08,81.39,240.41,161.33,369.48,226.18
					c91.68,46.07,196.42,92.85,301.15,91.98c91.42-0.76,177.97-39.25,254.23-86.93c91.59-57.26,173.34-129.34,252.4-202.49
					c163.71-151.47,318.11-324.5,512.14-438.42c79.13-46.46,169.03-82.69,262.26-80.55c106.14,2.44,209.12,48.7,299.85,100.27
					c231.34,131.51,427.17,319.33,633.03,485.74c100.1,80.92,202.87,160.33,314.94,224.17c90.37,51.47,192.73,97.07,298.6,97.96
					c105.41,0.89,207.32-43.04,297.84-93.29c114.91-63.8,220.44-143.72,323.76-224.52c114.02-89.16,225.47-181.69,342-267.6
					c102.98-75.93,211.15-149.77,330.47-197.64c101.11-40.56,205.34-54.11,311.27-23.97c104.67,29.78,196.5,92.62,277.91,163.21
					c179.01,155.24,315.03,356.55,504.54,500.05c85.54,64.77,185.28,114.81,294.25,119.39c106.27,4.47,211.26-28.28,306.06-73.8
					c206.71-99.27,379.55-256.39,587.18-354.18c102.47-48.26,211.57-78.54,325.44-76.46
					C6196.01-2692,6215.26-2582.65,6232.46-2472.95z"/>
			</g>
			<g>
				<path d="M6168.65-2833.49c-112.82-1.28-220.46,29.86-321.2,79.28c-203.41,99.77-370.78,258.91-573.98,358.83
					c-91.75,45.12-193.53,77.23-296.82,73.41c-110.91-4.11-212.97-55.12-300.63-120.1c-197.85-146.65-341.83-352.91-529.59-511.15
					c-84.01-70.81-178.43-133.89-285.48-163.18c-106.81-29.23-211.02-14.22-312.34,27.69c-118.99,49.21-226.63,123.89-329.29,200.6
					c-113.56,84.86-222.33,175.86-333.61,263.64c-102.75,81.05-207.7,161.24-322.18,225.21c-90.13,50.36-191.8,94.31-296.97,93.17
					c-106.46-1.16-209.54-47.37-300.4-99.16c-113.01-64.41-216.77-144.37-317.9-225.78c-209.41-168.57-408.87-359.41-644.99-491.03
					c-89.41-49.84-190.88-94.45-294.98-96.07c-92.72-1.44-181.68,35.36-259.81,82.53c-191.19,115.43-341.92,289.52-502.64,441.75
					c-77.42,73.33-157.69,145.57-248.1,202.7c-75.32,47.59-161.41,85.86-252.07,85.6c-105.06-0.3-209.72-47.96-301.41-94.79
					c-125.98-64.34-244.46-143-360.76-223.2c-249.1-171.78-487.97-365.25-755.83-507.8c-93.57-49.8-201.41-102.29-309.76-103.72
					c-85.37-1.13-167.92,28.24-238.13,75.65c-150.35,101.53-247.08,263.78-366.5,396.55c-59.13,65.74-125.4,128.03-205.59,167.13
					c-86.41,42.13-179.28,48.28-272.82,30.72c-111.79-20.98-218.05-66.85-319.46-117.13c-117.78-58.4-231.16-125.24-345.11-190.68
					c-115.28-66.2-231.22-132.22-352.75-186.42c-109.04-48.63-224.87-89.22-345.12-94.79c-251.39-11.64-459.36,166.74-641.8,316.88
					c-187.84,154.59-401.84,353.14-662.43,342.01c17.35-114.79,28.86-230.19,30.28-346.34c252.03,3.53,453.62-184.32,635.02-335.86
					c170.84-142.72,367.66-311.25,604.92-298.26c124.24,6.8,244.93,49.7,358.41,98.13c131.99,56.33,258.75,124.27,385.05,192.16
					c122.95,66.1,245.49,133.34,372.02,192.44c110.7,51.71,226.03,99.27,346.72,121.56c96.64,17.85,192.04,14.07,280.36-32.46
					c81.91-43.15,147.43-111.82,205.24-182.86c116.92-143.7,209.2-318.55,361.34-429.64c69.89-51.04,153.87-82.76,241.25-79.98
					c109.21,3.48,215.76,57,308.62,109.94c253.8,144.68,476.27,340.3,709.75,514.32c110.82,82.59,224.06,163.7,345.82,229.57
					c89.34,48.32,192.35,96.52,296.22,95.5c189.15-1.85,333.57-168.01,444.94-301.4c131.8-157.87,250.57-341.04,420.77-461.25
					c69.52-49.1,150.97-84.99,237.49-83.32c107.24,2.06,212.16,50.36,304.2,101.45c249.12,138.27,463.5,334.05,687.73,507.69
					c107.06,82.9,216.55,164.35,334.78,230.81c94.07,52.88,201.74,102.95,311.87,103.84c103.63,0.85,202.93-44.66,289.98-97.06
					c110.07-66.26,209.65-149.12,306.87-232.62c103.14-88.57,203.72-180.17,309.32-265.84c96.97-78.68,199.51-155.68,314.55-206.03
					c103.4-45.25,206.39-55.8,315.27-24.42c125.8,36.24,239.25,108.73,343.84,185.6c240.58,176.79,446.71,398.5,696.95,562.4
					c103.98,68.1,225.33,132.79,352.44,137.64c95.62,3.65,188.6-32.04,266.94-84.63c166.51-111.78,279.44-286.03,445.75-398.25
					c85.86-57.93,181.84-91.25,285.83-90.87C6132.64-3052.9,6150.15-2943.12,6168.65-2833.49z"/>
			</g>
		</g>
	</g>
</g>
</svg>
