<?xml version="1.0" encoding="utf-8"?>
<!-- Generator: Adobe Illustrator 24.1.1, SVG Export Plug-In . SVG Version: 6.00 Build 0)  -->
<svg version="1.1" id="Layer_1" xmlns="http://www.w3.org/2000/svg" xmlns:xlink="http://www.w3.org/1999/xlink" x="0px" y="0px"
	 viewBox="0 0 1920 1080" style="enable-background:new 0 0 1920 1080;" xml:space="preserve">
<style type="text/css">
	.st0{clip-path:url(#SVGID_2_);}
</style>
<g>
	<defs>
		<rect id="SVGID_1_" width="1920" height="1080"/>
	</defs>
	<use xlink:href="#SVGID_1_"  style="overflow:visible;fill:#FFFFFF;"/>
	<clipPath id="SVGID_2_">
		<use xlink:href="#SVGID_1_"  style="overflow:visible;"/>
	</clipPath>
	<g class="st0">
		<g>
			<g>
				<path d="M5958.43,1545.64c-113.79,18.85-195.28,93.46-253.58,189.64c-133.25,219.84-161.58,488.96-303.96,704.17
					c-58.98,89.15-141.04,159.15-249.38,175.57c-96.59,14.64-189.01-10.27-270.35-62.89c-172.08-111.33-285.38-292.6-447.14-416.99
					c-75.99-58.43-163.33-104.43-259.73-115.26c-112.43-12.64-226.57,22.06-327.45,69.12c-127.05,59.26-242.98,140.99-353.78,226.17
					c-122,93.79-238.56,194.37-356.76,292.83c-107.51,89.56-216.29,178.79-333.88,254.97c-95.07,61.59-199.37,117.84-312.37,136.55
					c-213.8,35.41-428.74-77.39-611.38-174.09c-203.35-107.66-403.67-233.45-626.79-296.59c-96.89-27.42-199.57-41.56-299.73-25.43
					c-110.18,17.75-214.2,68.22-309.62,124.19c-223.04,130.83-417.65,305.02-618.84,465.92c-93.98,75.16-189.56,149.3-292.15,212.48
					c-85.92,52.92-179.25,100.16-279.58,117.48c-100.82,17.41-204.25,10.63-305.17-2.29c-123.34-15.79-245.22-41.85-366.37-69.45
					c-245.46-55.91-491-126.34-742.3-150.81c-96.63-9.41-194.06-10.68-289.17,10.92c-86.13,19.56-167.38,49.25-246.05,89.54
					c-167.32,85.69-315.8,202.61-473.92,303.29c-153.2,97.56-325.36,186.46-510.88,192.25c-221.94,6.92-437.46-98.59-638.14-180.18
					c-215.1-87.45-454.2-187.57-691.51-154.31c-234.94,32.93-406.05,195.6-571.62,352.35c-174.8,165.5-360.76,346.02-606.74,390.66
					c-4.58-91.02-9.5-182.02-14.5-273.02c249.29-30.56,422.35-222.84,577.03-403.05c146.66-170.86,297.15-362.76,531.2-405.17
					c222.31-40.29,439.87,55.52,636.14,149.05c183.03,87.21,379.31,204.02,588.31,203.49c186.12-0.47,358.88-103.96,506.81-206.86
					c160.28-111.49,309.58-239.65,479.04-337.6c79.07-45.7,163.18-84.81,252.47-105.59c100.38-23.35,205.97-15.22,307.05-0.95
					c278.63,39.33,549.19,129,819.75,203.39c135.4,37.23,271.53,73.2,409.72,98.59c109.36,20.1,228.14,39.31,339.26,21.91
					c105.01-16.44,204.12-66.96,294.59-120.49c114.17-67.55,221.19-146.79,326.48-227.25c226.7-173.24,445.53-360.89,691.32-507.25
					c101.79-60.61,211.55-117.09,328.65-140.56c96.05-19.25,197.92-1.8,289.82,28.15c215.86,70.35,403.76,208.93,594.43,328
					c171,106.79,376.12,235.41,587.3,207.89c113.78-14.83,220.76-68.36,318.22-126.28c122.51-72.8,236.79-158.94,349.51-245.83
					c233.06-179.66,461.64-380.78,727.95-510.55c98.33-47.92,209.67-88.56,320.88-80.8c90.75,6.33,171.93,48.57,240.34,106.76
					c141.02,119.95,226.6,295.75,376.51,405.74c75.5,55.4,164.99,82.6,258.59,72.59c107.79-11.53,189.76-76.95,247.66-165.51
					c140.43-214.78,161.38-484.86,283.59-708.77c52.67-96.51,127.3-178.68,237.65-204.68
					C5938.97,1354.91,5953.29,1448.92,5958.43,1545.64z"/>
			</g>
			<g>
				<path d="M5923.67,1230.02c-111.53,21.06-188.99,99.13-243.47,194.96c-125.67,221.08-147.21,487.13-278.5,705.41
					c-54.97,91.4-134.93,165.85-243.9,181.41c-93.24,13.32-183.87-10.65-260.64-64.44c-151.83-106.38-236.28-282.07-373.59-404.09
					c-65.09-57.85-142.57-102.09-230.22-112.23c-108.27-12.53-217.92,24.43-314.74,69.5c-128.03,59.6-246.16,139.62-360.21,222.29
					c-127.29,92.27-250.13,190.47-374.68,286.37c-113.61,87.47-228.56,174.33-351.43,248.53
					c-98.28,59.36-205.22,114.27-319.81,132.4c-208.17,32.93-411.03-91.34-579.59-197.14
					c-191.04-119.91-377.12-260.44-591.71-336.21c-93.18-32.9-195.82-53.04-294.55-36.85c-114.09,18.71-223.05,74.75-321.91,132.15
					c-248.93,144.51-470.03,333-697.9,507.46c-107.14,82.03-215.77,163.03-331.31,232.99c-92.4,55.95-191.86,107.73-298.74,128.78
					c-106.76,21.03-223.26,2.79-329.01-15.81c-141.51-24.89-280.79-61.77-419.15-100.08c-275.29-76.24-549.71-168.37-832.68-212.31
					c-102.94-15.98-211.79-27.23-314.76-5.58c-87.9,18.48-171.15,56.21-249.02,100.21c-171.39,96.87-321.57,226.04-481.68,339.56
					c-149,105.64-322.58,214.68-511.26,218.73c-205.13,4.4-398.5-110.43-576.89-197.51c-193.32-94.36-410.73-196.64-631.77-160.77
					c-111.28,18.06-205.65,66.14-290.83,139.52c-89.63,77.22-164.72,169.77-240.41,260.19
					c-152.21,181.87-320.67,380.02-568.74,417.43c-4.94-91.16-9.98-182.3-14.98-273.46c252.91-32.76,399.52-259.22,524.47-457.66
					c112.8-179.15,236.24-410.48,462.76-456.33c210.31-42.57,409.39,63.86,584.03,168.4c159.68,95.59,332.18,224.41,525.88,229.73
					c91.48,2.51,181.3-29,262.66-68.35c90.8-43.92,174.79-100.93,255.8-160.66c167.58-123.57,324.03-263.62,502.6-371.73
					c79.87-48.35,166.21-92.13,257.7-113.39c108.26-25.16,228.97-4.43,336.22,16.11c314.98,60.32,619.05,173.43,924.34,269.19
					c150.24,47.13,301.38,93.02,455.27,126.86c111.63,24.54,235.65,51.36,350.48,35.6c111.16-15.26,218.22-72.68,313.73-128.44
					c125.34-73.17,243.47-158.35,359.93-244.73c248.42-184.27,488.64-384.05,755.7-541.45c102.44-60.38,212.85-118.69,330.64-141.64
					c93.54-18.22,192.32,3,279.62,37.3c206.04,80.94,378.64,230.74,556.21,358.84c158.58,114.39,352.92,252.31,559.84,224.12
					c111.49-15.19,215.96-69.23,311.74-125.48c123.32-72.43,238.95-157.45,352.54-244.08c119.39-91.06,236.43-185.16,356.33-275.55
					c110.63-83.4,223.92-165.74,346.83-230.33c90.59-47.61,193.97-90.92,298.54-81.94c82.25,7.06,154.05,48.59,214.16,103.18
					c131.19,119.15,213.5,286.84,359.38,390.77c72.74,51.83,158.29,77.2,247.58,65.48c102.59-13.47,178.61-84.11,230.82-169.46
					c134.33-219.57,155.58-488.83,274.95-715.62c51.16-97.19,123.69-182.72,233.75-210.66
					C5859.22,1021.46,5895.14,1124.57,5923.67,1230.02z"/>
			</g>
			<g>
				<path d="M5823.09,886.72c-111.61,22.83-187.15,104.32-240.34,201c-123.24,223.99-145.49,490.09-272.34,712.26
					c-50.52,88.48-124.6,166.83-229.06,184.71c-88.85,15.2-176.76-7.81-250.75-57.97c-146.79-99.5-230.37-264.85-357.61-384.85
					c-58.69-55.35-128.56-99.92-209.94-110.42c-101.97-13.16-203.49,26.34-292.74,71.78c-122.05,62.14-234.14,143.29-343.21,225.56
					c-119.37,90.04-235.61,184.15-353.97,275.51c-113.57,87.66-228.96,174.02-351.95,248.17
					c-96.56,58.22-201.68,113.63-313.96,132.9c-204.24,35.06-396.44-96.55-553.52-209.81
					c-179.91-129.71-352.52-283.44-559.55-369.21c-87.01-36.04-184.29-59.08-278.69-44.38c-113.91,17.74-222.44,74.74-321.18,131.53
					c-269.4,154.94-510.93,355.31-759.64,540.32c-118.22,87.94-237.92,174.85-364.57,250.39
					c-96.96,57.83-201.09,112.95-312.63,135.85c-52.65,10.81-108.6,7.35-161.77,2.26c-63.97-6.13-127.4-17.53-190.19-31.02
					c-154.45-33.19-306.05-79.14-456.64-126.52c-307.74-96.84-613.25-210.97-929.81-276.38c-111.36-23.01-233.94-45.44-347.64-25.65
					c-91.76,15.97-180.41,61.71-259.78,108.64c-180.97,106.99-338.77,248.1-506.76,373.42c-81.7,60.95-166.17,119.41-257.43,165.25
					c-81.21,40.79-171.53,75.05-263.58,74.86c-190.93-0.41-361.36-127.2-516.99-222.95c-171.89-105.75-368.95-219.1-578.87-183.21
					c-230.28,39.37-353.31,267.53-464.28,449.39c-121.86,199.69-262.26,434.06-513.27,475.67c-5.01-91.11-9.97-182.22-14.84-273.33
					c254.5-40.94,366.17-309.76,457.84-519.16c49.04-112.02,95.78-227.24,164.01-329.33c56.55-84.61,133.89-162.1,237.08-183.2
					c200.93-41.09,383.68,83.33,535.68,198.2c140.95,106.53,294.22,249.51,480.09,260.32c92.93,5.4,184.38-29.61,266.43-70.04
					c95.61-47.11,184.08-107.77,269.61-171c180.94-133.76,350.3-285.26,544.19-400.7c82.82-49.31,173.05-94.7,268.15-114.35
					c114.96-23.76,244.88,5.74,356.95,31.2c344.47,78.25,675.85,210.66,1009.59,324.21c159.91,54.41,320.8,107.57,484.92,147.95
					c117.02,28.79,249.9,62.07,371.29,43.26c112.39-17.41,219.17-74.77,316.17-131.28c129.53-75.47,252.09-162.67,373.01-251.07
					c256.53-187.54,504.6-391.27,777.95-554.44c97-57.9,201.99-115.46,314.44-135.64c91.32-16.39,182.78,3.61,266.67,40.6
					c196.09,86.45,356.67,241.12,524.7,370.31c147.84,113.66,334.66,253.85,533.18,224.48c105.65-15.63,204.22-68.04,293.6-124.08
					c116.16-72.82,223.62-159.05,328.71-246.79c110.22-92.02,217.73-187.24,328.35-278.77c99.46-82.3,201.66-163.81,314.08-227.92
					c82.98-47.32,177.94-89.34,275.65-81.92c80.49,6.11,151.6,46.33,212.6,97c134.25,111.54,229.46,267.03,378.99,360.81
					c76.53,48,164.29,71.31,254.4,58.02c103.34-15.24,178.23-88.27,230.57-174.45c135.1-222.47,162.09-493.09,286.88-720.74
					c52.7-96.13,125.95-180.95,235.6-209.33C5733.76,670.05,5780.02,777.72,5823.09,886.72z"/>
			</g>
			<g>
				<path d="M5688.31,529.03c-111.12,23.18-187.48,103.88-242.33,199.23c-130.07,226.1-157.71,496.68-288.89,722.08
					c-50.54,86.83-123.19,165.11-225.89,184.4c-88.17,16.57-176.87-2.79-254-47.16c-154.95-89.14-253.48-246.35-388.15-359.82
					c-59.44-50.09-128.23-91.61-206.69-101.19c-95.27-11.64-188.31,25.55-270.35,70.5c-113.99,62.45-216.88,144.5-316.62,227.24
					c-109.91,91.18-216.43,186.34-325.47,278.54c-102.82,86.95-207.74,172.51-320.77,245.99
					c-89.71,58.32-188.26,113.39-294.61,133.3c-197.74,37.02-383.77-96.73-532.23-209.75c-170.8-130.03-331.76-286.88-528.69-377.56
					c-80.91-37.26-169.79-60.02-259.14-47.53c-110.55,15.44-214.6,70.92-309.61,126.61c-272.64,159.81-518.88,363.72-773.1,550.36
					c-122.13,89.66-245.71,178.26-375.99,255.82c-99.04,58.96-205.72,116.89-319.92,139.41c-115.32,22.73-242.75-6.88-354.9-33.18
					c-166.82-39.12-330.12-92.89-492.22-147.99c-335.36-113.99-667.36-246.68-1012.21-330.03
					c-118.7-28.69-252.56-60.48-375.36-41.35c-95.13,14.82-187.57,61.67-269.91,109.51c-194.23,112.85-363.63,263.15-543.12,396.99
					c-88.05,65.66-178.88,129.01-277.09,178.66c-82.22,41.57-174.87,79-268.57,75.69c-184.11-6.52-336.15-147.22-473.85-253.86
					c-150.97-116.93-328.06-244.66-530.21-213.07c-104.35,16.31-183.63,89.88-241.26,174.23
					c-69.14,101.2-115.14,216.87-162.65,329.19c-88.75,209.8-193.21,486.7-444.53,538.13c-4.89-90.97-9.67-181.94-14.39-272.92
					c256.48-50.16,331.55-363.55,395.29-576.96c36.73-122.97,70.93-249.78,131.64-363.61c47.56-89.17,121.52-177.74,227.29-193.93
					c201.35-30.82,367.05,109.47,505.44,235.82c130.25,118.92,273.58,273.81,461.37,285.93c94.45,6.1,188.63-28.77,272.81-68.28
					c103.63-48.65,199.83-112.11,293.09-178.09c194.43-137.57,377.87-294,587.36-408.98c89.03-48.86,185.04-91.25,286.15-106.59
					c125.07-18.97,258.76,13.75,379.35,44.05c361.76,90.89,709.25,234.13,1060.36,358.13c156.22,55.17,313.55,109.08,474.36,149.44
					c118.32,29.69,247.04,58.6,369.55,40.78c114.72-16.69,222.56-72.66,320.95-131.33c126.39-75.37,244.61-164.06,360-255.12
					c232.99-183.86,452.19-389.76,701.34-552.15c89.68-58.45,188.48-115.52,295.61-133.07c85.94-14.09,170.84,7.87,248.69,44.01
					c189.98,88.19,346.77,238.81,511.71,364.68c145.16,110.77,331.72,251.67,526.43,221.61c101.68-15.7,195.45-69.33,279.18-126.59
					c106.22-72.64,203.18-158.32,297.61-245.44c100.86-93.04,198.69-189.32,299.99-281.88c90.45-82.64,183.92-164.83,288.94-228.68
					c76.79-46.69,162.76-83.57,254.29-79.35c81.82,3.77,157,39.36,223.86,84.58c151.58,102.51,270.79,249.68,435.98,332.71
					c83.59,42.01,176.19,61.89,269.33,47.06c106.08-16.88,182.77-89.62,238.58-177.54c141.38-222.73,178.74-495,313.3-721.48
					c56.48-95.07,132.92-177.83,243.33-205.66C5593.72,312.69,5641.1,420.83,5688.31,529.03z"/>
			</g>
			<g>
				<path d="M5551.39,170.44c-111.87,22.62-191.39,101.27-250.12,195.41c-140.06,224.5-178.48,496.93-316.51,722.3
					c-54.04,88.24-129.17,167.01-234.59,187.2c-93.49,17.9-187.89,0.91-273.36-39.31c-165.17-77.73-286.44-220.03-434.31-323.17
					c-66.73-46.54-141.28-85.58-223.37-93.93c-93.74-9.52-182.26,24.37-261.75,71.39c-104.44,61.79-196.98,142.99-286.16,224.63
					c-100.69,92.18-197.59,188.39-297.3,281.6c-94,87.88-190.32,174.45-295.74,248.56c-83.65,58.81-176.89,114.05-278.8,132.78
					c-190,34.92-373.11-96.5-516.32-203.78c-170.55-127.76-330.06-282.49-523.7-375.63c-77-37.04-161.96-61.76-247.95-49.8
					c-105.55,14.68-203.19,70.08-291.23,127.18c-241.63,156.69-453.13,357.59-676.85,537.87c-115,92.67-232.62,183.12-358.22,261.1
					c-99.7,61.9-208.27,120.96-324.72,143.16c-118.71,22.63-243.98-2.26-359.69-29.75c-165.9-39.42-327.86-94.96-488.48-151.71
					c-351.92-124.34-699.78-268.31-1062.07-360.61c-120.21-30.63-251.12-62.26-376.08-49.47c-101.08,10.35-198.5,51.12-287.65,97.94
					c-212.17,111.43-397.29,267.83-591.89,406.04c-94.36,67.02-191.36,131.79-295.65,182.47c-87.98,42.75-187.6,81.6-287.1,76.22
					c-184.96-10-326.75-159.74-453.95-277.8c-137.15-127.27-299.54-273.42-501.28-251c-107.41,11.94-183.55,92.19-233.58,182.36
					c-62.38,112.41-96.16,239.45-131.66,362.18c-37.05,128.09-72.36,259.5-134.63,378.17c-53.79,102.52-131.23,189.54-247.14,217.97
					c-4.69-90.84-9.29-181.68-13.96-272.52c119.03-24.73,193.17-115.71,240.98-222.36c56.81-126.73,83.24-265.74,112.42-400.74
					c27.98-129.43,53.8-264.07,112.44-383.87c44.56-91.04,116.12-171.63,221.58-185.8c211.01-28.35,375.08,127.74,512.53,264.94
					c132.42,132.18,277.49,289.67,476.07,305.56c106.1,8.49,214.26-24.89,310.66-66.24c108.07-46.36,209.18-107.9,307.07-172.64
					c210.68-139.34,408.36-301.84,633.57-418.06c93.27-48.13,192.59-87.8,297.08-102.41c133.57-18.68,270.59,8.03,399.96,40.4
					c343.11,85.82,669.58,230.55,998.6,357.74c153.65,59.4,308.53,117.98,467.8,160.72c115.14,30.9,239.81,58.37,359.35,39.56
					c106.37-16.74,204.94-69.11,293.92-127.66c112.86-74.26,215.51-163.43,314.15-255.41c195.91-182.69,373.08-390.3,586.61-553.2
					c74.41-56.76,158.1-111.15,251.53-128.91c84.97-16.15,170.17,5.95,247.71,40.68c195.24,87.44,359.1,237.36,530.93,361.74
					c87.77,63.53,178.67,125.26,277.89,169.65c82.98,37.12,175.15,62.28,266.37,46.35c93.8-16.38,179.23-67.7,254.93-123.17
					c99.37-72.81,188.46-159.09,274.81-246.62c92.56-93.82,181.79-190.86,274.93-284.11c80.15-80.24,163.47-159.98,258.28-222.9
					c79-52.43,165.95-88.72,262.14-85.95c88.51,2.54,172.37,35.53,249.33,77.24c171.08,92.73,318.25,226.89,500.33,299.78
					c93.71,37.51,194.83,55.16,295.19,38.49c104.4-17.34,183-84.66,242.7-168.92c155.65-219.7,206.16-495.76,352.18-721.24
					c62.06-95.82,143.77-178.36,257.94-205.31C5470.45-37.52,5509.65,66.96,5551.39,170.44z"/>
			</g>
			<g>
				<path d="M5444.4-175.56c-115.45,21.65-200.13,99.87-264.45,194.51c-151.61,223.08-203.4,498.77-355.59,721.31
					c-57.77,84.47-135.12,158.37-238.67,178.65c-100.62,19.71-203.19,4.91-298.51-30.69c-185.25-69.18-335.81-202.18-507.74-296.13
					c-77.56-42.38-161.76-77.03-250.96-82.1c-95.29-5.42-182.31,26.45-261.74,77.21c-94.55,60.43-177.22,138.88-256.32,217.88
					c-92.75,92.64-181.16,189.49-272.57,283.44c-86.03,88.41-174.5,175.74-272.97,250.41c-75.58,57.31-160.39,110.73-254.37,130.83
					c-196.8,42.09-393.36-94.78-544.71-202.56c-174.41-124.2-338.85-273.94-534.09-365.49c-77.01-36.11-162.63-61.89-248.34-49.1
					c-91.82,13.7-174.42,65.32-247.27,120.2c-99.5,74.95-188.71,163.15-276.51,251.19c-98.82,99.1-195.65,200.22-296.71,297.07
					c-97.08,93.04-197.98,183.44-309.02,259.68c-88.39,60.69-186.16,115.49-292.5,136.07c-116.28,22.5-238.17-1.92-351-31.15
					c-156.76-40.62-308.98-98.19-459.75-156.75c-328.04-127.41-652.47-273-993.68-362.48c-131.05-34.37-271.84-65-407.98-48.73
					c-105.01,12.56-204.65,49.64-298.75,96.82c-227.06,113.83-425.61,276.88-636.1,417.27c-98.68,65.82-200.4,128.61-309.06,176.71
					c-97.49,43.16-206.67,78.49-314.6,73.51c-200.64-9.25-351.52-163.88-484.88-297.03c-138.08-137.86-298.66-298.46-510.87-278.71
					c-106.81,9.95-181.98,81.31-229.8,173.13c-61.15,117.43-87.12,251.86-114.43,380.24c-29.02,136.4-54.27,276.44-108.4,405.68
					c-45,107.46-114.94,204.04-232.63,234.56c-4.51-90.81-9.03-181.63-13.85-272.42c122.98-21.07,195.04-115.06,240.46-224.95
					c54.11-130.9,78.17-272.98,108.15-410.71c44.81-205.85,105.01-532.19,363.62-560.96c220.7-24.55,398.55,135.39,551.99,270.9
					c155.24,137.1,326.04,299.63,542.74,320.08c241.45,22.79,476.33-121.12,667.52-250.78c213.06-144.5,411.36-313.92,638.96-436.02
					c96.16-51.58,199.08-94.19,307.73-109.67c130.45-18.59,263.27,6.87,388.9,41.67c312.43,86.54,604.41,236.73,898.69,369.7
					c135.6,61.27,272.59,121.98,414.93,166.09c101.39,31.41,211.67,58.01,318.37,42.64c101.86-14.68,193.93-68.68,273.67-131.39
					c94.62-74.41,176.59-164.1,253.52-256.27c148.89-178.38,274.96-380.59,443.44-541.73c62.48-59.76,136.56-116.89,223.75-132.56
					c83.08-14.93,168.41,7.6,244.86,39.41c205.47,85.5,381.46,233.66,565.06,356.46c94.13,62.96,191.23,123.93,296.06,167.6
					c86.98,36.23,183.74,61.69,278.26,44.86c91.6-16.31,174.18-67.81,246.6-123.98c94.36-73.19,177.71-159.96,258.29-247.74
					c83.13-90.56,163.15-183.93,247.07-273.76c78.86-84.41,161.5-168.51,257.86-233.14c81.34-54.57,169.85-86.25,268.5-84.44
					c93.16,1.71,183.55,29.91,268.58,66.25c196.48,83.98,373.27,209.87,576.61,278.59c102.48,34.63,211.59,53.22,319.52,37.7
					c113.36-16.3,199.88-85.52,267.72-174.72c162.64-213.87,229.55-484.27,385.63-702.48c68.2-95.35,155.52-176.12,273.03-201.21
					C5395.13-368.01,5416.92-271.09,5444.4-175.56z"/>
			</g>
			<g>
				<path d="M5399.41-495.47c-118.66,19.76-208.76,96.18-279.18,190.18c-161.36,215.43-229.64,485.54-389.24,701.95
					c-65.79,89.21-151.54,165.6-264.05,184.52c-108.1,18.18-218.07,2.05-321.71-30.95c-206.31-65.7-386.08-190.68-583.73-276.13
					c-85.86-37.12-176.83-66.9-270.96-71c-98.22-4.28-187.92,23.04-270.33,75.83c-96.65,61.92-179.19,144.71-257.44,227.92
					c-83.94,89.25-163.53,182.46-245.9,273.14c-80.51,88.65-163.46,176.46-257.09,251.49c-72.36,57.99-154.37,111.61-246.22,131.63
					c-93.43,20.37-190.04-1.75-277.39-36.08c-105.34-41.4-202.92-101.14-297.2-163.11C1252.4,841.31,1075.25,693.24,869.2,603.69
					c-77.05-33.49-162.7-58.64-247.47-47.33c-86.44,11.53-160.11,65.18-221.96,123.52c-80.26,75.71-147.96,164.28-214.3,252.06
					c-71.92,95.17-141.88,191.85-216.67,284.82c-74.92,93.13-154.6,183.98-246.85,260.45c-78.05,64.7-168.38,121.54-269.49,140.14
					c-103.54,19.05-211.49-4.7-310.64-34.47c-139.7-41.94-273.84-101.66-406.32-162.13c-291.81-133.19-579.94-284.34-888.87-374.93
					c-125.77-36.88-260.77-66.45-392.42-50.52c-108.82,13.17-211.91,53.39-308.49,103.99
					c-228.84,119.91-427.17,290.12-639.09,436.11c-192.79,132.82-426.27,279.6-670.79,264.21
					c-219.28-13.8-394.56-174.43-551.59-311.77c-154.68-135.3-332.88-300.39-554.35-283.46
					c-263.24,20.12-330.84,333.91-378.46,543.51c-31.47,138.51-56.11,280.93-108.62,413.52
					c-43.45,109.71-111.63,210.24-232.84,237.86c-3.27-95.81,3.18-191.25,14.82-286.34c123.16-24.61,200.82-118.69,254.39-226.59
					c63.02-126.92,99.19-265.89,141.19-400.63c65.73-210.92,157.61-517.2,418.77-545.24c236.1-25.35,438.67,142.32,612.01,279.16
					c181.68,143.42,381.3,315.5,622.55,334.5c245.76,19.36,475.71-126.93,665.32-265.86c211.07-154.66,404.32-336.57,630.49-469.89
					c98.32-57.96,205.29-106.7,319.22-122.65c115.24-16.13,233.27,9.08,342.65,44.49c277.32,89.76,527.46,249.54,780.61,390.31
					c109.22,60.73,220.01,120.88,336.94,165.6c92.28,35.28,195.04,64.22,294.5,47.41c194.4-32.85,325.07-222.97,419.78-379
					c58.4-96.22,110.08-196.27,164.16-294.92c46.39-84.61,94.02-170.2,155.05-245.33c49.98-61.53,112.99-118.87,192.93-135.43
					c89.55-18.55,184.7,6.52,267.98,38.88c218.55,84.93,410.22,231.08,609.11,352.34c101.6,61.95,206.05,121.69,317.57,164.05
					c88.84,33.75,186.5,57.95,281.92,43.5c96.28-14.58,182.88-67.9,258.07-127.25c92.79-73.24,174.13-160.26,252.8-248.11
					c81.17-90.64,159.36-183.96,242.18-273.12c78.9-84.94,162.57-168.84,260.71-231.64c83.47-53.41,174.2-82.41,273.47-82.47
					c105.89-0.07,209.79,27.88,308.61,63.9c218.66,79.69,421.07,199.5,643.74,268.96c108.3,33.78,222.3,54.06,335.84,40.91
					c114.56-13.28,205.98-87.15,277.56-173.13c172.89-207.67,263.89-471.2,440.04-676.92c78.02-91.12,173.43-166.26,293-190.98
					C5406.77-662.62,5394.62-580.79,5399.41-495.47z"/>
			</g>
			<g>
				<path d="M5462.69-765.37c-120.53,19.91-218.64,90.79-299.22,179.88c-182.09,201.34-276.9,463.44-447.45,673
					c-70,86.01-159.89,165.45-273.11,183.51c-112.29,17.91-229.3-2.18-337.06-34.36c-224.1-66.93-427.76-186.8-646.45-267.93
					c-99.73-37-204.32-66.66-311.33-69.22c-99.34-2.37-191.69,22.53-276.75,74.01c-99.09,59.97-183.42,142.51-262.4,226.35
					c-83.39,88.52-161.66,181.66-242.53,272.45c-79.01,88.7-160.32,176.73-252.71,251.79c-75.27,61.16-161.51,116.83-258.24,135.23
					c-94.25,17.92-191.79-3.4-280.68-35.25c-112-40.13-216.91-98.65-318.69-159.62c-202.04-121.04-395.21-267.19-614.72-356.04
					c-84.88-34.36-180.17-61.42-272.47-47.06c-80.19,12.48-144.08,65.93-194.51,126.56C113.63,460.96,67.27,545.45,22.63,628.88
					c-52.59,98.28-102.14,198.21-158.01,294.7c-91.25,157.58-215.74,350.35-407.42,391.61c-96.66,20.81-197.69-4.96-288.33-38.62
					c-114.71-42.6-223-101.77-329.38-161.71c-250.08-140.89-495.28-301.62-768.18-395.84c-108.87-37.59-226.64-65.77-342.51-53.48
					c-113.54,12.05-221.25,59.59-319.19,116.17c-227,131.14-419.63,313.98-628.73,470.36c-189.57,141.78-417.83,292.7-665.35,280.6
					c-243.39-11.9-447.31-182.4-630.32-325.81c-175.18-137.28-378-309.35-615.62-292.25c-265.27,19.1-364.34,313.33-433.66,527.13
					c-43.79,135.06-80.84,274.15-142.87,402.4c-52.39,108.33-127.25,207.13-248.95,237.91c14.51-102.59,34.43-204.22,56.7-305.38
					c124.73-24.71,211.41-113.6,276.33-218.28c74.22-119.67,124.45-252.86,179.89-381.75c91.36-212.4,213.94-491.87,476.17-520.81
					c255.73-28.23,485.4,152.52,679.59,293.65c197.38,143.44,412.6,315.54,664.22,341.59c253.11,26.21,480.84-133.74,666.34-286.47
					c201.35-165.78,382.22-359.52,600.42-504.12c93.13-61.72,196.46-115.28,307.94-132.99c107.05-17,216.88,11.02,315.62,51.28
					c229.51,93.59,425.91,254.49,626.25,396.7c92.16,65.42,186.41,130.69,289.31,178.26c81.13,37.51,172.78,64.93,262.71,48.39
					c181.18-33.33,277.67-224.18,342.16-377.51c40.46-96.18,73.69-195.14,110.67-292.67c32.96-86.93,68.12-175.87,122.21-252.18
					C64.09,58.47,122.56,7.65,197.87-7.95c94.31-19.53,195.14,4.73,284.08,36.01c237.94,83.68,450.25,231.58,669.19,353.75
					c105.19,58.69,212.75,115.05,326.2,156.19c97.6,35.39,204.32,61.63,308.61,46.26c100.94-14.88,192.21-66.83,272.46-127.64
					c91.82-69.57,173.08-152.3,252.06-235.83c170.47-180.29,333.46-386.98,550.56-513.89
					c423.81-247.74,860.06,123.93,1256.15,249.04c106.89,33.76,220.69,51.64,332.62,37.19c108.06-13.95,202.48-85.61,278.31-159.25
					c199.25-193.49,334.25-443.95,542.83-629.11c93.49-82.99,201.12-148.88,325.78-170.06
					C5543.55-904.22,5496.84-839.02,5462.69-765.37z"/>
			</g>
			<g>
				<path d="M5628.88-984.73c-125.44,16.67-235.33,78.48-331.23,158.91c-214.32,179.76-354.33,427.86-552.91,622.49
					c-78.92,77.35-176.81,154.09-289.7,169.88c-106.41,14.88-216.03-1-318.18-31.83c-216.42-65.32-409.28-189.88-621.34-266.79
					c-104.93-38.05-214.77-65.33-326.79-68.24c-107.69-2.81-207.91,20.15-302.62,72.02c-220.37,120.72-386.42,327.03-556.73,506.65
					c-83.07,87.61-168.12,174.83-264.31,248.23c-77.42,59.08-164.61,110.41-261.35,128.92c-102.78,19.67-208.79-2.62-306.36-35.72
					c-118.64-40.25-230.86-98.15-340.31-158.52C939.59,241.31,729.75,97.42,495.85,10.36c-91.19-33.94-191.95-60.5-289.93-46.77
					C125.54-25.15,62.01,23.48,15.11,87.8c-54.52,74.76-89.24,163.05-121.28,249.18c-34.73,93.35-65.51,188.15-102.21,280.78
					c-62.23,157.07-154.08,357.03-337.18,396.9c-88.33,19.23-179.31-5.75-259.75-42.21c-96.9-43.93-185.57-105.06-271.76-166.84
					c-201.57-144.5-396.06-310.27-625.81-409.15c-97.51-41.97-205.78-72.04-312.74-58.51c-105.86,13.39-205.67,62.91-294.59,119.72
					c-223.9,143.03-406.45,342.21-608.84,512.36c-180.04,151.36-401.15,314.51-649.02,300.93
					c-258.09-14.13-481.85-189.73-682.8-335.03c-192.85-139.45-416.29-318.47-668.49-306.55
					c-273.68,12.93-405.84,285.66-503.14,504.58c-57.22,128.74-108.39,261.77-181.93,382.43
					c-64.08,105.15-148.68,197.87-272.15,228.04c24.23-105.28,50.58-210.05,76.78-314.86c126.48-22.71,222.28-104.31,298.78-203.81
					c85.1-110.68,148.97-236.27,216.93-357.7c118.55-211.83,268.7-471,537.16-496.43c125.42-11.88,248.42,27.31,359.93,81.65
					c125.72,61.26,241.41,141.44,356.22,220.69c116.26,80.25,232.06,162.12,356.09,230.15c109.38,59.99,228.01,111.11,353.36,123.23
					c249.04,24.08,461.6-147.82,631.76-308.48c188.84-178.31,354.34-385.85,564.53-540.45c85.31-62.74,182.99-118.69,289.28-134.37
					c92-13.57,184.98,11.84,267.36,51.79c199.21,96.61,354.76,266.01,517.5,411.67C-919.15,625.43-750.82,773-559.4,742.04
					c184.72-29.87,266.28-220.72,317.44-378.85c58.19-179.86,86.5-385.52,202.84-540.17c50.75-67.46,120.76-116.97,205-131.17
					c102.08-17.21,209.24,7.05,305.88,39.22c248.02,82.55,471.3,228.64,699.99,352.06c112.31,60.61,226.98,119.12,347.9,160.74
					c98.21,33.81,204,57.51,308.3,45.12c104.04-12.36,199.98-63.29,285.19-121.75c103.85-71.25,197.25-157,288.52-243.41
					c191.45-181.24,376.94-386.5,611.12-513.77c103.2-56.08,211.27-84.99,328.9-83.76c106.32,1.11,210.81,24.42,309.8,62.5
					c184,70.8,343.12,194.04,528.78,260.37c96.54,34.49,198.6,48.02,300.62,35.55c116.49-14.24,222.75-80.21,314.58-149.42
					c228.24-172.02,413.59-395.41,653.98-552.41c110.04-71.87,230.46-127.35,361.81-143.88
					C5748.59-1104.16,5686.36-1046.88,5628.88-984.73z"/>
			</g>
			<g>
				<path d="M5846.63-1178.78c-131.84,12.57-253.83,64.53-365.67,133.69c-245.33,151.72-435.84,372.23-664.97,544.79
					c-93.13,70.14-198.46,136.42-315.34,156.24c-100.15,16.98-204.68,4.4-300.29-28.32c-182.96-62.61-337.98-185.83-516.75-258.44
					c-96.75-39.29-199.06-64.43-303.68-67.94c-116.95-3.93-226.09,20.42-330.26,73.7c-237.32,121.37-425.76,326.2-617.28,506.9
					c-92.65,87.42-186.94,174.43-291.15,248.07c-85.69,60.55-181.24,114.25-286.01,131.61c-106.99,17.73-217.51-5.51-318.91-39.55
					c-120.68-40.51-235.08-98.36-346.98-158.47C959.84-59.78,736.6-205.9,488.71-290.52c-97.98-33.45-205.34-58.49-309.36-44.08
					C94.6-322.87,22.52-275.06-30-208.8C-147.55-60.48-180.31,139.97-234.94,316.3c-49.04,158.29-123.89,354.89-305.01,396.28
					c-189.43,43.29-358.8-96.69-489.77-214.16c-161.97-145.28-312.48-315.04-506.77-418.53c-84.2-44.85-179.16-74.91-275.46-64.28
					c-105.17,11.6-203.31,66.81-287.52,127.84c-210.19,152.34-374.09,360.45-559.82,539.78
					c-167.19,161.42-377.85,340.23-625.91,322.34c-125.05-9.02-244.01-58.21-353.43-116.81
					c-124.77-66.82-241.08-148.22-357.46-228.4c-115.74-79.74-231.94-160.76-357.83-223.94c-111.35-55.89-234.3-98.38-360.56-90.29
					c-270.41,17.32-425.74,268.22-547.31,479.99c-69.53,121.13-134.2,246.53-218.74,358.19
					c-75.75,100.06-169.85,185.1-295.34,212.75c26.37-104.56,52.2-209.26,75.32-314.6c269.31-42.85,422.34-317.84,562.17-523.35
					c138.08-202.94,306.11-447.35,572.65-473.68c125.74-12.42,249.27,27.46,361.4,81.13c128.81,61.65,247.86,142.15,365.77,222.12
					c121.26,82.24,241.67,166.65,370.12,237.5c107.56,59.32,224.27,112.1,347.69,125.25c239.6,25.53,432.52-151.53,583.47-315
					c171.66-185.9,316.69-401.5,512.18-564.23c76.92-64.03,165.78-120.27,266.11-136.75c90.41-14.85,179.08,8.47,257.81,53.17
					c86.18,48.93,160.04,117.56,230.02,186.95c77.28,76.65,150.65,157.17,229.12,232.64c125.4,120.6,293.69,264.1,481.78,232.96
					c180.68-29.92,269.54-223.19,336.26-372.25C-142.42-113.3-74.67-316.32,64.51-464.61c60.66-64.64,137.19-114.61,225.59-129.97
					c104.89-18.22,216.64,5.28,316.46,37.29c247.9,79.49,469.69,225.89,696.22,350.54c109.63,60.32,221.52,118.63,339.68,160.53
					c101.86,36.12,211.72,60.71,320.23,47.75c108.7-12.98,210.03-64.39,301.27-122.38c115.05-73.13,220.19-161.12,323.45-249.75
					c212.74-182.6,420.61-387.76,672.78-516c106.12-53.97,217.7-85.43,337.2-84.91c92.91,0.4,184.44,19.94,268.91,58.74
					c144.04,66.18,252.8,189.06,397.13,253.46c199.52,89.02,418.77,8.72,597.53-91.48c263.87-147.9,497.84-344.11,769.68-478.79
					c125.95-62.4,259.36-111.12,400.01-124.73C5972.3-1292.7,5909.59-1235.61,5846.63-1178.78z"/>
			</g>
			<g>
				<path d="M6064.53-1372.74c-140.54,10.28-274.59,56.16-401.33,116.01c-275.83,130.26-514.21,323.43-779.5,471.84
					c-177.85,99.49-401.43,189.71-602.46,103.83c-141.5-60.45-245.29-183.5-383.09-251.56c-188.95-93.33-407.42-79.1-594.64,10.9
					c-257.43,123.75-469.53,331.13-684.42,514.85c-102.64,87.76-206.82,174.98-320,249c-92.11,60.24-193.51,114.44-303.32,132.42
					c-108.85,17.82-220.52-4.58-323.64-39.66c-117.53-39.98-228.7-97.16-337.35-156.66c-226.81-124.2-447.38-270.8-693.95-353.85
					c-101.31-34.13-212.2-58.52-319.57-45.04c-89.43,11.22-169.24,58.84-232.46,121.45C-55.99-355.81-129.11-153-212.6,28.44
					c-68.65,149.19-155.98,344.62-333.78,384.23c-187.66,41.81-362.01-102.45-488.24-221.72
					c-148.42-140.25-278.67-312.4-455.18-419.41c-77.98-47.28-166.76-75.65-258.54-63.37c-99.69,13.34-188.47,66.83-265.07,129.47
					c-193.51,158.25-335.79,371.54-501.71,556.41c-148.38,165.32-340.38,353.7-580.98,334.35
					c-122.37-9.84-238.69-60.75-345.46-118.5c-125.99-68.15-244.01-150.06-362.31-230.49c-120.78-82.12-242.15-165.39-373.37-230.22
					c-111.58-55.13-235.05-98.49-361.27-89.7c-264.6,18.42-435.52,251.93-574.28,451.82c-80.66,116.19-157.23,236.73-252.08,342.17
					c-84.74,94.2-185.86,172.38-312.5,197.28c21.46-100.8,39.95-202.15,52.63-304.45c268.3-40,436.06-300.6,587.82-499.53
					c143.59-188.22,316.92-424.78,571.41-454.28c122.66-14.22,244.2,28.59,352.5,82.3c125.66,62.31,241.78,142.6,356.71,222.47
					c116.77,81.15,232.54,164.67,356.15,235.28c99.73,56.97,208.53,109.08,324.09,121.62c228.68,24.8,405.27-162.9,539.23-323.07
					c153.29-183.28,283.04-392.51,463.85-551.05c72.01-63.14,157.08-119.65,252.98-136.76c84.56-15.09,169.26,13.99,242.33,54.9
					c90.46,50.65,170.16,119.33,247.33,187.9c83.51,74.21,164.57,151.18,250.06,223.14c138.36,116.47,324.44,262.37,518.62,231.11
					c187.14-30.13,310.87-222.01,409.49-365.6C-27.91-406.19,89.55-602.46,262.01-742.62c77.59-63.06,168.09-112.66,267.91-127.83
					c105.09-15.98,214.39,4.83,314.32,37.4c236.24,77.01,445.22,221.05,658.59,344.56c187.91,108.76,408.15,234.05,633.9,207.55
					c115.77-13.59,224.22-66.98,322.92-126.39c120.79-72.71,232.84-159.35,343.09-246.9c233.74-185.61,462.15-394.13,732-526.87
					c165.75-81.54,391-137.22,559.97-31.82c101.38,63.24,149.26,182.24,249.58,244.87c64.43,40.22,141.24,42.62,214.54,32.95
					c127.58-16.83,247.06-56.48,364.85-107.62c293.96-127.62,567.34-298.32,865.61-416.79c133.27-52.93,271.44-96.44,414.66-110.7
					C6167.19-1497.59,6118.83-1433.15,6064.53-1372.74z"/>
			</g>
			<g>
				<path d="M6231.2-1591.87c-145.23,12.12-285.8,55.14-421.11,107.63c-297.46,115.4-571.36,281.18-863.43,408.33
					c-118.8,51.72-240.76,95.24-369.68,112.35c-74.39,9.88-152.33,13.44-219.26-26.28c-98.81-58.63-141.61-177.97-236.26-243.13
					c-159.01-109.48-381.31-58.95-542.67,16.51c-132.92,62.16-254.85,146.61-372.07,234.15
					c-123.44,92.18-242.33,190.24-362.96,286.02c-113.68,90.27-228.83,179.94-352.74,255.91
					c-97.8,59.96-204.49,114.47-318.95,132.62c-222.91,35.34-442.21-84.61-628.48-191.8c-215.13-123.8-423.77-270.19-660.26-351.29
					c-100.45-34.45-208.19-56.52-314.69-44.79c-100.88,11.11-194.07,58.32-273.9,119.23C116.84-640.66-6.43-445.35-133.88-265.01
					c-59.22,83.79-119.6,168.17-192.01,241.25c-61.45,62.03-134.78,117.16-221.76,135.77c-192.37,41.15-383.06-101.75-522.32-215.47
					c-88.82-72.53-172.69-150.79-258.73-226.53c-77.05-67.83-156.14-135.87-245.05-187.88c-73.88-43.23-159.6-76.62-246.66-64.69
					c-92.9,12.73-177.38,66.43-247.68,125.7c-181.77,153.24-310.86,361.31-460.56,543.62
					c-132.16,160.94-309.01,359.95-538.38,341.35c-114.4-9.28-222.72-59.17-321.61-114.51c-123.05-68.86-237.96-151.4-353.47-231.96
					c-114.91-80.14-230.52-161.13-355.4-225.21c-107.45-55.13-228.23-101.15-351.1-90.79c-253.89,21.4-430.04,255.69-572.89,441.42
					c-83.49,108.55-164.39,220.35-260.74,318.1c-89.84,91.14-194.65,167.18-322.64,190.99c9.98-94.47,14.52-189.33,8.94-284.24
					c258.32-41.39,424.52-292.55,570.17-486.11c79.36-105.47,158.73-212.88,254.64-304.17c76.7-72.99,170.84-140.83,278.69-154.58
					c116.29-14.83,233.73,28.42,336.04,79.51c121.64,60.75,233.87,139.04,345.21,216.57c108.47,75.53,216.31,152.81,331.41,218.08
					c98.61,55.91,205.99,105.83,320.06,117.41c218.09,22.14,385.49-159.61,511.91-313.54c140.54-171.12,259.72-366.47,428-512.84
					c68.29-59.4,148.68-110.88,239.13-127.11c88.7-15.91,179.1,15.89,257.53,54.9c98.73,49.11,189.2,114.06,277.91,179.06
					c100.4,73.57,198.93,149.73,301.46,220.35c94.29,64.95,192.4,126.72,298.31,171.06c89.02,37.27,188.19,63.73,285.2,48.66
					c95.44-14.83,181.4-66.42,257.02-124.13c90.39-68.99,171.2-150,250.74-230.96c174.15-177.28,344.14-366.85,555.32-501.39
					c93.78-59.75,197.77-108.55,308.85-123.75c104.58-14.31,209.58,3.23,308.73,37.36c219.51,75.56,409.76,217.51,605,339.15
					c173.99,108.4,376.38,227.71,589.84,200.91c119.17-14.96,230.96-69.35,333.57-129.17c127.04-74.06,245.83-161.77,362.87-250.5
					c129.91-98.49,257.64-199.88,389.45-295.85c122.38-89.11,248.66-175.69,385.37-241.54c102.86-49.55,213.6-85.9,328.79-86.46
					c60.27-0.3,125.18,10.93,169.34,55.35c65.33,65.7,50.42,176.35,117.77,238.43c48.72,44.91,125.02,38.89,185.44,30.83
					c129.35-17.26,252.77-53.91,374.92-99.29c306.07-113.72,598.24-261.61,904.56-374.88c134.11-49.59,271.4-94.37,412.95-116.9
					C6280.85-1749.44,6264.63-1669.15,6231.2-1591.87z"/>
			</g>
			<g>
				<path d="M6295.29-1861.36c-139.2,20.95-274.53,65.29-406.38,113.46c-307.2,112.23-600.51,258.55-906.62,373.38
					c-122.95,46.12-248.47,86.6-379,104.02c-61.84,8.25-141.77,19.56-193.69-25c-68.37-58.69-49.61-169.89-108.03-237.16
					c-39.34-45.3-100.52-58.7-158.13-59.92c-111.75-2.36-220.93,31.36-321.36,77.9c-136.67,63.34-262.77,148.52-384.67,236.33
					c-132.56,95.49-260.78,196.83-390.86,295.63c-118.15,89.73-237.76,178.66-365.29,254.77
					c-103.51,61.78-215.95,118.97-336.29,137.81c-211.94,33.18-412.81-80.67-586.14-188.46
					c-194.57-120.99-382.25-263.29-599.26-342.56c-97.99-35.8-202.44-56.38-306.9-45.07c-111.84,12.11-216.96,57.62-312.5,115.33
					C323.91-920.26,148.51-731.78-29.15-554.98c-82.04,81.65-165,163.48-256.87,234.18c-76.96,59.21-163.36,112.93-259.96,131.77
					c-96.43,18.81-195.84-4.18-285.8-39.36c-107.15-41.89-206.58-102.18-301.97-165.89c-196.98-131.57-378.13-293.86-589.86-402.11
					c-79.17-40.47-170.08-75.34-260.65-63.86c-89.73,11.37-171.66,61.33-239.76,118.28c-169.21,141.5-288,335.46-425.84,505.24
					c-123.86,152.57-290.32,341.45-506.17,326.49c-113.26-7.85-220.63-55.17-318.85-109.32c-115-63.39-222.43-139.65-330.07-214.56
					c-111.49-77.58-223.4-156.28-344.37-218.63c-102.87-53.02-218.69-97.85-336.51-88.61c-107.63,8.45-202.94,74.37-279.66,145.81
					c-96.35,89.72-175.47,196.62-254,301.71c-80.27,107.42-159.35,217.11-253.71,312.85c-86.11,87.37-186.7,161.32-309.19,185.19
					c-10.07-88.2-34.42-172.34-69.5-253.75c117.09-18.06,211.19-92.2,289.87-176.92c92.79-99.9,168.51-214.67,245-327.08
					c73.09-107.42,145.93-216.64,234.33-312.32c68.06-73.67,158.65-155.7,262.88-168.52c113.63-13.97,230.69,27.92,331.4,76.42
					c117.49,56.58,226.31,129.76,334.37,202.27c107.04,71.83,213.62,145.3,327.45,206.17c96.08,51.38,199.93,95.38,309.4,105.85
					c51.26,4.9,101.5,2.44,150.5-13.99c44.26-14.84,85.8-36.93,124.38-63.07c84.95-57.56,156.16-133.57,222.14-211.5
					c131.67-155.52,244.09-334.91,403.96-464.15c65.61-53.04,141.29-95.53,225.32-109.67c95.87-16.14,193.34,13.07,281.37,49.15
					c115.42,47.3,223.96,110.73,330.97,174.34c118.83,70.64,236.16,143.82,356.72,211.51c113.15,63.53,229.53,123.71,352.42,166.21
					c99.43,34.39,206.66,58.49,312.09,42.67c103.54-15.54,199.68-63.44,288.4-117.1C-157.26-646.8-53.25-726.55,49.62-806.59
					c222.07-172.78,440.44-357.37,690.3-489.57c105.49-55.81,218.94-103.2,338.17-118.24c96.94-12.23,192.06,1.43,283.77,34.41
					c202.07,72.67,371.81,213.63,546.91,333.57c159.5,109.25,344.43,223.74,546.38,195.69c116.27-16.15,225.37-70.05,325.89-128.23
					c131.64-76.2,254.97-166.31,376.51-257.46c132.19-99.14,262.19-201.2,395.8-298.45c122.08-88.87,247.41-175.94,382.75-243.61
					c98.79-49.4,205.36-87.77,317.11-87.84c46.88-0.03,104.49,7.64,129.54,52.99c40.08,72.56-24.2,171.86,32.76,237.84
					c41.93,48.57,125.03,40.36,181.25,32.82c131.96-17.71,259.36-54.22,384.67-98.66c301.66-106.97,586.95-253.61,884.05-371.77
					c129.39-51.46,262.26-98.38,400.56-118.54C6279.6-2041.95,6289.89-1951.92,6295.29-1861.36z"/>
			</g>
			<g>
				<path d="M6278.75-2158.73c-136.82,17.39-268.29,62.93-396,113.48c-298.5,118.15-583.9,267.47-886.3,376.14
					c-124.06,44.58-250.76,82.23-381.64,100.01c-59.32,8.06-144.82,20.87-192.76-26.57c-63.83-63.16-1.72-164.31-33.99-237.9
					c-20.64-47.06-75.71-57.3-122.02-58.29c-108.58-2.33-213.38,33.97-309.73,81.02c-134.49,65.68-258.85,151.51-379.76,239.14
					c-130.98,94.93-258.32,194.73-387.43,292.15c-122.33,92.3-246.13,183.78-377.82,262.44
					c-102.95,61.49-214.68,119.76-334.26,139.58c-200.73,33.26-384.25-75.67-543.33-184.62
					c-172.62-118.22-337.73-257.3-534.54-334.29c-90.94-35.57-187.93-54.16-285.56-43.48c-118.86,13.01-231.5,56.67-337.48,110.49
					C522.67-1200.73,300.45-1017.52,75.9-845.48c-105.28,80.66-211.41,161.22-324.7,230.46c-91.66,56.02-191.1,107.52-298.09,125.52
					c-103.03,17.33-207.14-2.7-305.45-34.31c-123.78-39.79-241.17-98.41-355.06-160.5c-233.41-127.25-454-284.78-699.61-388.44
					c-89.41-37.74-189.07-70.71-287.4-58.54c-85.72,10.61-163.9,51.34-231.34,103.87c-158.74,123.62-270.32,298.95-398.33,451.62
					c-122.94,146.63-281.96,313.88-489.57,301.91c-111.07-6.4-217.09-48.77-314.82-99.55c-113.76-59.1-220.05-131.51-326.46-202.65
					c-108.19-72.34-216.79-145.67-333.71-203.39c-102.32-50.52-216.07-91.44-331.91-83.76c-102.35,6.79-192.44,84.24-259.91,155
					c-91.12,95.55-165.05,206.57-238.71,315.66c-76.53,113.33-151.67,229.13-243.09,331.27
					c-77.12,86.16-169.19,164.11-285.42,187.14c-38.69-80.82-85.89-156.58-137.26-229.89c112.57-20.93,199.4-102.36,270.67-187.25
					c89.58-106.7,162.28-226.84,235.95-344.69c73.54-117.65,146.56-237.41,236.45-343.54c61.81-72.98,150.77-167.68,252.03-178.91
					c113.2-12.56,230.43,25.73,332.25,71.4c114.57,51.39,221.39,118.54,327.42,185.33c192.96,121.53,402.59,270.53,637.7,286.49
					c200.2,13.6,355.17-118.48,482.56-257.62c125.57-137.15,234.37-296.38,385.8-407.33c68.59-50.25,146.02-86.57,230.72-98.24
					c105.44-14.53,211.56,12.83,310.68,46.98c274.34,94.52,527.62,245.19,789.44,368.35c128.73,60.55,259.94,118.04,396.37,159.11
					c109.25,32.88,225.31,57.04,339.6,40.91c112.85-15.92,219.62-64.04,319.82-116.31c126.42-65.95,246.84-143.08,366.21-220.85
					c254.49-165.8,504.79-343.2,778.57-476.51c109.99-53.56,227.12-102.96,349.22-119.68c91.44-12.53,180.82-0.03,266.67,33.52
					c181.68,71.01,328.53,208.79,481.65,325.2c145.1,110.31,314.57,220.23,505.61,191.78c113.29-16.87,219.69-73.75,316.54-132.08
					c128.09-77.16,248.15-167.26,366.28-258.69c127.79-98.92,253.14-200.96,381.61-299c115.68-88.27,234.05-175.61,362.56-244.53
					c91.06-48.84,190.88-88.1,295.42-91.61c49.68-1.67,99.12,9.94,125.49,55.61c48.29,83.66,25.63,195.28,103.05,265.19
					c53.61,48.41,132.29,50.99,200.22,42.5c131.25-16.39,255.65-47.63,379.38-94.76c283.46-107.96,541.65-269.27,815.9-396.95
					c118.5-55.17,241.41-104.13,371.25-123.97C6247.03-2336.11,6264.39-2247.7,6278.75-2158.73z"/>
			</g>
			<g>
				<path d="M6239.07-2451.03c-128.25,17.09-249.65,64.53-366.3,118.89c-271.55,126.54-525.33,288.97-804.44,399.74
					c-123.56,49.04-249.53,84.83-381.63,100.51c-72.3,8.58-152.37,11.9-212.9-35.8c-85.43-67.32-68.9-182.98-117.35-270.02
					c-24.52-44.05-68.37-60.35-116.99-60.92c-101.61-1.18-202.38,37.46-291.03,83.6c-127.4,66.31-244.39,152.13-358.35,238.96
					c-127.85,97.4-252.27,199.17-378.89,298.14c-118.2,92.38-238.12,183.6-365.79,262.66c-99.25,61.46-208.06,121.86-324.51,141.93
					c-187.96,32.41-355.27-69.96-499-178.77c-153.85-116.47-298.79-255.98-479.34-330.9c-83.34-34.58-172.39-50.88-262.38-40.03
					c-120.08,14.48-235.07,61-343.58,112.48c-275.07,130.49-526.77,306.38-781.72,471.28c-121.2,78.39-243.23,156.29-370.88,223.89
					c-103.26,54.68-213.4,106.36-329.76,124.88c-110.92,17.65-222.87-2.25-329.89-32.39c-136.59-38.46-268.03-94.25-396.81-153.29
					c-268.89-123.28-527.89-275.11-807.59-373.44c-100.48-35.32-209.63-66.1-317.12-53.76c-83.4,9.58-160.21,41.45-229.15,88.81
					c-154.4,106.05-264.52,265.19-389.31,402c-126.85,139.07-281.68,275.8-481.85,266.24c-231.64-11.07-439.71-154.47-629.68-273.53
					c-108.11-67.76-216.61-136.44-332.86-189.63c-103.73-47.46-216.9-83.41-332.26-77.09c-102.69,5.63-192.26,97.46-255.16,170.3
					c-88.76,102.79-160.6,219.51-232.21,334.48c-75.54,121.26-149.22,245.14-239.46,356.28
					c-70.31,86.59-155.42,171.63-267.33,198.24c-54.13-74.39-111.53-146.28-168.77-218.28c113.27-26.36,198.04-118.29,267.13-206.38
					c91.34-116.46,166.49-245.02,243.54-371.08c74.03-121.12,148.18-243.67,238.42-353.61c37.95-46.23,79.11-90.56,126.44-127.37
					c37.59-29.24,84.91-60.92,133.35-66.55c114.68-13.34,235.45,22,340.34,65.09c111.44,45.79,216.14,106.36,320,166.99
					c192.39,112.3,398.03,245.67,627.2,257.45c395.04,20.3,580.95-401.98,873.29-588.4c71.56-45.63,150.4-76.35,234.67-87.57
					c112.17-14.94,225.37,10.44,332.59,42.13c305.38,90.25,592.59,237.14,886.22,358.34c141.69,58.48,285.34,114.48,433.46,154.61
					c108.34,29.36,224.83,54.25,337.41,38.35c114.44-16.17,223.72-65.08,326.57-115.62c134.86-66.27,264.56-142.86,393.21-220.32
					c265.88-160.09,525.86-333.83,803.27-473.75c102.29-51.59,210.7-102.17,324.58-121.27c85.23-14.29,169.14-2.89,248.8,30.13
					c172.6,71.53,309.8,210.47,454.65,324.18c140.41,110.23,306.73,221.73,494.12,192.78c110.27-17.03,212.06-71.51,305.47-130.17
					c124.39-78.12,239.77-170.17,352.85-263.61c122.33-101.08,241.8-205.57,364.61-306.07c108.14-88.49,218.97-176.07,340.42-245.79
					c127.37-73.12,325.33-154.52,445.03-26.25c43.17,46.26,72.72,103.86,106.35,156.96c37.35,58.97,79.89,115.99,137.46,156.71
					c72.69,51.4,161.49,67.78,249.14,59.64c126.57-11.75,246.69-49,361.79-102.26c248.3-114.89,460.7-289.51,695.02-428.16
					c104.79-62.01,215.56-116.01,336.31-137.51C6199.04-2626.41,6219.68-2538.86,6239.07-2451.03z"/>
			</g>
			<g>
				<path d="M6188.2-2740.87c-119.59,18.58-229.22,70.82-332.46,132.13c-231.45,137.45-438.47,313.48-681.52,431.81
					c-113.52,55.27-233.45,96.43-359.47,109.6c-91.38,9.55-182.21-1.93-260.73-52.42c-122.21-78.59-168.36-217.26-263.27-320.07
					c-41.76-45.24-94.72-72.56-156.86-74.1c-96.6-2.39-192.22,36.04-275.4,81.65c-122.95,67.41-234.36,155.29-342.59,243.81
					c-122.12,99.88-240.57,204.13-361.6,305.32c-112.97,94.46-227.99,187.69-351.71,267.87c-95.04,61.6-199.41,120.72-312.41,140.31
					c-185.7,32.2-350.06-71.54-490.85-180.45c-147.69-114.24-285.19-255.25-458.41-331.15c-77.8-34.09-160.77-49.08-245.21-36.63
					c-111.94,16.5-218.13,64.21-318.63,114.23c-275.71,137.23-532.31,311.33-795.75,470.03
					c-129.81,78.2-260.73,155.51-396.22,223.54c-104.13,52.29-214.17,103.24-329.78,123.47c-112.22,19.64-228.63-3.19-337.35-31.49
					c-147.73-38.45-291.03-93.3-432.27-150.7c-294.51-119.68-581.87-264.15-886.33-357.7c-110.69-34.01-230.28-64.61-346.95-51.22
					c-85.04,9.76-165.16,38.14-238.26,82.55c-295.42,179.48-478.87,598.26-868.56,589.57c-227.85-5.08-433.95-134.48-624.91-245.36
					c-200.51-116.42-423.52-254.07-664.68-240.85c-104.42,5.73-196.5,104.24-259.75,178.34
					c-93.72,109.81-169.64,234.16-244.95,356.89c-77.95,127.04-153.5,256.68-244.22,375.23c-69.03,90.2-152.68,185.25-265.66,217.81
					c-56.77-71.57-112.72-143.76-164.26-219.23c115.77-30.13,203.16-126.21,275.71-215.97c99.52-123.14,183.44-258.33,270.15-390.53
					c83.37-127.1,167.66-255.43,269.33-368.89c42.09-46.97,87.55-91.64,139.1-128.22c41.71-29.59,92.33-59.53,144.1-65.37
					c113.86-12.83,233.02,16.23,339.14,55.22c111.43,40.94,216.48,97.24,320.61,153.72c185.53,100.64,381.54,216.64,598.29,224
					c392.29,13.31,598.49-360.31,904.07-535.59c77.87-44.67,163.37-76.61,252.35-89.81c116.64-17.3,238.12,10.23,350.24,40.8
					c316.12,86.17,615.64,227.77,918.99,349.37c145.18,58.2,291.83,115,442.92,156.12c109.06,29.69,225.2,54.48,338.53,38.39
					c113.42-16.1,221.36-63.37,322.9-114.51c129.26-65.09,252.45-141.85,373.49-220.97c249.36-163,487.84-345.52,748.17-491.14
					c94.93-53.1,196.22-104.28,304.17-123.94c82.52-15.03,161.69-4.73,239.11,27.21c180.21,74.36,325.5,219.34,478.11,336.37
					c144.08,110.49,319.56,231.9,511.01,201.95c108.49-16.97,207.88-73.64,297.74-134.13c117.35-79,225.14-171.78,330.45-265.93
					c113.96-101.87,224.83-207.14,339.08-308.69c104.11-92.54,211.15-184.8,330.48-257.4c84.99-51.71,180.6-94.24,282.15-90.43
					c78.74,2.95,149.04,37.61,210.3,85.31c148.71,115.8,255.84,276.7,420.87,373.25c91.92,53.78,196.08,82.61,302.91,76.06
					c115.65-7.09,227.8-52.75,326.65-111.01c215.82-127.2,379.05-320.49,575.66-472.48c88.08-68.09,184.39-125.53,294.49-148.34
					C6147.22-2915.78,6167.53-2828.29,6188.2-2740.87z"/>
			</g>
			<g>
				<path d="M6138.05-3030.88c-109.8,19.66-205.91,75-293.24,142.55c-194.77,150.66-352.43,345.41-562.84,476.62
					c-96.95,60.46-206.1,107.67-320.72,119.3c-108.22,10.99-216.56-16.61-311.22-68.61c-172.62-94.82-287.11-257.06-438.98-377.49
					c-61.9-49.09-132.69-87.8-212.66-94.47c-101.52-8.47-198.34,31.48-283.98,82.35c-116.15,68.99-220.17,157.96-320.91,247.35
					c-113.78,100.96-223.76,206.1-336.46,308.25c-107.15,97.12-216.54,193.07-335.61,275.49
					c-89.73,62.11-189.39,121.91-298.24,141.78c-192.06,35.05-368.15-81.58-514.06-191.98c-153.9-116.44-298.2-259.83-476.31-339.5
					c-76.86-34.38-158.29-50.57-241.96-36.69c-106.11,17.6-204.81,65.16-298.15,116.87c-257.93,142.89-492.79,325.35-737.85,488.49
					c-120.64,80.32-243.37,158.36-372.06,225.27c-102.25,53.17-211.4,103.35-325.96,122.37c-113.86,18.9-229.38-2.79-339.65-31.97
					c-146.91-38.88-289.48-93.41-430.47-149.64c-307.16-122.5-609.41-266.26-928.56-355.79c-113.87-31.95-237.38-61.53-356.37-46.6
					c-88.63,11.12-173.51,41.72-251.53,84.66c-308.64,169.87-515.62,541.43-903.46,540.77c-217.4-0.37-415.48-114.65-601.17-214.93
					c-201.75-108.94-419.71-227.63-656.52-214.41c-114.39,6.39-216.05,102.67-289.64,181.65
					c-103.72,111.31-189.26,238.84-273.28,365.2c-88.46,133.05-173.56,269.24-273.26,394.35c-73.49,92.23-160.7,191-276.88,227.31
					c-48.31-74-91.1-150.87-123.95-233.03c126.98-30.04,227.47-129.07,312.96-222.16c111.4-121.31,209.26-254.51,310.41-384.26
					c101.23-129.85,204.62-260.51,326.64-371.73c93.51-85.23,208.54-169.67,338.89-180.57c225.8-18.88,436.32,82.35,633.1,179.81
					c173.51,85.93,354.65,190.97,553.54,195.12c193,4.02,366.7-83.16,514.13-200.76c140.85-112.36,264.93-247.62,421.66-339.03
					c80.07-46.7,167-78.8,258.97-91.5c118.73-16.39,238.29,6.87,352.74,38.15c314.1,85.83,609.35,233.19,908.36,359.35
					c137.18,57.88,275.8,114.41,418.98,155.88c108.64,31.47,224.57,57.37,338.05,41.31c111.06-15.71,215.53-64.79,312.21-119.69
					c117.38-66.65,227.41-145.74,334.53-227.62c220.46-168.52,426.59-358.8,659.34-510.71c84.02-54.83,175.32-108.06,274.78-128.17
					c84.63-17.11,167.75-1.95,246.63,31.14c191.95,80.5,350.7,229.85,516.74,351.58c153.18,112.29,346.47,247.91,547.54,216.45
					c104.59-16.37,200.13-74.89,284.66-135.66c113.29-81.45,215.97-177.2,316.02-274.13c106.48-103.16,209.78-209.56,316.66-312.3
					c97.45-93.67,197.98-187.15,311.57-261.16c87.59-57.07,182.67-99.42,289.21-91.05c97.94,7.7,188.36,51.7,269.89,104.05
					c206.29,132.46,377.2,314.16,595.49,429.18c106.85,56.3,225.55,95.86,347.61,91.02c108.63-4.3,213.93-58.07,298.58-123.09
					c183.01-140.58,296.47-346.73,457.43-508.67c75.83-76.29,163.63-138.01,270.05-161.4
					C6103.12-3207.14,6119.65-3118.84,6138.05-3030.88z"/>
			</g>
			<g>
				<path d="M6100.54-3323.65c-107.07,19.8-195.98,78.65-272.17,154.56c-160.93,160.34-269.46,367.46-447.01,512.27
					c-82.11,66.97-182.94,121.85-290.04,132.44c-121.1,11.98-244.91-28.62-351.72-82.22c-225.06-112.93-402.11-295.77-611.27-432.52
					c-84.45-55.22-177.75-103.37-279.46-114.23c-103.69-11.07-196.27,24.81-283.09,79.03c-113.16,70.67-212.75,162.49-308.73,254.45
					c-108.64,104.08-213.05,212.45-320.51,317.73c-98.22,96.22-198.72,191.24-308.99,273.67
					c-86.15,64.4-183.37,127.17-290.69,147.76c-200.44,38.45-396.48-95.1-550.2-206.23c-169.1-122.26-328.84-271.94-521.43-357.18
					c-77.81-34.44-162.14-54.32-247.08-39.42c-97.8,17.15-187.45,67.58-269.8,120.94c-230.28,149.22-432.4,339.45-648.02,508.26
					c-106.14,83.1-215.06,163.64-331.26,232.24c-96.44,56.93-201.04,109.26-312.45,128.16c-111.21,18.87-224.06-2.99-331.4-32.8
					c-144.49-40.13-284.17-96.96-422.12-155.26c-296.59-125.34-588.51-271.42-898.8-360.78c-116.96-33.69-242.7-62.33-364.98-46.5
					c-91.17,11.8-177.18,40.69-257.33,85.74c-160.24,90.07-285.89,227.49-427.49,342.29c-145.71,118.14-314.72,206.22-506.46,208.03
					c-198.08,1.87-379.35-102.63-550.85-189.22c-193.85-97.88-405.54-193.76-627.81-181.36c-132.43,7.38-247.88,82.77-345.49,167.27
					c-124.86,108.09-230.42,237.4-333.12,366.08c-103.75,129.99-203.61,263.76-316.09,386.48
					c-87.5,95.46-188.87,196.69-317.12,232.54c-29.59-84.71-44.7-170.27-48.43-259.83c144.54-23.42,267.77-117.87,375.35-211.69
					c136.43-118.99,259.13-252.94,384.8-382.95c120.37-124.53,242.87-249.25,381.56-353.66
					c116.13-87.42,243.79-157.69,389.67-176.08c201.04-25.35,382.23,67.06,552.5,162.09c155.58,86.83,321.21,190.83,504.99,195.12
					c196.33,4.59,369.85-85.9,514.96-210.95c142.56-122.85,264.7-271.18,424.12-373.65c79.52-51.11,167.19-87.46,260.96-101.45
					c118.96-17.74,239.54,7.37,353.52,40.98c298.77,88.1,577,238.21,858.86,367.99c132.53,61.02,266.65,120.87,406,164.78
					c103.38,32.57,216.31,60.52,325.26,43.82c101.79-15.61,196.1-65.57,281.1-121.64c106.07-69.97,202.56-153.88,295.32-240.4
					c187.53-174.93,357.26-372.12,559.38-530.84c73.96-58.08,157.52-115.59,251.08-135.44c85.69-18.18,174.81,3.28,254.21,36.02
					c100.07,41.26,191.89,101.23,280.56,162.61c99.61,68.95,196.13,142.24,295.62,211.35c93.59,65.01,190.16,127.87,294.55,174.3
					c89.68,39.89,190.81,69.9,289.84,55.92c104.37-14.73,199.84-77.04,281.89-139.59c108.89-83.02,206.5-180.34,301.49-278.62
					c103.19-106.77,202.98-216.78,307.1-322.66c91.46-93.01,186.44-185.67,294.93-258.88c90-60.73,185.18-101.11,295.37-90.31
					c117.26,11.5,227.17,64.18,327.9,122.4c249.95,144.49,469.17,338.08,728.32,467.44c115.87,57.84,245.65,106.51,377.31,98.57
					c103.83-6.26,200.69-62.87,274.21-133.5c159.95-153.66,234.57-370.71,376.27-538.48c70.15-83.06,157.02-144.02,264.93-165.06
					C6078.39-3503.33,6087.81-3413.33,6100.54-3323.65z"/>
			</g>
		</g>
	</g>
</g>
</svg>
