<?xml version="1.0" encoding="utf-8"?>
<!-- Generator: Adobe Illustrator 24.1.1, SVG Export Plug-In . SVG Version: 6.00 Build 0)  -->
<svg version="1.1" id="Layer_1" xmlns="http://www.w3.org/2000/svg" xmlns:xlink="http://www.w3.org/1999/xlink" x="0px" y="0px"
	 viewBox="0 0 1920 1080" style="enable-background:new 0 0 1920 1080;" xml:space="preserve">
<style type="text/css">
	.st0{clip-path:url(#SVGID_2_);}
</style>
<g>
	<defs>
		<rect id="SVGID_1_" width="1920" height="1080"/>
	</defs>
	<use xlink:href="#SVGID_1_"  style="overflow:visible;fill:#FFFFFF;"/>
	<clipPath id="SVGID_2_">
		<use xlink:href="#SVGID_1_"  style="overflow:visible;"/>
	</clipPath>
	<g class="st0">
		<g>
			<g>
				<path d="M5932.42,3303.76c-107.86-13.36-205.88,22.72-291.55,87.14c-180.24,135.53-287.32,352.2-478.79,473.81
					c-87.48,55.57-187.67,73.13-287.98,44.68c-132.79-37.66-249.18-126.86-352.32-215.36
					c-247.52-212.37-448.81-471.07-680.54-699.39c-137.53-135.5-327.23-317.68-535.96-231.81
					c-84.5,34.76-156.89,95.59-224.68,155.47c-73.94,65.31-144.49,134.38-219.59,198.4c-135.23,115.29-308.15,236.86-495.59,190.09
					c-98.73-24.64-188.32-80.82-269.21-140.82c-99.36-73.69-190.07-158.65-277.88-245.56c-177.97-176.15-341.7-370.15-536.31-528.67
					c-71.3-58.08-154.59-121.32-246.13-142.04c-92.28-20.89-189.32-4.76-278.82,21.22c-230.02,66.78-440.05,193.78-654.66,297.17
					c-112.62,54.25-227.49,105.9-347.46,141.8c-99.61,29.8-210.56,52.7-314.46,33c-58.26-11.05-115.67-33.68-170.71-55.11
					c-65.98-25.68-130.79-54.33-195-84.14c-166.07-77.11-328.48-162.04-490.17-247.88c-350.59-186.15-696.17-383.73-1055.49-552.87
					c-121.04-56.97-248.31-119.31-380.52-145.42c-95.01-18.77-192.94-13.86-287.66,4.17c-196.91,37.47-377.97,127.46-563.88,198.55
					c-166.15,63.53-373.23,128.7-542.82,39.83c-90.37-47.36-159.08-129.51-217.96-210.79c-73.06-100.86-135.08-209.31-199.23-315.9
					c-64.74-107.56-130.67-215.81-211.49-312.26c-65.76-78.47-146.94-156.72-248.61-183.91c-78.77-21.07-151.46,1.38-202.95,64.5
					c-55.11,67.55-84.28,154.58-116.28,234.45c-33.35,83.26-67.68,172.57-129.75,239.25c-65.32,70.17-151.31,86.09-242.31,63.35
					c34.61-87.58,69.32-175.12,103.13-263.02c95.1,17.74,182.06-6.2,251.78-73.91c66.76-64.82,110.33-150.21,153.9-231.24
					c39.89-74.2,79.78-156.06,144.69-212.05c61.28-52.86,138.87-61.36,214.19-35.56c103.28,35.39,184.97,119.3,252.67,201.64
					c82.9,100.83,152.22,212.24,220.73,323.08c66.05,106.84,130.29,215.51,205.94,315.98c55.96,74.33,121.29,150.87,206.37,192.57
					c162.14,79.46,350.07,1.46,499.67-69.71c165.58-78.77,328.7-175.2,511.27-208.86c89.64-16.53,177.77-12.98,265.94,9.62
					c132.28,33.89,257.74,98.7,378.92,160.01c347.62,175.88,683.94,373.54,1028.07,556.04c162.42,86.14,325.89,171.11,493.29,247.23
					c62.64,28.49,125.95,55.74,190.58,79.45c52.18,19.14,106.49,38.63,162.01,44.87c106.11,11.92,214.74-14.64,314.9-47.46
					c128.86-42.22,252.35-99.91,373.91-159.53c126.46-62.01,251.12-127.66,378.22-188.37c112.45-53.71,227.6-105.34,348.29-137.67
					c88.84-23.79,191.66-41.29,281.77-13.89c94.26,28.66,177.7,95.92,250.23,160.1c192.89,170.66,352.5,376.1,529.31,562.59
					c81.64,86.11,166.46,170.31,260.56,242.9c77.89,60.08,167.44,118.62,265.72,137.19c194.25,36.72,380.3-85,528.62-195.16
					c87.01-64.63,169.93-134.56,256.93-199.2c75.15-55.84,155.82-111.85,246.63-138.57c209.22-61.57,376.14,118.75,501.89,260.39
					c202.84,228.47,377.14,484.44,606.45,688.49c94.31,83.93,205.15,167.99,331.58,193.82c93.93,19.19,184.7-5.45,261.89-60.82
					c179.8-128.97,274.72-345.38,455.06-474.53c88.75-63.56,189.83-89.66,297.64-69.04
					C5949.48,3151.96,5940.76,3227.84,5932.42,3303.76z"/>
			</g>
			<g>
				<path d="M5931.98,3051.94c-107.81-13-205.51,21.88-290.09,88.13c-89.12,69.81-158.99,161.07-229.76,248.48
					c-65.69,81.13-133.39,166.6-221.98,224.02c-212.7,137.86-440.78-22.22-598.6-169.84c-222.55-208.17-392.6-463.31-595.95-688.78
					c-72.45-80.33-152.15-163.57-249.77-213.26c-79.57-40.51-164.61-43.36-248.39-14.05c-91.54,32.02-172.8,90.23-249.73,147.9
					c-87.57,65.64-171.92,135.51-260.96,199.19c-149.69,107.07-341.39,222.59-533.06,171.12c-99.05-26.6-187.64-88.36-266.17-152.25
					c-93.61-76.16-178.39-162.79-260.42-251.08c-173.65-186.9-332.37-392.64-527.63-558.14
					c-71.24-60.38-157.23-127.23-251.41-144.81c-96.45-18-197.17,1.81-289.75,29.68c-258.38,77.78-494.71,220.69-736.45,337.46
					c-120.81,58.36-244,114.39-372.73,153.06c-97.75,29.36-205.94,52.33-307.88,32.5c-127.03-24.71-250.36-85.02-366.73-139.33
					c-170.49-79.56-337.48-166.6-503.2-255.61c-338.37-181.75-669.24-378.65-1012.96-550.26
					c-115.44-57.64-234.37-116.09-360.74-145.38c-86.95-20.15-175.54-17.65-262.44,1.59c-180.3,39.91-340.18,138.3-505.4,216.31
					c-149.38,70.53-336.41,140.46-493.04,49.78c-83.99-48.63-148.14-128.48-204.32-205.86c-74.81-103.03-139.6-213.01-207-320.91
					c-68.58-109.79-138.81-219.95-223.74-318.02c-68.33-78.91-152.19-158.72-256.12-185.61c-76.62-19.82-149.38-1.39-206.52,53.5
					c-62.86,60.38-102.6,142.49-144.24,217.8c-44.12,79.8-90.25,163.9-160.51,224.01c-75.96,65-168.27,78.38-263.59,54.09
					c32.85-85.52,64.58-171.45,93.88-258.26c100.76,18.67,195.58-3.46,276.76-66.28c76.34-59.08,133.16-139.41,189.67-216.57
					c49.8-68.01,100.54-141.03,170.3-190.23c72.6-51.2,158.66-58.1,241.54-28.12c103.55,37.45,187.54,118.87,259.15,199.83
					c90.69,102.55,168.04,216.32,244.19,329.81c73.05,108.86,143.98,219.75,225.38,322.69c59.07,74.71,126.49,152.58,213.46,195.24
					c153.92,75.5,321.95-8.04,456.05-86.59c149.8-87.75,296.47-196.93,468.74-235.89c212.59-48.08,411.67,70.78,590.01,172.05
					c320.22,181.83,627.91,384.96,947.12,568.61c149.48,86,300.92,169.34,457.25,242.32c113.25,52.87,235.84,110.56,361.15,126.8
					c111.67,14.48,225.71-13.98,330.76-49.77c126.86-43.22,248.42-101.18,368.41-160.46c134.82-66.61,267.98-136.59,403.54-201.72
					c116.94-56.18,236.25-110.25,360.98-146.9c98.14-28.84,210.43-51.78,311.5-23.86c99.06,27.37,185.98,93.76,261.76,160.72
					c193.5,170.98,349.61,380.91,521.91,572.15c81.06,89.97,165.24,178.39,259.5,254.76c77.58,62.86,168.11,125.05,268.27,143.26
					c207.11,37.65,413.77-81.74,581.78-187.74c98.78-62.32,194.15-129.9,293.31-191.62c82.95-51.64,170.57-102.26,265.94-126.71
					c88.18-22.61,176.65-15,255.28,32.57c90.48,54.73,161.09,140.22,225.32,222.65c174.84,224.39,317.75,476.26,522.71,676.07
					c82.75,80.67,180.79,158.3,295.67,184.97c95.18,22.1,186.3-1.96,262.47-61.82c164.56-129.32,244.45-338.89,412.18-465.75
					c86.1-65.12,185.61-89.63,291.82-69.34C5949.46,2900.12,5940.61,2976.02,5931.98,3051.94z"/>
			</g>
			<g>
				<path d="M5932.02,2800.07c-105.91-12.87-201.44,20.7-282.83,88.35c-84.12,69.93-147.71,161.23-212.35,248.47
					c-57.31,77.36-116.5,159.09-195.92,215.43c-198.48,140.81-418.71-12.13-561.52-159.43
					c-197.88-204.09-336.49-454.93-512.53-676.39c-62.75-78.94-133.35-161.17-224.07-208.65c-81.52-42.66-172.91-40.83-259.33-14.54
					c-96.61,29.39-185.28,82.12-270.27,135.53c-99.96,62.82-196.88,130.38-297.72,191.83c-166.62,101.55-381.72,218.92-584,164.57
					c-100.76-27.08-189.97-92.18-268.21-158.87c-93.81-79.96-178.1-170.73-259.78-262.82c-169.56-191.16-325.56-401.2-522.32-566.02
					c-75.21-63-164.82-127.35-263.77-144.33c-107.23-18.4-218.79,7.77-320.54,40.72c-269.49,87.28-517.56,234.31-771.13,358.01
					c-118.14,57.63-238.31,113.53-363.98,152.87c-103.85,32.5-216.07,55.16-324.52,33.8c-130.56-25.71-255.69-84.52-374.65-142.18
					c-157.25-76.22-309.79-162.01-460.45-250.42c-312.39-183.32-613.7-385.74-929.49-563.19
					c-105.38-59.21-214.45-119.17-332.33-149.27c-78.83-20.13-159.12-16.94-237.4,4.33c-170.17,46.24-313.65,157.23-463.95,244.53
					c-135.83,78.89-302.79,152.19-453.07,65.65c-86.56-49.85-153.6-130.92-213.68-209.06c-81.15-105.55-153.15-217.85-228-327.86
					c-76.51-112.43-155-224.93-247.87-324.67c-72.14-77.47-158.02-154.93-262.2-184.25c-84.53-23.79-166.52-7.77-235.78,45.95
					c-68.54,53.16-119.34,126.83-170.89,195.57c-57.23,76.31-116.63,155.25-196.08,209.94c-86.73,59.7-185.79,72.78-287.12,47.66
					c27.07-81.78,51.65-164.27,71.76-248.05c107.07,18.05,208.97-4.96,300.13-63.39c82.73-53.02,150.77-125.38,218.18-196.01
					c64.7-67.78,130.64-140.02,213.79-185.51c79.42-43.45,168.26-49.65,254.05-21.59c115.8,37.88,211.94,125.73,294.49,212.09
					c96.55,101,181.52,212.55,265.13,324.26c83.45,111.49,164.61,225.19,255.4,330.93c65.8,76.65,139.49,156.6,231.73,201.54
					c155.76,75.91,313.78-15.46,441.03-104.92c136.29-95.82,268.28-216.12,431.29-264.14c77.06-22.7,154.91-22.04,231.37,2.55
					c107.22,34.48,205.59,99.84,298.99,161.16c284.17,186.59,553.49,394.86,838.04,581.03c141.19,92.37,285.36,181.37,436.3,257.04
					c105.11,52.69,219.14,106.29,336.94,122.17c109.8,14.8,221.25-12.12,324.26-48.52c121.65-42.98,237.62-101.24,352.03-160.41
					c247.87-128.19,494-275.19,764.06-352.41c107.59-30.76,227.21-52.83,338.04-25.96c101.42,24.59,192.27,82.82,273.02,147.08
					c206.76,164.54,368.41,379.19,544.26,574.46c86.18,95.7,175.45,190.22,276.49,270.51c77.37,61.48,166.6,119.97,265.46,137.85
					c219,39.61,445.29-78.42,631.27-179.4c111.09-60.32,219.39-125.69,331.13-184.82c94.4-49.96,193.01-98.05,298.12-120.39
					c91.95-19.54,187.41-14.62,268.62,36.24c85.68,53.66,149.48,138.66,205.97,220.7c148.32,215.42,261.39,457.31,439.22,651.57
					c76.81,83.91,170.94,163.23,284.97,187.61c88.17,18.85,172-3.15,241.18-60.36c154.75-127.99,218.34-336.14,375.36-462.96
					c82.07-66.29,178.81-88.99,282.1-68.94C5949.54,2648.25,5940.72,2724.15,5932.02,2800.07z"/>
			</g>
			<g>
				<path d="M5932.34,2548.16c-102.82-12.86-195.05,19.24-271.96,87.87c-76.82,68.56-132.64,157.41-189.32,242.36
					c-52.14,78.14-105.76,161.79-182.26,218.55c-187.89,139.39-402.13-16.37-528.33-162.87
					c-170.94-198.43-280.27-439.32-430.84-651.96c-55.92-78.97-120.7-160.66-207.56-207.21c-85.2-45.67-184.82-42.01-276.18-18.8
					c-106.72,27.12-206.72,77.45-303.34,129.17c-112.61,60.28-222.4,125.68-335.43,185.19
					c-103.24,54.36-209.67,105.24-321.94,138.12c-98.43,28.82-207.46,45.55-308.37,19.03c-99.67-26.19-187.88-87.75-266-152.95
					c-100.69-84.04-190.3-180.83-277.45-278.53C1859.3,1901,1695.5,1687.44,1484.4,1530.01
					c-81.18-60.54-174.57-115.86-276.14-131.87c-116.27-18.33-236.69,7.58-347.38,42.45c-268.47,84.57-512.71,232.49-761.75,360.4
					c-112.07,57.56-226.23,113.73-346.31,152.73c-102.22,33.2-211.58,53.71-318.45,32.46c-121.44-24.15-237.02-80.24-345.8-137.47
					c-150.84-79.35-295.12-170.96-436.55-265.88c-277.1-185.96-539.55-393.49-819.36-575.32
					c-88.58-57.56-182.52-118.19-285.4-146.39c-76.19-20.88-154.33-14.47-228.52,11.28c-161.08,55.92-290.2,177.61-428.03,273.29
					c-131.22,91.09-288.02,169.06-442.01,82.1c-92.44-52.2-166.44-135.34-233.9-215.64c-91.02-108.35-173.63-223.51-259.21-336.12
					c-84.14-110.7-170.3-220.96-268.93-319.27c-83.05-82.79-180.74-165.94-296.97-195.48c-87.06-22.13-172.98-8.11-249.73,38.13
					c-82.39,49.64-148.49,122.78-215,191.08c-68.21,70.04-138.51,140.91-223.77,190.24c-95.63,55.32-200.92,70.63-308.53,46.28
					c17.3-76.42,31.37-153.92,36.02-232.24c228.57,31.33,405.83-118.66,568.11-257.43c76.96-65.81,155.83-134.27,249.04-176.14
					c88.63-39.81,185.04-45.76,277.75-16.41c124.07,39.27,229.74,128.71,322.3,217.04c107.89,102.96,204.92,216.84,300.71,330.93
					c95.56,113.81,189.08,229.84,291.83,337.33c74.96,78.41,157.9,159.38,257.83,205.06c164,74.96,319.28-23.49,445.67-124.37
					c130.43-104.11,255.07-236.58,415.92-293.31c70.94-25.02,147.95-29.7,219.55-4.44c99.38,35.06,187.33,104.66,269.37,168.8
					c245.52,191.96,473.56,405.16,721.05,594.83c118.69,90.96,240.99,178.34,370.89,252.7c100.66,57.62,211.87,115.09,328.49,129.98
					c98.54,12.59,197.53-11.2,289.19-46.12c114.98-43.8,222.93-104.86,329.31-166.1c227.37-130.89,454.54-277.39,709.16-349.61
					c107.45-30.48,225.34-48.59,336.01-25.11c113.14,24.01,216.19,85.34,308.47,152.96c223.73,163.95,406.56,377.89,599.92,574.87
					c90.02,91.7,182.29,182.58,284.95,260.24c82.93,62.74,176.58,120.43,280.54,138.6c108.24,18.92,219.74-1.55,323.59-33.11
					c119.34-36.27,233.7-87.66,345.88-141.71c122.37-58.97,242.5-122.55,365.78-179.64c105.36-48.8,214.69-95.19,329.43-116.52
					c97.81-18.18,201.71-15.42,289.08,36.82c85.48,51.11,147.83,134.89,200.79,217.29c134.59,209.43,225.71,447.66,386.73,639.87
					c70.25,83.86,158.21,160.68,267.82,184.56c85.68,18.67,167.78-0.77,234.03-58.78c145.08-127.06,193.25-332.74,339.84-459.48
					c77.5-67,171.04-87.72,270.76-67.89C5949.67,2396.38,5940.98,2472.27,5932.34,2548.16z"/>
			</g>
			<g>
				<path d="M5932.77,2296.25c-99.23-12.86-187.78,17.6-259.8,86.76c-69.79,67.01-118.3,153.13-167.49,235.45
					c-47.16,78.93-95.53,164.52-169.26,221.99c-70.75,55.15-157.82,64.94-242.68,40.19c-108.23-31.56-193.41-114.59-261.37-201.06
					c-154.44-196.47-242.81-433.98-381.34-640.55c-53.64-79.99-118.3-160.06-205.94-204.32c-92.28-46.6-200.33-41.67-298.69-19.73
					c-116.54,26.01-227.42,74.67-335.06,125.25c-124.03,58.28-245.43,121.96-369.46,180.23
					c-111.65,52.45-225.86,102.43-345.1,135.02c-103.52,28.29-215.71,44.29-321.46,18.33c-105-25.78-198.54-87.98-282.33-154.19
					c-102.88-81.29-196.17-174.28-287.8-267.83c-192.51-196.54-377.59-409.64-605.42-566.8c-92.79-64.01-198.3-122.15-311.67-137.11
					c-114.31-15.08-230.74,6.27-339.66,40.87c-251.14,79.77-474.25,227.42-700.95,357.82c-178.02,102.39-393.33,230.9-607.81,188.76
					c-119.15-23.41-230.87-84.18-333.75-146.37c-129.05-78.02-250.72-167.99-368.96-261.39
					c-240.09-189.66-461.52-402.2-703.57-589.24c-77.28-59.72-163.15-127.37-259.19-153.25c-73.03-19.68-148.9-9.16-218.13,19.21
					c-159.15,65.21-281.35,198.56-414.45,302.8c-63.25,49.53-131.38,97.41-208.53,122.4c-82.85,26.84-165.27,17.69-242.06-22.72
					c-100.73-53-184.47-137.28-261.56-219.48c-103.32-110.18-198.52-227.71-296.42-342.65
					c-96.31-113.06-194.51-225.62-304.38-325.85c-92.61-84.48-199.54-169.44-323.68-200.1c-209.67-51.79-375.13,88.55-524.69,214.96
					c-165.53,139.9-349.14,282.22-579.31,237.32c1.16-71.25-7.04-141.11-23.49-210.41c245.33,27.65,438.85-142.43,620.24-281.8
					c83.12-63.87,169.38-127.46,267.48-166.42c99.89-39.67,208.56-46.36,311.42-13.44c126.11,40.36,236.56,125.8,335.4,211.26
					c124.83,107.93,238.49,228.25,351.21,348.52c104.31,111.3,207.19,224.36,317.95,329.37c88.97,84.36,186.12,170.92,300.46,219.06
					c176.83,74.44,337.33-24.81,470.84-136.72c132.52-111.08,255.99-253.39,419.57-319.62c70.55-28.57,152.62-39.06,225.29-11.63
					c89.61,33.83,166.24,103.4,235.61,167.31c209.49,192.99,395.77,409.77,604.96,603.29c104.35,96.53,213.28,189.62,332.22,267.86
					c89.38,58.79,190.26,116.21,298.1,130.27c197.37,25.74,381.74-106.62,536.11-211.23c194.77-131.98,390.14-276.87,617.79-346.76
					c104.3-32.02,217.12-47.07,325.19-26.15c118.23,22.88,227.53,82.82,326.49,149.35c238.83,160.57,439.41,372.43,648.96,567.78
					c101.94,95.04,206.1,189.25,320.77,268.89c89.34,62.05,189.18,119,298.06,136.14c114.51,18.03,231.69-1.88,341.91-33.82
					c123.87-35.89,242.76-87.57,359.84-141.11c129.22-59.08,256.77-121.94,387.68-177.28c115.12-48.66,234.17-93.45,357.95-113.95
					c107.69-17.84,219.86-14.63,318.03,37.59c95.43,50.76,165.32,137.59,222.81,227.03c131.13,203.98,211.21,440.53,365.94,629.47
					c65.53,80.02,148.22,150.87,251.17,174.94c88.56,20.7,174.24,3.8,241.6-58.78c136.37-126.69,171.99-329.14,310.03-455.22
					c73.39-67.03,163.84-85.66,260.04-66.13C5949.78,2144.49,5941.25,2220.37,5932.77,2296.25z"/>
			</g>
			<g>
				<path d="M5933.11,2044.34c-95.76-12.79-180.85,15.86-248.6,84.9c-67.91,69.2-111.76,158.71-157.6,242.98
					c-40.77,74.95-83.47,155.46-150.47,210.54c-72.19,59.35-164.18,66.73-251.63,39.71c-101.65-31.4-181.54-108.07-244.96-190.64
					c-148.83-193.76-227.6-430.03-364.55-631.24c-60.08-88.27-134.34-169.7-233.3-214.26c-103.17-46.47-219.49-42.19-328.27-20.47
					c-264.83,52.88-507.65,191.48-751.72,301.13c-116.38,52.28-235.05,102.09-358.75,134.43
					c-109.31,28.58-227.43,44.58-339.02,19.19c-109.94-25.02-209.6-86.08-299.9-151.57c-114.99-83.39-220.24-179.72-323.89-276.57
					c-208.54-194.85-411.05-405.67-653.42-559.39c-99.26-62.96-210.01-118.87-328.06-133.56c-109.47-13.63-220.23,5.71-323.74,41.67
					c-222.73,77.39-412.4,223.56-605.26,354.8c-151.91,103.37-334.35,227.23-528.02,188.01
					c-109.47-22.17-210.32-83.91-300.63-147.09c-117.54-82.21-225.36-177.96-328.89-276.97
					c-202.2-193.39-382.66-409.62-590.37-597.11c-65.65-59.26-142.42-128.11-230.01-151.58c-75.6-20.26-155.55-4.62-225.34,27.6
					c-162.13,74.86-283.94,217.66-420.24,328.74c-65.62,53.48-136.82,104.37-217.91,131.27c-88.86,29.48-177.73,19.27-261.4-21.11
					c-115.61-55.79-214.01-145.8-305.57-234.09c-111.52-107.53-216.1-222.04-322.7-334.37c-113.09-119.18-227.78-238.05-354.48-343
					c-98.38-81.5-209.46-162.48-335.19-194.67c-221.37-56.68-410.27,75.26-576.77,203.97
					c-182.83,141.33-381.69,305.58-628.79,263.45c-18.47-66.91-43.64-131.13-72.96-193.99
					c488.53,38.27,754.99-669.25,1262.28-504.37c132.64,43.11,250.35,126.97,357.63,213.95
					c132.37,107.33,254.15,227.2,375.47,346.65c118.97,117.14,236.95,235.82,363.66,344.7c100.03,85.96,208.54,172.42,332.86,220.3
					c92.34,35.56,189.85,37.88,283.17,4.5c86.84-31.06,163.55-85.34,234.81-142.79c145.39-117.2,277.99-270.48,453.94-342.86
					c73.38-30.19,160.63-43.51,236.87-15.47c87.26,32.09,159.23,101.42,222.39,167.27c186.73,194.69,340.27,419.12,520.73,619.55
					c86.95,96.57,178.94,190.31,282.73,268.95c78.73,59.66,169.65,116.72,269.36,130.65c174.49,24.37,321.9-101.48,445.84-206.4
					c157.8-133.57,316.45-279.97,515.7-348.21c95.93-32.86,198.61-43.91,298.65-25.11c120.87,22.72,233.34,80.7,336.52,145.73
					c254.36,160.32,471.77,373.37,698.33,569.14c108.31,93.59,218.82,186.08,339.06,264.16c94.24,61.19,198.25,117.04,310.51,134.72
					c247.56,38.98,499.48-77.28,719.04-176.76c244.36-110.72,491.88-245.88,760.11-287.34c116.24-17.97,235.7-14.14,343.21,37.54
					c103.71,49.85,187.11,133.06,257.02,222.91c155.01,199.22,248.46,440.72,411.53,633.79c68.48,81.07,153.54,150.71,259.17,174.54
					c89.18,20.12,177.93,6.17,246.63-56.71c136.58-125.01,163.08-330.35,297.92-457.35c70.63-66.52,159.13-83.03,252.54-63.97
					C5949.81,1892.6,5941.42,1968.47,5933.11,2044.34z"/>
			</g>
			<g>
				<path d="M5933.19,1792.47c-93.06-12.57-176.01,14.12-240.96,82.6c-64.67,68.18-104.74,156.4-147.04,239.11
					c-39.6,77.43-81.56,161.16-150.8,216.66c-74.21,59.48-170.31,64.39-258.97,37.56c-104.24-31.55-186.51-107.45-253.31-190.69
					c-159.16-198.31-255.6-439.27-418.36-635.31c-72.65-87.5-159.78-166.5-266.17-210.14c-111.61-45.77-235.21-42.27-351.94-20.31
					c-268.66,50.55-515.08,186.8-762.27,297.31c-216.24,96.67-471.67,209.42-713.84,155.33c-113.52-25.36-217.53-85.12-312.94-149.8
					c-120.6-81.76-232.17-176.35-342.1-271.71c-225.18-195.32-444.04-407.22-701.37-560.65
					c-102.72-61.25-215.48-114.75-335.27-130.2c-99.56-12.84-200.09,3.86-293.11,40.41c-193.35,75.99-345.01,223.66-500.45,356.22
					c-123.11,105-269.65,220.59-442.18,183.36c-100.82-21.76-191.3-83.81-270.15-147.67c-102.17-82.74-192.95-179.12-279.09-278.14
					c-92.09-105.87-178.68-216.32-265.96-326.14c-78.1-98.26-156.16-197.71-244.82-286.8c-61.3-61.6-135.07-129.51-221.81-151.18
					c-80.02-20-164.67-2.2-238.1,31.88c-320.89,148.95-577.73,642.34-986.4,461.32c-125.73-55.69-235.5-145.97-337.99-236.04
					c-126.73-111.37-245.66-231.3-366.25-349.18c-120.95-118.22-243.06-236.39-376.63-340.47
					c-107.03-83.4-225.57-162.95-358.14-198.49c-236.38-63.37-440.77,83.3-617.29,221.52c-185.52,145.27-392.22,327.79-645.66,292.7
					c-31.17-63.12-65.73-124.38-101.26-185.13c255.22,11.04,459.82-193.57,642.82-343.76c179.71-147.49,390.96-301.92,635.37-228.32
					c142.92,43.04,270.92,128.04,388.27,218.14c136.07,104.47,262.01,221.55,387.29,338.5c123.65,115.43,246.24,232.42,376.8,340.11
					c107.69,88.82,222.84,176,352.77,229.6c436.24,179.97,723.36-324.88,1079.02-466.74c82.01-32.71,174.15-46.16,260.44-22.29
					c96.1,26.59,175.11,96.23,241.66,167.57c176.82,189.55,307.11,419.09,464.86,623.9c74.32,96.49,153.6,190.93,246.1,270.63
					c71.51,61.62,155.4,119.11,250.28,135.26c160.85,27.37,276.08-90.7,373.83-200.84c116.63-131.42,232.82-277.9,399.98-346.72
					C442.99,368.59,663,462.49,845.5,573.43c259.27,157.61,484.73,365.68,718.55,557.33c114.84,94.13,231.78,187.07,357.99,265.7
					c101.04,62.94,211.51,119.85,330.49,137.79c241.56,36.43,484.26-76.23,697.67-174.98c243.91-112.86,490.84-249.01,760.05-289.02
					c122.98-18.28,247.21-11.33,361.86,39.52c110.45,48.99,204.11,128.98,285.57,216.97c177.87,192.12,300.77,428.21,480.48,618.46
					c78.92,83.55,174.24,159.15,288.27,186.12c92.43,21.86,187.84,9.12,263.28-50.82c147.02-116.82,180.7-322.12,314.25-450.2
					c70.86-67.96,159.97-84.32,254.47-65.42C5949.69,1640.71,5941.35,1716.58,5933.19,1792.47z"/>
			</g>
			<g>
				<path d="M5932.8,1540.64c-94.33-12.45-177.69,14.53-243.46,83.87c-125.29,132.11-163.97,336.07-316.53,444.42
					c-80.24,56.99-181.26,62.75-273.78,35.06c-116.09-34.75-210.71-115.95-290.67-204.19
					c-176.82-195.12-303.09-430.84-488.49-618.95c-84.09-85.31-181.22-160.93-294.19-203.56
					c-115.74-43.67-240.79-43.66-361.35-22.11c-268.9,48.08-514.07,185.71-759.72,298.3c-213.4,97.81-459.86,206.48-699.7,154.56
					c-120.67-26.12-231.77-88.34-334.17-155.3c-124.02-81.09-239.83-174.31-354.11-268.4C1284.3,893.08,1057.93,686,796.26,534.67
					c-182.61-105.61-398.11-184.87-601.09-88.1C34.25,523.3-74.44,670.85-189.26,801.25c-49.25,55.94-101.85,112.9-167.37,150
					c-64.56,36.56-137.85,45.12-209.7,27.15c-95.66-23.92-178.95-86.96-250.17-152.72c-90.96-83.99-169.27-181.18-243.17-280.18
					c-79.67-106.72-153.95-217.29-230.64-326.14c-69.9-99.21-141.41-199.05-226.72-285.79c-67.97-69.12-149.54-133.67-246.91-152.78
					c-90.92-17.85-183.65,0.47-266.97,38.67c-352.17,161.49-648.02,642.36-1086.06,441.58c-130.83-59.97-246.95-150.32-356.52-242.4
					c-130.53-109.7-253.85-227.65-378.85-343.51c-124.94-115.81-251.2-231.27-388.3-332.71
					c-118.52-87.69-251.12-172.27-396.75-205.34c-239.89-54.49-449.14,116.86-620.82,259.65
					c-181.68,151.11-391.23,353.16-647.32,325.6c-36.31-61.02-73.09-121.76-108.15-183.51c125.26,2.24,238.27-53.45,338.93-123.66
					c109.27-76.23,206.37-168.36,306.01-256.37c173.93-153.6,387.8-334.28,636.46-261.63c143.81,42.02,274.02,123.06,394.18,210.69
					c139.82,101.96,269.61,217.06,398.7,332.05c128.16,114.16,255.36,229.83,390.5,335.78c112.62,88.29,232.39,173.22,365.69,227.4
					c445.97,181.26,760.38-281.7,1137.46-420.35c89.8-33.02,192.85-49.68,286.93-25.2c102.11,26.57,190.04,92.44,265.14,164.3
					c189.01,180.85,318.93,412.47,470.49,623.12c68.96,95.84,142.58,190.25,230.52,269.57c71.52,64.51,155.81,121.1,252.58,136.82
					c68.95,11.21,136.44-1.5,192.24-44.62c53.43-41.29,91.64-99.73,127.19-156.2c79.76-126.7,155.87-274.91,296.32-344.1
					c190.11-93.66,414.53,20.63,577.95,119.47c261.58,158.21,491.53,364.2,730.35,553.54c116.69,92.51,235.49,183.64,363,260.9
					c102.1,61.86,212.75,117.38,331.69,136.66c235.04,38.1,469.14-75.52,674.28-175.58c233.68-113.98,470.54-249.59,731.41-288.03
					c581.11-85.63,870.7,517.38,1233.05,850.56c153.88,141.49,394.48,275.53,592.17,135.8c156.69-110.75,210.68-313,355.77-434.69
					c79.08-66.32,173.73-81.27,273.08-60.46C5943.49,1383.83,5941.25,1461.75,5932.8,1540.64z"/>
			</g>
			<g>
				<path d="M5907.95,1278.25c-99.31-14.53-189.11,10.56-263.34,78.85c-138.63,127.52-196.71,331.16-361.74,432.29
					c-208.71,127.91-449.42-25.89-601.8-171.08c-198.32-188.96-353.04-419.15-559.68-600.09
					c-95.57-83.69-202.81-157.14-323.78-198.53c-116.72-39.93-239.92-43.15-360.71-21.51c-262.22,46.98-498.5,186.45-735.42,300.82
					c-202.74,97.87-432.88,201.28-663.03,152.92c-123.19-25.88-237.03-88.1-342.3-155.09c-125.19-79.66-242.65-171.08-358.51-263.56
					c-236.69-188.93-466.75-393.91-729.91-546.12C444.47,192.74,223.84,91.69,43.09,199.51
					c-131.48,78.43-199.41,225.17-277.85,349.96c-34.61,55.06-73.35,111.78-128.17,148.62c-60.45,40.62-132.93,44.97-202.41,28.68
					c-97.58-22.87-181.46-85.96-252.36-154.32c-86.75-83.65-158.85-180.58-227.77-279.01
					c-146.58-209.33-281.26-437.59-472.97-610.01c-76.45-68.75-170.59-135.52-274.9-150.66c-97.82-14.2-195.9,4.8-286.66,41.92
					c-193.39,79.09-351.64,222.49-530.48,327.33c-86.78,50.87-179.84,93.92-279.54,111.42c-115.17,20.22-225.37,1.49-331.48-45.96
					c-136.75-61.16-259.5-151.52-375.72-244.91c-132-106.06-257.22-220.22-383.97-332.41c-128.5-113.74-258.34-227.06-398.9-325.85
					c-120.77-84.88-256.14-166.95-402.27-198.25c-241.88-51.81-455.67,147.77-620.15,294.88
					c-98.88,88.44-196.43,180.23-307.24,253.87c-101.96,67.76-216.49,117.38-341.12,106.4c-34.27-61.42-66.19-123.92-93.38-188.82
					c125.38,1.81,237.63-58.29,336.19-130.86c112.29-82.69,211.1-182.14,312.36-277.55c164.52-155.02,377.77-361.24,624.96-291.82
					c144.06,40.46,275.29,119.2,396.52,205.1c134.48,95.29,260,202.57,384.91,309.88c127.62,109.64,254.41,220.64,388.73,322.12
					c117.44,88.73,242.16,172.93,379.71,227.28c106.44,42.06,218.6,56.7,331.87,38.28c100.47-16.33,195.2-56.22,284.7-103.57
					c181.41-95.98,347.62-226.69,545.21-289.42c94.13-29.88,201.73-45.49,299.09-22.2c109.87,26.28,207.38,92.19,292.62,164.05
					c205.49,173.22,362.73,396.69,529.41,605.34c76.19,95.38,154.3,191.09,245.44,272.77c71.1,63.73,154.24,121.58,250.41,137.24
					c68.31,11.12,137.53-0.1,192.96-43.17c51.76-40.22,85.6-99.05,113.28-157.35c56.38-118.76,95.17-269.06,215.51-341.24
					C46.62-82.9,124.61-83.4,199-67.1c114.53,25.1,220.8,82.67,319.54,144.08c258.35,160.67,486.92,365.52,725.35,553.24
					c113.76,89.56,229.66,177.55,353.57,252.75c102.6,62.27,213.5,118.31,333,138.11c221.88,36.75,438.71-74.87,628.76-175
					c218.5-115.11,440.29-251.7,688.5-289.52c261.24-39.81,496.58,77.19,695.01,237.74c219.73,177.78,396.8,401.91,616.84,579.06
					c169.58,136.52,415.74,266.17,624.11,133.26c167.98-107.15,238.58-311.22,396.66-428.71c85.58-63.6,185.05-77.02,287.82-54.72
					C5885.71,1107.55,5899.87,1192.43,5907.95,1278.25z"/>
			</g>
			<g>
				<path d="M5833.6,995.1c-102.97-16-197.74,7.41-278.81,73.62c-150.97,123.29-224.8,325.78-398.12,424.47
					c-219.67,125.08-470.92-25.63-640.49-167.45c-379.81-317.65-748.63-893.92-1319.85-783.23
					c-244.19,47.32-460.57,184.25-677.87,298.09c-190.72,99.92-405.53,202.49-626.25,155.26
					c-121.4-25.98-233.65-87.55-337.56-153.48c-124.27-78.85-241.03-169.17-356.1-260.73C962.94,394.19,734.93,190.01,475.31,35.59
					C334.68-48.06,117.11-163.59-39.16-52.29c-113.78,81.04-146.23,231.56-205.87,349.75c-28.85,57.17-65.37,114.04-119.9,149.8
					c-58.94,38.66-131.08,43.57-198.55,28.11c-96.81-22.19-179.63-86.08-250.63-152.73c-91.23-85.65-170.51-183.56-248.65-281
					c-167.17-208.47-328.48-431.7-539.98-598.37c-84.84-66.86-187.17-132.86-296.72-147.08c-101.06-13.11-202.72,2.67-298.36,36.29
					c-193.7,68.09-357.83,196.73-539.96,288.38c-90.41,45.49-186.4,82.02-287.45,94c-117.48,13.93-230.62-8.5-338.51-55.39
					c-137.89-59.93-262.91-147.31-381.43-238.81c-131.11-101.21-255.64-210.58-381.47-318.18
					c-126.65-108.3-254.47-216.31-392.4-310.15c-119.77-81.48-253.1-159.09-396.47-189.14c-109.45-22.95-221.02,19.23-312.94,76.24
					c-109.8,68.1-204.42,158.77-297.6,247.42c-100.62,95.73-200.05,194.88-314.15,274.8c-99.99,70.03-213.96,123.8-338.7,112.37
					c-25.5-65.17-45.14-131.68-56.72-200.75c126.67,5.79,240.45-55.3,339.44-128.91c114.55-85.18,214.62-188.29,316.44-287.8
					c92.37-90.27,186.54-182.9,296.8-251.42c94.33-58.62,200.57-93.35,310.72-64.28c137.16,36.21,262.23,109.27,377.9,189.62
					c131.13,91.1,253.28,194.51,375.18,297.4c121.12,102.24,241.88,205.3,369.77,299.09c117.22,85.97,241.71,166.27,378.17,218.19
					c106.21,40.42,218.85,58.67,332.2,46.22c98.1-10.77,192.07-43.05,281.67-83.39c179.62-80.86,346.33-193.69,538.51-244.41
					c98.23-25.92,205.53-35.94,305.61-14.28c118.15,25.57,225.94,89.93,322.63,160.27c231.38,168.33,420.8,387.84,615.91,595.08
					c88.02,93.5,177.17,187.4,277.13,268.36c74.67,60.47,160.85,119.45,257.84,134.51c68.59,10.65,137.42-2.69,194.68-42.58
					c56.3-39.22,96.98-96.96,130.61-155.8c35.59-62.26,63.92-128.24,96.88-191.86c28.37-54.75,61.11-112.28,112.1-149.08
					c55.06-39.74,122.09-41.49,186.24-26.5c105.76,24.71,202.66,82.91,292.04,142.63c245.54,164.05,463.91,366.67,692.97,552.13
					c110.3,89.31,222.82,176.99,343.31,252.29c98.25,61.4,205.01,117.89,320.39,137.65c208.67,35.72,407.71-75.89,581.26-177.18
					c196.63-114.76,396.34-250.27,625.26-288.45c254.34-42.41,494.28,80.34,693.81,226.4c230.79,168.95,426.09,381.18,657.53,549.11
					c183.09,132.84,437.8,261.23,654.6,127.81c173.23-106.6,256.65-308.8,422.57-423.53c90.79-62.78,194.11-76.01,300.66-52.62
					C5789.99,816.53,5813.41,905.41,5833.6,995.1z"/>
			</g>
			<g>
				<path d="M5728.22,698.97c-106.45-16.9-205.47,6.12-291.55,71.62c-160.13,121.83-246.35,324.99-427.16,422.38
					c-222.78,119.99-478.46-22.8-658.88-157c-232.57-172.98-431.55-387.09-669.55-553.32c-200.77-140.23-438.24-248.07-687.5-196.23
					c-226.62,47.13-422.3,184.81-619.16,299.09c-174.5,101.31-371.6,202.45-579.09,155.47c-114.49-25.92-220.11-86.13-317.58-149.6
					c-122.95-80.05-238.06-171.79-351.32-264.84c-222.83-183.07-436.82-383-679.57-540.02C326.21-291.52,123.34-415.26-12.1-300.52
					C-61-259.1-92.52-199.85-121.24-143.66c-32.88,64.3-62.56,130.38-100.58,191.92c-34.95,56.57-77.74,110.98-135.28,145.96
					c-62.53,38.01-136.93,45.78-207.58,29c-98.85-23.47-185.51-88.06-261.71-152.47c-98.74-83.47-188.19-177.63-277.09-271.29
					c-198.07-208.68-393.4-429.9-633.1-592.35c-95.04-64.41-202.66-123.9-317.9-140.34c-101.63-14.5-204.99-3.14-303.19,25.44
					c-189.98,55.28-355.54,167.78-536.53,244.49c-90.43,38.33-185.47,67.09-283.91,73.56c-117.01,7.68-231.49-17.63-339.04-62.95
					c-133.19-56.12-254.85-137.21-370.16-223.51c-129.37-96.83-251.86-202.41-375.43-306.41
					c-120.47-101.38-241.91-202.67-373.08-290.1c-111.89-74.58-235.83-144.34-368.93-171.64
					c-107.64-22.08-216.52,27.19-303.98,85.78c-111.86,74.93-207.82,172.03-303.48,265.96c-99.16,97.36-198.16,197.32-312.29,277.39
					c-100.65,70.61-216.22,124.28-341.75,107.92c-9.45-73.41-8.37-145.84,2.03-219.08c126.85,14.5,242.42-37.66,344.88-108.3
					c119.58-82.45,223.22-186.08,327.37-286.61c94.51-91.24,189.65-185.81,300.73-257.07c88.71-56.91,189.61-95.02,295.18-68.69
					c124.7,31.09,237.92,98.13,342.04,171.62c117.39,82.86,226.51,176.88,335.74,270.03c215.72,183.98,439.63,386.28,710.39,484.5
					c102.31,37.11,211.24,57.05,320.2,50.33c92.5-5.7,182.33-30.06,268.76-62.61c175.89-66.25,340.71-163.12,526.43-201.29
					c98.97-20.34,201.36-22.67,300.69-3.23c124.56,24.38,240.68,85.7,347.19,152.66c261.27,164.26,486.09,380.6,714.73,585.94
					c100.81,90.54,202.38,181.39,312.61,260.46C-734.72-79.43-641.65-20.11-539.31-4.27c160.25,24.79,289.84-72.62,385.13-191.13
					c48.61-60.45,90.2-125.99,134.48-189.57c36.81-52.85,76.18-108.19,129.6-145.6C252.46-630.4,437.34-501.55,553.38-417
					c222.3,161.98,416.5,360.42,623.86,540.37c105.31,91.38,213.42,180.75,330.26,257.15c90.14,58.95,189.34,114.86,296.71,133.73
					c194.52,34.18,374.36-76.88,529.66-179.34c173.34-114.37,349.86-250.54,559.04-288.85c240.73-44.09,475.48,85.31,666.72,217.57
					c235.02,162.55,440.69,364.01,678.35,522.81c188.75,126.12,444.16,250.42,661.44,119.02c179-108.25,269.94-313.9,443.89-427.92
					c92.94-60.92,197.45-74.06,305.04-50.57C5674.94,517.64,5702.1,608.16,5728.22,698.97z"/>
			</g>
			<g>
				<path d="M5610.74,397.78c-107.23-16.89-207.58,5.78-295.71,69.5c-167.84,121.35-260.75,327.66-446.52,427.08
					c-221.64,118.62-478.36-18.79-663.69-145.67c-238.37-163.18-446.66-366.21-687.12-526.67
					C3327.2,94.91,3097.21-21.61,2862.24,31.22c-208.58,46.9-382.03,186.98-557.05,301.73
					c-153.97,100.94-332.55,201.38-523.13,157.12c-111.3-25.85-213.11-87.73-306.13-151.97
					c-113.79-78.59-219.69-168.25-323.24-259.71C948.31-102.16,755.57-301.95,531.29-458.44
					C412.83-541.1,242.65-644.77,108.01-538.6C55.3-497.03,15.62-440.18-22.7-385.82c-45.27,64.21-89.04,129.69-140.54,189.18
					C-265.13-78.92-403.47,8.36-564.6-28.68c-102.47-23.55-194.88-85.33-278.37-146.74c-114.14-83.94-220.08-178.78-325.77-272.93
					c-227.74-202.88-454.37-415.54-717.46-572.66c-108.69-64.91-226.06-121.1-352.34-139.84c-98.69-14.64-198.69-8.61-295.69,14.09
					c-181.15,42.39-342.87,137.51-517.14,199.3c-88.8,31.49-181.27,53.12-275.82,54.84c-111.86,2.03-223.37-23.56-326.64-65.57
					c-263.95-107.37-482-307.38-695.84-490.01c-109.24-93.3-218.96-187.09-338.07-267.74c-99.82-67.59-211.64-131.39-331.71-153.37
					c-104.18-19.07-207.48,32.17-290.88,89.46c-110.4,75.84-205.9,172.03-302.1,264.55c-103.59,99.62-208.21,201.89-329.81,279.67
					c-105.26,67.33-222.68,108.77-348.26,85.02c11.59-77.89,28.19-154.74,47.63-231.03c287.4,31.53,533.06-193.39,737.01-364.5
					c102.29-85.82,204.42-176.12,320.8-242.7c88.89-50.85,183.68-78.87,285.22-53.04c102.87,26.17,194.66,85.67,278.19,149.28
					c99.57,75.83,191.34,161.43,284.08,245.29c188.59,170.53,388.62,352.68,633.8,435.94c94.45,32.08,195.12,50.12,295.01,47.21
					c87.47-2.55,173.14-21.49,256.16-48.35c166.25-53.79,323.83-134.37,498.19-160.62c99.33-14.95,198.39-10.18,296.73,9.35
					c132.78,26.37,257.86,88.52,374.6,155.09c286.67,163.46,543.16,374.94,803.8,575.76C-1068.2-547.33-956.33-461.78-837.55-387
					c90.83,57.18,190.44,113.96,298.01,130.75c179.87,28.08,342.7-70.29,472.37-184.66c65.17-57.48,124.75-120.75,186.04-182.25
					c51.84-52.02,105.67-105.85,170.22-142.09c58.59-32.89,121.49-42.28,186.53-24.34c91.27,25.17,171.99,83.29,244.88,141.69
					c199.72,160.04,370.71,353.87,556.05,529.65c94.53,89.66,192.13,177.3,298.9,252.29c84.68,59.47,178.68,114.97,281.74,134.02
					c183.57,33.93,355.48-82.13,496.77-183.95c155.25-111.89,313.59-254.74,507.26-292.09c216.76-41.81,431.28,93.85,601.4,211.45
					c231.8,160.24,439.28,354.08,676.95,505.99c188.04,120.18,436.19,238.03,646.99,104.12
					c177.89-113.01,270.05-319.88,446.37-434.55c92.54-60.18,196.36-74.01,303.42-51.06
					C5559.09,218.46,5584.48,308.24,5610.74,397.78z"/>
			</g>
			<g>
				<path d="M5500.03,99.43c-106.72-16.27-206.46,7.08-294.14,70.27c-169.8,122.38-262.99,330.29-447.59,434.67
					c-217.05,122.73-470.73-13.88-655.36-136.46c-230.27-152.88-434.16-341.64-662.52-497.25
					c-173.17-118-387.26-247.82-604.94-191.69c-191.5,49.38-346.08,194.19-503.68,305.71c-140.28,99.26-308.76,202.47-487.82,160.3
					c-104.48-24.61-198.82-84.03-284.33-146.9c-106.03-77.95-203.26-167.5-297.77-258.85c-184.15-178-355.1-375.7-559.63-531.16
					c-68.13-51.79-144.66-102.52-229.8-120.27c-65.51-13.66-128.39,4.18-184.44,38.68c-65.27,40.18-120.52,95.63-174.79,149.13
					C50.13-562.2-12.15-498.99-80.48-442.44c-135.77,112.36-305.6,201.97-486.63,161.42c-105.61-23.65-203.11-80.95-293.3-138.66
					c-126.06-80.67-245.14-172.02-363.86-262.97c-261.66-200.45-521.55-410.72-812.7-567.67
					c-116.68-62.9-237.72-114.29-368.66-137.69c-95.87-17.13-193.82-16.09-289.57,1.18c-168.1,30.33-321,108.65-483.26,158.39
					c-189.43,58.06-383.6,53.94-569.11-18.65c-239.51-93.72-433.42-276.84-620.41-447.54c-158.6-144.78-324.28-311.67-538.63-366.36
					c-102.37-26.12-201.93,15.5-288.92,67.7c-117.78,70.68-222.19,162.41-327.79,249.56c-205.95,169.98-458.3,388.49-746.18,337.36
					c20.79-78.93,44.5-157.01,69.54-234.69c297.38,35.22,558.81-182.85,783.91-346.14c112.21-81.4,225.9-164.61,351.88-223.72
					c102-47.86,224.31-83.56,335.75-48c86.85,27.72,161.94,84.92,229.09,144.98c82.09,73.42,155.85,155.66,230.79,236.19
					c146.57,157.51,303.02,321.15,511.41,393.29c168.67,58.39,347.66,52.14,517.02,1.93c153.24-45.43,299.65-112.96,460.07-130.66
					c237.89-26.25,463.07,62.41,669.57,171.98c305.15,161.92,585.78,366.48,870.61,560.74c124.8,85.12,250.35,170.02,382.04,244.23
					c100.07,56.39,207.85,111.93,322.85,128.74c200.31,29.28,395.75-68.8,558.85-174.45c86.11-55.78,167.91-117.71,251.12-177.65
					c68.35-49.24,138.3-99.13,215.63-133.46c67.42-29.93,140.54-44.39,212.94-24.51c86.9,23.85,162.41,82.42,229.23,140.64
					c184.12,160.44,336.82,354.7,505.94,530.17c82.68,85.79,168.62,169.66,263.81,241.62c78.95,59.68,168.14,115.41,267.03,133.25
					c179.63,32.4,350.79-87.66,487.29-188.18c82.13-60.49,161.52-124.81,246.05-181.99c72.81-49.25,151.42-95.36,237.87-115.36
					c200.84-46.47,395.47,92.33,544.97,209.32c211.69,165.65,404.27,356.07,632.12,500.55c99.26,62.94,207.22,120.26,323.06,144.91
					c100.13,21.3,197.47,0.23,281.08-58.36c169.89-119.06,256.19-324.11,426.56-442.64c90.16-62.73,192.51-79.66,299.37-57.43
					C5460.93-73.38,5479.1,13.3,5500.03,99.43z"/>
			</g>
			<g>
				<path d="M5415-188.19c-106.38-15.3-204.35,11.34-289.37,76.86c-163.1,125.69-249.51,331.65-425.18,442.9
					c-200.54,127-437.64-1.97-611.71-117.48c-219.01-145.33-405.1-332.02-611.65-493.29c-152.32-118.93-347.46-250.72-549.64-191.22
					c-86.39,25.42-164.39,74.58-237.53,125.87c-84.09,58.95-163.88,123.76-247.18,183.8C2303.98-60.72,2132.43,49.28,1953.6,3.89
					c-95.67-24.28-181.14-81.12-257.79-141.5c-98.48-77.57-187.22-167.07-272.99-258.24c-164.06-174.4-314.18-367.99-499.09-521.41
					c-65.32-54.2-140.75-108.16-226.11-123.45c-71.46-12.8-142.68,6.99-207.16,37.33c-82.53,38.84-157.5,92.84-231.58,145.5
					C176.94-799.64,95.54-740.5,9.98-687.61c-166.75,103.07-366.84,195.78-567.65,156.69c-117.83-22.93-227.7-81.88-330.7-141.25
					c-139.79-80.58-273.49-171.54-406.82-262.25c-284.44-193.53-566.81-396.37-874.83-551.46
					c-199.82-100.62-416.47-174.19-642.7-142.92c-155.91,21.55-298.69,88.6-449.06,130.94c-169.95,47.86-352.47,49.59-518.82-14.8
					c-202.39-78.33-353.97-246.42-497.76-402.13c-73.71-79.82-147-160.86-229.41-231.94c-66.45-57.32-142.98-112.91-229.55-134.41
					c-117.06-29.06-242.97,14.19-346.94,66.12c-126.19,63.03-240.63,147.54-354.71,229.78
					c-224.87,162.1-490.86,373.17-786.83,318.89c26.23-79.18,53.72-157.93,81.3-236.64c287.69,38.69,544.84-161.42,770.03-311.86
					c122.27-81.68,246.77-164.4,383.92-219.22c108.06-43.2,236.66-73.09,351.41-39.19c88.61,26.18,166.14,82.36,235.07,142.28
					c82.33,71.57,155.87,152.66,229.32,233.1c127.25,139.35,261.75,302.66,443.38,371.42c155.25,58.78,324.36,39.39,478.13-12.14
					c137.04-45.92,269.53-104.75,415.14-118.16c229.4-21.13,443.49,73.32,642.61,176.72c313.45,162.76,607.65,360.32,906.45,547.85
					c140.39,88.11,281.64,175.94,429.07,251.94c102.07,52.62,210.71,104.16,325.41,120.89c223.73,32.63,453.23-69.62,647.74-168.15
					c103.41-52.38,203.95-110.07,305.65-165.62c91.59-50.02,184.86-100.34,284.31-133.09c76-25.02,159.45-39.58,238.09-17.84
					c80.93,22.37,150.81,77.62,211.68,133.35c172.69,158.12,309.77,352.72,464.01,527.95c75.46,85.73,154.28,169.75,243.19,241.78
					c73.87,59.85,159.15,116.22,254.61,132.41c181.99,30.87,358.92-91.09,498.91-191.08c86.62-61.87,170.24-127.97,258.54-187.47
					c73.87-49.77,153.37-98,240.76-119.36c189.76-46.4,360.04,88.83,488.7,211.29c174.65,166.23,329.52,353.99,528.96,492.49
					c95.71,66.47,203.09,123.7,318.28,146.67c92.53,18.45,183.79-3.48,260.7-57.02c169.79-118.2,246.97-325.67,407.25-453.37
					c83.02-66.15,181.88-86.53,285.23-65.87C5399.09-350.53,5404.57-269.25,5415-188.19z"/>
			</g>
			<g>
				<path d="M5374.56-457.15c-103.65-13.62-195.58,17.33-273.56,86.12c-152.2,134.26-232.53,341.24-408.55,450.34
					c-192.83,119.52-421.56-0.14-583.84-119.43c-193.16-141.99-342.39-330.04-515.7-493.53
					c-130.28-122.9-298.08-242.66-485.63-186.16c-87.9,26.48-167.5,77.3-242.43,129.06c-88.36,61.04-172.78,127.54-260.84,189
					c-140.71,98.2-320.2,213.81-500.32,170.19c-96.05-23.26-180.54-83.96-254.4-147.28c-87.71-75.19-165.89-161.1-241.16-248.5
					c-149.99-174.16-285.2-368.24-459.18-519.97c-60.7-52.94-131.25-104.05-212-119.43c-82.4-15.69-167.13,3.62-244.73,31.46
					c-101.76,36.51-197.66,88.42-292.53,139.73c-103.72,56.09-206.76,113.54-312.91,164.99
					C-109.09-835.63-341.3-739.34-563.3-783.93c-117.99-23.7-229.16-79.17-334.66-135.29c-149.64-79.59-293.67-169.56-437.14-259.64
					c-297.3-186.66-591.21-382.53-905.09-540.79c-193.55-97.59-399.6-180.52-620.24-153.89
					c-143.77,17.35-273.26,77.54-409.45,122.08c-153.79,50.3-326.45,64.87-478.4-1.2c-178.55-77.64-310.32-242.1-438.83-382.08
					c-73.22-79.76-147.29-159.71-230.8-228.92c-69.01-57.2-148.47-111.52-237.29-131.3c-120.9-26.93-251.09,8.31-361.96,56.27
					c-136.3,58.96-260.41,142.92-383.5,225.03c-223.74,149.25-483.48,341.48-768.43,284.95c28.22-78.87,56.38-157.76,83.51-237.01
					c274.37,41.97,521.2-145.48,739.13-284.76c115.89-74.07,234.18-147.75,363.25-196.86c116.85-44.46,251.24-70.21,374.17-35.57
					c95.62,26.94,181.06,83.18,258.09,144.44c85.75,68.19,163.66,145.7,240.44,223.66c76.53,77.71,151.65,157.24,233.72,229.22
					c64.91,56.94,136.01,111.71,217.71,142.08c146.73,54.55,304.21,26.41,443.83-33.75c127.52-54.95,248.94-123.33,389.85-136.46
					c219.46-20.45,424.82,82.23,611.94,184.03c312.09,169.79,609.58,365.86,913.45,549.66c139.74,84.52,280.41,168.27,426.17,242.11
					c107.22,54.32,222.18,110.55,342.57,127.2c109.64,15.17,222.59-3.64,328.89-30.51c126.12-31.88,248.3-78.18,368.22-128.17
					c127.16-53.01,252.02-111.29,378.23-166.49c106.45-46.55,214.37-92.34,326.81-122.49c87.39-23.43,183.99-39.44,273.29-16.37
					c83.68,21.62,155.35,77.97,217.03,136.25c164.09,155.07,289.77,347.74,432.48,521.57c70.01,85.27,143.4,169.1,227.52,240.86
					c70.39,60.06,153.12,116.74,246.4,131.57c192.27,30.56,382.96-96.01,534.48-197.79c94.03-63.17,185.15-130.68,280.66-191.65
					c78.72-50.26,162.72-99.46,254.42-121.27c178.15-42.37,318.72,73.35,424.06,203.97c134.02,166.19,243.52,352.54,411.13,489.03
					c85.63,69.74,185.47,125.36,294.21,148.54c97.41,20.76,194.59-1.42,278.16-53.99c172.11-108.26,266.03-298.39,420.07-426.3
					c75.3-62.53,161.76-94.46,259.83-78.91C5394.86-603.44,5379.85-532.34,5374.56-457.15z"/>
			</g>
			<g>
				<path d="M5407-692.88c-97.48-7.78-180.32,33.02-251.96,96.49c-149.1,132.09-247.79,321.03-425.57,420.54
					c-89,49.82-188.03,62.22-286.54,35.88c-106.71-28.53-202.75-86.48-285.53-158.71c-160.32-139.88-263.09-325.9-395.76-489.2
					c-52.69-64.85-113.05-126.86-189.29-163.57c-75.92-36.55-156.56-40.78-237.06-17.72c-96.87,27.74-185.05,82.52-268.6,137.37
					c-91.9,60.35-180.65,125.35-272.53,185.73c-152.66,100.32-353.67,227.19-545.34,176.89c-89.23-23.41-167.13-81.15-234.76-141.79
					c-83.01-74.43-155.85-159.78-225.73-246.41c-140.63-174.33-266.35-368.94-434.5-518.85
					c-61.42-54.76-133.05-105.31-215.45-120.84c-97.87-18.45-200.11,2.92-294,30.9c-243.24,72.48-469.97,194.59-704.7,289.54
					c-122.47,49.53-247.5,95.02-376.56,124.2c-106.5,24.07-219.72,38.92-327.81,16.34c-118.49-24.75-230.87-80.87-337.52-136.22
					c-146.99-76.29-289.27-161.53-430.76-247.47c-306.49-186.15-606.59-385.91-923.65-553.94
					c-180.47-95.65-379.09-185.84-588.59-157.68c-135.68,18.24-252.76,87.65-376.49,140.8c-142.21,61.09-305.66,85.81-452.16,22.26
					c-81.42-35.32-152.1-92.75-217.52-151.74c-82-73.93-157.96-154.25-235.98-232.28c-77.27-77.29-156.3-153.63-243.67-219.56
					c-77.84-58.74-164.76-111.64-260.97-133.1c-127.35-28.41-263.54,3.89-381.53,52.77c-127.5,52.82-244.63,127.66-360.44,201.9
					c-216.01,138.47-463.94,317.28-735.02,258.62c27.09-78.15,52.97-156.69,76.77-235.91c256.66,42.96,485.66-127.7,690.86-256.76
					c208.38-131.06,454.24-276.22,710.29-211.56c109.7,27.7,209.67,87.05,301.01,152.23c96.11,68.58,185.1,146.59,272.71,225.55
					c82.6,74.45,163.74,150.77,250.04,220.97c72.03,58.59,149.7,116.57,237.9,148.26c149.41,53.69,300.9,12.73,433.74-62.91
					c115.08-65.52,224.47-144.84,358.76-164.56c208.18-30.57,410.51,78.74,584.87,178.13c307.13,175.07,597.13,379.01,897.16,565.68
					c142.43,88.62,286.66,175.36,436.83,250.34c101.54,50.7,210.33,102.72,323.76,119.33c108.24,15.85,219.93-3.48,325.17-29.03
					c137.74-33.44,271.69-81.56,404.46-130.71c259.87-96.2,516.65-216.57,788.1-277.07c96.4-21.48,201.26-36.44,298.56-11.94
					c85.82,21.62,160.42,74.83,224.93,133.66c166.6,151.93,289.83,346.94,429.34,522.48c69.85,87.88,143.22,174.62,228.79,247.74
					c67.08,57.32,145.87,110.15,234.51,124.9c95.86,15.95,194.26-8.58,283.34-43.13c107.2-41.59,207.33-99.98,304.8-160.41
					c99.26-61.54,196.09-126.98,296.41-186.8c89.67-53.47,184.65-106.45,287.3-129.91c79.75-18.22,162.21-13.09,233.08,30.6
					c67.39,41.54,112.59,109.41,149.83,177.53c87.92,160.83,148.62,338.38,279.51,471.85c73.62,75.07,166.51,130.16,269.91,151.88
					c96.84,20.34,195.45,4.21,284.52-37.23c192.06-89.36,317.73-266.32,486.67-387.35c76.16-54.56,160.85-89.02,255.73-76.78
					C5481.89-817.76,5439.7-758.74,5407-692.88z"/>
			</g>
			<g>
				<path d="M5520.06-889.2c-94.85-5.09-177.86,35.77-252.28,91.26c-166.55,124.18-298.18,298.63-495.04,379.25
					c-196.35,80.41-408.34,14.83-547.71-139.81c-125.64-139.41-178.66-319.83-269.26-480.34c-36.01-63.8-81.27-125.11-146.85-160.87
					c-77.82-42.43-166.94-38.93-249.98-14.8c-99.7,28.98-191.9,81.49-280.28,134.78c-105.11,63.38-206.96,131.98-312.09,195.35
					c-95.5,57.57-194.13,112.49-299.61,149.64c-90.06,31.72-191.61,52.38-285.95,27.39c-88.42-23.42-165.3-80.18-231.89-140.94
					c-80.68-73.62-150.89-158.22-218.25-243.93c-137.45-174.89-260.89-369.6-429.69-516.86c-68.48-59.74-148.42-111.54-239.44-127
					c-102.44-17.4-209.02,1.07-308.74,25.59c-273.69,67.3-533.83,186.25-797.77,283.13c-130.49,47.9-262.62,94.08-398.57,124.02
					c-103.09,22.71-212.58,37.66-317.2,16.25c-122.67-25.1-238.97-83.4-349.04-141.1c-145.29-76.16-285.55-161.8-424.28-249.21
					c-295.47-186.17-581.81-389.09-886.75-559.8c-169.38-94.82-366.25-194.21-566.68-157.09
					c-135.33,25.07-243.89,110.43-361.31,175.89c-134.66,75.06-289.59,106.71-436.57,44.79c-84.86-35.75-160.06-93-230.76-151.03
					c-90.69-74.43-176.35-154.79-264.16-232.54c-88.4-78.27-178.75-155.11-276.62-221.42c-91.95-62.3-193.35-118.31-303.4-139.9
					c-258.52-50.71-500.02,101.16-708.62,233.06c-203.37,128.58-432.93,289.97-686.35,231.86c23.1-77.16,43.94-154.89,61.68-233.46
					c245.48,41.36,460.07-117.56,656.64-240.69c200.58-125.64,421.56-244.84,665.25-185.29c119.07,29.1,229.36,88.9,331.87,154.64
					c112.21,71.95,217.5,154.13,321.52,237.3c93.73,74.95,186.23,151.67,283.32,222.29c80.86,58.82,166.76,116.84,262.06,149.47
					c77.87,26.66,162.96,30.1,242.33,7.7c66.51-18.77,126.27-54.5,182.13-94.38c111.47-79.59,215.57-179.65,354.41-207.53
					c200.98-40.36,398.29,78.21,562.21,178.55c290.9,178.07,564.01,383.96,848.44,571.95c136.14,89.98,274.4,177.84,419.11,253.53
					c103.82,54.31,215.23,108.33,332.42,125.12c106.57,15.27,215.96-3.41,319.35-29.46c132.79-33.46,261.6-81.69,389.18-130.94
					c266.34-102.81,532.49-222.83,814.08-277.94c103.84-20.32,214.73-32.85,319.02-8.47c97.38,22.76,183.89,78.03,259.43,141.94
					c174.99,148.03,304.25,344.05,447.85,520.64c70.99,87.3,145.32,173.49,231.74,246.01c72.18,60.57,156.98,114.84,251.91,128.75
					c99.37,14.56,201.12-9.36,294.38-42.53c118.04-41.99,229.37-101.48,338.15-163.05c113.4-64.19,224.42-132.62,339.08-194.57
					c95.27-51.48,195.03-101.47,301.25-125.76c83.12-19.01,176.87-21.08,250.14,28.65c59.49,40.38,91.18,107.18,113.09,173.47
					c52.17,157.91,66.22,332.96,169.94,469.47c126.61,166.64,351.5,188.69,539.69,128.22c215.33-69.19,381.27-226.03,576.98-332.02
					c83.27-45.1,172.81-75.65,268.46-63.29C5631.38-996.85,5573.23-945.79,5520.06-889.2z"/>
			</g>
			<g>
				<path d="M5684.55-1060.4c-96.4-6.05-185.6,29.13-268.54,75.22C5220.6-876.6,5048.84-723.5,4829.5-662.25
					c-189.54,52.93-409.87,21.92-527.36-149.97c-97.46-142.58-103.35-318.91-159.48-477.41c-23.2-65.5-59.09-127.81-121.93-162.04
					c-76.58-41.71-169.64-34.03-251.21-12.92c-112.42,29.1-217.53,83.9-318.71,139.59c-115.17,63.38-227.37,132-342.46,195.53
					c-108.41,59.84-219.94,117.05-338.22,154.84c-92.35,29.5-194.27,48.85-290.44,26.95c-94.59-21.54-177.76-79.9-249.25-143.24
					c-85.46-75.7-159.58-163.56-231.05-252.28c-142.27-176.61-273.45-370.86-452.41-513.38
					c-77.09-61.39-165.19-112.09-263.24-129.53c-113.18-20.13-231.61-2.28-342.52,22.74c-275.15,62.07-534.99,179.61-797.29,280.44
					c-125.37,48.2-252.28,95.01-383.23,125.82c-105.65,24.85-216.91,39.87-324.35,17.51c-120.5-25.07-233.97-82.97-341.14-141.59
					c-139.06-76.07-272.58-162.15-404.25-250.25c-285.15-190.78-559.21-400.08-853.72-576.52
					c-159.34-95.46-350.01-201.1-542.26-152.19c-136.41,34.7-237.6,137.64-349.37,216.37c-58.65,41.31-122.28,76.83-192.92,92.37
					c-78.7,17.3-160.22,8.83-235.2-19.65c-96.28-36.57-183.16-96.42-265.68-156.99c-102.17-75.01-199.9-155.88-299.47-234.25
					c-104.69-82.4-211.21-163.26-325.05-232.76c-98.87-60.37-205.25-114.4-319.23-139c-247.6-53.44-469.78,76.85-671.44,204.14
					c-195.52,123.41-410.57,272.47-653.7,217.46c16.5-76.01,29.7-152.52,38.85-229.77c235.98,34.64,437.1-104.44,627.13-223.72
					c98.22-61.65,198.88-122.79,309.44-159.76c107.64-35.99,217.09-41.16,327.31-13.91c125.09,30.93,241.96,91.38,352.04,156.99
					c122.37,72.94,238.63,155.65,353.84,239.28c109.26,79.31,217.37,160.44,330.02,234.94c91.24,60.34,186.89,119.13,291.08,154.32
					c81.75,27.61,168.11,33.2,250.68,5.36c69.36-23.38,129.5-66.82,184.56-114.03c105.24-90.24,201.63-205.44,339.06-246.56
					c195.2-58.4,387.22,64.73,543.54,167.17c281.18,184.26,542.02,398.16,816.12,592.51c127.68,90.53,257.71,178.83,394.67,254.86
					c99.46,55.21,206.73,109.78,320.35,127.47c104.42,16.26,211.56-3.54,312.11-31.93c122.77-34.66,241.11-83.92,358.27-133.93
					c252.05-107.58,504.4-230.54,774.63-285.62c110.88-22.6,228.08-33.54,339.43-7.81c101.07,23.35,192.05,78.7,272.7,142.37
					c190.96,150.75,338.23,349.72,496.69,532.22c134.51,154.91,297.59,343.91,511.88,378.93c107.38,17.55,218.31-7.36,320.09-40.95
					c125.89-41.54,245.72-100.13,363.3-160.81c123.41-63.7,244.68-131.53,369.17-193.14c108.98-53.93,222.23-106.11,341.84-131.26
					c88.2-18.55,192.46-23.79,270.74,28.88c57.31,38.56,82.73,103.39,94.87,168.89c28.47,153.72,2.34,323.98,81.39,465.47
					c103.25,184.82,359.34,181.24,540.09,142.96c238.97-50.6,446.24-181.2,672.26-266.86c95.25-36.1,195.27-60.94,297.45-45.63
					C5813.19-1158.03,5747.92-1110.49,5684.55-1060.4z"/>
			</g>
		</g>
	</g>
</g>
</svg>
