<?xml version="1.0" encoding="utf-8"?>
<!-- Generator: Adobe Illustrator 24.1.1, SVG Export Plug-In . SVG Version: 6.00 Build 0)  -->
<svg version="1.1" id="Layer_1" xmlns="http://www.w3.org/2000/svg" xmlns:xlink="http://www.w3.org/1999/xlink" x="0px" y="0px"
	 viewBox="0 0 1920 1080" style="enable-background:new 0 0 1920 1080;" xml:space="preserve">
<style type="text/css">
	.st0{clip-path:url(#SVGID_2_);}
</style>
<g>
	<defs>
		<rect id="SVGID_1_" width="1920" height="1080"/>
	</defs>
	<use xlink:href="#SVGID_1_"  style="overflow:visible;fill:#FFFFFF;"/>
	<clipPath id="SVGID_2_">
		<use xlink:href="#SVGID_1_"  style="overflow:visible;"/>
	</clipPath>
	<g class="st0">
		<g>
			<g>
				<path d="M5451.6-742.62c-130.29,37.4-231.8,127.02-312.22,233.48c-184.07,243.65-261.96,546-421.79,803.54
					c-61.69,99.4-140.63,197.79-252.94,241.14c-97.32,37.56-204.2,45.96-307.18,33.01c-181.25-22.79-340.82-111.14-512.92-164.92
					c-71.58-22.37-147.18-36.65-222.05-24.12c-85.51,14.32-154.22,62.25-214.65,122.36c-81.67,81.23-149.44,176.3-215.38,270.33
					c-76.3,108.8-149.51,219.73-226.2,328.27c-73.03,103.36-148.74,205.56-234.3,298.99c-66.81,72.96-141.78,145.83-231.74,189.51
					c-159.48,77.44-329.03-9.59-465.2-95.86c-149.9-94.97-289.71-220.27-458.25-281.83c-70.3-25.68-146.39-35.59-218.91-12.87
					c-99.38,31.14-186.55,95.76-267.32,159.5c-249.2,196.65-472.6,425.36-711.2,634.42c-122.33,107.19-247.3,211.84-378.73,307.78
					c-101.44,74.05-206.65,148.64-323.92,195.66c-108.64,43.56-230.21,36.98-344.38,24.41c-158.5-17.45-314.95-52.47-469.95-89
					c-319.53-75.32-638.83-173.17-966.26-208.04c-113.15-12.05-235.84-18.85-345.49,17.66c-88.64,29.52-167.47,99.45-235.16,161.59
					c-164.95,151.44-300.42,331.82-444.83,502.06c-67.05,79.05-135.91,157.25-212.65,227.13
					c-64.12,58.4-136.47,115.35-218.81,145.39c-159.57,58.22-331.1-10.02-484.14-57.4c-189.17-58.57-390.64-105.42-584.93-41.06
					c-240.97,79.82-389.58,297.89-537.68,490.26c-160.6,208.6-334.61,429.02-583.74,534.45c-17.39-52.83-35.14-105.53-53.09-158.17
					c261.79-77.87,433.34-308.36,577.9-525.85c73.65-110.81,142.82-225.11,224.25-330.52c69.96-90.56,150.32-173.92,255.43-222.67
					c91.76-42.56,190.19-60.48,291.09-52.4c89.74,7.18,176.67,32.49,261.11,62.64c142.6,50.93,299.17,134.54,454.97,98.61
					c83.07-19.15,156.23-71.71,220.66-125.42c80.44-67.06,152.26-144.08,221.78-222.18c154.55-173.6,297.77-358.64,468.2-517.45
					c73.68-68.66,153.38-133.65,243.38-179.81c98.67-50.61,223.96-44.4,331.09-34.76c160.72,14.47,319.4,50.12,475.92,88.2
					c176.1,42.84,350.75,91.36,526.11,137.08c164.58,42.92,330.08,84.89,498.12,112.03c122.14,19.73,255.85,36.52,377.37,4.06
					c113.43-30.3,217.85-97.65,312.85-164.45c124.67-87.67,240.75-187.34,352.72-290.55c225.65-207.99,429.6-437.83,653.37-647.59
					c76.39-71.61,157.83-146.5,253.25-192.05c68.77-32.82,139.46-39.41,213.13-19.64c78.95,21.19,151.4,63.38,219.94,106.81
					c78.77,49.91,154.36,104.63,232.53,155.44c133.78,86.95,308.22,194.15,474.33,141.65c87.04-27.51,160.19-93.48,222.41-157.76
					c85.46-88.31,158.86-187.95,228.91-288.66c75.24-108.17,146.15-219.26,219.45-328.73c66.49-99.29,134.39-199.14,214.94-287.74
					c63.26-69.58,135.37-131.2,227.87-155.95c81.16-21.71,165.76-15.9,247.14,1.44c195.18,41.6,376.65,130.71,574.4,163.49
					c106.49,17.65,216.26,19.89,321.91-4.43c120.24-27.68,208.79-101.4,282.55-198.01c88.48-115.89,154.72-247.75,224.04-375.47
					c75.6-139.3,153.19-279.2,252.91-403.01c87.37-108.48,192.82-202.74,324.47-252.73C5463.2-822.46,5455.1-783.42,5451.6-742.62z"
					/>
			</g>
			<g>
				<path d="M5539.86-884.6c-134.7,33.28-246.71,114.82-339.35,216.07c-208.17,227.51-314.46,522.24-485.62,774.71
					c-67.84,100.07-152.86,200.47-271.33,239.75c-103.05,34.16-215.18,38.11-322.29,25.64c-202.56-23.58-387.74-109.52-583.55-159.9
					c-82.74-21.29-169.31-34.63-254.44-20.7c-89.66,14.67-162.91,59.8-227.54,122.28c-83.91,81.12-152.26,177.95-217.96,273.89
					C2764,694.87,2694,805.13,2620.81,913.26c-69.28,102.35-140.93,203.83-222.48,296.89c-64.49,73.59-137.44,147.56-226.4,191.08
					c-158.38,77.49-332.87-10.33-469.16-94.14c-151.15-92.95-291.64-217.38-459.79-279.35c-66.41-24.48-138.88-35.11-207.32-12.29
					c-93.05,31.03-172.18,97.25-244.35,161.47c-222,197.55-417.34,424.11-632.1,629.4C46.86,1913.74-69.14,2017.9-192.91,2112.08
					c-101.72,77.4-210.58,152.69-330.54,198.98c-108.72,41.96-226.13,39.21-340.29,26.35c-161.4-18.18-320.49-56.61-477.74-96.22
					c-339.5-85.51-676.73-195.43-1024.22-244.54c-120.8-17.07-252.99-30.7-372.19,3.45c-92.24,26.43-176.06,95.45-247.5,157.07
					c-175.82,151.67-320.73,335.82-472.88,510.16c-72.18,82.72-145.83,164.85-227.35,238.56c-65,58.77-138.39,118.22-221.82,148.33
					c-151.83,54.8-308.03-19.08-449.03-72.26c-174.12-65.67-360.44-114.57-542.41-48.01c-235.99,86.32-364.64,323.57-494,523.05
					c-143.08,220.62-303.55,459.97-557.2,562.01c-17.97-53.16-36.11-106.25-54.35-159.31c263.39-75.45,418.04-323.69,542.48-549.84
					c66-119.94,126.28-243.54,200.68-358.65c62.12-96.11,136.67-188.97,241.3-240.46c85.24-41.95,179.23-58.8,273.68-47.99
					c83.04,9.51,162.26,38.01,238.4,71.38c132.69,58.15,276.12,149.88,427.37,119.35c84.8-17.11,160.09-70.45,226.49-123.43
					c86.7-69.17,164.71-148.86,240.64-229.47c166.57-176.86,322.98-365.57,508.68-523.24c78.9-66.99,164.12-129.61,259.45-171.18
					c108.59-47.35,239.43-36.49,353.88-22.57c168.43,20.48,334.08,61.43,498.04,104.05c180.15,46.83,359.1,98.13,538.87,146.37
					c164.76,44.21,330.65,87.4,499.28,114.23c122.63,19.51,255.47,34.94,377.44,3.08c114.47-29.9,218.55-97.11,312.39-167.09
					c115.59-86.19,221.31-185.32,321.81-288.47c200.97-206.26,375.28-435.63,570.75-646.67c65.06-70.25,135.24-144.51,221.1-189.43
					c65.09-34.05,134.71-38.78,205.35-20.43c80.7,20.97,155.02,63.26,225.67,106.38c80.64,49.22,158.46,102.87,238.82,152.52
					c140.84,87,322.65,192.42,494.16,139.31c88.18-27.31,161.92-95.01,224.02-160.64c81.74-86.38,151.99-183.23,219.24-281.06
					c75.34-109.59,146.45-222,220.92-332.16c68.34-101.09,139.11-202.43,224.27-290.28c67.97-70.11,145.34-128.01,241.27-152.1
					c92.21-23.15,188.34-17.76,281.14-1.07c216.8,38.99,421.67,127.25,639.22,163.56c109.11,18.22,220.74,21.6,329.38-1.75
					c122.97-26.43,215.39-105.47,294.99-199.61c96.03-113.58,174.03-241.56,256.37-365.04c86.45-129.65,176.59-258.33,285.48-370.39
					c101.75-104.71,220.4-192.8,360.37-238.28C5569.82-956.91,5553.2-921.73,5539.86-884.6z"/>
			</g>
			<g>
				<path d="M5656.99-1012.41c-142.13,29.9-266.14,105.86-372.51,203.04c-228.07,208.35-366.72,487.88-553.14,729.8
					c-73.42,95.28-162.18,195.5-278.53,237.54c-105.27,38.04-226.64,38.94-336.41,25.67c-220.26-26.61-427.09-113.55-642.79-160.86
					c-93.26-20.46-190.1-33.13-285.27-19.17c-97.47,14.3-180.12,58.04-252.62,123.94c-85.5,77.71-155.27,171.91-221.29,266.18
					c-75.72,108.13-146.33,219.73-219.78,329.39c-69.17,103.26-140.32,205.95-221.77,300.01
					c-63.17,72.95-134.89,146.3-222.67,189.25c-162.18,79.35-346.39-9.41-488.13-92.08c-155.29-90.57-299.87-212.28-470.08-274.55
					c-66.19-24.22-139.12-36.13-207.27-12.51c-85.1,29.49-154.63,96.17-216.4,159.17c-89.79,91.59-171.29,191.21-253.81,289.28
					c-96.56,114.76-193.62,229.16-295.82,338.96C17.16,1729.73-89.19,1835.08-205,1929.08c-96.15,78.04-200.96,152.54-317.57,196.65
					c-109.56,41.45-227.16,39.69-342.08,27.05c-161.6-17.78-320.78-56.68-477.92-97.19c-352.82-90.96-702.08-208.28-1062.23-267.7
					c-125.62-20.73-262.67-39-388.32-8.66c-98.46,23.77-189.39,89.35-267.75,151.02c-188.95,148.69-346.03,334.19-508.87,509.81
					c-77.72,83.83-156.63,167.2-243.01,242.23c-69.11,60.03-147.12,122.4-235.1,151.77c-149.34,49.85-293.17-31.01-425.46-92.24
					c-158.44-73.33-329.22-127.24-500.79-63.24c-107.56,40.12-187.48,116.87-253.51,208.9
					c-78.34,109.19-138.29,230.75-201.28,349.05c-123.16,231.3-265.16,493.31-520.95,597.36c-18.15-53.18-36.34-106.35-54.57-159.51
					c266.07-77.93,400.5-351.16,504.66-585.63c57.38-129.16,108.54-261.81,176.36-386.04c53.58-98.15,121.84-199.3,224.72-250.72
					c80.63-40.29,170.95-55.07,260.01-40.7c79.76,12.87,154.17,46.44,224.92,84.25c125.69,67.17,258.55,165.53,409.24,141.82
					c89.95-14.15,171.05-68.23,242.8-121.38c94.6-70.07,180.59-151.33,264.69-233.46c179.63-175.42,350.67-362.85,551.86-514.38
					c86.74-65.33,180.49-124.6,283.66-160.21c120.38-41.55,254.14-31.18,378.32-15.68c357.13,44.6,703.89,158.42,1049.54,254.19
					c161.71,44.81,324.49,89.15,490.25,116.44c119.16,19.62,247.62,34.12,366.16,3.01c110.2-28.93,209.23-94.42,297.03-165.09
					c106.92-86.06,202.09-186.26,290.82-290.69c173.1-203.75,315.25-430,479.72-640.19c55.26-70.61,116.04-146.81,195.18-191.92
					c64.29-36.64,137.54-38.62,208.06-20.88c82.87,20.85,159.87,62.2,233.56,104.4c86.03,49.27,169.44,102.95,255.42,152.3
					c150.24,86.24,340.23,187.62,518.69,135.66c89.34-26.01,164.31-92.25,227.87-157.52c84.23-86.48,156.34-184.42,225.74-282.91
					c78.18-110.95,152.41-224.62,231.22-335.13c72.23-101.28,148.19-201.97,239.35-287.16c78.44-73.3,167.6-129.45,273.52-151.92
					c103.93-22.05,212.14-15.92,316.4,0.54c223.07,35.22,433.75,122.79,656.19,160.39c112.09,18.94,226.55,21.43,337.98-3.3
					c122.26-27.14,218.98-107.29,304.19-195.63c103.66-107.47,193.49-227.62,287.89-343.05c101.4-123.99,207.3-245.65,329.79-349.45
					c114.4-96.95,243.24-176.37,388.43-217.03C5697.74-1079.94,5676.47-1046.79,5656.99-1012.41z"/>
			</g>
			<g>
				<path d="M5790.97-1131.94c-146.27,26.48-278.82,94.69-396.69,183.86c-252.55,191.05-425.55,458.14-635.56,690.45
					c-81.27,89.9-175.59,184.91-292.1,227.09C4360.64,7.83,4237.69,9.24,4127.1-4.17c-221.87-26.9-431.24-114.42-649.87-157.45
					c-107.24-21.11-218.26-33.47-327.28-19.87c-105.26,13.13-198.51,54.33-280.9,120.86c-94.01,75.92-171.19,171.46-243,267.95
					c-80.58,108.28-154.82,221.08-231.51,332.1c-70.4,101.92-142.37,203.51-224.52,296.42c-64.29,72.7-137.06,145.02-225.6,187.52
					c-169.05,81.14-364.97-6.9-515.78-88.57c-87.73-47.51-172.02-100.96-257.78-151.87c-77.42-45.95-156.82-92.03-242.41-121.1
					c-67.17-22.82-140.95-34.32-209.43-10.14c-78.55,27.74-139.43,95.16-191.56,157.21c-77.61,92.38-145.67,192.67-215.22,291.12
					c-80.21,113.54-161.28,226.56-248.37,334.97C-23.1,1543.24-115.8,1647.7-219.29,1740.5c-89.55,80.3-189.33,155.68-302.35,199.47
					c-108.53,42.05-226.05,40.12-340.01,26.65c-155.71-18.41-308.79-57.43-459.98-97.89c-352.99-94.46-702.48-210.88-1063.8-270.47
					c-134.63-22.2-280.01-42.14-415.44-14.88c-105.63,21.26-204.56,78.26-292.36,138.66c-206.26,141.9-379.25,327.61-556.56,502.69
					c-86.09,85.01-173.18,169.71-267.68,245.45c-74.03,59.33-157.28,121.42-249.47,148.72c-152.15,45.05-288.06-42.32-415.67-113.79
					c-148.16-82.98-309.37-146.45-477.7-82.25c-106.28,40.54-179.68,124.4-237.41,219.73c-70.52,116.44-120.84,244.29-174.35,369.05
					c-102.71,239.44-222.45,526.36-478.34,636.41c-18.02-53-36.01-106-54.01-159c267.83-83.33,379.13-384.07,463.95-624.02
					c47.98-135.74,89.87-274.52,150.25-405.48c46.1-99.97,108.38-209.25,210.1-261.56c78.72-40.48,170.44-52.16,256.72-33.21
					c78.63,17.27,150.08,56.71,217.59,99.28c125.12,78.89,254.62,184.41,412.24,164.97c95.19-11.74,183.14-64.06,261.6-116.21
					c102.09-67.84,196.07-147.44,288.26-227.96c198.24-173.14,389.24-357.84,607.55-506.15c97.89-66.5,202.73-126.16,316.36-161.09
					c129.27-39.74,268.03-33.61,400.78-17.69c353.5,42.39,695.23,159.15,1035.21,259.61c149.21,44.09,299.39,87.94,452.66,115.69
					c115.3,20.87,239.75,35.96,354.73,5.17c104.39-27.95,196.67-92.07,276.56-162.99c97.16-86.25,180.47-187.51,256.15-292.76
					c146.63-203.92,257.59-429.16,395-638.74c46.26-70.55,98.95-147.96,173.37-191.55c63.19-37.02,140.07-36.19,209.55-20.45
					c88.52,20.06,171.6,61.32,251.4,103.42c91.54,48.3,180.7,100.97,272.2,149.36c163.74,86.61,366.4,186.56,556.44,135.45
					c94.43-25.4,174.92-91.61,243.55-158.61c89.35-87.22,166.46-186.51,241.22-286.22c159.54-212.77,306.8-446.38,515.09-616.02
					c91.13-74.22,192.36-129.13,308.59-150.63c114.54-21.19,232.32-17.42,347.08-0.01c217.08,32.92,420.83,120.21,636.75,157.16
					c106.97,18.31,215.52,19.12,321.72-4.76c122.34-27.51,224.11-102.7,316.48-184.56c114.81-101.75,218.4-215.61,326.46-324.31
					c116.81-117.51,238.3-231.57,373.78-327.52c125.28-88.71,262.33-160.59,411.91-197.68
					C5835.17-1197.82,5812.84-1165.03,5790.97-1131.94z"/>
			</g>
			<g>
				<path d="M5929.82-1249.08c-152.37,24.73-293.76,88.43-422.95,171.61c-269.18,173.31-473.93,419.78-704.75,637.39
					c-91.74,86.49-193.76,176.32-314.44,219.31c-102.2,36.41-218.38,41.17-325.24,28.56c-215.14-25.39-417.52-114.17-629.78-154.67
					c-112.9-21.54-228.81-31.73-343.44-19.47c-118.51,12.67-225,51.96-322.44,120.77C2648.44-91.37,2496.26,141.7,2339.45,353.4
					c-74.64,100.76-150.39,201.37-235.95,293.23c-69.09,74.18-147.07,147.18-240.62,189.16c-180.06,80.82-388.22-5.8-551.67-87.14
					C1133.5,660.2,965.52,539.21,775,479.08c-71.27-22.49-149.55-34.16-221.72-8.82c-75.76,26.6-130.57,96.87-175.35,160.01
					c-63.74,89.87-117.16,186.94-172.03,282.33c-65.56,113.99-131.93,227.61-205.31,336.8c-73.14,108.82-152.97,214.14-245.52,307.3
					c-79.54,80.07-170.63,154.48-276.13,197.25c-104.73,42.45-219.15,40.41-329.48,25.99c-149.44-19.53-295.91-60.19-440.43-101.83
					c-341.12-98.28-679.4-216.26-1030.84-273.11c-142.01-22.97-293.2-39.8-435.65-10.88c-112.18,22.78-217.63,76.21-314.28,135.98
					c-225.15,139.24-419.69,324.11-617.5,498.4c-94.27,83.06-189.38,165.83-291.45,239.27c-82.35,59.25-174.21,120.44-273.99,145.01
					c-160.73,39.58-294.75-54.04-422.68-137.66c-137.66-89.99-289.65-166.3-456.26-108.47c-108.8,37.77-179.11,126.69-231.38,225.68
					c-65.65,124.35-107.68,260.32-152.93,392.95c-47.28,138.57-95.51,278.69-167.48,406.77c-63.2,112.47-147.16,214.21-266.05,269.7
					c-17.68-52.67-35.3-105.36-52.95-158.04c268.93-90.33,356.23-419.52,424.16-662.57c39.49-141.28,73.38-285.35,128.07-421.81
					c41.18-102.75,100.95-220.04,206.27-269.8c79.37-37.5,170.59-44.39,254.79-20.51c78.49,22.25,148.28,67.01,214.32,113.63
					c130.8,92.33,263.99,204.77,434.77,190.26c104.32-8.87,203.73-58.87,293.14-110.26c112.57-64.71,217.49-142.25,319.73-222.01
					c220.98-172.38,429.84-362.54,665.93-514.68c104.99-67.66,216.83-128.21,337.2-163.46c134.77-39.47,277.31-35.48,415.4-18.17
					c335.83,42.11,658.32,159.38,978.56,263.54c139.89,45.5,280.74,91.26,425.16,120.3c107.3,21.57,223.51,36.45,330.83,6.92
					c216.3-59.52,366.97-273.07,475.01-455.69c121.39-205.18,202.93-429.8,318.05-637.94c38.85-70.25,85.3-147.26,156.3-189.29
					c66.72-39.5,152.15-36.01,225.38-20.57c94.38,19.9,183.88,60.33,270.35,101.97c100.45,48.37,198.63,101.29,299.09,149.62
					c178.35,85.81,393.87,182.5,595.94,132.03c100.12-25,187.22-89.01,263.14-156.5c95.82-85.18,178.8-183.99,260.47-282.47
					c179.47-216.41,352.59-448.95,580.73-617.44c102.79-75.91,214.69-130.86,341.2-152.42c116.85-19.92,236.33-18.15,353.36-0.71
					c202.67,30.2,390.25,116.8,591.03,153.2c98.86,17.92,198.82,16.98,296.83-5.83c125.28-29.16,233.86-99.43,335.07-176.45
					c258.88-197,486.85-430.93,765.89-601.58c135.82-83.06,281.2-150.96,436.8-186.93
					C5970.63-1316.68,5950.68-1282.68,5929.82-1249.08z"/>
			</g>
			<g>
				<path d="M6061.53-1369.72c-154.05,24.26-299.48,83-435.35,158.38c-289.57,160.65-525.99,391.98-782.93,597.05
					c-100.72,80.39-209.39,162.02-333.01,203.32c-97.14,32.45-202.24,41.84-303.72,29.57c-198.28-23.97-383.25-112.55-578.94-150.39
					c-112.75-21.8-228.08-30.14-342.56-18.99c-128.22,12.49-244.84,51.32-353.48,120.86c-235.49,150.74-413.34,380.24-589.13,593.31
					c-84.93,102.94-169.66,207.17-265.07,300.73c-75.74,74.27-161.25,145.52-260.56,185.67c-195.15,78.89-416.62-6.46-596.1-88.32
					c-191.37-87.28-374.04-205.94-577.15-264.97c-77.44-22.51-162.24-34.5-240.36-8.29C328.97,313.08,278.28,382.51,239,446.42
					c-55.49,90.29-98.13,188.31-142.08,284.51C44.6,845.44-8.07,959.9-68.7,1070.32c-58.71,106.93-124.58,211.08-204.8,303.32
					c-69.1,79.46-151.06,153.09-248.92,194.83c-97.55,41.6-205.11,39.91-308.33,24.96c-140.53-20.35-277.59-62.78-412.55-105.74
					c-319.44-101.68-636.13-220.47-967.66-277.51c-145.15-24.97-298.43-40.61-444.3-12.26c-120.9,23.5-234.95,78.22-340.24,140.59
					c-242.23,143.49-453.46,334-673.08,508.55c-103.99,82.65-209.91,163.67-322.77,233.97c-92.49,57.61-193.94,114.2-301.68,136.59
					c-84.12,17.49-168.6,6.41-246.66-28.8c-73.98-33.37-139.28-82.74-204.65-130.13c-135.81-98.48-286.62-191.53-460.07-136.09
					c-110.13,35.2-177.56,127.66-225.05,228.6c-60.82,129.28-95.24,270.11-132.45,407.46c-39.75,146.74-79.17,295.58-144.35,433.51
					c-54.58,115.5-130.28,223.69-246.5,283.08c-17.21-52.3-34.39-104.6-51.67-156.87c121.62-43.93,201-145.49,255.09-259.14
					c65.85-138.35,100.36-290.22,133.62-438.99c32.48-145.26,60.11-293.3,111.49-433.42c38.4-104.72,96.69-221.48,204.61-268.82
					c83.8-36.76,180.13-37.72,266.04-8.22c81.05,27.84,152.21,77.89,220.31,128.71c70.53,52.64,139.28,108.87,217.58,149.82
					c83.22,43.52,175.28,67.21,269.49,61.17c114.56-7.35,226.93-53.17,328.13-104.7c122.44-62.34,236.53-140.22,346.98-221.58
					c236.96-174.55,457.79-372.14,706.38-530.62c109.04-69.51,224.89-131.91,349.48-168.47c135.31-39.72,277.72-37.38,416.36-18.45
					c312.88,42.7,610.23,160.93,904.87,269.06c128.72,47.24,258.39,95.25,392.28,125.86c98.95,22.62,205.94,37.14,305.41,9.3
					c204.48-57.23,331.86-270.97,417.61-449.68c52.78-110,95.67-224.37,137.32-338.94C15.32,520.4,49.9,418,96.41,321.12
					c34.49-71.83,78.32-148.52,149.23-189.93c72.47-42.32,166.68-38.22,246.25-23.21c101.55,19.15,198.75,58.5,293.09,99.61
					c108.81,47.41,215.46,99.63,324.08,147.48c197.72,87.1,431.73,184.85,651.71,134.31c105.67-24.28,198.99-86.68,281.8-154.4
					c105.33-86.14,199.05-185.99,291.39-285.59c200.45-216.2,395.74-447.74,641.69-614.36c112.85-76.45,233.97-131.54,369.06-153.14
					c114.05-18.23,230.32-18.36,344.42-0.58c95.41,14.87,187.86,42.36,279,73.72c80.61,27.74,160.84,58.8,244.77,75.13
					c223.28,43.43,431.82-54.4,614.48-174.47c279.59-183.79,535.01-401.14,830.62-560.67c140.89-76.03,289.02-139.67,445.29-176.11
					C6092.52-1442.67,6078.3-1405.91,6061.53-1369.72z"/>
			</g>
			<g>
				<path d="M6174.1-1499.76c-156.44,26.72-305.58,84.24-447.06,155.07c-301.02,150.71-561.53,363.04-837.82,552.46
					c-185.8,127.38-400.25,251.73-634.46,220.92c-82.49-10.85-161.31-39.01-239.43-66.46c-87.03-30.58-174.44-60.07-264.97-78.63
					c-109.91-22.52-222.69-29.16-334.38-17.93c-132.9,13.37-255.19,52.62-370.24,120.67C2791.03-463,2590.25-232.56,2391.6-17.43
					C2297.11,84.9,2202.58,188,2098.55,280.84c-82.76,73.85-173.9,144.23-278.8,183.34c-210.93,78.63-448.5-6.39-645.01-88.27
					c-209.41-87.25-411.18-205.82-631.82-263.33c-84.11-21.92-175.27-33.57-259.83-7.36c-75.94,23.54-126.89,89.72-164.4,156.35
					C67.82,351.98,33.43,451.42-1.61,548.71c-40.7,113-80.58,226.41-128.64,336.55c-82.16,188.28-197.14,409.76-394.8,498.22
					c-92.22,41.28-195.23,38.8-292.94,21.9c-125.7-21.75-247.39-64.24-367.1-107.25c-297.85-107.03-593.01-230.8-905.89-287.72
					c-138.71-25.23-283.77-38.78-423.42-12.84c-127.22,23.64-247.28,81.02-358.09,146.15c-252.02,148.12-472.71,344-704.77,520.27
					c-113.54,86.24-229.95,169.84-354.36,239.84c-105.65,59.45-220.86,112.54-341.4,132.32c-94.01,15.43-188.86,2.97-276.46-34.07
					c-83.54-35.32-155.94-89.72-227.79-144.09c-137.9-104.36-290.68-213.75-473-166.33c-115.5,30.04-185.32,121.16-231.99,226.27
					c-59.82,134.74-88.59,282.34-119.95,425.62c-32.6,148.98-63.79,299.99-119.71,442.36c-47.34,120.51-115.72,238.22-232.05,302.88
					c-16.72-51.95-33.47-103.89-50.44-155.75c123.38-46.91,197.54-157.08,245.74-275.14c57.89-141.82,85.94-294.53,113.95-444.44
					c28.05-150.12,51.67-303.72,103.92-447.83c38.47-106.09,100.12-218.97,212.74-259.26c91.69-32.8,191.29-29.37,281.76,5.19
					c88.56,33.83,167.17,89.37,244.76,142.75c168.01,115.6,347.26,230.58,559.88,220.39c122.97-5.89,244.46-48.83,354.66-101.44
					c131.55-62.81,253.79-143.9,371.44-229.51c244.34-177.8,469.67-382.05,723.5-546.75c110.42-71.65,227.66-136.08,354.23-174.19
					c129.99-39.13,266.81-38,400.11-18.08c289.6,43.27,560.7,165.25,828.31,278.26c114.45,48.33,229.88,97.7,350.24,129.58
					c91.08,24.12,189.22,38.31,281.55,12.44c198.2-55.52,305.14-273.58,373.02-449.9c42.38-110.08,74.82-223.62,107.59-336.84
					C-67.86,337.55-39.67,235.23,3.7,139.46C38.28,63.12,85.96-13.76,162.88-53.14c81.53-41.74,182.45-37.7,270.2-22.82
					c110.17,18.68,216.4,57.55,319.98,98.42c120.16,47.42,238.06,100.3,357.5,149.47c211.92,87.24,455.36,184.52,688.49,135.85
					c110.65-23.1,210.32-85.17,299.5-152.32c113.52-85.48,216.2-184.82,317.43-284.22c222.1-218.08,438.77-451.8,703.39-619.63
					c118.64-75.25,244.97-130.28,384.08-152.97c107.51-17.54,217.47-19.95,325.13-2.26c84.06,13.81,164.68,40.41,243.43,72.36
					c64.2,26.05,127.77,55.73,195.6,71.3c80.02,18.37,161.16,11.64,239.98-9.53c129.19-34.7,248.02-92.28,363.38-159.2
					c294.38-170.78,570.07-371.25,875.53-523.19c142.05-70.66,289.17-132.25,442.97-172.23
					C6188.77-1581.91,6183.59-1540.9,6174.1-1499.76z"/>
			</g>
			<g>
				<path d="M6255.55-1645.1c-152.55,32.07-298.87,88.75-439.68,154.82c-309.3,145.14-588.72,340.98-880.48,516.77
					c-118.42,71.35-240.66,140.02-373.62,180.21c-83.83,25.34-168.04,45.03-255.98,32.13c-68.32-10.02-132.11-37.38-195.36-63.82
					c-74.18-31.01-149.06-59.82-227.78-77.18c-231.07-50.96-477.53-11.16-683.8,102.82c-273.28,151.01-495.39,383.63-715.47,600.93
					C2379.66-96.01,2275.83,7.04,2163.08,99.61c-91.21,74.9-190.76,146.17-303.43,184.68c-223.63,76.42-472.47-10.82-681.43-93.17
					C951.64,101.82,730.78-14.65,492.69-71.23c-92.38-21.95-191.5-33.57-284.4-7.93C125.5-56.3,67.55,6.39,26.82,79.44
					c-49.67,89.07-79.09,188.85-107.71,286.2C-113.77,477.49-144,590.17-182.05,700.44c-63.37,183.65-155.49,407.48-342.43,496.73
					c-85.26,40.7-181.36,39.52-272.33,21.8c-115.48-22.49-226.16-67.32-334.41-112.23c-267.77-111.07-532.67-237.18-818.38-295.82
					c-133.7-27.44-274.28-40.82-409.3-14.61c-128.76,24.99-249.81,84.71-361.43,151.84c-256.97,154.56-481.55,357.35-720.28,537.4
					c-217.09,163.72-462.03,336.28-737.8,376.38c-217.58,31.63-408.05-70.22-582.13-188.39
					c-152.93-103.82-315.98-229.86-512.5-190.53c-119.54,23.92-195.17,105.79-244.5,213.7c-61.47,134.48-86.66,284.68-113.5,429.02
					c-28.91,155.51-54.43,313.29-105.52,463.46c-41.61,122.31-103.5,245.46-218.31,313.44c-16.28-51.72-32.72-103.38-49.54-154.92
					c123.69-47.67,193.81-161.52,238.45-280.81c54.28-145.06,78.45-300.2,104.27-452.25c25.52-150.29,47.48-305.17,102.86-448.06
					c43.19-111.43,120.28-213.74,238.81-249.16c213.75-63.88,405.89,48.44,582.46,156.67c192.05,117.72,394.38,238.02,627.58,232.43
					c282-6.75,542.41-175.58,761.27-337.93c246.48-182.84,471.12-394.76,725.5-567.01c111.11-75.24,229.88-143.78,358.94-182.93
					c120.75-36.63,247.6-35.88,371.21-15.06c265.06,44.65,507.42,171.5,745.93,289.16c98.9,48.79,198.83,98.57,304.45,131.33
					c85.91,26.65,178.48,40.71,266.46,15.25c193.52-56,283.78-275.11,339.35-449.15c35.26-110.43,61.05-223.54,89.37-335.86
					c25.91-102.79,52.71-207.57,99.75-303.09c39.59-80.4,96.68-152.02,180.53-188.54c93.89-40.89,202.71-38.23,301.94-22.75
					c251.35,39.2,486.44,156.28,720.42,250.28c221.55,89,473.62,188.01,716.41,139.3c115.6-23.19,220.76-84.96,316.06-152.12
					c121.34-85.5,232.42-185.05,341.97-284.91c239.76-218.55,473.71-452.94,752.52-622.42
					c205.32-124.81,454.41-202.95,695.99-157.83c68.09,12.72,132.25,37.32,193.73,68.82c49.49,25.36,97.75,55.31,151.83,70.09
					c67.81,18.52,138.14,8.38,204.81-10.18c128.95-35.9,250.1-87.6,368.62-149.53c304.35-159.05,593.01-345.97,901.82-497
					c141.58-69.24,286.49-132.56,436.55-181.14C6247.1-1740.02,6254.09-1693.19,6255.55-1645.1z"/>
			</g>
			<g>
				<path d="M6293.86-1811.61c-144.22,42.04-283.44,100.08-419.32,163.76c-311.95,146.2-603.43,329.3-905.55,493.81
					c-123.49,67.24-249.75,130.82-385.12,170.42c-75.4,22.06-151.43,46.41-230.88,32.9c-54.16-9.21-102.2-36.01-149.97-61.69
					c-57.9-31.12-117.03-58.66-181.03-74.79c-218.66-55.13-460.53,1.74-655.43,105.5c-287.18,152.89-526.15,386.54-763.89,604.7
					c-112.29,103.04-224.84,206.56-345.94,299.29c-98,75.04-204.08,146.26-322.49,184.47c-232.04,74.88-486.39-11.86-703.58-95.44
					C991.26-80.82,757.45-198.82,505.7-254.51c-102.93-22.77-212.63-34.66-316.26-9.31c-91.33,22.34-162.6,79.78-211.71,158.97
					c-54.01,87.08-83.57,188-109.83,286.24c-29.73,111.2-54.22,223.75-85.77,334.48c-51.29,179.98-126.26,406.92-307.49,495.99
					c-180.82,88.87-391.77-16.28-555.57-95.7c-236.83-114.82-470.17-244.48-728.46-305.21c-124.45-29.26-255.77-42.42-382.14-17.45
					c-128.44,25.37-248.67,87.88-358.68,156.9c-257.87,161.79-481.35,372.73-721.62,558.31
					c-223.06,172.28-476.54,349.37-763.5,385.72c-238.1,30.16-452.53-78.42-649.89-198.18
					c-174.19-105.69-362.87-236.53-577.56-199.61c-122.29,21.03-210.62,93.41-268.13,202.03
					c-68.85,130.03-92.33,282.8-117.23,426.13c-27.42,157.83-49.46,317.98-96.75,471.46c-38.09,123.65-95.72,250.95-210.3,320.75
					c-15.99-51.68-32.33-103.25-49.22-154.64c125.08-46.23,194.59-161.49,238.16-281.56c53.18-146.54,75.14-303,105.1-455.38
					c29.52-150.1,61.4-304.25,129.03-442.59c53.86-110.16,136.98-209.5,258.4-245.28c232.93-68.65,452.68,52.94,649.85,163.83
					c212.79,119.67,437.15,245.8,688.98,241.11c287.69-5.36,548.22-175.16,768.03-345.27c244.14-188.93,463.18-409.17,713.69-589.96
					c107.79-77.79,223.65-149.2,350.9-190.17c114.18-36.76,235.22-36.19,352.01-12.4c236.47,48.18,445.31,177.16,651.12,296.93
					c152.88,88.97,337.74,205.25,522.25,152.53c194.04-55.45,276.17-274.33,327.09-448.86c62.36-213.77,90.16-446.45,212.27-637.69
					C13.97-313.09,84.32-382.6,174.26-418.56c102.23-40.88,221.86-35.94,328.68-19.49c259.16,39.9,501.23,156.85,742.77,253.05
					c222.71,88.7,472.78,185.57,716.56,139.85c122.45-22.96,234.68-86.13,337-154.82c125.95-84.57,242.41-182.8,357.23-281.67
					c256.81-221.14,506.77-459.63,800.16-632.69c121.68-71.78,249.8-126.37,388.99-152.65c88.44-16.7,181.87-24.83,270.64-5.73
					c54.54,11.74,103.92,35.19,148.84,67.99c32.95,24.06,63.85,52.97,102.89,66.94c58.84,21.05,125.17,5.09,182.87-11.81
					c126.43-37.04,246.58-85.13,364.78-143.35c150.96-74.36,297.85-156.88,445.28-237.92c155.85-85.66,312.69-169.29,470.08-252.07
					c131.42-69.12,264.69-136.75,404.8-186.63C6257.63-1917.88,6278.3-1865.58,6293.86-1811.61z"/>
			</g>
			<g>
				<path d="M6291.5-1995.4c-138.82,41.76-270.08,106.18-398.66,172.28c-304.48,156.52-600.11,329.66-904.59,486.05
					c-125.48,64.45-253.1,124.63-388.69,164.57c-66.44,19.57-138.71,47.73-209.16,32.71c-41.18-8.78-73.04-35.02-105.42-60.25
					c-39.46-30.75-81.19-56.54-129.27-71.56c-77.51-24.2-161.13-23.05-240.9-12.96c-133.45,16.88-260.09,59.76-378.93,122.29
					c-297.6,156.6-549.47,391.81-801.54,610.79c-117.51,102.09-235.52,204.33-361.45,296.03
					c-104.05,75.76-215.81,147.35-339.46,186.26c-235.59,74.15-489.4-10.14-710.22-94.55c-245.28-93.77-485.01-212.39-743.06-268.07
					c-111.68-24.1-228.91-35.57-341.75-12.32c-97.05,20-179.32,79.37-240.02,156.33c-138.46,175.57-174.27,408.55-229.82,618.77
					c-47.21,178.65-113.43,407.67-294.13,495.76c-174.91,85.27-363.55-13.83-516.07-100.78
					c-206.34-117.64-408.01-251.56-639.76-314.45c-111.98-30.39-230.24-43.25-344.95-20.97c-125.99,24.47-243.41,89.41-349.32,159.6
					c-256.85,170.22-475.66,391.88-714.49,585.23c-220.95,178.88-474.89,361.08-765.21,395.47
					c-255.81,30.3-491.74-85.14-708.66-206.19c-196.39-109.6-411.31-247.49-646.88-208.05c-127.49,21.35-223.96,95.4-290.11,205.14
					c-75.69,125.57-112.02,272.62-142.63,414.57c-33.97,157.53-55.26,319.2-101.64,473.78c-37.23,124.07-93.66,253.06-209.35,322.1
					c-15.96-51.95-33.37-103.45-49.12-155.46c128.52-44.87,198.43-165.04,245.78-285.57c57.71-146.93,90.74-302.58,131.07-454.8
					c66.1-249.53,158.24-599.53,443.91-677.46c249.43-68.04,490,59.83,704.32,173.11c229.12,121.11,471.58,253.15,738.4,248.84
					c291.29-4.7,548.45-180.84,764.48-360.15c235.91-195.81,444.03-423.89,686.55-611.83c100.49-77.87,209.1-149.84,330.12-191.35
					c104.94-35.99,216.64-36.29,324.02-10.84c212.44,50.36,391.32,184.28,568.19,305.43c143.03,97.97,307.5,206.79,488.74,156.97
					c199.96-54.97,272.22-272.71,331.09-448.79C-175.27,5.5-114.15-224.2,26.92-406.23c63.85-82.38,145.74-151.85,244.67-187.58
					c108.98-39.36,233.76-34.61,346.6-17.28c260.82,40.04,503.8,156.4,746.6,253.88c220.36,88.47,466.86,184.05,708.28,137.71
					c123.32-23.67,237.12-85.39,341.65-152.79c134.06-86.44,258.44-187.39,381.06-289.11c265.05-219.89,522.59-457.31,820.44-633.11
					c122.41-72.25,250.95-128.31,390.67-156.52c74.07-14.96,155.39-26.08,229.79-6.66c40.95,10.69,74.93,32.74,101.01,65.97
					c18.18,23.16,32.57,51.96,59.9,65.8c48.03,24.32,114.62,2.47,162.15-11.27c127.15-36.73,247.9-88.22,366.39-146.87
					c304.89-150.91,598.89-321.01,898.23-482.29c128.62-69.3,259.13-137.39,397.25-185.92
					C6246.42-2100.64,6269.95-2048.49,6291.5-1995.4z"/>
			</g>
			<g>
				<path d="M6276.78-2177.51c-137.25,39.96-266.18,104.77-392.18,171.27c-299.62,158.14-590.29,332.46-894.4,482.22
					c-124.76,61.44-248.98,123.22-382.29,164.22c-57.72,17.76-132.6,49.21-194.31,31.86c-30.42-8.55-46.51-33.43-63.58-57.94
					c-21.76-31.22-47.33-56.49-83.13-71.1c-63.04-25.72-136.82-20.48-202.58-10.83c-129.87,19.06-253.2,63.4-368.89,124.79
					c-300.93,159.67-559.03,393.71-818.52,611.22c-125.33,105.05-251.31,210.12-385.43,303.93
					c-108.33,75.77-224.6,147.77-352.19,185.89c-233.57,69.78-478.57-9.73-697.11-94.03c-247.29-95.4-488.98-215.23-749.93-269.8
					c-114.59-23.96-234.19-34.37-350.04-12.85C238.49-599.4,147-541.13,75.09-465.29C-83.13-298.41-153.96-66.87-224.52,146.48
					c-33.94,102.62-66.97,207.17-117.41,303.16c-41.86,79.66-98.78,153.28-182.15,192.01c-174.74,81.16-346.94-6.95-493.16-104.32
					C-1194.3,419.41-1363.72,283-1568.71,216.04c-102.53-33.49-212.75-47.09-319.19-25.13c-121.9,25.15-233.94,92.33-333.92,163.98
					c-246.12,176.39-451.93,403.39-679.65,601.68c-215.44,187.6-469.75,383.36-763.77,413.63
					c-267.41,27.54-517.42-93.04-747.49-213.94c-214.71-112.83-449.97-255.46-702.92-217.76c-132.18,19.7-237.52,92.3-313.58,200.96
					c-85.18,121.71-132.86,267.06-173.38,408.58c-44.86,156.66-78.3,316.86-131.05,471.2c-42.57,124.55-100.63,257.86-218.91,327.4
					c-13.76-53.96-24.61-108.44-33.73-163.36c128.2-47.55,204.63-163.64,259.97-282.88c68.33-147.23,112.16-304.83,164.01-458.24
					c86.27-255.24,206.43-588.98,500.86-660.84c259.71-63.39,512.16,65.08,737.54,179.26c241.41,122.3,496.64,260.94,774.88,259.01
					c290.81-2.01,540.35-186.09,746.92-373.29c221.94-201.14,413.64-434.18,641.69-628.65c94.47-80.56,198.19-156.63,316.31-198.25
					c94.65-33.36,195.67-33.91,292.02-7.24c192.43,53.27,344.05,193.01,497.03,313.83C-920.23,432.47-753.7,534.07-575.4,482.96
					c191.36-54.85,277.86-281.14,351.04-445c96.94-217.05,191.69-444.77,357.73-619.67c77.26-81.38,170.92-149.25,278.58-183.7
					c112.05-35.85,235.75-33.13,350.88-15.7c257.88,39.03,497.02,154.65,736.09,252.9c212.67,87.4,449.64,180.62,683.56,135.81
					c128.13-24.55,246.35-88.22,355.35-157.63c135.56-86.33,261.97-186.56,386.5-287.87c271.21-220.64,533.64-459.94,834.6-640.35
					c116.89-70.07,239.03-125.67,372.3-155.81c61.08-13.81,136.89-30.42,198.14-7.89c29.98,11.03,47.17,33.33,54.16,63.91
					c4.93,21.55,3.83,50.56,23.17,65.33c13.18,10.07,31.89,10.31,47.7,10.04c37.23-0.64,74.55-9.55,110.31-19.22
					c128.43-34.71,252.72-82.64,373.85-137.38c305.55-138.08,589.36-316.55,879.23-483.75c123.04-70.98,248.15-140.97,382.04-189.54
					C6226.41-2281.34,6252.25-2229.76,6276.78-2177.51z"/>
			</g>
			<g>
				<path d="M6253.58-2357.76c-130.93,38.71-252.58,103.51-371.04,170.25c-289.38,163.05-568.47,343.52-868.74,486.77
					c-129.15,61.61-261.45,116.79-398.93,156.94c-42.25,12.34-84.42,25.27-128.21,30.98c-21.63,2.82-48.03,6.15-69.08-1.83
					c-24.86-9.42-26.93-34.78-30.54-57.72c-4.45-28.3-12.83-54.4-38.84-69.91c-45.99-27.44-111.31-17.87-161.01-9.69
					c-123.86,20.39-241.34,65.32-351.36,125.01c-302.84,164.31-564.35,400.22-828.86,618.1
					c-129.22,106.44-259.33,212.62-397.55,307.3c-109.64,75.11-226.76,146.26-354.77,185.08c-229.53,69.61-465.82-6.02-680.3-90.78
					c-240.46-95.02-475.16-213.07-729.59-267.19c-118.96-25.3-242.78-35.49-363.14-13.75c-111.01,20.05-211.74,78.04-295.11,152.68
					C7.73-475.46-96.76-249.84-193.56-34.96c-45.04,99.98-88.25,201.73-144.53,296.07c-46.79,78.43-105.94,155.34-190.02,195.99
					c-167.19,80.82-347.11-4.61-483.58-105.28c-156.97-115.79-296.97-258.8-482.68-329.54c-92.27-35.15-192.78-48.7-289.95-27.2
					c-114.33,25.29-217.35,91.88-308.47,162.96c-234.56,182.99-424.76,417.32-639.4,622.02
					c-201.81,192.46-445.64,397.8-734.05,428.6c-276.93,29.57-540.3-98.15-780.43-219.49c-229.95-116.2-483.1-263.74-751.05-226.3
					c-305.58,42.7-443.49,341.1-536.8,600.89c-54.56,151.9-98.31,307.8-159.09,457.45c-51.32,126.34-117.95,258.36-239.28,330.21
					c-6.88-56.77-11.99-113.68-16.24-170.7c131.18-49.36,215.15-164.16,278.99-283.85c75.69-141.92,129.45-294.57,190.55-443
					c105.97-257.4,249.1-577.85,549.04-647.45c271.14-62.91,536.49,70.46,772.9,187.49c245.54,121.55,507,264.32,788.67,262.69
					c283.42-1.64,517.33-191.7,707.65-383.17c207.74-209,381.26-450.54,595.94-652.69c83.43-78.56,176.73-154.16,285.64-193.84
					c87.36-31.82,181.29-32.37,269.53-3.63c84.65,27.57,159.1,81.35,228.22,136.05c74.89,59.27,145.88,123.31,221.44,181.76
					C-925.48,245.56-755.3,348.08-578,298.43c88.29-24.72,157.98-91.14,213.85-161c70.72-88.43,126.92-188,183.86-285.53
					c126.49-216.66,256.6-439.03,447.07-606.59c89.2-78.48,192.02-143.7,306.48-177.92c114.14-34.12,236.75-34.11,353.75-16.42
					c248.26,37.53,477.12,150.54,705.73,248.29c205.41,87.82,434.43,180.86,661.74,133.21c126.52-26.52,243.15-89.71,351.22-158.62
					c137.52-87.69,265.92-189.29,392.28-292.15c269.42-219.33,528.84-457.59,824.08-642.61
					c110.39-69.18,225.35-125.95,352.19-157.44c45.29-11.24,117.94-33.43,163.13-8.93c25.31,13.73,19.53,39.18,17.47,63.23
					c-2.38,27.8-0.25,56.7,25.48,73.2c48.27,30.95,124.75,11.45,175.31-0.98c132.71-32.63,260.89-75.65,385.49-132.03
					c294.39-133.2,559.72-317.56,830.88-491.13c115.26-73.78,232.85-146.75,360.94-196.29
					C6200.26-2460.33,6227.3-2409.25,6253.58-2357.76z"/>
			</g>
			<g>
				<path d="M6224.68-2536.77c-126.31,39.19-241.6,106.85-353.1,176.65c-273.04,170.93-534.64,359.59-825.58,500.25
					c-129.17,62.44-261.65,112.74-400.6,148.34c-63.44,16.25-143.57,44.99-209.06,20.73c-29.95-11.1-42.51-35.55-42.3-66.31
					c0.14-21.4,10.8-51.53-4.84-69.53c-27.58-31.73-95.67-15.57-129.59-9.04c-115.23,22.17-222.96,67.16-324.53,125.22
					c-141.7,81-273.01,179.73-400.94,280.67c-140.36,110.76-276.7,226.48-414.54,340.33c-131.07,108.26-263.27,215.98-403.64,312.09
					c-110.8,75.86-229.14,148.09-358.49,187.34c-221.07,67.1-443.87-4.18-649.51-88.66c-231.67-95.17-457.6-212.87-704.45-264.75
					c-116.77-24.54-237.83-33.28-355.84-12.14c-116.74,20.92-224.55,76.26-318.4,147.56C125.41-653.14-15-431.12-143.8-213.93
					c-58.68,98.95-115.06,199.91-182.02,293.61c-53.88,75.4-117.52,150.18-202.2,191.71c-166.29,81.54-348.66-4.61-486-102.86
					c-151.03-108.04-280.34-256.73-451-335.13c-81.11-37.26-172.12-49.5-259.65-30.16c-108.04,23.87-202.71,90.4-285.15,161.51
					c-219.54,189.37-390.11,430.21-588.07,640.72c-183.41,195.04-412.63,410.75-691.93,440.29
					c-281.93,29.82-552.89-106.23-797.92-227.6c-237.39-117.58-499.47-265.11-774.33-230.33
					c-310.63,39.31-470.68,326.79-583.87,587.54c-64.83,149.34-119,303.4-189.71,450.17c-60.03,124.6-134.89,251.14-257.81,322.3
					c-1.97-58.76-3.21-117.53-4.34-176.31c134.79-49.93,226.39-162.92,298.78-282.54c84.16-139.07,147.89-289.52,218.92-435.41
					c122.83-252.27,283.34-552.09,580.54-621.19c275.49-64.05,548.01,71.26,788.69,189.62
					c245.68,120.82,510.43,270.79,792.46,267.84c272.15-2.85,485.89-200.87,654.78-394.3c185.85-212.85,334.57-457.17,528.56-662.87
					c73.22-77.63,157.69-152.19,258.46-191.25c77.72-30.13,159.84-29.3,237.78-0.57c82.48,30.41,155.17,83.88,224.11,137.22
					c77.85,60.23,152.91,124.04,232.79,181.64C-939.45,62.46-759.41,163.5-578,113.05c91.83-25.54,167.5-92.9,231.01-161.11
					c80.65-86.61,149.88-183.47,220.05-278.52C31.87-541.7,196.02-759.18,410.37-922.65c101.2-77.18,214.2-142.19,337.36-176.68
					c114.29-32.01,234.01-34.8,350.9-16.67c235.5,36.53,450.5,147.39,665.48,244.12c192.33,86.54,406.72,176.54,621.44,128.65
					c122.96-27.42,235.79-89.54,340.68-157.47c137.15-88.82,264.98-191.68,390.5-296.03c264.28-219.72,516.62-459.12,802.57-651.18
					c99.18-66.61,201.4-122.23,316.42-155.63c33.55-9.74,99.91-36.09,133.14-11.21c20.33,15.22,19.65,48.45,24.48,70.93
					c7.47,34.8,23.55,65.59,54.95,84.35c58.26,34.79,137.39,24.79,200.31,11.99c134.62-27.4,264.11-70.68,388.24-129.55
					c279.31-132.46,521.24-324.76,769.29-506.23c106.2-77.69,215.23-154.62,337.13-205.79
					C6170.43-2638.32,6197.71-2587.63,6224.68-2536.77z"/>
			</g>
			<g>
				<path d="M6192.87-2715.14c-121.28,40.15-229.13,111.41-332.35,185.18c-247.54,176.95-481.91,371.88-753.25,512.88
					c-127.12,66.06-259.69,118.57-399.58,150.1c-75.18,16.94-159.95,39.71-235.57,11.25c-37.53-14.12-63.3-42.24-74.93-80.36
					c-7.47-24.5-5.94-57.57-21.7-78.73c-21.96-29.49-73.96-13.88-102.7-6.85c-103.31,25.28-197.82,68.42-288.14,124.26
					c-134.84,83.36-259.57,182.96-381.75,283.6c-137.39,113.17-271.38,230.38-407.27,345.34
					c-127.79,108.12-257.01,215.32-394.2,311.43c-109.63,76.81-226.96,150.79-355.62,191.04c-210.1,65.73-417.32-0.33-611.77-84.41
					c-217.36-93.98-428.58-209.47-661.84-260.17c-114.25-24.83-232.93-32.66-348.43-11.55c-123.86,22.64-239.26,77.05-343.36,146.8
					C256.16-825.08,83.27-611.05-77.29-397.28c-73.72,98.15-144.99,198.59-224.76,292C-365.69-30.74-437.33,43.58-527.18,86.04
					c-173.13,81.81-364.23-4.44-510.44-102.26c-80.91-54.13-156.14-116.03-232.28-176.51c-70.83-56.26-143.04-113.63-224.56-153.81
					c-73.27-36.12-153.97-53.31-234.72-34.76c-99.92,22.96-186.29,89.44-258.97,158.9c-94.56,90.38-174.3,195.58-252.91,299.71
					c-88.24,116.89-174.26,235.54-267.35,348.67c-160.95,195.6-368.99,421-635.53,452.36c-277.26,32.63-548.64-109.36-789.18-228.05
					c-243.74-120.27-515.39-272.74-797.39-236.63c-306.34,39.23-481.91,310.18-611.28,563.48
					c-74.71,146.28-138.89,297.96-218.51,441.73c-68.97,124.54-152.36,248.81-279.66,319.49c1.01-60.02,1.88-120.03,2.22-180.06
					c135.5-48.5,232.79-155.63,312.37-271.62c92.58-134.93,165.25-282.54,244.58-425.33c136.78-246.19,309.24-533.43,603.82-603.65
					c277.14-66.06,553.32,73.14,794.68,193.34c130.89,65.19,260.97,133.09,397.36,186.31c117.32,45.78,242.56,82.59,369.65,79.87
					c258.53-5.52,449.16-215.53,591.86-409.13c158.02-214.38,285.81-452.65,460.82-654.27c66.37-76.46,143.39-151.18,238.17-190.85
					c73.37-30.71,151.11-25.66,224.47,2.27c82.89,31.55,157.13,83.7,228.8,134.96c84.51,60.45,167.1,123.63,254.4,180.08
					c154.62,99.99,349.47,199.6,538.52,147.45c97.29-26.84,180.54-93.54,253.39-160.79c91.63-84.58,174.13-178.78,257.44-271.37
					c192.4-213.81,389.87-428.65,629.75-590.43c205.69-138.72,440.71-228.7,691.32-190.21c222.1,34.11,422.02,143.8,621.93,239.91
					c177.77,85.47,374.86,171.17,575.75,123.61c119.64-28.33,228.69-92.4,329.47-160.85c131.11-89.04,253.07-191.26,372.49-295.2
					c250.88-218.36,486.9-458.42,755.75-655.18c92.71-67.85,188.71-122.57,297.18-160.64c37.47-13.15,93.39-34.74,130.54-9.2
					c26.78,18.4,38.44,55.12,53.54,82.35c23.37,42.12,54.8,78.13,97.77,101.03c71.89,38.3,158.92,37.56,237.22,24.46
					c132.39-22.14,259.23-67.51,378.26-129.05c263.84-136.41,479.18-340.53,703.38-531.39c94.48-80.43,192.64-159.64,306.2-211.54
					C6139.41-2816.04,6166.11-2765.57,6192.87-2715.14z"/>
			</g>
			<g>
				<path d="M6160.93-2893.48c-114.53,40.45-213.03,113.69-305.79,190.43c-224.93,186.08-431.84,393.21-686.97,539.49
					c-119.72,68.64-247.17,122.5-382.44,151.25c-87.77,18.66-181.27,32.1-267.61-0.74c-48.9-18.6-88.49-52.11-116.74-95.87
					c-18.96-29.36-30.7-66.12-54.98-91.71c-28.45-29.97-71.5-21.92-107.3-11.94c-96.74,26.95-187.27,73.15-270.3,128.96
					c-125.12,84.1-239.73,183.67-352.47,283.39c-130.93,115.81-259.1,234.69-389.75,350.82
					c-121.47,107.97-244.73,214.65-375.86,310.84c-104.15,76.4-215.65,150.46-338.75,192.48c-198.72,67.83-392.72,5.1-575.44-79.45
					c-200.28-92.67-394.25-205.97-611.72-254.37c-108-24.04-220.14-30.38-329.24-9.67c-126.85,24.08-245.67,76.18-355.99,142.37
					C390.83-997.96,185.64-786.47-8.57-573.79c-87.38,95.7-172.71,193.61-264.86,284.82c-74.59,73.83-156.08,147.6-253.2,190.33
					c-181.17,79.71-380.83-1.54-539.21-95.89c-90.44-53.88-175.23-116.45-260.34-178.22c-74.64-54.17-149.98-109.97-233.3-150.29
					c-69.2-33.48-146.12-54.05-222.68-36.19c-93.82,21.88-173.99,90.25-239.16,157.92c-85.17,88.43-156.28,189.89-224.87,291.36
					c-77.88,115.21-152.08,232.9-231.91,346.8c-136.89,195.31-317.72,433.02-571.76,468.11c-122.8,16.97-247.62-10.48-363.5-50.08
					c-136.97-46.81-266.88-112.18-396.04-176.89c-242.5-121.48-515.2-275.68-796.78-239.65
					c-303.21,38.79-489.84,301.79-631.97,547.12c-82.97,143.22-156.07,292.25-244.4,432.33
					c-76.41,121.17-166.46,239.51-295.57,307.61c2.15-60.59,3.46-121.18,3.69-181.81c138.17-47.38,241.42-151.85,327.45-266.3
					c96.95-128.97,175.88-270.52,260.19-407.76c146.94-239.18,327.81-520.26,619.85-589.82c270.22-64.36,540.22,76.21,773.44,196.27
					c123.86,63.76,246.71,130.53,375.7,183.57c107.12,44.05,224.02,82.66,341.38,77.23c241.5-11.17,406.39-237.83,529.14-420.71
					c142.42-212.2,256.43-446.28,419.22-644.31c58.88-71.62,127.64-141.4,213.36-180.05c72.33-32.61,149.48-25.93,222.75,0.14
					c88.27,31.41,168.9,82.82,247.49,132.91c92.38,58.88,183.45,119.9,278.63,174.25c171.5,97.93,385.44,198.04,587.2,143.41
					c101.71-27.54,191.5-91.07,272.75-155.98c104.54-83.53,201.14-176.77,298.3-268.61c221.43-209.29,446.24-419.67,705.95-581.39
					c206.46-128.56,444.21-231.74,692.04-192.14c204.06,32.6,384.26,139.75,564.67,233.94c162.1,84.63,340.75,165.51,527.01,118.21
					c114.11-28.98,217.32-95.98,311.9-163.86c126.92-91.1,244.75-194.61,359.71-300.18c238.34-218.86,460.24-460.09,716.29-658.83
					c87.08-67.59,178.65-124.29,282.63-161.77c44.2-15.93,94.74-27.66,137.85-2.61c39.14,22.74,66.08,64.09,95.26,97.5
					c42.42,48.58,90.78,91.18,149.1,119.69c204.85,100.14,457.14,13.02,640.84-93.76c244.6-142.18,428.94-356.82,625.91-555.13
					c84.77-85.35,174.48-169.02,283.39-222.52C6109.69-2994.2,6135.12-2943.74,6160.93-2893.48z"/>
			</g>
			<g>
				<path d="M6131.65-3072.4c-111.48,41.26-203.19,118.45-287.47,200.3c-199.21,193.46-374.54,411.03-609.56,564.19
					c-184.46,120.21-438.07,224.6-658.24,144.58c-65.16-23.68-121.6-63.95-169.36-113.76c-33.89-35.34-62.08-77.89-100.34-108.78
					c-36.95-29.84-79.85-32.33-124.71-20.65c-93.42,24.32-181.38,75.02-259.18,130.71c-120.39,86.17-229.68,187.71-337.27,289.04
					c-123.07,115.92-243.55,234.55-366.86,350.22c-116.85,109.63-235.9,217.6-363,315.33c-98.41,75.68-204.39,151.11-321.93,194
					c-181.56,66.25-358.67,7.58-523.71-75.07c-180.84-90.57-354.61-201.62-553.72-248.57c-101.91-24.03-207.97-29.25-310.89-8.28
					c-129.27,26.33-250.65,78.68-365.27,143.16C513.18-1165.78,282.33-958.62,59.71-750.47
					c-101.63,95.03-201.65,192.1-307.69,282.26c-84.07,71.48-174.13,142.7-277.23,184.64c-195.64,79.59-409.65-0.69-585.5-93.54
					c-96.69-51.05-188.7-110.28-280.61-169.34c-82.83-53.22-165.89-108.44-255.88-149.04c-70.32-31.73-149.28-54.72-226.37-35.96
					c-87.29,21.25-161.05,87.17-220.05,151.7c-79.18,86.59-143.85,185.92-205.87,285.14c-71.14,113.79-138.34,230.01-210.8,342.98
					c-69.95,109.03-144.47,217.27-235.73,309.79c-76.68,77.74-168.97,146.5-278.93,165.16c-112.43,19.08-227.31-9.94-332.55-48.44
					c-126.39-46.23-246.08-109.2-365.3-171.1c-234.47-121.74-500.22-276.79-775.02-243.39
					c-299.22,36.37-493.46,298.52-643.63,534.53c-87.58,137.64-166.79,280.74-259.9,414.83
					c-83.13,119.71-179.75,235.25-312.29,301.54c1.56-60.48,1.71-120.93,0.3-181.41c139.66-45.92,246.95-147.55,337.63-259.89
					c99.28-123,181.93-258.53,268.61-390.4c149.7-227.76,329.85-503.49,609.98-578.22c257.38-68.65,517.23,73.32,736.2,192.78
					c112.64,61.45,224.3,125.88,342.42,176.43c99.15,42.44,206.89,76.98,316.06,70.19c107.66-6.7,195.37-61.87,271.43-135.34
					c86.46-83.53,155.6-184.12,219.19-285.57c128.67-205.27,230.89-430.31,381.07-621.48c55.63-70.81,121.63-139.8,205.18-177.02
					c74.36-33.12,154.92-23.12,230.21,1.6c94.49,31.01,182.62,80.39,269.17,128.58c103.95,57.88,206.87,117.7,313.48,170.65
					c188.18,93.46,420.84,192.03,634.35,134.76c108.21-29.02,205.52-91.3,295.82-155.73C-168.34-680.25-60.83-770.9,46.89-860.61
					c246.99-205.7,495.29-413.85,772.68-578.06c198.42-117.46,430.55-231.46,667.56-191.99
					c184.54,30.73,343.14,135.21,502.18,226.96c147.3,84.97,312.69,162.57,486.02,115.58c111.68-30.27,211.63-95.76,303.31-164.38
					c120.65-90.31,231.8-193.06,339.84-297.89c228.68-221.87,438.84-466.76,684.67-670.26c81.5-67.47,168.75-127.94,269.49-162.66
					c55.72-19.21,112.39-21.85,165.5,6.21c53.65,28.34,97.33,73.98,142.64,113.48c62.64,54.61,129.56,104.41,205.6,138.9
					c97.96,44.43,206.12,61.21,313.02,49.73c125.53-13.48,244.9-67.07,349.03-136.76c224.97-150.55,376.93-375.85,548.08-580.09
					c75.79-90.45,158.39-178.29,264.6-232.81C6083.78-3173.51,6107.38-3122.81,6131.65-3072.4z"/>
			</g>
			<g>
				<path d="M6107.8-3252.51c-108.26,40.6-193.36,118.73-269.07,203.97c-176.42,198.64-318.23,426.83-531.6,590.54
					c-191.21,146.71-435.62,230.19-671.34,146.01c-82.7-29.53-156.78-77.16-224.33-132.66c-50.2-41.25-96.18-89.01-150.39-125.15
					c-47.56-31.71-99.37-44.13-155.77-32.02c-93.7,20.1-180.45,75.65-255.37,133c-113.55,86.93-215.89,188.41-316.64,289.55
					c-117.63,118.09-232.64,238.77-350.84,356.3c-109.89,109.26-222.14,216.83-342.8,314.24
					c-95.31,76.94-198.45,153.05-314.14,196.31c-82.28,30.77-167.87,39.11-254.17,21.63c-84.52-17.12-163.52-54.48-238.48-96.1
					c-159.45-88.52-311.89-196.9-491.66-240.73c-92.82-22.63-189.51-25.86-282.96-4.84c-127.78,28.74-247.95,82.76-362.41,145.46
					C616.05-1333.74,366.1-1130.69,121.2-928.01C8.87-835.03-102.42-740.5-218.84-652.62c-94.11,71.04-193.49,141.48-304.39,183.82
					c-208.67,79.66-436.61,1.96-629.35-86.77c-108.03-49.73-211.91-107.8-315.63-165.84c-92.97-52.03-186.09-106.12-285.24-145.72
					c-73.31-29.28-155.67-52.49-234.56-33.36c-84.03,20.38-154.19,83.51-210.04,146.48c-72.75,82.02-131.23,176.24-186.94,270.28
					c-65.54,110.65-126.79,223.79-192.89,334.11c-63.2,105.49-130.41,210.26-212.97,301.85
					c-70.18,77.85-156.59,153.15-262.37,173.55c-102.66,19.79-207.9-3.35-304.48-38.75c-120.12-44.02-232.61-106.95-344.44-168.39
					c-218.06-119.8-469.96-274.09-729.88-237.77c-286.17,39.99-478.52,303.22-628.6,525.36
					c-89.46,132.41-172.21,269.56-267.84,397.72c-87.88,117.77-189.16,230.31-323.78,294.54c-0.64-59.68-3.18-119.24-7.7-178.75
					c136.57-43.52,244.02-139.37,335.54-246.69c103.53-121.41,189.84-256.53,279.23-388.34
					c84.15-124.08,170.26-248.46,273.86-357.36c85.39-89.75,186.34-172.35,306.59-209.14c235.14-71.93,481.34,73.84,679.69,183.97
					c105.35,58.49,210.06,119.49,321.26,166.42c94.81,40.01,197.94,70.9,301.93,61.93c102.93-8.88,183.75-64.09,254.67-136.29
					c80.98-82.45,145.24-180.45,204.39-279.21c118.22-197.41,211.59-414.33,354.57-595.93c52.44-66.6,114.91-130.39,193.78-164.82
					c76.79-33.52,160.96-23.7,239.52-1.67c106.31,29.8,206.96,78.99,306.02,126.9c114.53,55.38,228.18,112.64,344.88,163.39
					c115.46,50.21,234.21,95.17,357.41,122.32c107.08,23.6,222.15,34.93,329.4,6.08c111.2-29.92,212.72-89.43,308.49-151.83
					c123.79-80.65,241.46-170.51,358.99-259.89c262.81-199.86,524.61-403.74,809.26-572.16c113.36-67.07,231.44-131,356.81-172.74
					c89.1-29.67,180.22-42.36,273.38-26.16c167.17,29.07,307.21,134.48,449,220.45c141.34,85.7,304.65,165.44,473.25,116.83
					c107.36-30.96,202.27-94.45,289.48-162.59c119.22-93.15,227.75-199.66,332.92-308.15c214.73-221.51,410.59-464.96,642.36-669.32
					c125.44-110.6,292.27-231.88,463.33-149.74c71.09,34.14,133.25,85.5,196.65,131.68c82.8,60.3,168.75,116.96,263.27,157.32
					c107.91,46.07,225.48,69.67,342.87,58.99c122.5-11.15,237.2-69.36,333.05-144.33c207.74-162.49,327.97-400.63,479.46-610.44
					c67.52-93.51,144.44-182.2,248.52-235.62C6064.19-3354.68,6085.55-3303.42,6107.8-3252.51z"/>
			</g>
			<g>
				<path d="M6092.18-3434.42c-109.78,39.7-192.76,119.85-263.13,210.66c-158.67,204.75-270.07,444.52-465.9,619.56
					c-89.45,79.95-197.58,147.07-315.86,173.43c-116.85,26.04-243.95,8.39-355.56-31.22c-98.36-34.91-188.54-88.39-273.81-147.93
					c-68.6-47.9-133.77-101.91-206.33-143.87c-59.71-34.54-124.9-55.59-194.31-44.38c-94.17,15.22-178.23,71.93-250.93,130.53
					c-109.59,88.32-207.18,191.43-303.17,294.01c-110.25,117.81-217.87,238.05-328.7,355.32
					c-106.89,113.11-216.36,224.59-335.27,325.2c-90.04,76.18-188.18,151.78-299.27,194.44
					c-352.79,135.46-610.08-228.15-924.52-310.6c-210.76-55.26-413.36,43.68-594.26,143.91
					c-287.37,159.22-550.34,359.87-811.37,558.15c-122.13,92.77-243.73,186.57-370.1,273.55
					c-100.24,68.99-205.14,137.11-320.02,179.16c-220.35,80.65-461.82,5.1-669.9-78.43c-122.46-49.16-241.15-107-359.78-164.63
					c-102.59-49.83-205.38-101.33-313.22-139c-79.8-27.88-169.39-51.3-253.75-30.81c-80.21,19.49-147.32,76.63-201.09,136.78
					c-70.79,79.19-126.57,171.14-179.28,262.93c-59.91,104.32-115.5,211.04-175.36,315.38c-58.72,102.35-121.11,204.13-198.2,293.88
					c-64.62,75.23-144.95,150.9-244.73,172.5c-98.16,21.25-199.24,1.78-292.41-31.43c-113.45-40.44-219.32-99.94-324.24-158.34
					c-109.9-61.18-219.65-124.17-336.53-171.3c-106.4-42.9-223.24-74.06-338.55-55.87c-120.72,19.04-226.36,91.8-313.67,173.86
					c-109.61,103.03-198.78,226.23-283.86,349.61c-89.73,130.13-174.32,264.24-272.16,388.58
					c-88.73,112.77-190.47,219.22-322.52,280.2c-4.38-58.18-11.04-116.02-20.06-173.67c134.18-42.39,240.3-136.1,330.68-241.04
					c100.29-116.45,184.15-246.18,269.28-373.77c81.27-121.83,162.59-245.09,258-356.5c74.76-87.29,165-177.4,276.49-215.06
					c102.94-34.78,215.7-16.45,316.17,17.55c111.74,37.81,215.99,95.11,318.91,151.96c102.12,56.41,203.82,115.24,312.28,158.84
					c90.87,36.53,188.97,62.78,287.65,52.56c47.5-4.92,92.43-17.28,133.25-42.39c42.06-25.88,79.54-58.66,113.57-94.3
					c76.5-80.14,137.14-174.59,193.05-269.76c109.59-186.55,197-391.59,333.57-560.93c51.77-64.19,113.8-123.91,191.1-155.76
					c82.96-34.19,174.08-23.78,259.08-3c115.16,28.16,225.62,74.68,334.61,120.55c127.36,53.59,253.82,109.4,382.85,158.94
					c126.54,48.59,255.95,92.42,389.19,118.54c110.47,21.65,228.89,33.31,339.23,4.69c114.16-29.61,219.28-88.84,319.03-150.2
					c132.9-81.76,259.83-173.1,386.29-264.36c268.75-193.95,534.64-393.09,816.66-567.7c165.86-102.69,361.14-241.56,567.52-206.18
					c161.77,27.73,297.8,137.06,433.86,221.22c138.86,85.89,302.41,168.48,469.42,120.24c105.49-30.47,197.94-95.51,281.85-164.4
					c113.07-92.83,215.21-198.68,313.91-306.39c206.21-225.01,392.25-472.29,616.47-680.16c75.53-70.02,160.87-142.42,263.04-168.01
					c80.72-20.22,160.97-4.71,235.76,28.88c89.11,40.02,169.98,97.14,251.87,149.78c99.63,64.04,201.5,125.57,311.27,170.8
					c116.8,48.13,243.54,77.95,370.42,66.48c119.53-10.81,228.32-73.5,315.52-153.54c189.52-173.96,280.69-420.49,416.72-632.85
					c63.29-98.81,139.47-189.43,246.81-241.47C6053.44-3538.4,6072.29-3486.23,6092.18-3434.42z"/>
			</g>
		</g>
	</g>
</g>
</svg>
