<?xml version="1.0" encoding="utf-8"?>
<!-- Generator: Adobe Illustrator 24.1.1, SVG Export Plug-In . SVG Version: 6.00 Build 0)  -->
<svg version="1.1" id="Layer_1" xmlns="http://www.w3.org/2000/svg" xmlns:xlink="http://www.w3.org/1999/xlink" x="0px" y="0px"
	 viewBox="0 0 1920 1080" style="enable-background:new 0 0 1920 1080;" xml:space="preserve">
<style type="text/css">
	.st0{clip-path:url(#SVGID_2_);}
</style>
<g>
	<defs>
		<rect id="SVGID_1_" width="1920" height="1080"/>
	</defs>
	<use xlink:href="#SVGID_1_"  style="overflow:visible;fill:#FFFFFF;"/>
	<clipPath id="SVGID_2_">
		<use xlink:href="#SVGID_1_"  style="overflow:visible;"/>
	</clipPath>
	<g class="st0">
		<g>
			<g>
				<path d="M5941.09,3303.21c-111.83-10.69-211.36,31.93-297.15,101.45c-183.32,148.57-290.76,375.42-485.21,511.28
					c-85.51,59.74-185.79,86.62-288.9,63.88c-132.98-29.32-252.15-112.38-357.78-194.69c-259.16-201.94-474.9-452.36-721.19-668.76
					c-151.97-133.53-364.16-314.09-578.36-216.06c-85.3,39.04-156.81,104.49-222.95,169.66
					c-74.55,73.44-144.33,151.55-218.99,224.88c-125.98,123.74-287.58,260.92-477.38,228.54
					c-100.07-17.07-193.48-63.1-279.69-115.11c-105.73-63.79-203.91-139.58-299.46-217.54
					c-189.03-154.24-366.67-326.17-570.64-461.1c-77.96-51.57-163.39-100.4-256.03-119c-86.25-17.32-175.25-3.25-258.37,22.32
					c-209.84,64.55-398.03,189.4-591.58,289.82c-99.01,51.37-200.43,99.86-306.97,133.62c-93.08,29.5-194.67,49.73-292.38,34.64
					c-118.63-18.32-234.93-66.96-345.04-112.75c-152.14-63.26-300.82-134.71-448.68-207.31
					c-328.41-161.25-651.86-334.28-987.81-479.63c-69.22-29.95-139.08-58.56-210.15-83.84c-56.99-20.27-115.94-41.05-175.78-51.09
					c-101.57-17.06-205.57-13.21-306.97,3.05c-216.44,34.73-420.03,121.13-627.9,187.03c-198.16,62.83-439.27,127.97-639.84,40.98
					c-103.61-44.93-190.22-121.75-265.86-204.15c-86.12-93.81-160.46-197.68-235.26-300.5
					c-73.93-101.63-147.87-204.81-236.66-294.22c-77.9-78.45-171.15-147.5-282.02-168.21c-91.74-17.14-174.96,9.31-229.11,87.16
					c-57.63,82.85-80.08,187.96-104.41,284.21c-24.85,98.32-46.8,203.54-100.52,291.01c-51.81,84.36-131.38,120.47-229.1,106.03
					c19.65-96.68,44.64-192.06,72.47-286.69c96.27,10.33,171.36-31.73,221.87-112.98c53.45-85.98,78.19-188.09,105.78-284.42
					c25.83-90.17,50.42-188.86,107.32-265.37c53.73-72.25,134.39-95.61,220.88-74.65c104.8,25.4,190.8,98.55,261.79,176.51
					c83.2,91.38,151.93,195.08,220.37,297.61c67.7,101.41,134.46,204.38,214.02,297.07c67.53,78.67,147.14,152.65,245.52,190
					c194.68,73.92,420-2.97,603.87-73.38c201.42-77.14,398.71-174.57,612.13-214.74c97.1-18.28,201.38-25.54,298.58-3.8
					c139.13,31.13,272.72,90.59,402.23,148.73c353.59,158.73,694.67,344.19,1041.44,516.94c155.76,77.59,312.45,154,473.07,221.11
					c61.45,25.68,123.57,50,186.85,70.82c52.67,17.33,107.81,35.44,163.46,39.22c107.19,7.27,214.73-21.11,314.71-57.19
					c118.3-42.69,231.26-99.25,342.32-157.88c210.62-111.19,417.75-243.96,646.47-315.36c88.13-27.51,187.51-47.28,279.27-26.05
					c92.96,21.5,178.19,78.86,253.34,135.26c198.16,148.73,366.72,333.88,549.45,500.32c88.94,81.02,180.93,159.95,281.62,226.15
					c81.77,53.77,173.59,103.36,271.83,117.08c197.72,27.63,377.47-113.24,518.24-233.34c83.31-71.08,162.64-146.72,246.67-216.96
					c73.52-61.45,152.72-122.73,243.71-155.77c214.58-77.91,402.55,96.86,543.5,237.32c216.37,215.64,403.06,462.69,641.16,656.01
					c97.2,78.91,210.75,157.27,337.23,176.97c101.23,15.77,195.72-18.94,274.32-81.93c178.71-143.21,273.6-366.39,454.69-507.6
					c86.23-67.24,186.02-100.45,295.3-85.14C5952.49,3129.55,5946.66,3216.37,5941.09,3303.21z"/>
			</g>
			<g>
				<path d="M5940.77,3016.28c-109.14-10.09-206.56,28.82-289.99,97.83c-175.52,145.19-269.22,368.72-451.17,506.64
					c-80.95,61.36-177.71,89.8-278.43,68.89c-126.77-26.32-238.62-106.75-335.78-188.61c-232.82-196.16-415.67-442.53-631.3-656
					c-82.64-81.81-173.27-165.46-281.27-212.28c-84.47-36.62-171.74-36.49-256.97-2.47c-91.45,36.5-171.21,99.2-246.08,161.83
					c-84.65,70.81-165.22,146.35-250.2,216.77c-142.97,118.49-326.2,253.63-523.66,216.6c-98.97-18.56-190.25-70.65-272.3-127
					c-100.25-68.84-191.99-149.61-280.97-232.25c-180.21-167.38-347.59-353.24-546.52-499.16
					c-74.14-54.38-160.41-111.18-252.93-126.4c-95.32-15.67-194.18,6.37-284.39,36.59c-231.14,77.43-440.74,211.81-655.72,324.18
					c-111.45,58.26-225.08,114.14-344.18,155.11c-99.19,34.11-207.31,60.72-312.91,48.57c-57.08-6.56-114.32-26.92-168.35-45.57
					c-64.87-22.39-128.59-48.04-191.68-74.99c-163.02-69.65-322.3-147.97-480.74-227.37c-346.14-173.46-687.1-359.2-1041.38-515.84
					c-124.22-54.92-255.95-115.85-390.87-138.87c-98.09-16.73-199.83-8.2-296.66,12.15c-212.24,44.61-407.97,143.68-609.36,220.61
					c-181.68,69.4-406.01,142.64-595.87,60.76c-96.67-41.69-174-118.36-240.15-198.33c-78.07-94.39-144.26-197.98-212.09-299.75
					c-67.88-101.83-136.75-204.63-220.84-294.02c-71.33-75.82-158.67-146.03-263.49-165.96
					c-212.13-40.33-271.78,202.23-317.13,357.6c-27.67,94.81-53.74,196.17-110.11,278.77c-54.96,80.54-135.15,113.74-231.14,98.21
					c30.66-100.14,64.04-199.4,98.36-298.33c97.3,12.32,178.37-24.45,237.66-101.85c60.58-79.1,94.51-176.39,130.01-268.37
					c33.08-85.7,65.38-179.21,126.76-249.48c58.11-66.53,139.25-86.78,223.76-63.36c99,27.44,180.19,99.4,247.64,173.91
					c84.01,92.8,153.71,197.78,222.7,301.88c67.58,101.97,133.63,205.78,211.55,300.32c62.57,75.92,136.28,151.24,229.57,187.96
					c176.61,69.52,376.95-9.82,538.26-83.57c184.47-84.34,363.97-189.61,563.68-234.36c92.41-20.71,186.42-25,279.61-6.83
					c128.13,24.99,251.41,81.08,369.66,134.6c360.75,163.25,708.45,354.87,1061.94,532.94c162.22,81.72,325.33,162.41,492.61,233.36
					c63.02,26.73,126.73,52.11,191.73,73.68c52.7,17.49,107.78,35.17,163.48,39.12c106.64,7.56,214.13-22.73,313.36-58.71
					c128.8-46.7,251.84-108.52,372.93-172.2c239.71-126.07,475.37-276.25,734.66-359.59c90.34-29.04,194.54-53.76,289.65-34.02
					c94.87,19.7,181.8,81.04,256.08,140.26c197.41,157.36,359.54,355.4,537.11,533.7c85.85,86.2,174.95,170.63,274.17,241.43
					c76.54,54.61,164.3,106.52,258.76,120.53c210.43,31.23,413.24-104.92,575.84-220.64c95.97-68.3,188.52-141.31,285.24-208.56
					c81.97-56.99,168.53-112.68,264.19-143.65c88.14-28.54,179.47-28.32,263.53,13c99.27,48.8,179.14,133.22,251.07,215.26
					c185.12,211.17,336.73,453.65,546.99,642.16c84.79,76.01,184.72,148.01,298.99,169.26c98.02,18.22,189.98-11.95,265.44-75.24
					c169.06-141.77,246.93-364.46,417.12-505.79c83-68.93,180.73-100.65,288.18-85.55
					C5952.49,2842.6,5946.57,2929.44,5940.77,3016.28z"/>
			</g>
			<g>
				<path d="M5940.84,2729.31c-107.04-10.02-201.9,27.62-281.63,98.17c-163.99,145.11-240.62,368.36-413.02,504.52
					c-78.05,61.64-172.4,85.01-269.79,62.09c-113.74-26.77-211.85-101.6-295.62-179.96c-204.65-191.42-352.25-433.03-537.03-641.99
					c-70.42-79.63-149.88-161.81-248.74-205.42c-85.87-37.89-178.65-31.77-265.71-1.04c-96.59,34.09-184.14,91.15-267.74,149.27
					c-97.59,67.85-191.55,140.76-289.28,208.42c-162.57,112.54-371.61,247.11-579.75,204.33
					c-95.09-19.55-181.88-73.34-258.78-130.54c-98.84-73.51-187.83-159.76-273.9-247.58c-175.3-178.86-336.85-377.49-535.86-531.24
					c-73.9-57.09-162.45-117.24-257.31-129.82c-99.34-13.17-201.96,12.62-295.26,44.6c-261.32,89.55-499.11,241.02-742.98,368.06
					c-120.8,62.93-243.85,123.77-372.83,168.27c-97.73,33.72-204.72,61.64-308.92,48.91c-57.18-6.98-113.88-26.28-168.05-45.09
					c-66.49-23.1-131.73-49.75-196.31-77.69c-169.23-73.24-334.5-155.54-498.98-238.77c-350.05-177.13-694.2-368.75-1052.47-529.05
					c-114.39-51.18-233.57-103.81-357.85-125.14c-92.64-15.9-185.97-8.57-276.93,13.9c-197.64,48.82-374.54,155.48-558.2,239.43
					c-159.53,72.93-359.56,148.45-531.74,71.24c-92.35-41.41-164.73-119.3-226.94-196.94c-77.17-96.3-143.4-200.88-211.78-303.43
					c-68.99-103.45-139.33-207.61-224.69-298.47c-68.11-72.5-150.67-141.49-250.06-163.86c-205.56-46.26-283.94,178.07-343.9,329.06
					c-36,90.66-71.76,187.01-135.28,262.63c-63.93,76.11-149.6,104.74-246.96,87.42c35.23-100.49,71.1-200.75,105.97-301.36
					c101.14,14.27,190.69-17.74,262.04-90.46c70.37-71.72,117.33-163.41,164.96-250.81c42.66-78.28,85.58-162.05,151.24-223.93
					c65.47-61.7,149.37-81.48,236.17-57.94c102.7,27.85,187.78,101.77,259.47,177.38c90.11,95.04,166.36,202.51,241.65,309.34
					c73.15,103.8,144.51,209.6,227,306.35c61.98,72.68,133.32,146.13,222.8,183.92c168.5,71.17,352.81-17.15,499.41-99.52
					c164.89-92.65,324.27-207.76,509.1-257.72c84.96-22.97,169.14-26.01,255.39-9.1c127.14,24.93,248.14,86.57,362.8,144.55
					c329.68,166.68,644.64,361.37,969.52,537.02c151.26,81.78,304.21,161.27,461.89,230.05
					c114.48,49.94,238.33,103.75,364.07,115.65c112.38,10.63,225.92-22.01,330.06-61.09c126.7-47.54,247.71-109.53,367.11-172.83
					c252.07-133.63,500.15-287.99,771.4-380.57c99.48-33.95,211.4-62.83,316.89-42.68c100.22,19.15,190.25,78.33,268.71,140.91
					c198.36,158.22,357.33,361.53,531.24,544.79c82.39,86.82,167.86,172.12,263.45,244.52c79.94,60.54,172.85,118.06,274.21,131.35
					c99.77,13.08,200.91-9.96,294.22-44.32c114.78-42.27,222.28-102.65,326.79-165.59c109.56-65.99,216.27-136.66,326.72-201.18
					c94.26-55.07,192.8-108.22,298.83-136.61c91.94-24.62,190.09-26.76,276.17,18.24c88.36,46.18,156.7,125.5,216.62,203.33
					c158.47,205.84,276.91,444.04,461.78,629.12c75.68,75.77,167.04,144.88,274.79,164.26c95.37,17.15,183.17-12.52,253.72-77.6
					c152.97-141.11,213.02-356.7,368.23-496.49c78.32-70.53,172.88-100.84,277.44-85.78
					C5952.57,2555.64,5946.7,2642.48,5940.84,2729.31z"/>
			</g>
			<g>
				<path d="M5941.12,2442.32c-104.03-10.12-195.3,26.39-270.01,98.37c-77.92,75.07-132.84,170.96-188.88,262.47
					c-50.32,82.16-101.76,169.05-175.37,232.85c-73.21,63.46-163.89,86.36-258.55,64.7c-106.93-24.46-196.32-97.1-270.42-174.83
					c-179.33-188.13-294.18-425.4-453.37-629.03c-59.29-75.84-128.03-152.75-216.77-194.21c-88.73-41.46-189.47-33.63-281.23-6.7
					c-107.28,31.49-207.05,86.05-303.1,142.25c-111.38,65.17-219.46,135.78-330.7,201.18c-105.05,61.76-213.43,120.6-329.04,160.21
					c-93.08,31.89-195.46,52.64-293.65,34.61c-101.8-18.69-194.13-79.06-274.14-141.88c-95.36-74.87-180.93-161.78-263.78-250.01
					c-172.15-183.31-331.34-386.9-532.16-540.5c-78.83-60.3-170.24-116.38-270.5-129.58c-109.4-14.4-221.96,17.51-324,54.02
					c-271.79,97.24-520.28,252.17-774.61,386.27c-117.93,62.18-237.78,122.8-363.52,167.77c-103.18,36.9-215.65,65.84-325.91,50.48
					c-129.37-18.03-254.79-72.78-372.96-125.87c-157.98-70.97-311.32-152.12-463.02-235.53
					c-319.3-175.56-629.02-370.03-954.75-533.7c-111.23-55.89-227.06-111.93-350.35-134.79c-85.07-15.77-170.2-7.61-252.79,17.14
					c-182.97,54.85-339.83,171.48-504.5,264.12c-146.36,82.34-329.97,165.4-495.47,86.61c-89.22-42.48-160.11-118.28-222.54-193.02
					c-82.36-98.58-154.47-205.31-228.93-309.82c-75.68-106.23-152.91-212.92-244.67-306.05c-72.43-73.51-159.04-144.57-262.2-167.17
					c-200.02-43.82-301.91,150.24-384.02,296.74c-48.4,86.36-97.48,176.95-170.58,245.31c-75.79,70.87-169.23,95.77-270.76,76.71
					c33.64-98.01,66.01-196.44,95.02-295.93c106.9,15.32,205-14.33,288.8-81.76c77.92-62.7,137.79-144.77,197.31-224.24
					c57.8-77.18,116.29-159.53,195.74-216.15c73.86-52.64,160.68-68.4,248.72-45.84c114.25,29.27,210.46,110.64,292.28,191.99
					c95.29,94.75,178.77,200.81,261.22,306.65c79.92,102.59,158.17,206.99,245.61,303.4c70.37,77.58,150.44,157.84,249.25,197.87
					c169.21,68.55,341.52-33.29,477.92-127.18c146.8-101.05,287.43-224.42,458.21-283.53c80.21-27.76,163.55-35.16,246.56-16
					c111.14,25.65,214.83,85.49,312.28,142.7c292.38,171.63,566.64,372.8,854.42,551.89c141.69,88.17,286.05,173.4,437.1,244.67
					c105.4,49.73,219.59,99.45,336.97,110.17c105.22,9.61,210.47-19.1,307.71-56.91c124.44-48.39,241.89-113.73,357.59-179.85
					c240.65-137.53,478.82-293.89,744.12-380.36c104.11-33.93,218.86-58.92,328.46-40.46c102.43,17.26,196.41,70.36,280.03,129.87
					c214.5,152.65,386.65,358.52,569.64,545.67c89.82,91.86,182.28,182.99,286.38,258.79c81.33,59.22,173.32,111.29,274.65,124
					c106.15,13.31,214.25-12.08,314.13-46.39c121.64-41.79,237.28-99.79,350.7-159.96c117.13-62.14,232.21-128.14,350.3-188.48
					c110.12-56.26,224.56-110.43,345.88-137.51c93.97-20.98,195.56-23.91,283.68,19.99c91.42,45.55,159.19,128.58,216.19,210.99
					c134.46,194.41,226.24,418.9,384.07,597.04c71.19,80.35,159.99,151.25,268.54,169.45c89.59,15.02,172.03-10.91,237.33-73.62
					c144.95-139.2,187.84-353.82,331.55-494.76c73.38-71.97,164.69-100.86,266.19-85.8
					C5952.66,2268.67,5946.91,2355.5,5941.12,2442.32z"/>
			</g>
			<g>
				<path d="M5941.42,2155.33c-101-10.22-188.67,25.17-258.26,98.4c-69.04,72.66-115.45,164.04-162.73,251.44
					c-46.02,85.08-92.66,176.56-165.79,242c-68.31,61.14-153.96,80.38-243.18,61.3c-107.58-23-194.46-98.44-263.7-180.31
					c-153.12-181.08-242.51-404.97-379.06-597.38c-57.45-80.95-126.86-161.25-219.64-202.03c-91.39-40.17-195.56-32.46-290.24-9.04
					c-122.72,30.36-238.47,86.02-350.45,143.49c-118.84,60.99-235.01,127.02-353.47,188.72
					c-113.5,59.12-229.49,115.77-351.51,155.23c-99.4,32.14-207.22,54.8-311.7,37.08c-102.14-17.32-194.37-73.2-276.02-134.54
					c-104.36-78.4-197.65-170.94-288.77-264.05c-182.79-186.78-356.97-392.17-574.63-539.96
					c-84.18-57.16-180.07-108.23-282.68-119.65c-112.7-12.55-227.02,14.24-332.93,51.02c-262.99,91.33-498.6,248.34-738.76,385.84
					c-113.51,64.98-229.19,128.89-352.11,174.46c-96.27,35.69-200.31,60.55-303.4,46.57c-119.55-16.21-234.38-67.83-341.71-120.52
					c-150.39-73.85-294.19-160.88-435.41-250.79c-281.39-179.15-549.72-380.15-837.86-548.51
					c-93.89-54.86-194.1-111.45-301.86-132.96c-82.75-16.52-165.98-4.5-244.31,25.33c-169.14,64.41-307.66,189.23-454.95,290.59
					c-137.76,94.81-309.33,189.71-477.15,113.33c-99.14-45.12-179.36-127.72-250.9-207.67c-87.81-98.14-167.18-203.52-248.69-306.83
					c-83.08-105.3-167.68-210.61-264.67-303.61c-82.52-79.12-180.25-157.5-294.94-181.2c-205.36-42.44-333,132.43-443.28,276.03
					c-60.44,78.7-122.34,159.58-202.56,219.36c-87.64,65.3-188.85,88.97-296.3,69.06c26.14-93.05,48.94-186.91,65.2-282.22
					c112.61,14.32,217.64-16.16,311.27-78.93c87.83-58.88,161.02-136.66,234.2-212.18c68.79-70.99,138.84-144.71,224.57-195.51
					c87-51.55,185.36-67.16,283.57-41.25c117.02,30.87,218.26,109.69,306.6,189.22c107.11,96.43,202.82,204.93,297.43,313.4
					c95.54,109.53,189.22,221.29,292.66,323.57c77.08,76.22,162.76,153.5,264.76,194.22c175.77,70.16,342.25-40.49,475.43-146.92
					c139.44-111.43,270.65-248.56,438.12-318.03c75.45-31.3,158.94-44.34,238.96-23.34c100.55,26.39,191.64,90.04,275.16,149.46
					c250.26,178.05,478.46,385.5,724.63,569.08c116.92,87.19,237.16,171.23,365.14,241.51c95.86,52.64,201.71,103.83,311.97,115.3
					c98.9,10.29,196.79-18.01,286.33-57.94c107.06-47.74,206.29-111.92,303.76-176.51c206.93-137.13,411.66-290.17,647.36-374.79
					c107.11-38.45,225.39-63.02,339.15-44.02c108.58,18.14,209.28,71.3,300.21,131.3c230.85,152.32,422.2,358.4,623.81,545.63
					c94.94,88.17,192.28,175.22,299.51,248.35c87.47,59.65,185.91,113.71,292.54,127c114.37,14.25,230.33-11.26,338.37-47.46
					c123.84-41.5,242.04-98.57,358.5-157.22c123.98-62.43,246.35-128.13,371.97-187.26c119.76-56.37,244.01-109.26,374.39-135.22
					c103.43-20.59,212.05-22.02,309.3,23.48c92.85,43.44,165.4,120.32,224.28,202.54c137.53,192.04,216.38,422.87,372.55,602.25
					c67.78,77.86,153.03,142.96,256.81,161.18c93.66,16.44,180.55-9.2,246.72-78c133.34-138.64,164.87-346.15,297.62-485.71
					c69.55-73.12,158.6-100.55,257.78-85.62C5952.71,1981.7,5947.08,2068.51,5941.42,2155.33z"/>
			</g>
			<g>
				<path d="M5941.55,1868.35c-98.8-10.21-184.01,24-249.74,98.24c-126.53,142.91-157.8,351.38-296.09,484.78
					c-69.65,67.19-160.94,86.1-254.3,65.32c-103.14-22.95-186.64-92.28-252.87-171.75c-152.45-182.92-230.88-413.99-374.01-603.25
					c-61.13-80.83-136.19-154.94-231.1-194.39c-100.61-41.82-212.01-35.55-316.4-12.38c-131.53,29.19-256.71,83.74-377.84,141.53
					c-125.6,59.93-248.23,125.83-372.76,187.91c-115.95,57.81-233.98,113.66-357.74,152.8c-107.36,33.96-224.13,57.04-336.62,37.66
					c-107.53-18.53-205.91-75.47-294.06-137.33c-107.62-75.53-205.84-163.95-302.07-253.27
					c-201.35-186.91-394.57-392.38-628.28-539.94c-91.05-57.49-193.39-108.76-301.79-121.14c-115.44-13.18-231.91,13.54-339.2,54.91
					c-231.67,89.33-432.01,243.05-636.82,379.88c-166.23,111.05-369.3,250.39-580.49,218.61
					c-111.51-16.78-217.21-70.43-313.86-126.01c-126.75-72.89-245.85-158.73-361.76-247.61
					c-239.73-183.83-462.12-391.18-708.8-565.83c-80.16-56.75-169.5-118.75-267.35-139.43c-80.81-17.08-163.7,0.15-237.89,33.75
					c-166.07,75.19-295.64,213.45-436.5,325.32c-136.38,108.31-302.22,209.48-478.1,131.39
					c-102.78-45.63-189.09-125.27-267.7-203.93c-104.09-104.16-199.19-216.96-296.62-327.25
					c-95.29-107.86-192.13-215.54-300.91-310.11c-88.72-77.13-191.24-153.26-308.48-178.55
					c-214.78-46.34-370.07,111.35-507.9,251.15c-73.98,75.03-148.89,151.75-238.63,208.17c-96.53,60.68-203.84,86.3-316.9,67.67
					c12.98-86.21,20.72-172.41,12.79-259.48c239.45,24.62,422-147.81,589.5-293.29c157.2-136.54,338.76-283.02,561.15-226.6
					c124.54,31.59,234.39,111.78,331.8,192.36c118.81,98.28,226.99,208.86,334.27,319.38c108.73,112.01,215.86,226.16,332.28,330.33
					c87.56,78.34,183.41,156.99,294.49,199.08c187.62,71.11,356.2-42.79,493.96-161.52c139.54-120.26,267.87-269.08,437.16-348.7
					c73.4-34.52,160.03-53.84,240.01-31.8c92.45,25.48,173.21,91.46,244.59,152.66c211.24,181.11,393.72,393.74,598.18,582.29
					c96.73,89.2,197.51,175.51,307.92,247.49c83.84,54.66,178.91,107.06,280.05,118.52c190.85,21.64,357.25-118.98,494.07-232.42
					C115.88,1026.19,279.66,873.6,481.7,791.23c99.03-40.38,207.28-60.56,313.78-43.49c112.9,18.09,218.44,70.48,314.9,129.88
					c244.49,150.55,452.14,354.93,669.33,540.68c102.43,87.6,207.14,173.93,321.05,246.37c93.15,59.23,196.64,112.78,307.66,126.33
					c115.81,14.14,232.9-10.57,342.42-47.15c123.51-41.25,241.28-98.31,357.32-156.88c241.83-122.06,486.64-270.76,756.12-321.68
					c111.01-20.98,225.6-20.95,330.71,24.49c100.48,43.44,183.38,118.66,253.95,200.9c160.16,186.64,262.82,416.96,430.82,597.11
					c73.31,78.61,163.49,145.49,271.36,165.13c96.21,17.52,189.17-6.89,259.1-76.12c136.39-135.03,162.82-343.49,292.35-483.45
					c68.42-73.93,157.19-100,255.85-85.42C5952.66,1694.73,5947.09,1781.54,5941.55,1868.35z"/>
			</g>
			<g>
				<path d="M5941.34,1581.41c-98.38-9.94-183.44,23-248.1,98.07c-123.63,143.53-152.91,352.57-295.7,481.69
					c-74.09,67-172.04,85.22-268.18,62.58c-107.42-25.29-195.66-95.41-268.42-175.67c-166.27-183.41-271.68-413.13-437.46-597.2
					c-72.61-80.63-158.1-153.01-260.38-192.47c-107.82-41.59-224.92-36.87-336.36-13.2c-269.41,57.22-513.02,206.54-756.55,328.68
					c-115.17,57.76-232.41,113.59-355.51,152.48c-108.81,34.38-226.23,56.35-340.15,37.37c-112.04-18.67-215.63-75.01-309.59-136.48
					c-114.33-74.8-219.91-162.46-323.58-251.18c-216.7-185.44-425.84-389.08-672.71-534.94c-96.35-56.93-202.5-106.65-314.85-119.81
					c-106.29-12.45-212.62,11.31-309.67,54.28c-197.01,87.23-355.16,240.44-518,377.36c-134.37,112.99-298.54,247.45-486.91,216.63
					c-101.82-16.66-196.31-72.04-280.12-129.52c-108.9-74.69-208.31-162.8-303.87-253.66
					c-198.54-188.77-376.08-401.44-585.32-578.72c-68.86-58.34-149.69-123.46-240.46-142.23c-81.91-16.94-167.35,5.81-240.39,42.88
					c-168.23,85.4-295.63,235.01-437.59,355.57c-71.78,60.96-149.64,120.11-239.12,152.27c-87.01,31.27-175.59,27.6-260.78-8.11
					c-112.16-47.02-208.98-128.05-298.33-208.9c-117.21-106.05-225.83-221.23-336.49-333.96
					c-107.84-109.86-216.99-219.52-337.29-315.89c-97.34-77.97-208.11-155.5-332.49-181.32
					c-222.71-46.23-404.05,106.13-560.81,241.88c-169.21,146.53-355.95,315.06-597.14,280.83
					c-11.12-80.32-33.65-157.28-64.32-232.25c247.47,18.84,440.43-169.82,615.09-318.15c166.68-141.55,362.64-293.29,595.11-236.69
					c136.77,33.3,258.5,116.91,367.85,202.4c126.71,99.06,243.58,210.17,360.05,320.86c119.5,113.57,238.03,228.78,365.67,333.31
					c97.76,80.06,203.69,159.42,323.82,202.32c92.24,32.94,188.55,32.97,280.48-0.9c95.17-35.07,178.2-97.43,254.94-162.38
					c150.84-127.67,287.08-289.14,468.47-374.92c74.14-35.06,160.94-55.27,242.43-36.43c94.78,21.91,175.21,91.67,242.81,157.97
					c182.01,178.54,326.27,392.8,494.18,584.05c81.04,92.3,166.63,182.42,264.3,257.38c73.7,56.57,159.29,109.49,253.25,121.51
					c170.05,21.74,296.11-110.75,399.46-226.51C-24.76,744.9,94.63,589,264.59,507.4c87.15-41.84,182.01-56.29,277.52-40.84
					c114.54,18.52,222.04,70.27,321.21,128.62c252.83,148.77,471.73,349.77,699.6,532.64c107.89,86.58,217.93,171.77,336.45,243.48
					c100.78,60.98,211.63,115.5,330.2,128.36c238.31,25.85,472.48-100.1,676.11-207.22c233.4-122.78,469.75-269.86,732.54-318.91
					c114.25-21.33,230.39-18.37,339.61,23.82c107.58,41.56,200.74,112.94,282.97,192.58c183.92,178.13,316.96,402,503.59,577.32
					c85.08,79.93,186.84,150.68,304.14,170.85c95.61,16.44,189.41-5.07,264.28-67.64c153.07-127.9,197.56-340.81,339.88-477.75
					c74.22-71.41,166.41-95.2,267.21-79.56C5949.18,1403.25,5947.02,1491.24,5941.34,1581.41z"/>
			</g>
			<g>
				<path d="M5917.65,1284.48c-100.74-11.27-189.64,19.19-260.84,91.62c-137.9,140.3-185.37,354.23-344.48,475.99
					c-190.08,145.46-426.84,16.37-575.17-125.83c-185.67-177.99-321.66-401.06-510.66-576.11
					c-84.05-77.84-179.4-146.42-288.48-184.14c-111.18-38.45-228.83-36.84-342.96-12.71c-261.73,55.33-495.94,203.26-729.99,326.01
					c-201.58,105.72-435.85,228.03-671.36,193.35c-119.69-17.63-231.04-75.54-332.57-138.74c-118.88-74-229.69-160.5-338.68-248.16
					c-226.95-182.53-446.75-382.71-701.33-526.95c-98.82-55.99-205.71-104.07-319.3-118.76c-93.79-12.13-186.92,7.54-270.21,51.53
					C67.18,578.45-45.88,734.72-165.84,871.53c-102.19,116.54-227.94,241.42-397.07,210.76c-94.43-17.12-179.25-73.3-252.57-132.58
					c-96.19-77.77-180.53-169.65-260.63-263.55c-163.18-191.29-304.27-405.86-486.69-579.96
					c-67.35-64.28-149.07-131.15-243.88-146.46c-83.78-13.52-168.84,9.21-243.35,46.93c-180.89,91.58-316.96,253.5-471.39,380.95
					c-77.52,63.97-162.1,124.57-258.6,155.96c-95.13,30.95-193,24.65-285.62-12.03c-121.27-48.02-228.17-129.95-327.65-212.69
					c-127.73-106.24-247-222.26-367.7-336.28c-116.33-109.89-233.53-219.88-361.1-316.81c-109.31-83.06-232.05-163.85-368.72-191.55
					c-232.83-47.19-427.57,113.65-592.58,254.69c-174.79,149.41-371.24,335.79-619.89,307.06
					c-33.23-74.53-72.99-145.54-115.51-215.11c257.48,9.8,457.83-209.39,634.67-366.85c167.33-148.99,370.18-316.04,609.86-253.75
					c135.98,35.34,258.98,112.38,371.27,194.54c136.49,99.87,262.45,213.47,387.88,326.65
					c119.28,107.63,237.75,216.59,363.82,316.33c108.77,86.04,225.7,170.12,356.99,218.08c209.71,76.6,407.27-20.34,574.07-146.06
					c166.05-125.15,314.49-285.47,505.71-373.45c85.85-39.49,182.59-60.15,276.43-40.57c97.6,20.36,182.32,79.99,253.03,148
					c178.66,171.84,304.3,393.49,453.33,589.75c71.96,94.77,148.66,188.16,239.86,265.22c72.02,60.85,157.35,114.23,253.12,124
					c158.47,16.16,251.97-109.42,326.06-230.6c80.84-132.23,155.7-288.31,294.76-369.28c180.46-105.07,398.49-4.5,560.83,89.49
					c255.5,147.94,479.68,345.36,712.64,525.08c115.07,88.77,232.39,176.12,358.54,248.7c98.6,56.73,205.54,106.69,319.56,120.6
					c225.98,27.58,444.83-94.84,634.62-201.64c218.24-122.8,438.08-269.27,686.79-321.33
					c553.35-115.83,874.45,465.28,1244.47,759.43c167.57,133.21,409.21,241.05,601.38,92.12
					c161.47-125.14,222.8-337.06,376.72-469.07c80.49-69.03,176.91-91.33,280.71-74.37
					C5883.44,1088.33,5904.61,1185.63,5917.65,1284.48z"/>
			</g>
			<g>
				<path d="M5831.16,961.13c-103.72-12.51-197.11,16.3-274.59,86.62c-149.83,135.98-213.54,348.48-380.64,467.91
					c-198.69,142.02-442.24,21.17-608.54-113.46c-369.45-299.08-701-868.99-1255.72-738.34c-246.81,58.13-463.8,205.5-681.99,328.08
					c-188.63,105.97-405.99,222.87-629.94,187.65c-115.19-18.12-222.8-71.46-322.16-130.44c-126.35-75-244.26-163.7-360.26-253.59
					c-231.43-179.33-455.71-375.89-712.17-519.54C443.84,185.69,230.05,94.53,57.1,206.79
					c-133.54,86.68-202.37,242.68-281.59,374.52c-37.08,61.71-78,125.41-136.19,169.42c-56.33,42.61-124.68,56.42-193.95,45.94
					c-96.56-14.61-181.48-71.95-253.12-135.46c-90.1-79.88-166.05-174.95-237.75-271.25c-74.98-100.72-145.15-204.89-218.75-306.6
					c-71.23-98.44-145.35-196.51-236.31-277.78c-72.32-64.61-159.01-122.14-256.8-136.74c-95.42-14.24-191.17,10.02-276.77,51.76
					c-344.97,168.21-649.48,675.48-1087.74,500.49c-132-52.71-249.58-138.98-359.74-227.28c-126.01-101-244.95-210.48-365.13-318.24
					c-125.14-112.21-251.32-224.49-388.51-321.96c-112.34-79.81-235.97-153.74-371.86-184.18
					c-237.86-53.28-441.95,127.96-604.92,274.77c-175.61,158.2-379.39,376.64-637.67,355.95c-44.11-70.25-90.23-139.2-135.13-208.94
					c124.27,0.55,234.61-58.64,331.69-131.63c109.4-82.26,205.16-181.12,303.6-275.74c158.58-152.42,365.61-352.62,606.99-294.17
					c143.95,34.86,274.97,112.28,395.22,196.47c131.78,92.25,254.48,196.84,376.49,301.45
					c126.36,108.35,251.72,218.32,385.04,318.16c113.72,85.16,235.26,166.49,369.96,214.4
					c438.13,155.85,749.75-309.76,1111.6-459.57c89.31-36.98,194.08-60.77,290.66-42.08c105.85,20.49,199.49,83.23,280.23,152.04
					c195.32,166.42,341.83,383.2,501.26,582.04c74.27,92.62,151.34,185.3,242.47,262c69.77,58.72,151.42,109.36,243.71,120.25
					c71.58,8.45,141.99-8.2,196.93-56.08c52.77-45.98,86.26-110.34,113.96-173.49c54.96-125.35,91.79-282.65,209.52-366.41
					c157.59-112.12,377.07,2.56,519.67,86.36c256.51,150.75,482.45,349.37,718.3,529.27c110.29,84.13,222.71,166.65,342.81,236.39
					c100.71,58.48,210.19,111.03,327.11,124.96c212.44,25.32,413.18-95.8,586.27-203.03c201.34-124.72,405.12-274.85,641.5-323.64
					c242.57-50.07,471.8,58.25,664.41,197.57c219.93,159.08,404.86,361.61,627.31,517.26c183.63,128.48,435.23,237.34,638.06,86.86
					c167.9-124.57,242.48-336.14,405.6-465.29c85.17-67.43,184.85-89.39,291.37-71.72C5770.4,755.65,5802.73,857.8,5831.16,961.13z"
					/>
			</g>
			<g>
				<path d="M5707.3,622.12c-106.46-13.14-203.33,15.31-285.5,84.34c-159.13,133.7-235.52,345.96-408.94,464.99
					c-208.82,143.32-463.85,20.92-645.88-108.93c-221.82-158.24-408.88-359.86-632.58-515.81
					c-195.46-136.26-424.81-234.79-665.66-177c-229.42,55.04-426.4,201.9-623.44,324.53c-176,109.53-379.17,229.03-595.02,194.12
					c-113.14-18.29-218.8-71.15-316.51-129.01c-125.43-74.27-242.74-161.8-358.11-250.63C946.38,332.21,725.04,138.81,473.76-6.57
					C330.15-89.65,109.44-199.88-42.45-75.09C-153.8,16.4-185.15,173.35-243.01,298.4c-27.67,59.79-61.75,119.74-113.55,161.95
					c-56.95,46.41-129.67,59.95-201.28,48.82c-96.84-15.05-181.26-73.37-253.02-137.12c-86.95-77.24-161.98-167.42-234.87-257.71
					c-163.12-202.08-315.42-423.68-520.4-586.65c-77.96-61.98-171.29-121.04-272.11-134.1c-98.9-12.81-200.39,10.69-290.92,49.7
					c-364.05,156.85-675.07,609.83-1117.26,441.15c-135.14-51.55-257.08-134.69-371.72-221.54
					c-133.08-100.81-258.67-211.07-385.66-319.32c-121.64-103.69-244.4-207.06-376.6-297.21
					c-120.08-81.89-251.83-156.84-395.54-186.79c-238.04-49.62-448.18,166.64-601.66,315.76
					c-97.98,95.2-194.11,194.17-304.71,275.04c-97.87,71.56-209.32,127.09-333.34,120.77c-44.11-69.36-86.27-139.8-122.95-213.41
					c125.67-0.8,235.97-66.16,331.66-142.38c111.35-88.7,208.3-194.08,307.6-295.63c92.12-94.21,186.58-190.71,298.62-261.46
					c90.12-56.91,194.91-93.82,301.71-69.54c141.22,32.11,270.75,104.14,390.11,184.09c134.55,90.12,259.75,193.48,384.54,296.43
					c119.86,98.89,239.24,198.77,365.59,289.37c115.89,83.09,239.27,160.94,374.67,207.98c105.96,36.82,216.46,45.91,326.53,23
					c94.31-19.63,182.7-60.06,266.29-107.04c176.77-99.35,338.08-231.78,532.04-297.8c90.18-30.69,190.69-47.02,285.62-31.63
					c113.12,18.35,217.1,79.45,308.73,145.49c221.78,159.84,401.71,371.31,589.52,567.89c86.77,90.82,175.23,181.77,274.91,258.64
					c75.14,57.95,162.75,113.49,259.38,123.26c156.2,15.79,259.81-98.62,330.42-223.33c38.1-67.3,69.16-138.21,104.96-206.7
					c31.03-59.36,66.22-121.35,119.7-163.46C156.25-457.1,360.86-336.25,487.3-256c237.1,150.49,446.27,342.42,666.26,515.91
					c110.5,87.14,223.43,172.65,344.35,244.97c94.78,56.69,199.01,109.55,310.21,122.24c199.84,22.8,381.8-97.64,538.1-206.31
					c175.72-122.17,352.95-268.77,565.46-320.09c236.45-57.1,469.6,59.01,661.91,186.76c228.22,151.61,428.09,342.61,660.44,488.19
					c187.24,117.32,435.87,221.92,638.43,81.03c178.67-124.27,261.33-342.8,433.35-474.02c87.71-66.91,189.23-89.71,297.65-71.92
					C5637.28,414.8,5672.68,518.33,5707.3,622.12z"/>
			</g>
			<g>
				<path d="M5573.95,279.13c-108.38-13.15-207.17,16.19-291.82,84.94c-164.79,133.83-248.67,346.96-425.97,467.5
					c-209.6,142.5-466.38,24.8-655.88-96.83c-231.29-148.45-432.43-338.77-663.58-487.55C3346.84,125,3119.5,18.98,2889.9,79.2
					c-210.79,55.28-385.38,203.03-560.53,325.28c-158.85,110.87-344.76,229.79-547.77,194.98
					c-107.76-18.48-207.99-72.12-300.22-128.65c-120.95-74.13-233.93-160.9-344.68-249.3c-217.05-173.26-424.18-364.95-660.73-512
					c-130-80.82-329.96-190.12-466.94-65.41c-49.34,44.92-82.87,105.32-113.6,163.69c-36.3,68.96-68.84,139.96-109.12,206.77
					c-75.39,125.07-186.83,232.61-344.33,207.63c-98.24-15.58-186.39-75.14-262.69-135.69c-96.35-76.46-183.12-164.68-268.54-252.91
					c-193.54-199.91-380.56-416.08-612.16-573.59c-88.79-60.38-190.65-116.85-298.87-130.32c-100.06-12.45-202.36,5.53-296.4,39.92
					c-187.97,68.75-345.83,196.68-520.16,291.7c-87.43,47.65-180.32,87.48-279.11,103.68c-108.35,17.77-215.45,3.95-318.1-33.7
					c-135.48-49.69-258.9-128.91-375.19-213.17c-131.23-95.09-255.24-199.67-380.44-302.42
					c-119.15-97.79-239.32-195.28-368.43-279.79c-118.91-77.82-248.9-147.78-389.63-175.39c-109.7-21.53-221.05,30.63-309.02,91.51
					c-106.35,73.61-197.35,167.91-287.08,260.31c-98.97,101.91-196.42,207.29-309.17,294.37
					c-96.57,74.58-208.19,136.02-333.61,130.21c-34.33-73.37-61.82-148.91-78.73-228.22c128.24,3.23,241.63-63.27,339.27-140.5
					c115.32-91.22,215.36-200.35,317.02-306.05c90.88-94.49,182.97-191.23,290.89-266.65c89.96-62.86,195.98-110.09,307.29-86.02
					c132.67,28.69,254.61,94.77,367.03,168.89c121.06,79.82,234.02,171.3,346.57,262.48c118.65,96.12,236.84,193.28,362.52,280.21
					c113.6,78.57,234.73,150.55,366.76,193.35c100.05,32.43,205.45,45.02,309.95,30.59c94.36-13.03,184.17-46.61,269.65-87.68
					c168.83-81.11,325.41-191.01,507.44-242.21c96.32-27.09,198.23-35.94,297.26-19.43c117.38,19.57,227.37,75.51,328.01,136.91
					c258.01,157.39,479.44,368.6,707.34,565.07c98.46,84.88,198.25,169.53,306.42,241.94c83.7,56.04,178.43,111.09,280.57,121.84
					c168.48,17.73,303.25-94.2,405.12-215.17c54.57-64.8,102.82-134.48,154.01-201.89c42.73-56.26,87.93-113.81,145.64-155.58
					c55.85-40.41,119.89-56.64,187.98-44.13c98.11,18.03,187.88,71.92,268.93,127.69c217.67,149.78,405.62,339.94,606.18,510.89
					c101.4,86.42,205.63,170.94,318.77,241.67c86.44,54.04,181.68,103.58,283.89,117.63c193.48,26.59,369.58-100.99,514.73-211.85
					c156.85-119.8,315.11-269.82,511.42-319.86c215.9-55.03,432.43,67.3,607.43,181.08c226.28,147.12,429.55,327.97,661.61,466.39
					c107.55,64.15,223.3,119.13,347.97,138.76c105.03,16.53,204.49-9.71,289.24-73.48c172.04-129.44,256.39-343.07,426.59-474.33
					c87.44-67.43,188.71-92.26,297.58-74.97C5511.26,76.99,5541.66,178.35,5573.95,279.13z"/>
			</g>
			<g>
				<path d="M5459.02-56.13c-108.6-12.5-206.93,18.84-291.1,88.04c-165.53,136.09-250.22,350.36-426.72,474.86
					c-88.5,62.43-189.05,80.51-294.85,60.86c-124.39-23.11-239.84-81.48-346.88-147.01c-230.03-140.85-433.04-320.97-660.26-466.06
					c-174.89-111.68-387.05-225.88-599.64-162.7c-194.41,57.78-350.21,208.96-508.36,328.67
					c-142.65,107.98-315.59,227.47-504.33,197.28c-107.61-17.21-207.03-72.29-297.08-131.2
					c-112.4-73.53-216.22-159.73-317.55-247.63C1015.88-231.4,830.53-420.9,613.39-565.45c-76.52-50.94-161.79-99.59-253.98-113.74
					c-68.22-10.47-131.83,9.97-186.53,50.77C111.98-583,63.98-521.59,17.78-461.99c-50.53,65.18-99.22,131.91-153.96,193.7
					C-245.02-145.41-389.92-35.9-563.67-65.69c-99.92-17.13-191.88-72.13-274.6-128.09c-114.62-77.55-220.64-167.5-325.75-257.27
					c-225.41-192.53-446.92-397.94-703.76-548.68c-104.95-61.6-219.3-115.86-341.44-130.17c-94.87-11.12-190.56-0.74-282.03,26.11
					c-180.19,52.9-335.7,161.77-504.75,240.04c-85.75,39.7-175.94,71.1-270.26,81.66c-111.45,12.48-222.96-5.83-327.88-44.12
					c-268.19-97.87-491.44-296.18-710.16-473.11c-111.28-90.01-223.3-180-343.76-257.6c-111.54-71.85-233.03-134.94-364.6-159.4
					c-108.9-20.24-218.29,38.61-303.16,100.63c-107.51,78.55-199.92,176.71-291.87,272.35
					c-101.42,105.5-202.12,214.07-319.01,302.88c-98.84,75.1-213.74,136.61-341.41,125.83c-14.34-84.73-13.02-167.5-3.71-252.69
					c133.14,11.46,254.86-45.18,361.41-120.36c120.44-84.98,224.99-191.11,329.83-294.04c97.73-95.95,195.59-195.31,309.43-272.44
					c90.76-61.5,193.51-105.42,304.39-82.11c111.85,23.52,214.45,79.26,308.7,142.26c111.33,74.4,214.12,160.85,317.11,246.16
					c197.83,163.88,405.03,343.41,655.03,420.59c96.42,29.77,198.81,43.3,299.48,33.57c88.88-8.58,174.52-35.02,256.78-68.95
					c160.74-66.3,311.72-158.28,483.48-194.93c92.75-19.79,185.74-20.26,279.38-6.44c130.92,19.33,255.11,77.67,370.43,140.15
					c283.29,153.48,537.82,355.25,797.86,543.92c114.57,83.13,230.29,165.87,353.04,236.64c94.4,54.42,197.9,107.12,307.93,118.16
					c190.66,19.14,364.12-92.82,505.14-208.31c73.28-60.02,142.14-125.09,212.76-188.16c64.17-57.32,130.45-115.48,206.66-156.42
					c62.94-33.81,132.25-51.9,203.54-38.96c92.17,16.73,175.37,70.11,249.2,125.24c199.07,148.64,365.86,337.54,546.89,506.59
					c88.35,82.51,179.67,163.12,279.81,231.19c83.65,56.87,177.6,108.98,279.48,121.88c188.43,23.87,363.32-107.05,503.63-215.16
					c81.91-63.11,161.25-129.61,245.12-190.15c78.51-56.67,163.04-111,257.15-137.35c200.53-56.14,398.88,67.33,553.84,181.75
					C3709.86-142.21,3893.74,36,4112.03,167.39c99.68,60,208.38,112.08,323.99,131.57c100.71,16.97,196.36-11.91,275.65-75.02
					c168.06-133.78,245.18-350.46,410.83-486.94c83.62-68.9,181.76-97.08,289.04-80.91C5419.54-246.76,5436.92-151.01,5459.02-56.13
					z"/>
			</g>
			<g>
				<path d="M5390.4-371.99c-106.76-11.18-201.64,23.57-281.67,94.04c-160.13,141.01-237.17,357.9-409.58,486.52
					c-82.7,61.7-179.47,83.21-280.57,62.84c-115.75-23.32-223.71-77.03-323.24-139.13c-214.09-133.57-394.1-312.1-596.7-461.11
					c-155.03-114.03-350.02-228.12-547.99-165.23c-94.04,29.87-178.24,86.07-257.09,144.01
					c-83.74,61.54-163.44,128.33-246.14,191.24C2306.33-51.47,2130.44,74.5,1942.5,42.77c-102.68-17.33-196.36-72.38-280.21-131.72
					c-99.17-70.19-189.8-152.03-277.74-235.6c-177.25-168.44-341.72-356.77-540.25-501.12c-72.45-52.68-155.15-103.37-245.68-115.27
					c-72.43-9.52-142.45,13.13-205.1,48.22c-77.54,43.43-145.72,102.57-212.4,160.75c-72.6,63.34-143.95,128.19-219.95,187.48
					C-184.19-431.08-363.14-323.93-555.2-351.35c-112.36-16.04-217.55-71.71-314.2-128.4c-124.55-73.05-242.54-157.06-359.66-241.31
					c-261.5-188.1-518.96-388.68-805.54-538.02c-115.89-60.39-237.1-111.29-367.21-129.63c-91.86-12.95-184.37-8.91-274.77,11.84
					c-169.38,38.87-318.71,130.15-478.93,193.57c-82.45,32.64-168.38,56.92-257.15,63.22c-101.82,7.23-205.4-8.86-301.99-41.18
					c-246.06-82.32-449.11-261.25-645.23-424.42c-100.76-83.83-201.75-168.48-311.65-240.27
					c-92.7-60.56-194.09-113.11-304.12-132.48c-109.96-19.35-215.44,34.25-302.87,95.75c-113.65,79.95-212.18,180.16-311.47,276.71
					c-104.52,101.64-209.7,205.3-331.6,286.28c-109.57,72.79-233.84,123.71-367.34,105.73c10.77-89.34,27.29-177.69,47-265.46
					c144.1,12.26,279.05-39.85,401.21-112.32c130.13-77.2,247.24-174.44,364.34-269.65c114.18-92.83,228.91-189.04,358.51-259.99
					c95.5-52.28,207.1-92.68,316.96-68.05c95.64,21.44,180.55,76.96,256.44,136.94c84.13,66.5,160.78,141.93,238.22,215.92
					c158.26,151.2,332.36,308.08,546.33,373c174.16,52.85,352.98,35.61,521.48-27.24c149.02-55.58,290.15-133.14,448.56-160.19
					c228.89-39.09,448.69,39.93,651.24,140.71c304.8,151.66,586.5,346.31,873.39,528.41c131.18,83.26,263.41,166.02,402,236.54
					c99.99,50.88,206.64,99.22,319.18,112.51c215.79,25.48,428.85-85.66,608.13-192.7c100.42-59.95,197.26-125.55,295.79-188.48
					c83.44-53.29,168.62-106.25,260.42-144.07c78.13-32.19,164.3-52.97,248.64-35.67c84.36,17.3,159.49,67.58,225.69,120.52
					c183.15,146.43,330.89,334.09,493.82,501.49c79.59,81.77,162.34,161.8,254.67,229.22c77.81,56.82,166.79,108.65,264.12,120.29
					c194.97,23.32,380.81-113.99,528.34-223.02c87.18-64.43,171.83-132.34,260.68-194.51c81.23-56.84,168.18-112.45,264.53-139.47
					c184.27-51.68,353.24,56.17,484.67,175.51c166.38,151.08,307.69,329.41,494.45,457.39c95.62,65.53,205.48,120.19,321.52,136.02
					c94.82,12.94,186.07-17.2,262.63-72.61c174.11-126,263-333.27,422-474.23c75.84-67.23,164.71-104.07,266.84-92.22
					C5388.84-545.09,5385.95-459.06,5390.4-371.99z"/>
			</g>
			<g>
				<path d="M5402.18-652.53c-101.4-6.28-187.41,36.75-260.55,104.44C4986.4-404.45,4893.79-198.33,4715.3-78.52
					c-79.51,53.37-173.18,78.29-268.21,60.96c-115.4-21.05-221.89-75.16-316.57-143.08c-181.2-129.99-317-308.16-480.79-457.28
					c-67.99-61.9-143.03-118.94-229.77-151.66c-86.67-32.69-174.07-35.63-262-6.14c-92.65,31.07-176.44,85.84-255.69,141.83
					c-92.87,65.61-181.62,136.81-273.74,203.43c-147.76,106.87-336.48,238.61-529.52,202.19
					c-93.52-17.64-177.98-69.51-252.89-126.11c-91.33-69.01-173.32-149.9-252.39-232.4c-159.9-166.85-305.78-353.92-488.59-496.99
					c-68.23-53.39-146.64-103.24-234.19-115.08c-83.36-11.28-167.04,11.61-243.37,43.69C424.96-1069.99,248-930.31,58.43-820.89
					C-123.24-716.03-339.7-607.69-556.2-638.47c-119.66-17.01-232.73-70.93-338.83-126.33
					c-137.44-71.76-269.27-154.05-400.29-236.78c-289.76-182.99-575.41-378.46-885.07-527.04
					c-199.27-95.62-413.59-164.89-635.92-122.24c-155.66,29.86-294.62,107.3-442.52,160.4c-168.66,60.55-350.45,73.56-522.33,15.9
					c-210.15-70.49-373.59-228.19-529.53-378.88c-75.81-73.26-151.41-147.54-234.98-212.07c-74.82-57.78-160-111.37-254.61-127.95
					c-113.49-19.9-228.53,26.53-325.44,81.38c-130.15,73.66-246.17,170.52-362.4,263.83c-117.31,94.18-235.35,189.88-366.79,263.96
					c-123.67,69.7-259.71,116.22-403.02,97.65c21.19-90.55,45.53-180.28,71.11-269.68c143.42,13.94,279.45-32.33,404.48-99.38
					c138.17-74.09,263.74-169.5,390.36-261.28c117.09-84.88,235.84-170.61,366.92-232.83c110.24-52.33,241.39-92.51,363.92-64.6
					c87.65,19.96,165.9,70.43,235.5,125.54c82.98,65.7,157.44,141.5,231.76,216.61c132.73,134.14,274.57,292.14,459.88,351.33
					c159.34,50.89,327.29,22.42,478.56-39.51c134.41-55.02,262.46-125.6,407.69-148.58c85.71-13.57,173.71-11.92,258.96,4.14
					c124.24,23.42,243.34,78.59,356.41,133.31c318.08,153.93,617.27,344.76,921.87,523.06c142.58,83.46,286.19,166.25,435.52,237.17
					c107.12,50.87,221.48,100.95,340.76,112.65c107.87,10.58,217.35-11.49,320.34-42.1c126.3-37.54,247.64-90.54,366.45-147.04
					c224.7-106.87,442.37-240.27,680.38-316.19c87.46-27.9,183.07-48.21,274.89-31.84c86.52,15.42,162.97,66.56,229.19,121.97
					c171.51,143.5,304.75,329.2,453.33,494.89c75.1,83.75,153.71,166.04,243.52,234.26c70.72,53.73,152.23,101.74,241.81,113.07
					c96.19,12.16,193.17-16.85,280.21-55.6c100.89-44.91,194.47-105.21,285.46-167.31c99.45-67.88,196.12-139.83,296.96-205.66
					c84.78-55.34,174.13-109.24,271.79-138.41c85.83-25.64,173.92-24.14,255.91,13.84c76.31,35.35,136.02,96.7,187.4,161.86
					c118.78,150.64,207.98,325.01,358.61,448.54c79.05,64.83,172.88,112.17,274.29,128.94c101.64,16.8,202.75-9.62,291.14-60.08
					c189.24-108.05,311.15-296.35,482.25-426.72c77.26-58.87,164.45-97.97,263.21-89.95
					C5471.74-798.5,5429.96-729.65,5402.18-652.53z"/>
			</g>
			<g>
				<path d="M5521.28-880.97c-98.62-3.14-184.69,40.03-261.03,99.25c-169.9,131.81-296.7,317.81-489.98,419.64
					c-91.27,48.08-193.8,69.51-295.89,48.99c-103.51-20.8-196.97-72.42-275.16-142.62c-141.9-127.41-223.65-301.03-340.97-448.27
					c-48.75-61.18-106.31-117.27-178.97-148.79c-83.49-36.22-172.23-33.58-257.84-6.13c-102.82,32.96-196.63,91.38-286.1,150.58
					c-97.18,64.31-191.09,133.41-287.76,198.49c-94.86,63.85-192.81,125.73-298.85,169.46c-84.03,34.65-177.34,59-268.66,44.74
					c-93.48-14.59-177.57-68.01-250.17-126.07c-88.54-70.82-166.38-154.43-241.16-239.31c-145.29-164.91-277.24-349.8-449.72-488.13
					c-64.28-51.55-138.09-97.33-220.84-110.11c-97.94-15.13-198.96,8.73-291.52,39.58c-241.04,80.34-462.61,213.07-692.56,319.29
					C14.63-1045.19-107.54-993.74-234.56-958.5c-106.25,29.48-219.06,48.97-329.15,31.93c-116.9-18.09-228.36-68.48-333.99-119.64
					c-150.45-72.87-295.53-156.66-439.73-241.05c-303.1-177.36-601.51-366.68-918.88-518.06
					c-113.33-54.06-233.11-108.75-358.27-127.78c-80.47-12.24-162.54-12.78-242.84,1.13c-143.75,24.91-270.1,96.86-403.48,151.56
					c-153.12,62.79-326.74,89.73-486.13,31.47c-182.38-66.67-321-225.3-454.19-359.44c-71.1-71.6-142.87-143.33-222.62-205.42
					c-72.09-56.13-154.53-108.08-245.97-124.09c-127.18-22.27-259.39,21.8-372,77.7c-130.38,64.72-249.04,151.03-366.7,235.98
					c-227.19,164.05-493.2,382.13-792.84,340.11c26.54-90.66,54.14-180.99,81.26-271.48c285.42,32.86,537.47-170.44,758.2-322.33
					c119.31-82.11,240.72-164.58,374.31-221.97c114.36-49.13,245.35-81.23,369.63-55.13c96.22,20.21,183.34,72.56,261.61,130.22
					c84.26,62.08,161.28,133.4,237.33,205.09c76.7,72.32,152.22,146.29,234.01,212.94c68.27,55.64,142.84,108.73,227.31,136.48
					c155.85,51.2,317.27,11.33,457.95-62.33c123.83-64.84,240.87-145.87,380.68-172.37c211.55-40.1,416.2,50.12,600.44,144.36
					c315.05,161.15,612.22,355.76,918.15,533.1c142.06,82.34,285.67,163.03,434.68,232.24c100.78,46.8,209.07,95.01,320.54,108.41
					c110.52,13.29,224.32-11.52,330.45-40.45c135.89-37.05,267.83-87.83,398.07-141.07c259.7-106.15,514.99-235.8,786.94-308.49
					c99.22-26.52,207.52-47.17,309.89-26.99c84.92,16.74,160.61,63.89,226.66,118.12c171.74,141,300.2,329.4,444.04,496.86
					c70.88,82.53,145.26,163.72,231.08,231.05c71.73,56.27,155.41,105.47,247.71,115.26c101.76,10.8,204.37-19.67,297.28-58.54
					c109.02-45.62,211.37-106.18,311.41-168.67c109.45-68.37,216.38-140.77,327.01-207.25c96.84-58.19,198.29-115.09,307.89-145.28
					c84.26-23.21,176.74-27.92,256.03,14.17c64.08,34.01,106.43,94.04,138.17,157.54c72.96,145.96,106.76,312.98,218.83,437.22
					c143.09,158.63,368.43,167.26,557.1,92.86c216.23-85.27,383.25-251.97,583.64-364.51c86.35-48.49,179.74-82.4,280.03-73.82
					C5640.89-1003.89,5577.6-946.01,5521.28-880.97z"/>
			</g>
			<g>
				<path d="M5709.41-1075.61c-100.96-4.46-194.48,32.18-281.13,81.07c-201.17,113.5-373.39,276.99-593.5,356.31
					c-189.07,68.14-413.18,54.47-549.24-108.4c-107.74-128.97-134.09-298.44-209.05-444.57c-32.17-62.71-76.82-119.1-142.51-148.52
					c-80.11-35.89-170.87-27.06-252.97-2.83c-110.62,32.65-213.07,90.65-311.34,149.83c-111.34,67.05-219.27,139.58-329.92,207.73
					c-104.22,64.2-211.24,126.32-325.62,170.77c-92.36,35.89-195.61,62.86-295.15,45.86c-91.99-15.71-174.33-68.5-245.16-126.88
					c-84.82-69.91-158.69-152.44-229.58-236.1c-139.08-164.14-265.64-347.6-434.76-483.13c-69.61-55.79-149.7-102.59-239.19-115.63
					c-105.91-15.43-215.69,7.82-317.36,36.4c-274.16,77.09-532.18,206.22-795.82,311.94c-129.15,51.79-260.22,101.08-394.92,136.55
					c-104.3,27.47-216.11,49.04-324,31.97c-119.76-18.95-234.68-72.11-342.96-124.38c-143.8-69.42-282.93-148.41-420.7-229.01
					c-302.62-177.04-597.03-371.06-910.19-529.41c-180.82-91.43-382.02-175.83-588.28-132.05
					c-141.41,30.01-258.32,115.83-384.39,181.24c-137.74,71.47-297.91,106.79-448.9,54.08c-84.35-29.45-158.79-83.34-227.3-139.46
					c-82-67.16-158.09-141.22-235.57-213.44c-79.66-74.26-160.62-148.03-249.75-210.92c-79.05-55.78-167.45-105.55-264.06-121.62
					c-127.65-21.22-259.07,14.63-374.76,67.04c-132.13,59.86-252.5,142.81-371.58,224.78
					c-218.46,150.39-470.89,347.28-753.24,302.75c27.2-89.98,53.69-180.16,78.05-270.95c265.42,34.87,498.66-150.54,704.94-290.52
					c205.1-139.18,445.32-299.16,706.17-252.67c107.56,19.17,207.2,71.38,298.23,129.96c99.04,63.73,190.93,137.95,281.53,212.97
					c88.3,73.13,175.22,148.27,267.62,216.24c74.04,54.46,153.39,107.04,241.62,135.29c158,50.59,312.29,0.07,444.77-88.95
					c116.77-78.46,224.79-177.14,364.17-213.47c202.29-52.74,403.75,44.85,577.28,139.45c301.2,164.21,582.91,362.53,874.8,542.28
					c135.9,83.68,273.64,165.44,417.23,235.37c105.72,51.49,218.66,101.9,336.65,115.41c109.51,12.55,221.21-10.91,326.05-40.97
					c130.48-37.42,256.77-88.64,381.8-141.11c263.7-110.66,525.49-238.49,804.25-307.49c105.98-26.23,219.73-45.72,328.67-27.27
					c96.75,16.38,184.02,65.33,260.89,124.66c180.07,138.99,314.56,328.52,463.14,498.41c126.31,144.43,284.88,321,487.17,346.03
					c107.73,13.33,217.4-17.12,317.12-55.37c121.92-46.76,237.23-109.69,350.34-174.45c119.49-68.4,236.79-140.61,357.48-206.9
					c108.4-59.54,221.2-117.51,341.65-148.33c85.88-21.97,185.77-31.41,266.66,12.47c58.49,31.73,90.59,89.38,108.23,151.57
					c40.74,143.62,24.42,306.94,108.46,436.7c114.5,176.78,374.3,154.55,551.24,108.79c244.72-63.3,458.72-201.33,693.07-291.07
					c100.58-38.52,206.27-65.61,314.6-53.46C5849.92-1186.02,5778.62-1132.14,5709.41-1075.61z"/>
			</g>
			<g>
				<path d="M5922.51-1258.04c-109.75-8.6-216.38,20.45-318.07,59.34c-236.19,90.32-454.86,224.9-703.07,283.03
					c-176.01,41.22-433.74,58.6-539.75-122.6c-77.45-132.38-56.26-293.26-97.83-436.18c-18.56-63.82-54.21-119.95-116.1-148.74
					c-86.01-40.01-188.14-26.26-276.31-1.35c-121.81,34.41-235.96,93.98-346.24,154.96c-121.32,67.08-239.63,139.41-360.41,207.44
					c-115.13,64.84-232.91,127.6-357.67,172.03c-97.2,34.62-204.39,60.72-307.88,43.1c-204.75-34.86-362.12-214.84-491.11-363.42
					c-147.46-169.86-283.86-358.74-467.02-492.84c-76.83-56.25-163.49-100.71-258.71-113.79c-113.77-15.62-231.19,6.64-341.04,35.61
					c-277.68,73.24-538.22,201.71-802.1,312.33c-123.09,51.6-247.7,101.68-376.61,136.95c-105.38,28.83-216.9,48.99-326.01,31.7
					c-117.73-18.66-229.82-70.49-335.55-123.45c-146.76-73.52-287.64-158.61-426.79-245.5
					c-287.45-179.5-565.65-377.12-864.68-537.35c-168.79-90.44-363.54-178.1-557.83-121.72
					c-139.43,40.46-246.29,142.77-364.22,221.87c-133.26,89.37-289.22,134.86-446.16,80.01c-90.98-31.8-172.66-87.49-249.41-144.64
					c-91.35-68.01-177.96-142.12-266.17-214.08c-93.29-76.11-188.22-151.14-290.85-214.42c-90.25-55.65-188.99-104.36-294.78-120.53
					c-263.58-40.28-502.55,124.66-709.13,265.3c-204.14,138.99-437.11,317.78-699.57,272.35c23.53-88.75,44.7-178.05,62.05-268.23
					c247.88,33.45,461.74-134.72,654.14-266.23c196.65-134.42,415.15-273.54,664.15-228.07c117.63,21.48,227.99,74.77,330.77,134.19
					c114.08,65.96,221.62,142.61,328.03,220.12c101.63,74.04,202.1,149.98,307.36,218.86c86.18,56.4,177.24,110.81,276.49,140.67
					c81.55,24.53,168.18,26.07,249.35-0.95c72.2-24.03,135.39-67.98,193.34-116.35c111.73-93.25,212.35-211.65,353.54-261
					c195.76-68.42,391.54,36.06,556.88,133.92c285.19,168.81,549.17,371.79,824.7,555.46c129.85,86.56,261.85,171.06,400.54,242.91
					c101.05,52.35,209.76,103.33,324.03,116.81c105.36,12.43,212.3-11.79,312.08-44c122.35-39.49,239.7-93.47,355.74-148.38
					c245.53-116.18,489.94-248.44,754.5-316.6c108.96-28.07,224.3-44.99,336.22-25.6c100.42,17.4,191.85,67.46,273.38,126.95
					c194.29,141.75,345.99,334.44,509.03,509c138.33,148.1,305.18,325.92,517.73,352.41c110.22,13.73,222.38-15.7,325.22-53.08
					c129.18-46.96,251.91-110.6,372.82-175.48c129.92-69.7,258.08-142.74,389.8-209.04c117.7-59.24,239.7-116.31,368.41-147.03
					c94.63-22.59,203.06-31.71,293.12,12.67c61.25,30.18,94.37,86.35,106.07,152.06c25.01,140.46-25.2,296.9,38.78,430.21
					c35.63,74.23,106.58,111.62,184.85,126.33c122.35,22.99,248.55,14.74,370.65-5.71c274.17-45.93,530.77-156.2,799.46-223.15
					c115.55-28.79,235.04-48.38,353.97-31.62C6057.26-1368.57,5990.58-1312.5,5922.51-1258.04z"/>
			</g>
			<g>
				<path d="M6116.49-1449.82c-120.88-13.55-241.75,7.55-358.87,36.74c-270.6,67.45-530.79,174.66-807.74,216.47
					c-120.95,18.26-247.1,25.07-367.54-0.68c-76.66-16.39-142.63-58.11-174.17-131.85c-58.58-136.97-3.71-291.91-34.34-433.71
					c-41.44-191.82-270.33-187.14-422.05-147.25c-130.16,34.22-253.36,92.47-372.83,153.41c-131.43,67.04-259.6,140.21-389.83,209.5
					c-119.97,63.83-242.07,126.16-370.78,170.61c-102.4,35.37-213.26,60.87-321.8,43.34c-98.53-15.91-187.24-66.97-265.56-126.84
					c-91.94-70.28-173.14-153.9-251.91-238.32c-164.42-176.19-319.38-370.78-518.95-509.28c-83.2-57.74-175.54-103.39-276.78-117.03
					c-113.61-15.3-229.93,5.08-339.33,35.55c-262.04,72.99-503.55,206.17-747.93,322.41c-113.8,54.13-229.22,107.02-349.8,144.36
					c-98.48,30.49-203.4,51.29-306.51,35.48c-115.67-17.74-225.4-71.44-327.6-126.07c-138.5-74.04-270.54-159.95-400.57-247.82
					c-273.9-185.09-536.77-389.69-822.85-556.09c-163.19-94.92-353.55-188.13-542.79-113.26
					c-139.19,55.06-237.55,175.4-350.08,268.7c-58.17,48.23-122.2,91.29-195.14,113.39c-83.01,25.15-169.76,19.76-251.59-6.99
					c-100.45-32.83-192.72-88.71-280.53-146.49c-106.32-69.95-208.2-146.4-311.48-220.7c-107.27-77.17-215.92-153.24-331.22-218.08
					c-105.24-59.19-218.1-110.94-338.33-129.43c-246.86-37.96-463.99,108.45-657.64,241.38
					c-191.11,131.19-404.87,292.66-650.82,249.94c15.82-87.23,27.61-174.96,33.86-263.41c240.63,27.18,442.38-125.49,629.78-254.23
					c185.72-127.59,387.34-254.62,622.33-210.34c126.74,23.88,246.47,80.23,358.99,141.52c124.89,68.03,244.05,146.08,362.44,224.7
					c116.36,77.27,231.83,156.2,351.94,227.59c97.58,58,199.62,113.38,309.15,145.19c86.79,25.21,175.77,28.5,260.83-5.19
					c72.85-28.86,134.54-79.35,190.15-133.5c109.28-106.41,203.98-242.18,346.95-306.34c72.53-32.55,155.12-41.15,232.91-24.44
					c112.99,24.27,218.14,89.96,314.06,151.63c270.01,173.6,516.58,381.81,776.04,570.3c120.92,87.84,244.17,173.66,374.69,246.77
					c96.35,53.97,202.97,108.57,314.42,120.72c96.91,10.56,194.18-14.63,284.04-49.06c110.72-42.42,215.22-100.1,318.23-158.33
					c217.67-123.04,434.52-261.79,676.5-332.43c103.41-30.19,213.28-46.61,320.4-28.24c107.28,18.39,205.56,71.51,293.99,133.07
					c211.58,147.27,382.9,345.59,564.73,526.24c87.02,86.45,176.68,171.99,277.25,242.71c82.42,57.96,174.44,106.27,275.65,118.75
					c112.57,13.89,226.73-16.03,331.55-54.84c127.71-47.28,248.88-111.08,368.31-176c131.06-71.24,260.41-145.78,393.78-212.68
					c119.07-59.72,242.78-115.82,373.25-145.31c165.62-37.44,382.96-24.1,439.15,167.01c21.14,71.92,19.77,148.55,19.99,222.77
					c0.2,69.35-1.84,143.93,25.39,209.14c32.45,77.69,107.28,111.94,186.43,125.04c123.83,20.49,252.07,12.17,376.02-2.81
					c301.95-36.5,593.96-125.66,893.77-173.91c125.71-20.23,254.55-33.01,381.12-13.11
					C6221.13-1575.36,6172.24-1510.22,6116.49-1449.82z"/>
			</g>
		</g>
	</g>
</g>
</svg>
