<?xml version="1.0" encoding="utf-8"?>
<!-- Generator: Adobe Illustrator 24.1.1, SVG Export Plug-In . SVG Version: 6.00 Build 0)  -->
<svg version="1.1" id="Layer_1" xmlns="http://www.w3.org/2000/svg" xmlns:xlink="http://www.w3.org/1999/xlink" x="0px" y="0px"
	 viewBox="0 0 1920 1080" style="enable-background:new 0 0 1920 1080;" xml:space="preserve">
<style type="text/css">
	.st0{clip-path:url(#SVGID_2_);}
</style>
<g>
	<defs>
		<rect id="SVGID_1_" width="1920" height="1080"/>
	</defs>
	<use xlink:href="#SVGID_1_"  style="overflow:visible;fill:#FFFFFF;"/>
	<clipPath id="SVGID_2_">
		<use xlink:href="#SVGID_1_"  style="overflow:visible;"/>
	</clipPath>
	<g class="st0">
		<g>
			<g>
				<path d="M5667.55-232.04c-132.54,35.97-239.41,121.93-325.84,226.37c-197.15,238.24-287.38,540.06-452.04,798.17
					c-64.9,101.74-149.6,200.41-266.5,241.98c-98.94,35.18-205.43,43.32-309.38,31.9c-189.61-20.83-359.72-106.43-541.38-157.11
					c-74.65-20.83-153.09-33.8-230.32-20.53c-88.08,15.14-158.55,63.66-220.38,126.26c-80.49,81.5-146.82,176.79-211.16,271.14
					c-75.61,110.89-147.82,224.06-223.62,334.82c-70.6,103.18-143.84,205.27-226.95,298.85c-64.7,72.86-137.52,145.86-225.5,190.2
					c-156.37,78.81-325.25-4.89-460.37-88.97c-149.5-93.03-288.4-217.39-455.69-278.16c-68.33-24.82-142.34-34.41-212.65-11.81
					c-98.2,31.56-183.66,98.21-262.25,162.84c-240.74,198.01-456.13,426.14-687.8,634.46c-119.78,107.71-242.46,212.67-371.81,308.8
					c-101.39,75.35-208.55,150.48-325.68,199.47c-109.67,45.87-230.43,41.5-346.58,29.24c-158.42-16.73-314.8-51.48-469.68-87.82
					c-324.36-76.09-648.19-175.66-980.42-211.53c-115.39-12.46-241.17-19.88-352.82,18.38c-88.39,30.29-167.11,101.23-234.4,163.81
					c-164.63,153.09-299.7,334.89-443.15,507.08c-66.61,79.96-134.89,159.2-210.86,230.51c-64.24,60.3-136.79,119.75-220.01,151.52
					c-155.8,59.48-323.79-5.71-474.09-51.52c-188.37-57.42-388.87-102.71-581.55-36.69c-239.4,82.03-386.13,299.87-532.55,492.8
					c-160.6,211.61-334.28,435.29-584.36,544.47c-18.47-50.93-37.25-101.74-56.2-152.49c260.57-79.62,431.67-309.39,575.2-527.15
					c74.65-113.26,144.35-230.26,226.53-338.35c69.01-90.77,148.45-175.33,252.62-225.17c90.62-43.35,187.46-63.07,287.88-56.59
					c90.08,5.81,177.45,30.49,262.25,60.24c140.27,49.22,294.02,130.37,446.77,94.1c84.05-19.96,157.52-74.38,222.17-129.49
					c79.8-68.03,151.1-145.71,220.22-224.36c153.89-175.13,296.9-361.1,466.86-521.42c74.86-70.61,155.98-137.54,247.85-184.93
					c100.77-51.98,229.23-45.22,338.65-35.05c158.03,14.69,314.01,49.27,468.03,86.47c179.7,43.4,357.88,92.78,536.82,139.18
					c163.39,42.37,327.79,84.15,494.71,110.21c122.54,19.13,255.82,34.98,377.59,2.78c115.26-30.48,220.94-99.3,316.79-167.97
					c122.36-87.65,235.92-187.37,345.08-290.8c220.8-209.2,418.32-440.81,635.47-653.47c72.94-71.43,150.68-146.4,242.83-192.64
					c66.66-33.45,135.73-40.87,208-22.34c77.81,19.95,149.32,60.8,217.02,102.9c79.78,49.62,156.33,104.22,235.55,154.71
					c134.12,85.49,308.03,189.43,473.15,137.29c87.82-27.73,161.09-95.63,222.96-161.19c82.05-86.93,152.55-184.47,219.82-283.03
					c75.3-110.32,146.09-223.63,219.54-335.18c66.9-101.6,135.44-203.79,217.5-293.96c63.01-69.24,134.98-129.98,226.53-155.88
					c85.11-24.07,174.39-19.68,260.49-3.46c202.81,38.22,393.17,124.34,597.54,157.26c110.02,17.72,222.71,21.63,331.94-3.36
					c120.23-27.5,209.4-103.24,284.88-198.09c92.64-116.43,164.38-248.52,240-376.16c79.54-134.24,162-268.29,264.48-386.54
					c94.61-109.17,207.2-202.98,344.27-252.76C5685.3-304.71,5674.57-269.24,5667.55-232.04z"/>
			</g>
			<g>
				<path d="M5768.54-362.61c-139.78,32.51-258.71,113.04-358.49,214.28c-216.91,220.05-337.48,508.73-514.21,757.92
					c-69.6,98.13-155.49,200.09-272.4,241.73c-104.77,37.32-221.29,39.49-330.62,27.22c-210.95-23.68-406.2-107.89-611.58-155.34
					c-84.44-19.51-172.27-31.32-258.56-17.55c-92.77,14.81-169.31,59.8-236.45,124.36c-83.93,80.71-151.98,177.52-217.01,273.56
					c-74.18,109.54-144.08,221.9-217.15,332.17c-68.96,104.06-140.2,207.43-221.81,302.09c-62.19,72.13-132.2,144.39-217.88,188.41
					c-157.52,80.92-333.65-4.06-471.33-86.8c-151.57-91.08-292.34-214.4-460.24-275.11c-65.14-23.55-136.2-33.66-203.02-10.73
					c-89.89,30.85-165.53,96.9-234.12,160.41c-99.55,92.17-191.38,192.57-283.96,291.61c-107.97,115.5-216.15,230.85-328.73,341.89
					c-111.19,109.66-226.4,215.93-349.95,311.61c-99.02,76.68-204.72,150.38-321.44,197.55c-109.91,44.42-228.09,43.89-344.41,31.74
					c-162.76-17-323.1-55.32-481.57-94.97c-342.62-85.72-683.04-196.72-1033.76-245.21c-119.3-16.5-248.13-28.95-366.01,3.11
					c-94.46,25.69-179.85,96.15-252.49,159.1c-177.4,153.72-323.15,340.56-475.85,517.72c-71.75,83.24-144.87,165.96-225.68,240.61
					c-65.31,60.33-139.04,121.84-223.45,153.16c-148.72,55.19-301.92-15.74-440.75-67.24c-173.84-64.49-359.12-111.02-539.69-42.77
					c-234.12,88.5-361.29,325.21-489.29,524.77c-143.14,223.17-303.29,465.3-557.56,571.22c-19.04-51.27-38.24-102.49-57.5-153.68
					c264.57-77.77,419.89-328.18,544.6-556.34c65.58-119.98,125.53-243.52,199.17-358.9c61.35-96.12,134.89-190.22,238.42-243.07
					c84.09-42.93,176.8-61.81,270.92-52.89c83.49,7.91,163.29,35.63,239.92,68.5c130.96,56.16,271.93,145.36,420.54,115.26
					c87.53-17.73,164.7-74.17,232.52-129.6c85.98-70.26,163.5-150.52,239.08-231.64c165.71-177.87,321.95-366.85,507.29-525.18
					c80.13-68.45,167-132.59,264.24-174.59c108.73-46.96,239.17-36.5,353.71-22.82c168.47,20.11,334.33,60.66,498.49,102.51
					c182.43,46.5,363.57,97.83,545.56,145.99c163.25,43.2,327.61,85.44,494.64,111.39c122.04,18.96,253.88,33.53,375.12,1.78
					c113.15-29.63,215.95-96.34,308.24-166.14c115.39-87.27,220.25-188.11,319.48-293.15c194.52-205.92,361.48-434.59,548.29-647.01
					c63.11-71.77,131.25-148.44,216.03-195.15c63.28-34.86,131.9-40.63,201.6-23.62c79.88,19.48,153.7,60.34,223.84,102.05
					c82.07,48.8,161.22,102.31,242.96,151.64c142.03,85.73,323.54,187.99,495.06,136.32c87.65-26.41,160.71-93.14,222.32-158.16
					c84.44-89.12,156.33-189.78,225.25-291.09c74.67-109.76,145.31-222.19,219.65-332.17c68.62-101.53,139.96-203.1,225.92-290.91
					c71.13-72.67,152.35-131.54,252.24-156.12c95.16-23.41,194.33-18.65,290.3-2.85c220.21,36.25,429.06,122.01,649.41,157.56
					c111.06,17.92,224.35,20.45,334.68-3.81c122.75-27,216.43-106.23,298.31-198.33c98.92-111.27,181.6-236.23,268.74-356.62
					c93.57-129.29,191.3-257.01,307.32-367.21c107.47-102.09,230.82-187.01,373.23-231.5
					C5800.04-429.53,5783.08-396.82,5768.54-362.61z"/>
			</g>
			<g>
				<path d="M5891.42-482.43c-144.16,28.74-272.32,101.28-384.1,195.23C5265.58-84,5112.06,194.53,4914.09,435.76
					c-76.1,92.73-166.93,192.05-282.95,233.71c-105.13,37.75-225.87,40.01-335.66,27.76c-223.84-24.97-435.51-111.03-655.42-155.6
					c-96.51-19.56-196.35-31.3-294.43-16.99c-99.27,14.48-184.54,57.28-259.46,123.45c-88.51,78.17-160.39,174.37-227.92,270.61
					c-77.08,109.85-148.59,223.48-222.92,335.18c-68.51,102.95-138.84,205.42-219.36,299.46
					c-62.54,73.05-133.43,146.32-220.34,190.11c-162.3,81.76-348.72-4.68-492.44-86.35c-156.26-88.8-301.97-209.38-472.73-269.95
					c-65.46-23.22-137.38-34.28-204.33-10.43c-84.33,30.05-152.04,98.77-211.74,162.78c-85.76,91.96-163.45,191.32-242.32,289.14
					c-92.42,114.61-185.55,228.71-284,338.24c-98.18,109.24-201.39,214.68-314.15,309c-96.09,80.37-201.16,156.78-318.63,202.65
					c-110.4,43.1-229.57,42.01-345.82,29.51c-160-17.21-317.62-55.07-473.31-94.67c-351.79-89.48-699.99-203.91-1058.68-263.51
					c-128.21-21.3-268.09-40.34-396.4-9.46c-98.31,23.67-189.05,88.52-267.37,149.97c-192.54,151.07-351.75,340.68-516.69,520.09
					c-77.2,83.97-155.52,167.52-241.17,243.01c-68.44,60.32-145.47,123.1-232.66,153.77c-146.35,51.48-287.7-25.05-418.42-84.59
					c-159.89-72.83-331.14-125.46-503.08-58.72c-106.51,41.34-185.64,118.3-250.95,210.29
					c-77.58,109.27-137.23,230.44-199.77,348.57c-123.56,233.39-265.52,497.37-521.65,605.18c-19.22-51.31-38.48-102.61-57.75-153.9
					c267.64-80.09,403.13-355.32,508.17-591.85c56.33-126.85,106.77-256.9,172.39-379.39c53.85-100.51,122.09-204.98,226.19-259.08
					c79.41-41.27,169.14-57.78,257.83-45.18c80.35,11.42,155.45,44.24,226.81,81.6c125.68,65.79,258.28,162.2,408.09,135.71
					c89.41-15.81,169.84-70.78,241-124.36c92.11-69.36,176.09-149.15,258.24-229.83c180.9-177.66,353.08-367.28,555.71-521.02
					c88.35-67.04,184.11-127.81,289.34-164.5c120.57-42.03,254.23-33.19,378.96-18.49c358.15,42.23,706.07,155.41,1052.58,250.51
					c160.09,43.94,321.26,87.52,485.33,114.04c118.42,19.14,245.77,33.16,363.51,2.3c108.94-28.56,206.51-93.68,292.81-164.05
					c106.85-87.13,201.16-189.18,288.57-295.48c168.92-205.43,305.34-433.38,464.12-646.09c52.63-70.51,110.58-146.7,187.36-192.53
					c62.91-37.55,135.8-40.22,205.76-23.7c82.5,19.48,159.45,59.58,233.04,100.54c87.92,48.94,173.14,102.54,260.98,151.62
					c152.06,84.94,342.65,183.17,521.63,131.69c91.33-26.27,167.93-94.01,232.67-160.81c84.17-86.85,156.45-184.82,226.16-283.37
					c149.99-212.05,284.72-446.79,477.4-624.13c82.99-76.38,177.46-134.19,288.75-157.34c107.22-22.3,218.43-18.02,326.23-2.29
					c223.2,32.57,433.98,119.09,656.32,154.91c108.44,17.47,218.51,18.84,326.2-4.54c125.33-27.22,225.18-106,315.08-194.22
					c106.94-104.95,201.34-222.09,300.19-334.46c108.66-123.52,222.06-244.2,351.39-346.48
					c119.29-94.34,251.96-171.31,399.35-211.53C5929.8-546.29,5910.04-514.73,5891.42-482.43z"/>
			</g>
			<g>
				<path d="M6025.18-596.92c-150.79,26.36-288.97,93.97-412.91,182.46c-259.07,184.97-444.94,444.09-662.33,672.11
					c-85.39,89.57-183.73,185.71-302.88,228.03c-105.04,37.31-224.81,40.96-334.53,28.56c-409.57-46.28-892.53-344.29-1272.8-48.74
					c-98.14,76.27-178.78,173.63-253.37,272.29c-81.57,107.89-156.5,220.59-233.57,331.69
					c-71.95,103.73-145.26,207.29-228.96,301.99c-64.37,72.83-137.09,145.18-225.41,188.35c-170.2,83.17-368.28-2.16-521.95-83.04
					c-165.99-87.36-321.61-206.69-500.59-266.99c-67.91-22.88-142.87-34.49-211.94-9.59c-78.29,28.23-137.75,97.83-188.19,160.89
					c-74.14,92.68-138.88,192.77-205.26,291.02c-76.58,113.35-154.2,226.09-237.96,334.3c-85.34,110.26-176.79,216.64-279.61,311.06
					c-87.65,80.49-185.55,155.87-296.88,200.38c-106.71,42.65-222.27,42.42-334.96,29.97c-156.43-17.28-310.29-56.14-462.12-96.36
					c-353.15-93.53-702.91-209.09-1064.49-266.79c-135.01-21.55-279.89-39.96-415.47-12.73c-105.7,21.23-204.79,77.96-292.83,138.17
					c-210.05,143.67-385.42,333.22-565,511.75c-84.07,83.58-169.03,166.85-260.89,241.96c-74.72,61.1-158.57,125.27-251.91,154.47
					c-150.99,47.24-286.16-37.52-413.91-107.61c-146.83-80.56-305.91-140.85-471.51-77.32
					c-107.81,41.36-181.91,125.96-240.36,222.85c-70.08,116.16-120.36,243.45-173.72,367.78
					c-103.59,241.41-223.88,529.64-480.07,643.28c-19.09-51.13-38.15-102.27-57.2-153.41c269.43-85.19,382.41-387.27,468.49-629.28
					c48.17-135.43,90.3-273.84,150.42-404.66c46.68-101.57,109.81-213.22,213.49-265.83c78.35-39.75,167.84-52.7,253.89-34.7
					c76.17,15.93,145.79,52.89,211.57,93.28c125.44,77.02,254.45,181.46,411.22,161.31c96.36-12.39,185.09-66.34,264.14-119.72
					c101.42-68.48,194.87-148.33,286.64-229.04c199.47-175.42,391.92-362.33,612.09-512.27c96.36-65.62,199.26-124.65,310.73-160.44
					c130.76-41.99,270.96-37.52,405.89-22.21c350.9,39.83,690.46,154.24,1027.82,253.29c150.66,44.23,302.28,88.44,457.03,116.1
					c114.34,20.44,237.7,34.94,351.66,4.44c105.33-28.2,198.07-93.94,277.72-166.44c95.04-86.51,176.07-187.8,249.32-293.06
					c142.11-204.22,248.01-429.08,379.17-639.79c44.38-71.29,94.74-149.36,167.25-195.13c62.84-39.67,141-40.18,211.6-25.2
					c88.38,18.75,171.61,58.69,251.55,99.62c93.72,47.99,184.98,100.6,278.63,148.74c167.18,85.93,373.18,184.02,565.33,130.33
					c95.02-26.55,176.17-93.02,245.67-160.54c88.3-85.78,165.08-182.9,239.59-280.62c165.04-216.45,318.8-451.71,532.99-623.96
					c95.32-76.65,200.85-133.6,321.78-156.14c115.62-21.55,234.42-19.42,350.54-2.98c214.59,30.39,415.73,116.29,628.95,151.46
					c104.48,17.23,210.3,16.67,313.68-7.42c124.91-29.11,230.01-104.65,326.4-186.43c243.46-206.58,451.74-450.83,717.87-630.88
					c131.06-88.66,273.27-160.88,427.45-198.94C6063.93-660.66,6044.59-628.78,6025.18-596.92z"/>
			</g>
			<g>
				<path d="M6158.79-711.47c-153.53,24.85-297.11,86.71-429.47,167.16c-278.24,169.12-495.82,411.3-736.23,626.72
					c-95.93,85.95-202.42,176.73-326.36,218.82c-101.1,34.33-212.51,41.57-318.07,29.59c-209.79-23.81-407.39-110.02-614.6-148.06
					c-113.46-20.83-229.71-29.8-344.69-17.43c-120.75,13-229.91,51.56-330.32,120.21c-225.37,154.1-385.47,388.8-547.21,603.87
					c-77.22,102.68-155.31,205.45-243.51,299.08c-70.03,74.34-148.74,147.33-242.88,189.76c-180.65,81.43-389.42-1.27-555.16-81.03
					c-97.26-46.81-191.13-100.2-286.41-150.83c-82.73-43.96-167.28-87.8-257.2-115.25c-71.3-21.77-149.48-32.99-221.44-7.67
					c-74.7,26.29-127.85,96.09-170.95,158.97c-62.63,91.36-114.28,190.13-167.59,287.05c-62.68,113.97-126.28,227.54-196.99,336.78
					c-71.79,110.91-150.61,218.4-242.89,313.26c-78.06,80.24-167.42,154.52-271.62,197.97c-103.19,43.03-216.28,42.06-325.53,28.46
					c-147.48-18.35-292.07-57.93-434.7-98.55c-341.7-97.29-680.4-214.71-1032.34-270.39c-142.3-22.51-293.34-38.51-435.98-9.83
					c-114.61,23.04-222.42,78.04-320.87,139.46c-224.69,140.19-419.15,325.1-616.42,500.22c-93.95,83.4-188.61,166.62-290.01,240.95
					c-82.03,60.13-173.14,122.21-272.44,149.25c-160,43.56-294.03-46.2-422.87-128.74c-138.32-88.62-290.02-162.59-455.76-103.12
					c-108.17,38.81-177.87,126.86-230.37,225.61c-67.09,126.2-109.79,264.52-156.13,399.19c-47.56,138.2-96.33,277.82-168.49,405.48
					c-63.47,112.3-147.4,213.96-265.58,270.63c-18.75-50.8-37.43-101.62-56.14-152.44c270.57-91.96,360-421.95,429.4-667.15
					c39.86-140.85,74.19-284.4,128.7-420.57c41.27-103.09,100.14-219.62,204.38-271.57c77.89-38.82,168.59-47.81,252.59-25.91
					c79.15,20.63,149.65,64.61,216.27,110.69c129.85,89.82,261.38,198.72,429.53,183.86c103.36-9.13,201.52-59.19,289.94-110.4
					c114-66.02,220.12-145.13,323.58-226.41c220.36-173.12,428.9-363.32,664.08-516.75c106.75-69.64,220.54-132.1,343.19-168.7
					c134.21-40.04,276.27-37.23,414.13-20.83c333.55,39.66,654.25,154.5,972.27,257.17c141.29,45.62,283.54,91.79,429.4,120.63
					c106.64,21.09,221.47,35.35,328.03,6.15c99.2-27.18,184.54-91.71,255.63-164.12c85.6-87.17,154.79-189.62,215.4-295.28
					c117.96-205.63,195.68-430.01,306.12-639.11c37.54-71.08,82.22-148.65,151.86-192.88c66.51-42.25,153.64-40,228.1-25.31
					c94.4,18.62,184.15,57.77,270.9,98.28c100.97,47.15,199.68,98.96,300.53,146.34c183.31,86.12,405.15,183.61,611.52,129.97
					c100.85-26.21,189.56-89.97,266.28-158.34c96.37-85.88,181.05-184.37,264.33-282.69c185.59-219.08,365.34-454.3,599.96-624.06
					C3172.76,80.73,3286.56,25.28,3414.8,2.97c116.59-20.28,235.82-20.21,352.88-3.78c105.26,14.78,207.75,42.86,309.17,74.02
					c88.79,27.28,177.39,57.27,269.08,73.39c95.92,16.86,192.74,14.52,287.48-8.44c125.16-30.33,234.93-98.32,338.07-173.38
					c267.34-194.55,505.97-424.89,792.56-593.09c138.12-81.06,284.94-147.89,441.2-184.88
					C6191.84-778.27,6176.04-744.65,6158.79-711.47z"/>
			</g>
			<g>
				<path d="M6281.22-831.52c-154.4,25.25-300.65,83.1-438.31,156.34c-294.79,156.83-540.67,382.22-803.83,584.14
					c-105.4,80.88-217.74,162.55-344.88,205.4c-96.61,32.57-199.85,44.19-301.12,32.23c-90.15-10.64-177.27-37.79-263.63-64.66
					C4031.58,51.5,3933.53,21.38,3832.6,2.6c-112.22-20.89-226.88-27.86-340.58-16.2c-129.76,13.3-248.24,52.45-358.84,121.93
					c-242.03,152.04-426.54,384.05-608.57,600.03c-86.91,103.12-173.68,207.13-270.4,301.32
					c-76.99,74.97-162.65,146.28-263.1,187.32c-196.19,80.14-418.23-0.68-600.55-81.05c-194.67-85.82-380.45-204.04-586.3-262.11
					c-77.79-21.95-162.7-33.61-241.02-7.54c-75.58,25.16-126.03,95.79-164.97,161.4c-53.77,90.61-94.6,188.74-136.8,285.05
					c-50.21,114.58-100.78,229.14-159.41,339.73c-56.83,107.19-120.74,211.66-199.13,304.59
					c-68.73,81.49-150.83,157.45-249.67,200.4c-96.45,41.91-202.84,41.28-305.34,27.03c-139.02-19.32-274.68-60.76-408.21-102.77
					c-320.4-100.81-638.05-219.25-970.56-274.7c-145.04-24.19-298.21-39.09-443.72-10.22c-121.08,24.01-235.04,78.77-340.52,141.43
					c-242.06,143.8-453.18,334.51-672.05,510.01c-105.53,84.62-212.9,167.72-327.31,240.1c-91.89,58.13-192.39,115.44-299.49,139.44
					c-83.01,18.61-166.82,9.49-244.74-24.12c-73.25-31.6-138.04-79.45-202.69-125.44c-136.18-96.87-286.87-188.33-459.23-131.42
					c-109.41,36.13-176.77,127.28-224.56,227.94c-62.3,131.2-97.5,274.39-135.82,413.87c-39.55,143.94-79.19,289.49-142.67,425.1
					c-55.27,118.07-131.96,229.28-249.95,291.06c-18.27-50.41-36.5-100.84-54.82-151.24c123.79-45.18,204.64-149.21,259.61-265.1
					c64.39-135.75,99.48-283.98,132.74-429.79c33.7-147.71,61.99-298.32,114.22-440.94c38.09-104,96.03-222.54,202.8-270.8
					c82.54-37.31,177.5-40.56,263.17-12.88c81.64,26.38,153.36,75.96,221.89,126.28c69.47,51.02,137.37,106.01,214.29,145.65
					c82.35,42.44,173.27,64.84,266.12,58.16c113.79-8.18,225.13-54.42,325.51-106.02c124.22-63.86,239.87-143.53,351.86-226.62
					c236.39-175.39,457.11-373.07,705.27-532.27c109.13-70.01,224.83-132.79,349.41-170.49c134.69-40.76,276.57-39.91,415.11-22.27
					c314.34,40.01,613.51,157.63,909.47,265.06c127.91,46.43,256.73,93.65,389.69,123.71c98.55,22.27,204.68,36.3,303.7,8.89
					c205.66-56.92,332.05-273.52,416.26-453.46c97.29-207.89,150.97-432.92,247.25-640.85c34.14-73.73,77.8-152.75,149.92-195.45
					c72.36-42.84,166.67-39.67,246.61-25.53c101.76,18,199.43,56.32,294.22,96.42c111.55,47.2,220.87,99.46,332.21,147.14
					c199.98,85.64,434.94,180.66,656.08,130.1c106.31-24.31,200.67-86.72,284.4-154.36c106.66-86.15,201.94-185.84,295.84-285.42
					c206.51-219.01,407.66-453.32,659.33-622.48c114.33-76.84,236.98-133.13,373.32-156.1c113.13-19.05,228.65-20.92,342.22-4.43
					c94.39,13.7,185.8,40.35,275.8,71.39c75.54,26.05,150.66,55.38,229.28,70.95c222.3,44,435.15-60.59,617.84-177.13
					c284.01-181.17,546.26-393.62,845.35-551.18c141.82-74.71,290.07-138.16,446.03-176.58
					C6302.74-904.75,6293.49-868.02,6281.22-831.52z"/>
			</g>
			<g>
				<path d="M6381.45-962.46c-155.68,28.78-304.41,86.16-446.2,155.63c-304.43,149.15-571.81,356.62-852.81,543.61
					c-185.74,123.6-405.07,254.28-637.84,225.57c-78.87-9.73-154.1-36.67-228.65-62.96c-85.64-30.2-171.69-59.07-260.96-76.63
					c-237.36-46.69-487.48-17.04-698.08,104.94c-261.36,151.38-468.58,384.62-673.02,602.61
					c-96.37,102.75-192.66,206.32-298.16,299.87c-85.25,75.6-179.07,148.19-286.94,188.18c-212.24,78.68-450.77-4.15-649.57-84.61
					c-211.09-85.44-414.54-202.11-636.3-258.56c-84.69-21.56-176.16-32.95-261.25-7.08c-77.98,23.71-129.65,90.75-167.45,159.44
					c-49.95,90.75-83.23,190.38-117.15,287.89c-39.38,113.19-77.93,226.77-124.59,337.23c-79.92,189.2-192.08,411.09-387.73,503.08
					c-90.8,42.7-192.33,42.26-289.61,26.77c-126.87-20.2-249.88-62.81-370.57-105.63c-296.99-105.38-591.19-227.04-902.8-283.1
					c-141.25-25.41-289.53-38.86-431.53-11.38c-127.37,24.65-247.35,82.37-358.33,147.95
					c-251.91,148.88-472.69,345.02-704.44,522.18c-113.33,86.64-229.41,170.74-353.34,241.73
					c-105.34,60.34-219.56,114.17-339.77,136.32c-94.45,17.4-190.53,6.42-279.11-30.39c-82.07-34.1-153.36-87.52-224.16-140.25
					c-136.76-101.86-287.96-207.64-467.28-159.68c-114.89,30.73-184.33,120.75-231.47,225.4
					c-60.35,133.98-89.63,281.16-121.39,423.86c-33.73,151.53-65.89,305.17-123.41,449.86c-47.94,120.6-116.69,238.12-232.47,304.02
					c-17.76-50.04-35.54-100.08-53.51-150.04c123.26-47.49,197.97-157.09,247.09-275.05c59.96-143.99,88.83-299.65,117.72-452.19
					c27.97-147.7,51.84-298.43,102.12-440.62c38.3-108.31,99.39-225.45,213.75-267.82c90.18-33.41,188.44-31.39,278.28,1.64
					c85.33,31.37,161.19,85.38,235.57,136.49c167.41,115.04,344.91,228.81,556.75,217.94c122.33-6.27,243.37-49.76,352.9-102.29
					c131.37-63,253.48-144.11,371.05-229.69c247.03-179.84,474.66-386.64,731.15-553.44c110.76-72.03,228.16-136.95,354.98-175.84
					c130.1-39.89,267.11-39.94,400.91-20.99c289.56,41,561.21,160.76,829.02,272.32c114.44,47.68,229.79,96.45,349.94,128.06
					c92.52,24.34,192.33,38.59,285.9,11.44c197.57-57.33,303.27-275.49,370.03-452.37c41.7-110.47,73.46-224.31,105.49-337.86
					c29.03-102.92,56.9-207.64,100.94-305.4c33.99-75.46,80.79-151.11,155.97-191.18c80.95-43.14,182.15-40.93,270.23-27.16
					c112.78,17.63,221.8,56.16,327.98,96.98c118.55,45.58,234.81,96.81,352.49,144.52c215.5,87.36,462.02,184.83,698.47,135.96
					c113.78-23.52,216.2-87.35,307.9-156.3c112.55-84.64,214.92-182.25,315.86-280.17c227.96-221.13,450.09-458.16,720.36-628.86
					c119.91-75.73,247.36-131.63,387.58-155.75c106.23-18.27,215.21-22.05,321.93-5.55c81.35,12.57,159.39,37.81,235.4,68.89
					c61.98,25.35,123.24,54.76,188.93,69.39c75.87,16.9,152.62,9.04,227.05-11.27c128.55-35.09,247.74-91.18,363.46-156.57
					c297.44-168.07,576.96-365.27,883.2-518.18c144.35-72.08,293.45-135.88,448.92-179.82
					C6385.44-1045.55,6385.67-1004.34,6381.45-962.46z"/>
			</g>
			<g>
				<path d="M6448.46-1109.73c-150.47,35.38-295,92.67-434.69,158.2c-313.32,146.98-598.82,341.67-896.3,516.76
					c-119.81,70.52-242.67,137.18-376,178.32c-81.28,25.08-163,46.16-248.64,34.17c-64.96-9.09-125.4-35.43-185.32-60.78
					c-71.12-30.09-143.02-57.76-218.72-74.07c-232.72-50.14-480.81-4.87-687.52,109.88c-276,153.22-501.7,386.49-725.5,605.11
					c-105.22,102.78-210.54,206.2-324.63,299.24c-92.29,75.26-192.76,146.96-306.26,186.23c-224.09,77.53-473.54-6.91-684.08-88.09
					c-229.84-88.61-453.97-205.13-695.4-259.94c-92.9-21.09-192.39-31.82-285.37-5.36c-83.08,23.65-141.27,86.41-181.99,160.17
					c-49.37,89.43-78.33,189.52-106.4,287.18c-32.24,112.16-61.72,225.16-98.98,335.81c-62.54,185.77-153.91,413.04-342.37,503.85
					c-84.81,40.87-180.72,40.39-271.49,23.16c-115.1-21.84-225.5-65.76-333.55-109.88c-268.02-109.44-533.24-233.62-818.83-290.82
					c-134.36-26.91-275.41-39.73-410.94-13.48c-129.09,25.01-250.53,84.83-362.49,152.04
					c-259.92,156.05-486.85,361.28-728.04,543.51c-217.07,164-461.12,336.83-736.39,379.79c-214.76,33.52-403.41-64.1-575.74-180.83
					c-152.39-103.21-313.11-228.04-508.84-185.01c-118.7,26.09-192.74,110.37-240.98,218.14
					c-60.58,135.33-86.16,285.36-113.42,430.13c-29.28,155.5-55.48,313.21-107.02,463.29c-42.11,122.63-104.3,245.8-218.51,315.27
					c-17.29-49.77-34.72-99.49-52.48-149.1c123.43-48.61,194-162.43,239.12-281.83c55.89-147.88,80.58-306.3,106.95-461.48
					c25.21-148.33,47.22-300.54,100.04-442.15c42.04-112.71,111.67-216.82,231.48-254.82c212.1-67.27,402.68,43.51,578.48,150.94
					c189.99,116.1,390.59,233.43,621.13,225.81c282.12-9.33,542.12-178.18,761.52-340.61c247.6-183.31,473.44-395.54,728.55-568.78
					c111.76-75.89,230.92-145.05,360.48-185.58c123.33-38.58,253.57-38.82,380.26-17.95c263.53,43.43,505.23,166.1,743.14,281.46
					c100.99,48.97,203.01,99.18,310.76,131.69c85.91,25.92,178.49,39.22,266.06,13.1c193.47-57.69,283.19-276.84,338.49-451.71
					c35.07-110.88,60.61-224.43,88.64-337.21c25.71-103.44,52.28-208.84,99.04-305.14c40.43-83.25,98.87-156.13,185.44-193.76
					c92.56-40.24,199.96-38.62,298.02-24.41c254.17,36.81,492.32,153.9,729.04,247.31c221.38,87.36,470.35,182.58,712.18,136.54
					c118.69-22.59,226.77-85.84,324.52-154.41c122.51-85.94,234.82-185.89,345.61-286.17c242.93-219.87,479.9-455.31,761.03-627.03
					c204.61-124.99,454.2-208.26,696.24-166.08c66.89,11.66,129.84,35.39,189.83,66.8c45.6,23.88,89.93,52.24,139.91,66.25
					c66.61,18.67,136.05,6.89,201.24-11.99c128.63-37.25,249.98-88.52,368.82-150.13c305.47-158.35,596.14-343.39,904.49-496.62
					c140.04-69.59,282.84-134.15,430.04-187.16C6428.75-1205.54,6441.2-1158.5,6448.46-1109.73z"/>
			</g>
			<g>
				<path d="M6471.29-1278.68c-140.67,46.05-276.9,106.08-410.27,169.95c-313.72,150.24-609.05,333.46-914.91,498.27
					c-124.16,66.91-250.23,128.07-385.3,169.54c-72.55,22.27-147.33,47.13-224.21,34.35c-50.26-8.36-94.55-33.42-138.59-57.67
					c-56.04-30.85-113.36-57.82-175.77-73.13c-217.6-53.38-459.04,8-652.15,110.72c-289.75,154.13-531.74,388.87-772.28,608.25
					c-113.68,103.67-227.56,207.85-349.84,301.43c-99.02,75.78-205.93,147.78-325.19,187.31c-231.99,76.88-486.29-6.46-704.77-88.76
					C1175.67,490.3,939,372.04,684.41,317.69c-103.56-22.11-213.82-33.36-317.79-7.43c-91.68,22.87-164.05,80.69-213.45,160.34
					C98.97,558.01,69.41,659.35,43.26,758c-29.58,111.62-53.79,224.61-85,335.81c-51.15,182.28-125.98,412.8-309.34,503.23
					c-180.54,89.04-391.58-14.43-556.04-92.69c-238.14-113.33-473.19-241.15-732.5-299.82c-125.54-28.41-257.65-40.83-384.8-15.28
					c-126.47,25.42-245.11,86.49-353.84,154.03c-261.69,162.58-488.14,375.95-731.32,563.66
					c-224.1,172.99-477.12,350.28-764.43,390.62c-235.59,33.08-448.69-70.84-644.65-189.18c-173-104.48-359.7-235.1-572.8-196.47
					c-120.7,21.88-209.7,94.31-263.39,203.91c-65.15,133-89.63,284.7-114.68,429.31c-27.42,158.28-49.83,318.8-97.24,472.7
					c-38.28,124.25-95.85,252.02-209.67,323.82c-16.96-49.68-34.22-99.26-51.99-148.66c124.51-47.79,193.54-163.46,237.14-283.64
					c54.27-149.6,76.08-308.63,104.51-464.48c26.98-147.88,56.38-299.49,120.03-436.7c52.41-112.96,134.58-215.3,257.96-252.15
					c229.48-68.53,444.8,49.39,639.62,158.38c210.84,117.95,432.85,240.94,682,235.37c290.59-6.5,554.11-178.52,776.51-350.02
					c245.34-189.18,466.03-409.31,717.79-590.26c108.58-78.04,224.99-149.79,352.8-191.54c114.91-37.54,236.75-38.2,354.76-15.52
					c237.88,45.72,449.15,172.17,656.87,290.47c154.67,88.08,342.49,204.96,527.86,149.91c193.69-57.52,275.35-276.3,326.31-451.46
					c62.52-214.88,90.36-447.69,211.87-640.51c52.23-82.88,124.1-154.44,216.16-191.32c100.5-40.26,217.98-36.74,323.29-21.72
					c261.51,37.28,506.25,153.91,750.02,249.47c223.52,87.62,473.09,182.37,717.02,136.98c122.84-22.86,235.59-86.01,338.38-154.66
					c129.17-86.28,248.5-186.79,366.19-287.86c256.64-220.4,506.55-457.1,798.21-631.58c124.26-74.34,255.04-131.52,397.46-159.76
					c87.14-17.28,179.47-26.85,267.36-9.01c52.35,10.62,99.9,32.66,142.47,64.73c30.5,22.99,58.72,51.13,95.23,64.5
					c56.27,20.61,120.67,3.87,175.7-12.48c127.68-37.93,249.23-87.49,368.53-146.69c306.02-151.87,599.55-328.46,900.73-489.53
					c133.47-71.38,268.76-141.52,411.25-193.3C6429.52-1381.33,6451.67-1330.59,6471.29-1278.68z"/>
			</g>
			<g>
				<path d="M6464.75-1457.43c-138.23,42.07-268.7,107.02-396.49,173.6c-305.03,158.93-600.2,336.25-905.86,493.98
					c-125.02,64.51-251.83,123.65-386.41,165.24c-64.17,19.83-136.02,48.54-204.52,34.49c-38.14-7.82-67.08-32.23-96.48-56.11
					c-38.42-31.19-79.18-56.78-126.98-71.03c-74.92-22.34-155.77-20.11-232.48-9.81c-133.11,17.86-259.4,60.92-378.14,123.21
					c-299.28,157.01-553.16,392.93-806.74,612.74c-120.6,104.54-241.6,209.35-370.74,303.33
					c-104.62,76.13-216.94,148.35-341.09,187.94c-235.43,75.06-488.55-6.04-710.27-89.18c-247.75-92.9-489.88-211.36-750.31-265.6
					c-111.91-23.31-229.5-34.06-342.25-10.03c-97.27,20.73-179.64,80.58-240.52,157.87C36.63,469.48,0.5,702.81-54.78,913.91
					c-47.34,180.78-113.47,413.23-295.98,502.94c-174.25,85.65-363.17-11.47-516.43-96.86
					c-208.24-116.02-412.07-247.69-645.09-308.95c-115.14-30.27-237.01-42.68-354.5-18.44c-124.23,25.62-239.99,89.13-345.02,158.18
					c-258.32,169.81-478.89,391.14-718.74,584.79c-224,180.85-480.8,365.81-774.37,402.87c-253.44,31.99-487.27-78.8-702.86-198.36
					c-193.63-107.39-404.25-242.83-636.16-204.69c-126.57,20.82-222.54,93.37-287.79,202.66
					c-76.34,127.86-110.94,278.21-139.88,422.73c-31.68,158.28-51.75,319.53-97.58,474.66c-36.86,124.75-92.48,254.6-206.92,326.33
					c-16.86-49.86-34.24-99.52-52.31-148.95c128.19-44.87,195.95-165.06,241.45-285.76c55.73-147.84,86.18-304.31,123.94-457.31
					c62.1-251.62,148.64-609.51,437.13-688.3c244.15-66.68,478.47,55.08,689.04,165.52c228.19,119.67,467.7,248.57,732.69,245.47
					c294.83-3.45,557.03-181.29,776.54-361.6c238.42-195.84,449.37-423.78,693.76-612.42c103.21-79.67,214.97-153.91,339.3-196.01
					c104.28-35.31,214.67-36.55,321.68-13.08c216.48,47.48,399.99,180.86,580.97,301.63c143.8,95.97,309.24,203.3,489.57,152.1
					C-202,1206.17-130.5,988.98-71.97,811.63C-0.19,594.08,60.72,360.85,203.99,176.99C267.24,95.82,347.51,27.52,444.64-9.02
					c108.51-40.82,233.54-37.33,346.57-21.12c261.01,37.44,504.82,151.91,747.85,248.16c222.78,88.23,472.27,184.3,715.75,136.32
					c123.78-24.39,237.73-86.18,342.77-153.95c134.6-86.85,259.55-188.15,382.71-290.28c266.57-221.05,525.4-459.38,823.97-637.55
					c122.86-73.31,251.59-130.6,391.82-160.74c74.08-15.92,156.43-28.86,231.27-9.78c38.35,9.78,70.4,30.15,93.99,61.96
					c16.7,22.52,29.03,51.2,55.24,64.45c45.36,22.92,109.68,0.87,154.35-12.1c125.97-36.58,244.15-90.28,362.29-146.6
					c306.54-146.15,597.94-320.26,894.87-484.42c130-71.87,261.83-142.88,401.74-193.72
					C6416.16-1558.73,6441.33-1508.53,6464.75-1457.43z"/>
			</g>
			<g>
				<path d="M6448.22-1633.99c-136.2,40.68-263.79,106.37-388.44,173.66c-297.33,160.5-585.8,336.59-889,486.26
					C5046.3-912.62,4919.96-850,4787.38-807.84c-57.33,18.23-132.98,51.16-194.75,35.34c-29.9-7.65-44.15-31.85-59.85-56.09
					c-19.74-30.47-43.66-54.56-77.97-68.23c-62.03-24.71-134.89-18.19-199.18-8.09c-126.88,19.94-247.64,63.26-361.01,123.1
					c-305.03,161.01-566.48,398.3-829.14,618.54C2939.44-57.58,2812.8,48.11,2678.13,142.73
					c-108.99,76.58-225.62,149.26-353.74,188.9c-235.26,72.79-483.05-5.94-704.15-89.89C1374.59,148.47,1134.45,31.8,875.79-22.07
					C758.74-46.45,636.48-56.89,518.26-34.39C414.23-14.6,322.51,44.09,250.44,120.34C91.98,287.99,21.33,520.34-48.45,734.67
					c-33.61,103.25-66.17,208.41-116,305.27c-41.53,80.72-97.73,154.73-181.1,195.11c-173.13,83.85-345.97-1.04-493.31-96.27
					c-181.23-117.12-354.63-253.34-563.46-318.55c-104.23-32.55-215.7-45.28-323.35-22.68c-122.87,25.79-235.88,93.1-337.06,165.04
					c-248.27,176.53-456.9,403.33-686.91,601.81c-218.06,188.17-473.76,383.35-769.2,417.36
					c-268.14,30.87-519.01-87.46-750.3-208.12c-210.31-109.72-440.04-247.9-687.28-212.1c-131.69,19.07-236.39,89.82-311.96,198.33
					c-86.29,123.92-132.3,273.23-171.07,417.59c-42.38,157.79-73.21,318.92-123.29,474.59c-40.12,124.72-95.28,259.57-212.2,330.55
					c-16.94-50.91-30.91-102.55-43.08-154.8c130.13-48.66,204.85-169.58,257.98-291.56c63.8-146.46,104.45-302.04,152.66-454
					c81.04-255.46,194.08-594.86,486.39-671.8c258.53-68.04,511.37,58.91,736.67,171.93c240.64,120.71,494.44,256.04,771.11,253.35
					c292.32-2.84,544.79-184.92,754.57-371.47c227.48-202.28,424.14-437.46,656.93-633.83c95.92-80.91,200.89-157.26,320.03-199.84
					c95.61-34.17,197.72-35.92,295.65-10.45c194.26,50.53,349.28,187.41,504.5,307.16c136.12,105.01,298.83,206.02,477.7,155.96
					c194.38-54.4,280.12-282.78,352.91-449.12C44.54,416.03,137.88,187.89,302.53,11.26c76.71-82.29,169.93-151.01,277.33-187.03
					c111.51-37.4,235.49-36,350.75-19.83c260.5,36.54,502.53,151.75,744.14,249.38c213.27,86.18,450.28,177.81,684.1,132.97
					c128.11-24.57,246.32-88.07,355.34-157.43c138.36-88.03,267.21-190.53,394.15-294.06c271.57-221.51,534.39-461.53,835.39-643.41
					c116.83-70.59,238.5-126.79,371.61-158.4c60.12-14.28,135.59-32.2,196.48-11.03c29.01,10.09,45.33,31.26,50.8,60.93
					c3.83,20.73,0.77,49.7,19.68,63.87c13.57,10.17,34.62,9.94,50.65,9.48c35.76-1.03,71.44-9.49,105.8-18.79
					c130.72-35.36,257.33-83.53,380.51-139.58c303.8-138.23,584.68-318.39,871.12-488.28c121.41-72.01,244.74-143.25,377.13-193.3
					C6395.24-1733.95,6422.31-1684.29,6448.22-1633.99z"/>
			</g>
			<g>
				<path d="M6424.27-1808.92c-132.2,40.4-254.49,107.94-373.48,177.12c-285.65,166.08-561.72,347.98-860.11,491.32
					c-129.34,62.14-261.69,116.35-399.4,156.88c-41.98,12.35-83.74,25.41-127.26,31.27c-22.12,2.98-47.43,5.77-69.2-1.11
					c-26.16-8.27-27.1-32.45-29.64-55.98c-2.92-27.13-9.75-52.34-34.66-67.25c-44.59-26.7-109.45-15.94-157.36-7.66
					c-123,21.27-239.69,66.27-349.01,125.83C3718.44-791.93,3454.6-553,3187.54-332.56c-127.24,105.03-255.35,209.65-391.08,303.64
					c-111.83,77.44-231.33,151.07-362.14,191.51c-231.43,71.55-470.05-3.52-687.1-87.98c-240.85-93.72-476.3-209.97-731.02-262.26
					c-119.3-24.49-243.36-33.86-363.77-11.46C543.52-178.85,444.41-122,362.25-48.97C181.22,111.94,76.79,340.59-19.1,558.07
					c-44.33,100.54-86.66,202.9-142.01,298.05c-46.1,79.25-104.2,156.94-187.79,199.27c-166.57,84.34-348.94,1.86-486.17-99.44
					c-157.14-115.99-302.69-255.44-489.16-323.93c-93.74-34.43-195.48-47.47-293.74-25.83c-115.34,25.4-219.49,91.88-312.01,162.86
					c-239.79,183.96-434.89,420.59-654.67,626.69c-205.2,192.43-451.98,396.7-742.2,429.47
					c-278.44,31.45-542.71-94.05-784.86-215.25c-225.9-113.06-473.54-255.34-735.98-219.27
					c-135.99,18.69-248.13,89.17-332.12,196.75c-92.63,118.66-149.13,262.63-197.35,403.85
					c-53.25,155.96-94.58,316.06-153.65,470.02c-48.65,126.8-111.99,260.52-231.7,334.25c-9.91-53.8-17.92-107.87-24.93-162.13
					c130.32-50,211.84-166.15,273.08-286.32c74.54-146.27,125.94-303.31,185.56-455.92c100.22-256.54,236.71-576.93,532.24-651.02
					c270.61-67.84,537.56,64.36,774.58,180.23c245.91,120.21,506.9,259.59,788.09,257.37c288.68-2.28,528.86-193.42,724.9-386.93
					c209.87-207.16,386.94-445.84,602.38-647.39c86.65-81.06,183.2-159.18,295.69-200.86c88.11-32.65,182.98-34.38,272.66-6.84
					c177,54.36,310.02,201.35,452.89,311.54c135.85,104.78,305.96,206.47,483.72,155.23c88.02-25.38,156.97-92.33,212.04-162.71
					C-120,650.84-65.04,550.89-9.31,452.97c123.9-217.7,251.59-440.96,440.14-610.11c88.46-79.36,190.74-145.63,304.82-181.21
					c116.08-36.21,241.54-37.03,361-19.53c248.78,36.45,478.54,147.56,708.17,243.93c206.23,86.55,435.6,178.1,662.98,130.41
					c126.35-26.5,242.84-89.54,350.76-158.37c137.43-87.65,265.7-189.26,391.85-292.2c271.99-221.96,533.39-463.27,830.8-651.65
					c110.06-69.71,224.52-127.2,350.99-159.99c44.57-11.56,117.16-35.16,162.27-11.94c24.78,12.75,17.71,38.77,16.23,61.83
					c-1.76,27.36,1.89,54.78,26.95,70.69c48.19,30.6,124.06,12,174.54-0.22c131.97-31.95,259.73-74.99,383.42-131.19
					c295.3-134.18,559.74-321.97,829.42-499.85c113.52-74.88,229.25-149.15,355.77-200.3
					C6369.02-1907.68,6396.98-1858.49,6424.27-1808.92z"/>
			</g>
			<g>
				<path d="M6395.46-1982.78c-124.79,40.12-238.19,108.66-347.79,179.26c-269.01,173.28-526.63,363.6-814.62,505.55
					c-128.38,63.28-261.37,116.8-400.48,151.23c-66.71,16.51-148.23,47.4-217.25,23.31c-29.97-10.46-44.4-33.78-45.04-64.75
					c-0.42-20.23,9.88-51.3-4.54-68.3c-25.45-30-93.56-12.93-124.52-6.77c-116.33,23.14-225.08,69.25-327.4,128.53
					c-295.34,171.13-552.04,406.16-813.63,623.14c-131.06,108.71-263.23,216.87-403.45,313.7
					c-110.97,76.64-229.32,149.67-358.74,190.54C2315.29,63,2090.38-6.31,1881.85-90.22c-232.49-93.56-459.16-209.38-706.22-260.64
					c-117.05-24.29-238.51-32.88-356.79-12.06c-118.96,20.95-228.61,77.33-323.75,150.54C292.73-56.69,154.47,165.87,28.46,383.87
					c-57.5,99.47-112.54,200.98-178.02,295.53c-52.74,76.16-115.07,151.98-198.86,195.17c-165.39,85.25-348.65,1.87-486.9-96.33
					c-78.61-55.84-151.01-119.68-225.64-180.58c-69.52-56.74-142.03-114.04-225.13-149.58c-83.22-35.59-174.59-48.92-263.68-29.74
					c-111.32,23.97-209.32,92.32-294.63,164.9c-222.71,189.47-397.76,429.79-599.65,640.05c-189.34,197.19-424.7,414-709.35,444.41
					c-279.16,29.82-546.85-98.91-790.73-217.96c-238.24-116.29-500.15-263.92-775.21-229.29c-139.76,17.59-258.75,86.7-350.8,192.35
					c-100.5,115.34-167.35,256.58-225.44,396.82c-63.59,153.52-115.46,311.93-184.39,463.24
					c-57.09,125.33-128.68,253.77-249.74,327.12c-4.69-55.94-8.48-111.94-12.03-167.96c133.74-50.97,222.78-165.54,292.43-285.88
					c81.54-140.89,142.3-292.86,210.46-440.36c118.6-256.68,275.27-565.15,575.74-636.21c276.76-65.45,550.55,69.15,793.26,186.68
					c247.16,119.69,512.83,265.36,795.49,260.38c275.22-4.85,494.19-201.41,668.49-395.24c191.18-212.6,346.12-456.02,543.13-663.37
					c131.52-138.43,308.36-271.85,507.98-200.42c82.04,29.36,154.3,81.74,222.69,134.54c76.75,59.25,150.54,122.27,229.07,179.22
					c141.92,102.93,321.21,203.18,501.98,150.76c91.07-26.41,165.47-94.4,227.71-163.11c78.96-87.17,146.38-184.42,214.83-279.82
					c155.1-216.17,315.85-434.43,527.4-599.34c100.29-78.17,212.48-144.15,335.07-180.11c114.32-33.53,234.6-37.79,352.15-21.08
					c238.68,33.92,457.25,144.1,675.38,240.34c193.37,85.32,407.95,173.97,623.03,127.15c125.05-27.22,239.92-91.06,346.23-160.28
					c136.89-89.13,264.5-192.17,389.76-296.74c264.01-220.39,515.92-460.03,800.57-654.28c100.46-68.56,203.93-126.09,320.64-161.37
					c33.17-10.03,98.28-37.05,131.8-13.54c20.33,14.26,20.31,46.93,25.53,68.73c8.5,35.48,26.29,66.04,58.93,84.25
					c58.73,32.76,135.8,23.54,198.63,11.04c133.85-26.62,262.85-70.41,385.99-129.09c280.13-133.49,520.91-329.27,767.25-514.78
					c104.48-78.68,211.64-156.82,331.99-209.61C6339.75-2080.6,6367.74-2031.77,6395.46-1982.78z"/>
			</g>
			<g>
				<path d="M6364.33-2156.15c-119.97,41.09-226.07,113.23-327.56,187.75c-246.1,180.7-478.75,379.14-750.36,522.1
					c-126.53,66.6-258.43,118.96-397.87,151.07c-75.93,17.49-160.62,39.6-237.25,12.25c-37.79-13.49-64.97-40.77-77.72-78.71
					c-8.04-23.92-7.13-56.35-22.81-76.97c-21.72-28.58-72.31-12.69-100.22-5.6c-104.12,26.46-199.46,70.7-290.32,127.68
					c-134.18,84.15-258.44,183.91-380.24,284.81c-137.01,113.5-270.7,230.94-406.25,346.17
					C3246.04-577.05,3116.95-469.43,2980-372.64c-109.87,77.65-227.12,152.19-355.85,194.23c-211.8,69.16-421.72,4.74-619.18-78.71
					c-218.65-92.41-431.16-206.22-665.09-256.19c-114.9-24.54-233.83-32.21-349.96-11.51C866.31-502.8,751.2-448.65,647.43-379.1
					C422.34-228.23,250.68-11.18,92.51,205.4c-72.08,98.7-141.54,199.7-219.33,294.07c-62.13,75.37-132.17,150.75-220.8,194.91
					c-171.61,85.5-362.45,1.86-508.59-96.04c-81.11-54.34-156.29-116.76-232.63-177.44c-69.87-55.54-141.43-112.04-222.38-150.74
					c-74.41-35.58-155.82-50.68-237-31.37c-101.27,24.09-189.05,90.35-262.98,161.01c-95.86,91.63-178.4,196.71-259.59,301.21
					c-90.74,116.79-179.38,235.32-274.96,348.26c-167.97,198.48-383.45,424.81-656.32,456.96
					c-278.71,32.83-550.86-104.71-793.92-222.61c-243.96-118.34-513.74-267.45-794.75-232.37
					c-310.59,38.77-484.06,315.85-609.71,574.07c-72.06,148.1-133.27,301.46-209.86,447.36
					c-65.97,125.67-146.07,252.18-271.49,325.45c-1.27-57.39-2.52-114.79-4.14-172.17c137.11-50.83,233.28-163.09,310.94-282.75
					c87.65-135.06,156.51-281.42,231.83-423.43c133.23-251.19,303.23-547.21,601.5-619.27c279.92-67.63,558.3,69.88,803.49,189.51
					c129.3,63.09,257.94,128.49,392.45,180c121.74,46.62,251.35,83.63,382.85,80.6c263.16-6.06,459.87-212.78,610.3-407.51
					c166.17-215.09,296.46-457.64,475.7-662.7c67.53-77.26,145.37-152.64,241.01-193.61c73.25-31.38,150.87-28.95,224.99-1.83
					c83.24,30.46,157.48,83.09,228.78,134.63c82.47,59.61,162.92,122.05,248.08,177.85c153.04,100.26,345.9,198.56,533.39,144.39
					c94.05-27.18,174.23-92.65,244.17-158.7c91.28-86.21,172.79-182.47,255.27-276.92c187.71-214.96,380.99-430.43,617.33-593.44
					c206.7-142.57,443.66-234.3,697.41-197.43c223.2,32.42,425.11,139.95,626.62,234.78c178.69,84.1,376.44,169.3,577.63,123.34
					c121.48-27.75,232.28-92.81,334.32-162.2c133.39-90.71,257.28-195.09,378.58-301.17c250.12-218.75,485.4-458.77,752.84-656.85
					c92.51-68.52,188.18-123.86,296.3-163.45c37.22-13.63,93.14-36.8,131.09-12.93c27.5,17.3,39.69,54.21,55.22,81.04
					c24.1,41.66,56.16,76.75,99.26,99.18c72.34,37.64,159.24,37.01,237.76,24.02c131.7-21.8,258.15-67.33,376.35-128.82
					c264.74-137.72,479.06-344.93,701.66-539.54c92.96-81.27,189.46-161.49,301.63-214.91
					C6309.71-2253.35,6336.99-2204.73,6364.33-2156.15z"/>
			</g>
			<g>
				<path d="M6333.45-2329.56c-113.43,41.29-210.46,115.2-301.73,192.53c-223.65,189.49-428.98,399.87-684.46,548.23
					c-118.97,69.09-245.87,123.29-380.58,152.48c-88.26,19.12-182.1,32.85-269.34,1.09c-49.24-17.92-89.84-50.31-119.1-93.61
					c-19.6-29-31.73-66.04-56.64-91.08c-28.7-28.85-71.39-19.7-106.45-9.44c-95.85,28.06-185.65,74.18-268.07,130.01
					c-126.94,85.99-243.06,187.79-357.38,289.59c-127.98,113.97-253.43,230.73-381.22,344.91
					c-123.53,110.38-248.85,219.5-382.27,317.89c-105.77,78-219.21,153.78-344.58,196.31c-198.7,67.41-393.41,5.76-576.93-77.19
					c-201.88-91.25-397.71-202.68-616.18-250.16c-108.77-23.64-221.39-29.75-331.19-9.36c-128.85,23.93-249.61,77.59-361.07,145.51
					C550.45-392.05,348.95-180.1,159.36,33.7C72.61,131.52-11.78,231.77-103.33,325.2c-71.49,72.97-149.56,145.68-243.08,189.36
					c-178.76,83.5-376.94,5.27-534.29-89.18c-88.38-53.05-171.01-114.84-253.96-175.84c-74.27-54.62-149.31-111.15-232.78-151.19
					c-69.24-33.21-145.62-52.27-221.87-34.17c-94.76,22.49-175.67,90.7-242.03,158.79c-186.19,191.06-315.07,431.88-470.71,646.69
					c-142.69,196.94-332.28,432.58-589.54,469.24c-127.33,18.15-256.79-8.77-377.43-48.88
					c-135.31-44.99-264.02-107.73-391.84-170.34c-246.54-120.75-521.28-274.1-805.98-238.37c-308,38.66-493.71,307.39-633.07,558.45
					c-79.11,142.52-148.44,290.47-231.72,430.68c-74.38,125.23-162.53,249.37-292.34,321.65c0.41-58.21,0.14-116.41-1.02-174.62
					c137.35-48.97,238.5-155.33,322.24-271.02c94.87-131.07,171.44-274.43,253.65-413.48c145.24-245.67,325.28-533.57,622.63-604.9
					c272.28-65.31,544.23,70.97,781.28,189.54c126.02,63.03,251.03,129.04,381.97,181.49c113.12,45.32,235.2,83.59,358.46,78.59
					c246.24-10,414.61-231.97,541.95-418.12c146.44-214.07,263.43-450.19,427.58-651.86c61.47-75.52,133.39-150.07,223.66-190.44
					c71.64-32.04,147.93-26.1,220.45-0.07c86.09,30.9,164.46,81.78,240.71,131.37c89.52,58.22,177.69,118.6,270.02,172.37
					c168.68,98.22,380.32,197.57,579.5,140.74c100.24-28.6,188.08-92.87,267.41-158.33C-31.48,119.19,62.49,25.56,157.14-66.59
					c216.4-210.67,436.81-421.8,692.78-584.47c208.29-132.37,448.63-237.06,700.16-199.16c205.68,30.99,388.43,136.02,571.05,229
					c164.88,83.95,346.41,165.13,534.71,116.72c114-29.31,216.64-96.08,311.14-164.07c126.49-91,243.94-194.32,358.5-299.73
					c238.48-219.43,460.25-460.52,714.66-662c88.74-70.28,181.8-129.2,287.9-169.39c44.2-16.74,95.42-30.36,139.24-5.52
					c38.64,21.91,65.47,62.39,94.42,94.9c42.57,47.81,91.06,89.52,149.15,117.33c207.54,99.35,461.05,11.2,645.97-98.05
					c242.93-143.53,425.1-358.93,619.28-558.88c83.58-86.06,171.96-170.67,279.75-225.67
					C6281.17-2426.61,6307.13-2377.99,6333.45-2329.56z"/>
			</g>
			<g>
				<path d="M6305.38-2503.59c-110.7,42.04-201.31,119.78-284.48,202.12c-196.78,194.79-369.55,413.16-602.38,568.16
					c-186.47,124.13-444.08,231.88-668.34,150.67c-64.5-23.36-120.58-62.83-168.2-111.79c-33.38-34.32-61.29-75.97-99.16-105.63
					c-36.81-28.83-79.15-29.96-123-17.87c-92.57,25.52-179.71,76.07-256.96,131.77c-119.68,86.29-228.36,187.69-335.38,288.91
					c-124.97,118.19-247.28,239.16-372.52,357.06c-116.58,109.75-235.36,217.85-362.13,315.83
					c-98.49,76.12-204.14,151.99-321.59,195.98c-183.4,68.69-363.31,11.05-531.45-70.91c-183.02-89.21-359.2-198.46-559.81-244.52
					c-104.91-24.09-214.06-28.95-319.77-6.82c-129.33,27.07-250.61,79.76-365.05,145.02C671.27-555.14,444.32-347.47,226.57-137.95
					C127.3-42.44,29.85,55.24-73.51,146.39c-82.12,72.42-169.98,144.51-271.26,188.41c-192.53,83.45-404.31,5.91-578.14-87.15
					c-95.73-51.25-186.46-111.06-277.15-170.6c-80.13-52.61-160.57-107.22-248.09-147c-69.38-31.53-146.86-53.2-222.8-34.3
					C-1758.86-82.38-1833.13-16-1892.8,48.98c-80.26,87.39-146.1,187.51-209.34,287.53c-72.55,114.75-141.2,231.93-215.1,345.83
					c-72.68,112.02-150.13,223.27-245.05,317.81c-78.65,78.33-172.77,146.15-284.34,165.14c-115.49,19.66-234.35-7.88-343.26-45.71
					c-131.12-45.55-255.43-108.88-379.13-171.27c-238.72-120.39-506.03-271.71-783.49-239.15
					c-305.58,35.85-500.67,302.28-650,545.23c-85.77,139.55-162.69,284.62-253.41,421.11c-80.66,121.37-174.6,239.41-305.62,308.66
					c0.46-58.41-0.32-116.79-2.44-175.17c139.33-47.65,245.15-151.24,334.22-265.07c99.81-127.56,182.16-267.83,269.4-403.98
					c150.4-234.72,333.37-513.75,621.57-586.04c260.03-65.22,521.86,71.69,745.44,189.05c118.2,62.04,235.03,128.06,358.28,179.8
					c100.88,42.34,210.37,76.97,321.09,69.99c234.16-14.76,389.47-248.52,502.76-428.21c131.15-208.01,235.6-435.81,387.28-630.34
					c56.07-71.91,122.16-142.34,206.12-181.33c72.55-33.7,150.85-26.07,225.09-1.84c93.27,30.44,179.83,80.45,264.61,128.94
					C-1227.82-62.67-1128.53-3.4-1025.47,49c183.69,93.4,410.25,189.74,619.67,133.75c106.41-28.45,201.82-90.94,289.79-155.25
					C-2.25-55.65,104.37-148.38,211.35-239.94c242.21-207.3,486.39-416.22,760.42-581c201.38-121.09,437.1-236.48,678.63-198.73
					c186.55,29.16,348.28,131.49,510.02,222.18c149.77,83.98,316.34,161.63,491.26,113.69c111.24-30.48,210.91-96.14,302.24-164.59
					c122.81-92.04,235.81-196.89,345.64-303.84c226.44-220.5,434.94-462.51,676.82-666.63c83.06-70.09,171.59-132.82,274.32-170.42
					c54.39-19.9,110.52-24.99,163.46,1.65c53.88,27.11,97.55,72.75,142.74,111.72c62.17,53.63,128.6,102.28,203.89,135.94
					c97.62,43.65,205.28,60.03,311.56,48.7c127.83-13.63,249.45-68.6,354.99-140.27c223.83-152,374.61-377.45,543.92-583.08
					c74.95-91.03,156.52-179.72,261.84-235.7C6256.41-2601.02,6280.59-2552.16,6305.38-2503.59z"/>
			</g>
			<g>
				<path d="M6282.67-2678.79c-109.95,42.15-195.76,123.18-271.81,210.82c-174,200.51-315.32,428.79-528.2,592.92
					c-192.05,148.07-438.14,232.18-675.34,147.69c-80.15-28.55-152.31-74.09-218.16-127.44c-50.37-40.81-96.32-88.56-150.72-124.15
					c-46.89-30.68-97.67-41.47-152.65-28.78c-92.73,21.41-178.68,76.86-252.96,134.1c-112.92,87.01-214.74,188.32-315.02,289.31
					c-117.3,118.13-232.01,238.8-349.8,356.44c-111.83,111.69-226.08,221.69-348.91,321.33c-95.33,77.33-198.26,153.68-313.7,198.16
					c-83.65,32.23-170.99,41.42-259.15,24.09c-82.78-16.28-160.11-51.88-234.06-91.46c-163.86-87.7-320.2-195.74-503.57-239.23
					c-93.98-22.29-191.83-25.48-286.4-4.7c-127.84,28.1-248.25,81.66-362.62,144.33C779.52-721.92,530.83-516.3,288.37-310.31
					C176.49-215.25,65.91-118.35-50.04-28.22c-90.37,70.25-185.72,139.79-292.48,183.03c-205.36,83.18-430.13,8.44-620.43-80.74
					c-106.6-49.95-208.73-108.65-310.69-167.31c-87.99-50.62-176.08-103.12-270.07-142.03c-72.69-30.09-154.61-53.74-233.22-34.15
					c-84.29,21.01-154.68,85.38-210.59,148.77c-75.03,85.06-135.38,182.55-193.03,279.84c-65.3,110.2-126.68,222.67-192.71,332.44
					c-65.54,108.96-135.22,217.22-220.99,311.56c-71.39,78.53-159.09,153.77-265.87,175.32c-105.94,21.39-214.87-2.58-314.75-38.78
					c-120.4-43.63-233.49-105.52-346.3-165.47c-226.75-120.48-486.34-274.22-753.8-238.54
					c-291.48,38.89-485.78,299.15-636.77,527.05c-90.52,136.62-173.07,278.64-268.94,411.68
					c-86.19,119.59-185.41,234.75-319.11,302.02c-1.02-57.99-3.73-115.86-8.17-173.7c139.78-46.12,248.43-146.94,340.53-258.54
					c100.55-121.84,184.94-256.09,272.68-387.15c85.94-128.36,174.4-256.97,282.01-368.41c88.39-91.54,192.97-173.37,316.75-209.62
					c243.28-71.26,490.61,68.41,697.48,181.28c109.52,59.76,218.18,122.49,333.53,170.57c95.77,39.93,199.91,70.99,304.77,61.79
					c103.46-9.08,185.38-64.53,256.94-136.92c84.05-85.02,150.43-186.57,211.46-288.81c120.02-201.07,214.93-421.18,358.5-607.36
					c52.29-67.81,114.43-133.32,193.38-169.64c75.84-34.88,158.93-25.84,237-3.26c100.4,29.04,195.21,76.57,288.45,122.98
					c112.39,55.95,223.82,113.9,338.52,165.07C-962.03-74.41-844.47-28.98-722.3-2.43c103.42,22.47,214.03,32.39,317.48,4.72
					C-292.88-27.65-191.1-89.35-95.63-153.26c121.37-81.26,236.6-171.52,351.81-261.16C515.23-616,773.95-820.77,1056.39-989.18
					c116.4-69.41,237.95-135.13,367.13-177.5c90.74-29.76,183.14-43.12,278.04-27.73c170.31,27.63,312.82,131.85,457.81,217.9
					c141.57,84.03,304.26,160.9,471.73,111.89c106.88-31.28,201.57-94.75,288.49-162.68c118.96-92.97,227.33-199.23,332.3-307.49
					c216.85-223.66,414.24-469.46,647.2-676.96c121.77-108.46,288.9-236.01,458.1-157.76c71.01,32.84,132.81,84.05,195.8,129.64
					c80.03,57.92,163.06,112.23,254.09,151.39c108.96,46.87,227.7,70.79,346.37,60.07c122.85-11.1,237.25-68.54,333.75-143.3
					c210.63-163.19,331.44-404.42,483.12-617.08c67-93.94,143.03-183.42,246.37-238.3
					C6237.76-2777.25,6259.81-2727.85,6282.67-2678.79z"/>
			</g>
			<g>
				<path d="M6267.88-2855.73c-109.51,40.43-192.09,121.09-262.08,212.2c-158.06,205.78-269.06,445.94-464.09,622.43
					c-90.67,82.06-201.2,151.99-322,178.44c-116.73,25.55-242.14,9.76-354.03-29.13c-97.28-33.81-186.58-85.94-270.93-144.39
					c-68.38-47.39-133.21-101.28-205.72-142.41c-57.36-32.54-119.75-51.57-185.95-40.4c-94.98,16.02-179.96,74.51-253.02,134.04
					c-109.12,88.91-206.47,192.18-302.32,294.92c-112.21,120.28-221.78,242.99-334.76,362.55
					c-104.96,111.08-212.5,220.47-328.93,319.65c-90.36,76.97-188.52,153.04-299.6,197.62
					c-353.1,141.74-615.11-219.46-931.77-300.15c-215.82-54.99-423.5,43.31-609,146.09C857.51-885.7,596.75-684.14,338.93-483.99
					C218.81-390.74,99.41-296.26-24.68-208.29c-98.65,69.93-201.85,139.1-315.29,182.78c-217.53,83.77-455.49,10.99-661.4-73.39
					c-118.53-48.58-233.13-105.95-347.58-163.3c-98.8-49.51-197.74-100.83-301.8-138.6c-78.52-28.5-167.13-52.26-250.37-30.82
					c-80.22,20.66-146.93,79.87-200.2,140.71c-69.69,79.59-125,171.22-177.35,262.75c-61.94,108.3-119.34,219.12-181.25,327.43
					c-59.63,104.33-122.99,208.06-201.13,299.76c-66.4,77.93-149,156.18-251.99,178.66c-98.96,21.6-200.91,1.88-294.95-31.31
					c-113.01-39.88-218.78-98.2-323.59-155.62c-114.81-62.9-229.38-127.85-351.31-176.22c-109.85-43.57-228.91-73.59-347.62-56.19
					c-127.38,18.67-239.19,90.65-332.15,176.59c-109.72,101.44-198.91,223.44-283.14,346.17
					c-92.11,134.2-177.78,273.15-276.98,402.37c-88.15,114.83-189.09,223.9-321.16,287.81c-3.93-56.93-9.92-113.57-17.95-170.06
					c135.74-43.9,242.89-139.33,334.24-246c103.28-120.6,189.49-254.85,278-386.31c82.94-123.17,167.01-246.92,267.16-356.98
					c79.99-87.92,174.36-175.71,289.53-213.69c223.86-73.82,463.71,68.54,653.25,172.53c101.51,55.69,202.61,113.59,310.12,157.15
					c91.1,36.91,189.82,64.04,288.94,54.32c47.28-4.64,92.89-16.72,133.61-41.48c42.59-25.89,80.56-58.99,114.93-94.94
					c79.36-82.99,141.73-181.34,199.12-280.26c110.86-191.11,198.77-400.32,335.01-575.59c51.84-66.69,114.17-129.99,193.01-163.74
					c79.92-34.21,168.41-24.27,250.54-3.61c110.9,27.9,216.99,74.14,321.59,119.56C-1370-404.45-1248.03-349-1123.39-299.88
					c125.24,49.36,253.6,93.66,385.99,119.35c108.92,21.14,225.38,31.45,333.84,2.24c113.35-30.53,217.48-90.13,316.2-152.14
					c128.49-80.7,251.22-170.43,373.56-260.05c269.78-197.63,537.01-400.19,822.06-575.7c106.71-65.7,217.03-132.34,334.08-178.17
					c78.91-30.9,161.24-46.37,245.72-33.56c163.04,24.72,300.42,132.48,437.5,216.06c139.61,85.13,303.55,166.2,470.31,115.95
					c105.31-31.74,197.54-96.67,281.58-165.85c112.99-93.03,215.18-198.9,313.92-306.67c108.4-118.31,212.33-240.59,317.63-361.65
					c97.33-111.9,195.17-224.5,303.77-325.74c75.09-70,159.48-142,260.83-168.93c77.01-20.46,153.71-7.89,225.92,23.33
					c86.94,37.6,165.61,92.92,245.02,143.87c99.75,64.01,201.67,125.61,311.63,170.66c116.08,47.56,242.04,76.82,368.03,65.91
					c120.13-10.4,229.47-71.82,317.75-151.69c193.04-174.64,285.49-424.23,421.93-639.59c62.84-99.19,138.26-190.79,244.88-244.4
					C6227.48-2955.94,6247.21-2905.66,6267.88-2855.73z"/>
			</g>
		</g>
	</g>
</g>
</svg>
